<?xml version="1.0" encoding="UTF-8" standalone="no"?>
<!-- Created with Inkscape (http://www.inkscape.org/) -->

<svg
   xmlns:dc="http://purl.org/dc/elements/1.1/"
   xmlns:cc="http://creativecommons.org/ns#"
   xmlns:rdf="http://www.w3.org/1999/02/22-rdf-syntax-ns#"
   xmlns:svg="http://www.w3.org/2000/svg"
   xmlns="http://www.w3.org/2000/svg"
   xmlns:sodipodi="http://sodipodi.sourceforge.net/DTD/sodipodi-0.dtd"
   xmlns:inkscape="http://www.inkscape.org/namespaces/inkscape"
   id="svg3336"
   version="1.1"
   inkscape:version="0.91 r13725"
   width="405"
   height="360"
   viewBox="0 0 405 360"
   sodipodi:docname="Croquis_Bonhomme - Copie.svg">
  <metadata
     id="metadata3342">
    <rdf:RDF>
      <cc:Work
         rdf:about="">
        <dc:format>image/svg+xml</dc:format>
        <dc:type
           rdf:resource="http://purl.org/dc/dcmitype/StillImage" />
        <dc:title />
      </cc:Work>
    </rdf:RDF>
  </metadata>
  <defs
     id="defs3340" />
  <sodipodi:namedview
     pagecolor="#ffffff"
     bordercolor="#666666"
     borderopacity="1"
     objecttolerance="10"
     gridtolerance="10"
     guidetolerance="10"
     inkscape:pageopacity="0"
     inkscape:pageshadow="2"
     inkscape:window-width="1366"
     inkscape:window-height="705"
     id="namedview3338"
     showgrid="false"
     inkscape:zoom="1.4888889"
     inkscape:cx="204.28449"
     inkscape:cy="189.63142"
     inkscape:window-x="-8"
     inkscape:window-y="-8"
     inkscape:window-maximized="1"
     inkscape:current-layer="svg3336" />
  <path
     style="opacity:0.96799999;fill:#ffffff;fill-opacity:1;stroke:#ffffff;stroke-width:3.331;stroke-miterlimit:4;stroke-dasharray:none;stroke-opacity:1"
     d="m 261.50837,329.22731 c -29.51278,-1.64746 -64.08909,-6.03921 -102.42537,-13.00968 -17.17269,-3.12241 -17.12687,-3.11062 -17.12687,-4.40648 0,-0.54411 1.38139,-6.49296 3.06974,-13.21967 14.46938,-57.6484 31.45592,-100.00323 50.21639,-125.2113 18.03402,-24.23194 37.56452,-32.91351 58.71014,-26.09746 5.24345,1.69017 5.54104,1.88993 5.54104,3.71957 0,1.44452 2.51848,5.30124 9.95884,15.25063 30.10562,40.25779 44.97906,66.05739 53.27016,92.40285 2.77433,8.81561 2.80358,9.01534 3.10701,21.22031 0.20125,8.09452 0.0293,13.72873 -0.5011,16.42497 -1.82893,9.2963 -9.46799,20.20873 -19.24027,27.48485 -3.30918,2.46391 -6.85484,4.79849 -7.87924,5.18797 -1.69465,0.64431 -26.61559,0.81641 -36.70047,0.25344 z"
     id="path4138"
     inkscape:connector-curvature="0" />
  <path
     style="fill:#d8d6d6;fill-opacity:1;stroke:#d8d6d6;stroke-width:8.73134327;stroke-miterlimit:4;stroke-dasharray:none;stroke-opacity:1"
     d="m 311.10449,325.71614 c 5.4211,-3.97359 12.03832,-12.06098 15.25277,-18.64151 3.75855,-7.69441 4.22589,-10.38155 4.20521,-24.17911 -0.0172,-11.4529 -0.21104,-13.81367 -1.5444,-18.80597 -1.73695,-6.50339 -6.06145,-19.47833 -6.8276,-20.48507 -0.28112,-0.3694 -0.74097,-1.42724 -1.0219,-2.35075 -0.83727,-2.75245 -6.99632,-15.25764 -11.41249,-23.17164 -5.40091,-9.6787 -12.49454,-20.91125 -19.51126,-30.89552 -3.1153,-4.43284 -6.38508,-9.11754 -7.26617,-10.41045 -0.8811,-1.29291 -4.63848,-6.27661 -8.34974,-11.0749 -3.71127,-4.79828 -12.0102,-16.2229 -11.87492,-16.35818 0.62513,-0.62512 14.88456,14.35914 22.49229,22.02189 18.23185,18.3637 35.69488,44.28463 51.77607,76.85284 9.75746,19.76115 23.98239,39.42363 26.13201,49.77829 0.71329,3.4359 -3.38593,8.68775 -4.9679,12.14322 -3.96125,8.65251 -17.29196,10.00076 -33.3613,13.99685 -4.96055,1.23358 -10.53037,2.42603 -12.37739,2.6499 l -3.35821,0.40702 z"
     id="path4160"
     inkscape:connector-curvature="0"
     sodipodi:nodetypes="ssssssssssssssssscs"
     inkscape:export-xdpi="260.78418"
     inkscape:export-ydpi="260.78418" />
  <path
     style="fill:none;fill-rule:evenodd;stroke:#000000;stroke-width:13;stroke-linecap:butt;stroke-linejoin:miter;stroke-opacity:1;stroke-miterlimit:4;stroke-dasharray:none"
     d="m 133.32182,318.23614 c 86.60466,-385.073328 240.95514,-36.48018 235.07287,-14.95028 -13.33031,48.7907 -136.33875,34.96066 -235.07287,14.95028 z"
     id="path4156"
     inkscape:connector-curvature="0"
     sodipodi:nodetypes="csc"
     inkscape:export-xdpi="260.78418"
     inkscape:export-ydpi="260.78418" />
  <ellipse
     style="fill:#ffc477;fill-opacity:1;fill-rule:evenodd;stroke:#000000;stroke-width:6.89530277;stroke-linecap:butt;stroke-linejoin:miter;stroke-miterlimit:4;stroke-dasharray:none;stroke-opacity:1;opacity:1"
     id="path3346"
     cx="230.37314"
     cy="77.910454"
     rx="65.301743"
     ry="59.256962"
     inkscape:export-xdpi="260.78418"
     inkscape:export-ydpi="260.78418" />
  <path
     style="opacity:1;fill:#e3ae75;fill-opacity:1;stroke:#e3ae75;stroke-width:8.73134327;stroke-miterlimit:4;stroke-dasharray:none;stroke-opacity:1"
     d="m 258.96839,122.34437 c 13.31207,-15.38988 23.52409,-30.459144 22.04624,-58.790084 -0.48426,-9.28346 2.05531,-14.561107 2.88052,-14.402187 0.90937,0.17513 2.9588,8.338197 5.25173,13.773407 1.18356,2.80554 3.48745,14.43351 3.48745,17.60152 0,2.9153 -2.44894,15.674548 -3.33152,17.357588 -0.32308,0.61611 -1.40163,2.782516 -2.39676,4.814236 -2.11321,4.31445 -4.94365,8.28762 -8.7388,12.26693 -2.88544,3.02545 -9.30942,8.55397 -9.93947,8.55397 -0.20727,0 -1.73464,0.91636 -3.39415,2.03635 -1.65952,1.11999 -4.01702,2.37846 -5.2389,2.79659 -1.22187,0.41812 -2.37271,0.93739 -2.55741,1.15394 -0.65277,0.7653 -5.17341,2.40442 -6.71642,3.3366 -2.79501,-0.61382 5.3224,-6.5257 8.64749,-10.49886 z"
     id="path4162"
     inkscape:connector-curvature="0"
     sodipodi:nodetypes="cssssssssssccc"
     inkscape:export-xdpi="260.78418"
     inkscape:export-ydpi="260.78418" />
  <ellipse
     style="opacity:1;fill:none;fill-opacity:1;fill-rule:evenodd;stroke:#000000;stroke-width:6.89530277;stroke-linecap:butt;stroke-linejoin:miter;stroke-miterlimit:4;stroke-dasharray:none;stroke-opacity:1"
     id="path3346-6"
     cx="230.37314"
     cy="77.910454"
     rx="65.301743"
     ry="59.256962"
     inkscape:export-xdpi="260.78418"
     inkscape:export-ydpi="260.78418" />
</svg>
