<?xml version="1.0" encoding="UTF-8" standalone="no"?>
<!-- Created with Inkscape (http://www.inkscape.org/) -->

<svg
   xmlns:dc="http://purl.org/dc/elements/1.1/"
   xmlns:cc="http://creativecommons.org/ns#"
   xmlns:rdf="http://www.w3.org/1999/02/22-rdf-syntax-ns#"
   xmlns:svg="http://www.w3.org/2000/svg"
   xmlns="http://www.w3.org/2000/svg"
   xmlns:sodipodi="http://sodipodi.sourceforge.net/DTD/sodipodi-0.dtd"
   xmlns:inkscape="http://www.inkscape.org/namespaces/inkscape"
   width="352.76117"
   height="417.56369"
   viewBox="0 0 352.76118 417.5637"
   id="svg4253"
   version="1.1"
   inkscape:version="0.91 r13725"
   sodipodi:docname="Arbre.svg">
  <defs
     id="defs4255" />
  <sodipodi:namedview
     id="base"
     pagecolor="#ffffff"
     bordercolor="#666666"
     borderopacity="1.0"
     inkscape:pageopacity="0.0"
     inkscape:pageshadow="2"
     inkscape:zoom="0.76289062"
     inkscape:cx="384.47439"
     inkscape:cy="202.69107"
     inkscape:document-units="px"
     inkscape:current-layer="layer1"
     showgrid="false"
     units="px"
     fit-margin-top="0"
     fit-margin-left="0"
     fit-margin-right="0"
     fit-margin-bottom="0"
     inkscape:window-width="1366"
     inkscape:window-height="705"
     inkscape:window-x="-8"
     inkscape:window-y="-8"
     inkscape:window-maximized="1" />
  <metadata
     id="metadata4258">
    <rdf:RDF>
      <cc:Work
         rdf:about="">
        <dc:format>image/svg+xml</dc:format>
        <dc:type
           rdf:resource="http://purl.org/dc/dcmitype/StillImage" />
        <dc:title></dc:title>
      </cc:Work>
    </rdf:RDF>
  </metadata>
  <g
     inkscape:label="Calque 1"
     inkscape:groupmode="layer"
     id="layer1"
     transform="translate(-25.483219,-586.00737)">
    <g
       id="g4954"
       transform="translate(-499.41628,20.972862)">
      <path
         sodipodi:nodetypes="ccccccccccccccccc"
         inkscape:connector-curvature="0"
         id="path4886-7"
         d="m 655.56085,840.17081 c -17.72579,12.14089 -35.3045,25.35336 -58.98618,-5.89862 -26.79635,-0.95847 -40.92592,-14.99232 -40.63492,-43.91193 -22.13498,-14.21085 -25.1618,-35.20201 -20.31746,-58.98617 -15.42097,-20.74294 -10.61935,-46.01618 7.86483,-48.49975 -2.1764,-12.4485 3.93537,-20.75291 15.72964,-26.21607 -6.36482,-20.0032 3.17692,-22.22847 11.14183,-26.21608 2.17012,-15.71716 12.96884,-28.53339 36.04712,-23.92218 8.14014,-9.4899 14.82206,-17.57045 25.56067,-11.46953 11.06795,-23.1515 28.1938,-21.20602 45.22273,-19.66205 28.27317,-18.53302 39.61103,-3.19543 55.70917,2.6216 28.64969,-11.49644 43.63043,-1.12256 50.46595,22.28367 11.6242,1.30606 23.90567,0.81957 26.21608,27.52688 31.29884,-4.09791 42.27415,10.47986 41.29032,36.04711 10.61318,11.01509 19.50601,23.75051 13.76344,51.12135 8.02837,19.68223 24.86733,36.12792 -7.86482,70.78341 -8.54565,46.17913 -34.30918,55.77025 -70.78342,42.60113"
         style="fill:none;fill-rule:evenodd;stroke:#277409;stroke-width:3;stroke-linecap:butt;stroke-linejoin:miter;stroke-miterlimit:4;stroke-dasharray:none;stroke-opacity:1" />
      <path
         transform="translate(0,552.36216)"
         inkscape:connector-curvature="0"
         id="path4912"
         d="m 621.21755,298.71413 c -5.69703,-1.39309 -11.3075,-5.12788 -17.67345,-11.76489 -3.603,-3.75642 -7.27017,-6.82985 -8.14926,-6.82985 -3.58969,0 -16.03123,-3.05306 -19.35822,-4.75036 -11.18256,-5.70492 -18.27005,-19.33959 -18.30323,-35.21107 -0.006,-2.8706 -0.54913,-3.72543 -3.79705,-5.97625 -14.57649,-10.1015 -20.66497,-27.18145 -17.43374,-48.90669 0.99216,-6.67083 0.95222,-6.97103 -1.40042,-10.52611 -6.45367,-9.75216 -8.48508,-24.53947 -4.44904,-32.38608 2.30213,-4.47564 6.72449,-8.46662 10.22916,-9.23134 4.8154,-1.05072 4.85188,-1.09188 4.2583,-4.80391 -1.26195,-7.89177 3.62389,-16.21989 12.14506,-20.70181 3.3778,-1.77664 4.12112,-2.59513 3.70225,-4.0767 -3.58847,-12.692714 -1.97578,-17.725085 7.16586,-22.360878 2.80162,-1.420722 4.40267,-2.841032 4.40267,-3.905656 0,-3.640061 3.10365,-10.451133 6.54261,-14.357997 5.03564,-5.720796 9.59205,-7.43061 20.01089,-7.50919 l 8.47937,-0.06395 5.74531,-5.797865 c 3.15992,-3.188825 6.74877,-6.049719 7.97523,-6.35754 2.24343,-0.563065 6.6639,-0.13636 10.10336,0.975271 1.51007,0.488049 2.26885,-0.189997 4.09256,-3.657093 3.04676,-5.792261 8.64056,-11.352961 13.83667,-13.754805 3.6664,-1.694751 6.14808,-2.01323 16.49168,-2.11642 l 12.17584,-0.121467 7.48578,-3.746754 c 13.20386,-6.608743 20.66286,-6.177047 37.25531,2.156182 4.5455,2.282886 9.0028,4.145321 9.9051,4.138745 0.90231,-0.0066 4.28456,-0.840768 7.51612,-1.853757 6.65947,-2.087522 16.96895,-2.430866 22.57326,-0.751774 5.86621,1.757559 11.3862,7.361762 15.19086,15.422609 1.84904,3.91752 3.67546,7.748406 4.05873,8.513081 0.40855,0.815136 2.61077,1.628921 5.32317,1.967065 7.24873,0.90367 11.07606,2.521123 14.09098,5.954929 2.68178,3.054385 5.63371,10.732982 5.66004,14.723034 0.007,1.054487 0.26416,2.855712 0.57155,4.002724 0.53357,1.991035 0.98989,2.085476 10.07657,2.085476 15.60216,0 23.02252,3.582392 27.84742,13.444127 1.90525,3.894179 2.58953,6.941737 2.9614,13.189103 0.48127,8.08534 0.50561,8.15166 5.02194,13.68598 9.62162,11.79037 12.6761,23.90639 10.04771,39.85577 l -0.91647,5.56127 5.30678,11.58598 5.30678,11.58598 0.0177,9.26878 c 0.0168,8.74458 -0.17037,9.66194 -3.30811,16.22037 -1.82923,3.82338 -5.93761,10.19384 -9.12975,14.15659 -4.87311,6.0495 -6.07338,8.27919 -7.48427,13.90317 -6.4975,25.89976 -18.45197,38.41326 -37.66529,39.42664 -7.30519,0.38531 -17.37491,-0.80601 -22.1462,-2.62005 l -2.31634,-0.88067 3.26541,-6.48424 c 4.54738,-9.02987 8.9585,-20.38402 8.32039,-21.4165 -1.23208,-1.99356 -3.29481,-0.3203 -12.05134,9.77589 -8.55282,9.86128 -9.60058,10.75028 -14.32556,12.15475 -10.49555,3.11976 -13.72325,4.45865 -24.88884,10.32423 -8.82684,4.63698 -11.33519,5.61964 -10.95177,4.29045 0.27354,-0.94823 1.16281,-7.1463 1.97617,-13.77348 0.81336,-6.62718 1.68899,-13.7178 1.94585,-15.75693 0.44689,-3.54774 0.78477,-3.87881 7.84053,-7.68229 4.87337,-2.62704 10.20555,-6.6698 15.7258,-11.92304 l 8.35229,-7.94826 0,-7.77313 0,-7.77313 -3.47579,-0.0624 c -1.91169,-0.0343 -8.58768,-0.57753 -14.83553,-1.20715 l -11.35974,-1.14474 -10.56083,19.51299 c -8.43295,15.58134 -11.44161,22.19285 -14.93218,32.81326 -4.07078,12.38574 -4.57109,13.38189 -7.27611,14.48732 -6.70212,2.73883 -6.54977,2.78994 -8.89958,-2.98623 -5.3238,-13.08665 -10.55786,-22.97438 -18.87927,-35.66505 -6.48863,-9.89554 -9.33013,-13.4972 -10.34216,-13.10884 -0.76748,0.29448 -1.39542,1.13797 -1.39542,1.87438 0,0.73642 2.90867,13.4937 6.46371,28.34953 3.55505,14.85583 6.33637,27.13795 6.18073,27.29359 -1.32302,1.32303 -30.66782,-13.54717 -40.57985,-20.56343 l -7.08065,-5.01208 -2.61989,-10.74185 c -1.44095,-5.90801 -2.8471,-11.10946 -3.12478,-11.55877 -0.36083,-0.58384 -37.85055,2.5292 -43.5852,3.61919 -0.25489,0.0485 1.62204,1.39254 4.17095,2.98688 7.51689,4.7018 15.20828,10.86007 24.09884,19.29522 4.58805,4.35302 14.2697,12.37403 21.51478,17.82445 l 13.17288,9.90985 -6.92047,4.31334 c -6.86782,4.28052 -16.35809,7.91122 -20.20302,7.72908 -1.1016,-0.0522 -3.25419,-0.40086 -4.78354,-0.77483 z"
         style="opacity:1;fill:#61e52f;fill-opacity:1;stroke:#61e52f;stroke-width:2.78063488;stroke-linecap:round;stroke-linejoin:round;stroke-miterlimit:4;stroke-dasharray:none;stroke-opacity:1" />
      <path
         sodipodi:nodetypes="cccccc"
         inkscape:connector-curvature="0"
         id="path4935-1"
         d="m 814.53059,810.09971 c 1.92914,3.50717 -20.32068,15.80573 -31.9773,-1.85375 -16.19415,-2.7165 -17.10661,-2.18304 -21.78164,-10.6591 18.35526,7.0398 9.78428,-21.18983 13.43973,-22.70853 10.85924,2.27974 26.87195,20.24019 47.73424,18.07413 10.53529,14.97204 -1.18213,12.23613 -7.41503,17.14725 z"
         style="fill:#2fbb00;fill-opacity:1;fill-rule:evenodd;stroke:none;stroke-width:1px;stroke-linecap:butt;stroke-linejoin:miter;stroke-opacity:1" />
      <path
         sodipodi:nodetypes="cccccc"
         inkscape:connector-curvature="0"
         id="path4935"
         d="m 654.37609,839.18015 c -10.37783,-2.08691 -20.02929,5.9953 -31.51386,-11.58598 -16.19415,-2.7165 -16.64317,-13.30558 -21.3182,-21.78164 11.17232,3.44833 22.29529,6.84732 31.05042,7.87846 l 21.78164,16.68381 z"
         style="fill:#2fbb00;fill-opacity:1;fill-rule:evenodd;stroke:none;stroke-width:1px;stroke-linecap:butt;stroke-linejoin:miter;stroke-opacity:1" />
      <path
         transform="translate(0,552.36216)"
         inkscape:connector-curvature="0"
         id="path4931"
         d="m 676.03191,278.55753 c -14.68705,-6.62327 -37.69456,-20.60315 -37.69456,-22.90406 0,-0.55484 2.54422,-0.64536 6.68129,-0.2377 5.93255,0.58458 7.00115,0.99751 9.53553,3.68474 3.19013,3.38251 4.88802,3.80073 18.07768,4.45279 4.84294,0.23942 9.50123,0.70914 10.35176,1.04382 2.53132,0.99605 5.76909,18.08273 3.42493,18.0744 -0.69511,-0.002 -5.36459,-1.85376 -10.37663,-4.11399 z"
         style="opacity:1;fill:#268c02;fill-opacity:1;stroke:#268c02;stroke-width:3;stroke-linecap:round;stroke-linejoin:round;stroke-miterlimit:4;stroke-dasharray:none;stroke-opacity:1" />
      <path
         transform="translate(0,552.36216)"
         inkscape:connector-curvature="0"
         id="path4933"
         d="m 707.23779,278.24675 c -0.59339,-0.37369 -2.5628,-3.93568 -4.37648,-7.91555 l -3.29761,-7.23611 3.42872,-1.43261 c 1.8858,-0.78794 5.21428,-2.66111 7.39663,-4.1626 2.18234,-1.5015 4.36578,-2.48409 4.85208,-2.18354 0.4863,0.30055 2.74664,0.58384 5.02296,0.62953 l 4.13878,0.0831 -2.7939,7.99399 c -4.02726,11.52291 -4.6087,12.2517 -11.43855,14.3372 -1.01957,0.31133 -2.33925,0.26031 -2.93263,-0.11338 z"
         style="opacity:1;fill:#268c02;fill-opacity:1;stroke:#268c02;stroke-width:2.78063488;stroke-linecap:round;stroke-linejoin:round;stroke-miterlimit:4;stroke-dasharray:none;stroke-opacity:1" />
      <path
         sodipodi:nodetypes="cccccccccccccccccccccccccccccccccc"
         inkscape:connector-curvature="0"
         id="path4812-1"
         d="m 726.99966,974.85594 -13.76344,-8.848 -27.85458,1e-4 -24.57758,4.5878 20.64516,-23.2668 c 1.74774,-18.42949 3.49548,-30.78638 5.24323,-43.25654 -2.13387,-7.56983 -4.35349,-15.1075 0.32769,-25.23297 0.48217,-7.3124 0.16401,-14.09125 -1.9662,-19.66206 -20.31746,-14.18669 -40.63493,-26.84646 -60.95239,-44.23963 -11.65176,-12.05247 -20.65872,-18.81532 -28.83768,-23.92217 l 37.03021,-3.60471 5.57091,21.95596 c 16.98587,13.54486 33.70002,21.62254 52.43216,28.18229 l -14.41884,-60.29699 15.07424,23.26678 c 2.50875,2.41339 8.56657,16.18379 15.40195,32.44239 l 11.79723,-3.93242 9.83103,-29.16537 19.98976,-36.37482 26.87148,2.62161 -0.6554,12.45264 c -5.30514,5.02962 -3.96963,5.63214 -16.38505,15.40195 -4.50038,2.73084 -8.88052,5.46168 -15.07424,8.19252 0.30494,5.94567 -2.39207,24.20928 -4.58782,39.32411 10.92337,-5.35245 20.57964,-11.97199 32.7701,-16.05735 5.26328,-0.53613 8.13209,-2.2695 11.79724,-3.6047 l 19.00665,-21.62827 c -4.88239,10.57777 -4.94649,15.37358 -17.69585,35.39171 -21.2247,8.55394 -37.65816,20.11119 -51.12136,32.11469 -1.46991,23.21812 -0.0807,33.57014 10e-6,49.81055 1.85697,8.34228 4.69704,19.45265 6.55402,24.57757 l 22.61136,37.03023 c -13.71655,-6.4448 -24.12437,-12.8896 -35.3917,-19.3344 z"
         style="fill:#9b6600;fill-opacity:1;fill-rule:evenodd;stroke:#744801;stroke-width:3;stroke-linecap:butt;stroke-linejoin:miter;stroke-miterlimit:4;stroke-dasharray:none;stroke-opacity:1" />
      <path
         inkscape:connector-curvature="0"
         id="path4864-4-4"
         d="m 667.87742,965.39594 c 1.18205,-1.3518 5.02465,-5.7169 8.53912,-9.7003 l 6.38993,-7.2425 1.04849,-9.79791 c 0.57668,-5.38887 1.78543,-15.33215 2.68611,-22.09616 1.58783,-11.9243 1.60393,-12.42247 0.52966,-16.38505 -1.65992,-6.12282 -1.51863,-13.03425 0.36916,-18.05788 1.39958,-3.72445 1.51521,-4.80995 1.15193,-10.81413 -0.40572,-6.7056 -1.31191,-11.20648 -2.56613,-12.7455 -0.3712,-0.45549 -7.19768,-5.29735 -15.16995,-10.75968 -19.2548,-13.19273 -22.79777,-15.71961 -22.48263,-16.03475 0.14591,-0.14591 3.18253,1.185 6.74804,2.95756 6.26006,3.11214 15.97761,7.11529 26.70734,11.0021 l 5.15035,1.8657 2.56501,4.91806 c 2.36776,4.53987 2.63941,5.62349 3.53252,14.09115 2.03693,19.31222 0.57842,43.95059 -4.68376,79.12214 -0.57853,3.86675 -0.85857,8.06085 -0.62232,9.32015 0.58582,3.1227 3.02752,5.8311 7.07548,7.8483 l 3.39031,1.6895 -6.8743,0 c -4.62204,0 -9.65673,0.5356 -15.36678,1.6349 -4.67086,0.8992 -8.89169,1.6365 -9.37962,1.6385 -0.51987,0 0.003,-1.0139 1.26204,-2.4542 z"
         style="opacity:1;fill:#c78300;fill-opacity:1;stroke:none;stroke-width:1.96620584;stroke-linecap:round;stroke-linejoin:round;stroke-miterlimit:4;stroke-dasharray:none;stroke-opacity:1" />
      <path
         inkscape:connector-curvature="0"
         id="path4866-6-3"
         d="m 740.83458,954.35664 c -7.6748,-7.1678 -12.17923,-10.49691 -18.1467,-13.41161 -5.52241,-2.69732 -4.98809,-1.57462 -5.69731,-11.97086 -0.89204,-13.07601 -1.03302,-21.6683 -0.52088,-31.74558 0.28499,-5.60762 0.72567,-14.88161 0.97929,-20.60888 0.54239,-12.24816 0.67461,-12.66781 5.63757,-17.89252 5.20997,-5.48473 13.51853,-10.57374 21.71959,-13.30326 1.92946,-0.64218 5.82667,-2.3304 8.66046,-3.75159 2.83379,-1.4212 8.65857,-4.16823 12.94397,-6.10451 10.29538,-4.65178 11.30184,-5.27981 13.89872,-8.6728 1.21648,-1.58941 2.63405,-3.22948 3.15017,-3.6446 0.51612,-0.41513 3.32566,-3.48486 6.24344,-6.82162 2.91777,-3.33677 5.39699,-5.97489 5.50938,-5.8625 0.35101,0.35101 -6.64903,14.129 -9.73122,19.15369 l -2.93696,4.78792 -3.70751,1.59333 c -15.67141,6.73489 -31.5668,16.90315 -46.15617,29.52605 l -2.04151,1.76633 0.046,25.34486 0.046,25.34486 1.95097,7.64675 c 4.09487,16.04966 4.23225,16.40702 9.79658,25.48334 2.79181,4.554 5.07602,8.3994 5.07602,8.5455 0,0.7221 -1.16613,-0.2154 -6.71986,-5.4023 z"
         style="opacity:1;fill:#8a5d00;fill-opacity:1;stroke:none;stroke-width:3;stroke-linecap:round;stroke-linejoin:round;stroke-miterlimit:4;stroke-dasharray:none;stroke-opacity:1" />
      <path
         sodipodi:nodetypes="cccccccccccccccccccc"
         inkscape:connector-curvature="0"
         id="path4914-9"
         d="m 673.64045,814.94686 c -13.35156,2.19344 -19.05135,-1.1394 -21.3182,-6.95159 -13.84416,-1.59997 -28.87173,2.24375 -39.85576,-12.51285 -25.96451,-0.68489 -20.82974,-9.8514 -20.85477,-17.61069 -14.97343,-10.35173 -21.20351,-21.9525 -6.02471,-36.61169 -3.77362,-17.5467 -16.34165,-38.324 8.34191,-45.41704 -0.90317,-19.85229 -4.11445,-41.56232 19.46444,-41.70953 1.9997,-14.42949 10.05172,-20.78922 23.17196,-20.39132 4.58076,-11.87435 13.83307,-17.59075 31.9773,-11.58598 18.36989,-17.19875 24.17482,0.60487 34.75794,5.09783 8.1195,-11.40795 17.68021,-10.20531 28.26979,0 14.8995,-4.66123 30.54069,-11.49454 37.07513,8.34191 15.3741,-0.0477 24.74544,4.25139 22.24508,17.14725 18.51319,-7.01837 43.8867,4.62728 25.9526,28.73322 12.764,7.77024 27.81167,13.71354 10.6591,45.41704 13.62567,17.76936 17.52187,34.24146 -14.83006,45.88048 -0.39774,7.50682 -0.14878,15.10388 -26.41603,19.001 -11.58837,6.55954 -18.52286,17.32974 -42.17296,12.9763 -12.55494,2.34442 -27.12444,5.99239 -29.66011,1.85376 -10.93709,9.57107 -24.28652,12.97727 -40.78265,8.3419 z"
         style="fill:#42cb01;fill-opacity:1;fill-rule:evenodd;stroke:none;stroke-width:1px;stroke-linecap:butt;stroke-linejoin:miter;stroke-opacity:1" />
      <path
         transform="translate(0,552.36216)"
         inkscape:connector-curvature="0"
         id="path4952"
         d="m 740.48184,284.41992 c 0.41835,-2.03036 2.95748,-21.34014 3.27551,-24.90986 0.15896,-1.78424 0.39658,-3.99831 0.52805,-4.92015 l 0.23902,-1.67607 7.26888,0.21973 c 5.66279,0.17119 7.96554,0.0553 10.42188,-0.52434 2.72548,-0.64318 3.32245,-0.65653 4.40267,-0.0984 1.71745,0.88735 4.05916,1.47137 10.25296,2.55708 l 5.29579,0.92829 2.59204,2.79243 2.59204,2.79242 -2.75419,3.21597 c -2.52314,2.94618 -3.06821,3.33228 -6.49751,4.60247 -2.05882,0.76258 -5.19479,1.71949 -6.96882,2.12647 -4.29977,0.98641 -11.19778,4.08284 -21.41292,9.61199 -4.62992,2.50604 -8.66104,4.55644 -8.95802,4.55644 -0.34377,0 -0.44456,-0.4631 -0.27738,-1.27445 z"
         style="opacity:1;fill:#268c02;fill-opacity:1;stroke:#268c02;stroke-width:3;stroke-linecap:round;stroke-linejoin:round;stroke-miterlimit:4;stroke-dasharray:none;stroke-opacity:1" />
    </g>
  </g>
</svg>
