<?xml version="1.0" encoding="UTF-8" standalone="no"?>
<!-- Created with Inkscape (http://www.inkscape.org/) -->

<svg
   xmlns:dc="http://purl.org/dc/elements/1.1/"
   xmlns:cc="http://creativecommons.org/ns#"
   xmlns:rdf="http://www.w3.org/1999/02/22-rdf-syntax-ns#"
   xmlns:svg="http://www.w3.org/2000/svg"
   xmlns="http://www.w3.org/2000/svg"
   xmlns:sodipodi="http://sodipodi.sourceforge.net/DTD/sodipodi-0.dtd"
   xmlns:inkscape="http://www.inkscape.org/namespaces/inkscape"
   width="366.86105"
   height="445.61099"
   viewBox="0 0 366.86106 445.611"
   id="svg4854"
   version="1.1"
   inkscape:version="0.91 r13725"
   sodipodi:docname="Bouclier_Jeu_Projet_Final.svg">
  <defs
     id="defs4856" />
  <sodipodi:namedview
     id="base"
     pagecolor="#ffffff"
     bordercolor="#666666"
     borderopacity="1.0"
     inkscape:pageopacity="0.0"
     inkscape:pageshadow="2"
     inkscape:zoom="0.49497475"
     inkscape:cx="-70.872235"
     inkscape:cy="181.17084"
     inkscape:document-units="px"
     inkscape:current-layer="layer1"
     showgrid="false"
     units="px"
     inkscape:window-width="1366"
     inkscape:window-height="705"
     inkscape:window-x="-8"
     inkscape:window-y="-8"
     inkscape:window-maximized="1"
     showguides="false"
     fit-margin-top="0"
     fit-margin-left="0"
     fit-margin-right="0"
     fit-margin-bottom="0" />
  <metadata
     id="metadata4859">
    <rdf:RDF>
      <cc:Work
         rdf:about="">
        <dc:format>image/svg+xml</dc:format>
        <dc:type
           rdf:resource="http://purl.org/dc/dcmitype/StillImage" />
        <dc:title></dc:title>
      </cc:Work>
    </rdf:RDF>
  </metadata>
  <g
     inkscape:label="Calque 1"
     inkscape:groupmode="layer"
     id="layer1"
     transform="translate(-46.803264,-588.14019)">
    <path
       style="fill:#3c2019;fill-opacity:1;fill-rule:evenodd;stroke:#000000;stroke-width:1px;stroke-linecap:butt;stroke-linejoin:miter;stroke-opacity:1"
       d="m 48.487323,636.17931 c 74.805097,2.76774 134.279557,-21.10001 187.888367,-47.47717 62.21205,33.2822 117.23523,47.32155 176.7767,56.56854 -3.79748,137.9513 -5.50937,276.20931 -187.88837,387.89862 C 101.4581,961.51032 37.653588,834.39956 48.487323,636.17931 Z"
       id="path5413"
       inkscape:connector-curvature="0"
       sodipodi:nodetypes="ccccc" />
    <path
       style="fill:#b3aba5;fill-opacity:1;fill-rule:evenodd;stroke:#000000;stroke-width:0.89798981px;stroke-linecap:butt;stroke-linejoin:miter;stroke-opacity:1"
       d="M 66.579264,652.48204 C 133.75348,654.96745 187.16094,633.53445 235.3011,609.84803 291.1669,639.7351 340.57715,652.3423 394.04478,660.646 390.63468,784.52486 389.09742,908.67914 225.32295,1008.975 114.14649,944.62597 56.850681,830.48181 66.579264,652.48204 Z"
       id="path5413-9"
       inkscape:connector-curvature="0"
       sodipodi:nodetypes="ccccc" />
    <path
       style="fill:#2f3571;fill-opacity:1;fill-rule:evenodd;stroke:none;stroke-width:1px;stroke-linecap:butt;stroke-linejoin:miter;stroke-opacity:1"
       d="m 378.49557,813.60902 c -104.33931,16.47016 -196.77689,12.28908 -298.453671,-0.65301 0,0 -4.576703,-17.81398 -6.299646,-27.31387 -1.948214,-10.74198 -4.633461,-33.41258 -4.633461,-33.41258 94.233518,10.4181 201.583598,14.93378 319.911988,-0.71429"
       id="path5432"
       inkscape:connector-curvature="0"
       sodipodi:nodetypes="ccscc" />
    <path
       style="fill:#2f3571;fill-opacity:1;fill-rule:evenodd;stroke:none;stroke-width:1px;stroke-linecap:butt;stroke-linejoin:miter;stroke-opacity:1"
       d="m 262.90186,982.69615 c -12.75231,10.21351 -24.99621,17.88495 -37.28899,25.80085 -6.74605,-3.2733 -15.99263,-9.67227 -24.50056,-15.14793 L 200.7626,625.92493 c 12.05303,-5.55584 24.31308,-10.39739 34.13598,-15.95323 13.0587,7.00001 19.51526,10.35498 28.71012,14.34608"
       id="path5432-3"
       inkscape:connector-curvature="0"
       sodipodi:nodetypes="cccccc" />
    <path
       style="fill:#ab823d;fill-opacity:1;fill-rule:evenodd;stroke:#000000;stroke-width:1px;stroke-linecap:butt;stroke-linejoin:miter;stroke-opacity:1"
       d="m 328.56433,697.06331 -203.89853,2.0203 c 1.70763,69.43393 20.15089,177.96038 103.28066,238.77597 81.92773,-69.60118 93.87578,-159.1406 100.61787,-240.79627 z"
       id="path5434"
       inkscape:connector-curvature="0"
       sodipodi:nodetypes="cccc" />
    <path
       style="fill:#daba57;fill-opacity:1;fill-rule:evenodd;stroke:#000000;stroke-width:0.85013342px;stroke-linecap:butt;stroke-linejoin:miter;stroke-opacity:1"
       d="m 313.32999,713.39524 -173.34095,1.71752 c 1.45172,59.0281 17.0959,151.18301 87.7673,202.88438 69.6495,-59.17029 79.84198,-135.18369 85.57365,-204.6019 z"
       id="path5434-8"
       inkscape:connector-curvature="0"
       sodipodi:nodetypes="cccc" />
    <path
       style="fill:#2f3571;fill-opacity:1;fill-rule:evenodd;stroke:none;stroke-width:1px;stroke-linecap:butt;stroke-linejoin:miter;stroke-opacity:1"
       d="m 327.17636,793.02066 c 0,0 6.10594,14.85035 51.35414,19.76541 0,0 1.23162,-4.13911 2.52127,-9.90969 1.10754,-4.95574 3.36116,-17.8133 4.15719,-22.20241 1.94821,-10.74198 3.74958,-28.99316 3.74958,-28.99316 -94.23352,10.4181 -24.02743,22.80823 -41.59311,22.81753"
       id="path5432-6"
       inkscape:connector-curvature="0"
       sodipodi:nodetypes="ccsscc" />
    <path
       style="fill:#857970;fill-opacity:1;fill-rule:evenodd;stroke:#000000;stroke-width:1px;stroke-linecap:butt;stroke-linejoin:miter;stroke-opacity:1"
       d="m 74.285714,647.89787 c -1.334101,0.0971 -2.865753,-0.91345 -3.392857,-2.14285 -0.451635,-1.8611 1.069111,-2.8428 2.5,-3.39286 0.777839,-0.29902 1.840009,-0.50878 2.5,0 0.926198,0.714 1.241163,2.27647 0.892857,3.39286 -0.326893,1.04775 -1.405332,2.06318 -2.5,2.14285 z"
       id="path5503"
       inkscape:connector-curvature="0"
       sodipodi:nodetypes="scssss" />
    <path
       style="fill:#857970;fill-opacity:1;fill-rule:evenodd;stroke:#000000;stroke-width:1px;stroke-linecap:butt;stroke-linejoin:miter;stroke-opacity:1"
       d="m 150.92181,637.07719 c -1.3341,0.0971 -2.86575,-0.91345 -3.39286,-2.14285 -0.45163,-1.8611 1.06911,-2.8428 2.5,-3.39286 0.77784,-0.29902 1.84001,-0.50878 2.5,0 0.9262,0.714 1.24116,2.27647 0.89286,3.39286 -0.32689,1.04775 -1.40533,2.06318 -2.5,2.14285 z"
       id="path5503-3"
       inkscape:connector-curvature="0"
       sodipodi:nodetypes="scssss" />
    <path
       style="fill:#857970;fill-opacity:1;fill-rule:evenodd;stroke:#000000;stroke-width:1px;stroke-linecap:butt;stroke-linejoin:miter;stroke-opacity:1"
       d="m 217.59188,611.82338 c -1.3341,0.0971 -2.86576,-0.91345 -3.39286,-2.14285 -0.45164,-1.8611 1.06911,-2.8428 2.5,-3.39286 0.77784,-0.29902 1.84001,-0.50878 2.5,0 0.9262,0.714 1.24116,2.27647 0.89286,3.39286 -0.3269,1.04775 -1.40534,2.06318 -2.5,2.14285 z"
       id="path5503-8"
       inkscape:connector-curvature="0"
       sodipodi:nodetypes="scssss" />
    <path
       style="fill:#857970;fill-opacity:1;fill-rule:evenodd;stroke:#000000;stroke-width:1px;stroke-linecap:butt;stroke-linejoin:miter;stroke-opacity:1"
       d="m 235.77462,602.73201 c -1.3341,0.0971 -2.86575,-0.91345 -3.39285,-2.14285 -0.45164,-1.8611 1.06911,-2.8428 2.5,-3.39286 0.77783,-0.29902 1.84,-0.50878 2.5,0 0.92619,0.714 1.24116,2.27647 0.89285,3.39286 -0.32689,1.04775 -1.40533,2.06318 -2.5,2.14285 z"
       id="path5503-4"
       inkscape:connector-curvature="0"
       sodipodi:nodetypes="scssss" />
    <path
       style="fill:#857970;fill-opacity:1;fill-rule:evenodd;stroke:#000000;stroke-width:1px;stroke-linecap:butt;stroke-linejoin:miter;stroke-opacity:1"
       d="m 255.97767,612.83353 c -1.3341,0.0971 -2.86575,-0.91345 -3.39285,-2.14285 -0.45164,-1.8611 1.06911,-2.8428 2.5,-3.39286 0.77784,-0.29902 1.84001,-0.50878 2.5,0 0.92619,0.714 1.24116,2.27647 0.89285,3.39286 -0.32689,1.04775 -1.40533,2.06318 -2.5,2.14285 z"
       id="path5503-2"
       inkscape:connector-curvature="0"
       sodipodi:nodetypes="scssss" />
    <path
       style="fill:#857970;fill-opacity:1;fill-rule:evenodd;stroke:#000000;stroke-width:1px;stroke-linecap:butt;stroke-linejoin:miter;stroke-opacity:1"
       d="m 329.71881,641.1178 c -1.3341,0.0971 -2.86575,-0.91345 -3.39286,-2.14285 -0.45163,-1.8611 1.06911,-2.8428 2.5,-3.39286 0.77784,-0.29902 1.84001,-0.50878 2.5,0 0.9262,0.714 1.24117,2.27647 0.89286,3.39286 -0.32689,1.04775 -1.40533,2.06318 -2.5,2.14285 z"
       id="path5503-85"
       inkscape:connector-curvature="0"
       sodipodi:nodetypes="scssss" />
    <path
       style="fill:#857970;fill-opacity:1;fill-rule:evenodd;stroke:#000000;stroke-width:1px;stroke-linecap:butt;stroke-linejoin:miter;stroke-opacity:1"
       d="m 388.30766,653.23963 c -1.3341,0.0971 -2.86576,-0.91345 -3.39286,-2.14285 -0.45164,-1.8611 1.06911,-2.8428 2.5,-3.39286 0.77784,-0.29902 1.84001,-0.50878 2.5,0 0.9262,0.714 1.24116,2.27647 0.89286,3.39286 -0.3269,1.04775 -1.40534,2.06318 -2.5,2.14285 z"
       id="path5503-83"
       inkscape:connector-curvature="0"
       sodipodi:nodetypes="scssss" />
    <path
       style="fill:#857970;fill-opacity:1;fill-rule:evenodd;stroke:#000000;stroke-width:1px;stroke-linecap:butt;stroke-linejoin:miter;stroke-opacity:1"
       d="m 405.48025,657.28024 c -1.3341,0.0971 -2.86575,-0.91345 -3.39286,-2.14285 -0.45163,-1.8611 1.06911,-2.8428 2.5,-3.39286 0.77784,-0.29902 1.84001,-0.50878 2.5,0 0.9262,0.714 1.24117,2.27647 0.89286,3.39286 -0.32689,1.04775 -1.40533,2.06318 -2.5,2.14285 z"
       id="path5503-42"
       inkscape:connector-curvature="0"
       sodipodi:nodetypes="scssss" />
    <path
       style="fill:#857970;fill-opacity:1;fill-rule:evenodd;stroke:#000000;stroke-width:1px;stroke-linecap:butt;stroke-linejoin:miter;stroke-opacity:1"
       d="m 403.45995,672.43253 c -1.33411,0.0971 -2.86576,-0.91345 -3.39286,-2.14285 -0.45164,-1.8611 1.06911,-2.8428 2.5,-3.39286 0.77784,-0.29902 1.84001,-0.50878 2.5,0 0.9262,0.714 1.24116,2.27647 0.89286,3.39286 -0.3269,1.04775 -1.40534,2.06318 -2.5,2.14285 z"
       id="path5503-30"
       inkscape:connector-curvature="0"
       sodipodi:nodetypes="scssss" />
    <path
       style="fill:#857970;fill-opacity:1;fill-rule:evenodd;stroke:#000000;stroke-width:1px;stroke-linecap:butt;stroke-linejoin:miter;stroke-opacity:1"
       d="m 401.43964,739.1026 c -1.3341,0.0971 -2.86575,-0.91345 -3.39286,-2.14285 -0.45163,-1.8611 1.06911,-2.8428 2.5,-3.39286 0.77784,-0.29902 1.84001,-0.50878 2.5,0 0.9262,0.714 1.24117,2.27647 0.89286,3.39286 -0.32689,1.04775 -1.40533,2.06318 -2.5,2.14285 z"
       id="path5503-5"
       inkscape:connector-curvature="0"
       sodipodi:nodetypes="scssss" />
    <path
       style="fill:#857970;fill-opacity:1;fill-rule:evenodd;stroke:#000000;stroke-width:1px;stroke-linecap:butt;stroke-linejoin:miter;stroke-opacity:1"
       d="m 391.33811,808.80312 c -1.3341,0.0971 -2.86575,-0.91345 -3.39285,-2.14285 -0.45164,-1.8611 1.06911,-2.8428 2.5,-3.39286 0.77784,-0.29902 1.84001,-0.50878 2.5,0 0.9262,0.714 1.24116,2.27647 0.89285,3.39286 -0.32689,1.04775 -1.40533,2.06318 -2.5,2.14285 z"
       id="path5503-9"
       inkscape:connector-curvature="0"
       sodipodi:nodetypes="scssss" />
    <path
       style="fill:#857970;fill-opacity:1;fill-rule:evenodd;stroke:#000000;stroke-width:1px;stroke-linecap:butt;stroke-linejoin:miter;stroke-opacity:1"
       d="m 365.07415,886.58487 c -1.3341,0.0971 -2.86575,-0.91345 -3.39286,-2.14285 -0.45163,-1.8611 1.06911,-2.8428 2.5,-3.39286 0.77784,-0.29902 1.84001,-0.50878 2.5,0 0.9262,0.714 1.24116,2.27647 0.89286,3.39286 -0.32689,1.04775 -1.40533,2.06318 -2.5,2.14285 z"
       id="path5503-94"
       inkscape:connector-curvature="0"
       sodipodi:nodetypes="scssss" />
    <path
       style="fill:#857970;fill-opacity:1;fill-rule:evenodd;stroke:#000000;stroke-width:1px;stroke-linecap:butt;stroke-linejoin:miter;stroke-opacity:1"
       d="m 307.49545,960.32601 c -1.3341,0.0971 -2.86575,-0.91345 -3.39285,-2.14285 -0.45164,-1.8611 1.06911,-2.8428 2.5,-3.39286 0.77784,-0.29902 1.84001,-0.50878 2.5,0 0.92619,0.714 1.24116,2.27647 0.89285,3.39286 -0.32689,1.04775 -1.40533,2.06318 -2.5,2.14285 z"
       id="path5503-50"
       inkscape:connector-curvature="0"
       sodipodi:nodetypes="scssss" />
    <path
       style="fill:#857970;fill-opacity:1;fill-rule:evenodd;stroke:#000000;stroke-width:1px;stroke-linecap:butt;stroke-linejoin:miter;stroke-opacity:1"
       d="m 225.6731,1022.9555 c -1.3341,0.097 -2.86576,-0.9135 -3.39286,-2.1429 -0.45163,-1.8611 1.06911,-2.8428 2.5,-3.3928 0.77784,-0.2991 1.84001,-0.5088 2.5,0 0.9262,0.714 1.24116,2.2764 0.89286,3.3928 -0.3269,1.0478 -1.40533,2.0632 -2.5,2.1429 z"
       id="path5503-92"
       inkscape:connector-curvature="0"
       sodipodi:nodetypes="scssss" />
    <path
       style="fill:#857970;fill-opacity:1;fill-rule:evenodd;stroke:#000000;stroke-width:1px;stroke-linecap:butt;stroke-linejoin:miter;stroke-opacity:1"
       d="m 244.866,1013.8641 c -1.33411,0.097 -2.86576,-0.9135 -3.39286,-2.1429 -0.45164,-1.8611 1.06911,-2.8428 2.5,-3.3928 0.77784,-0.299 1.84001,-0.5088 2.5,0 0.9262,0.714 1.24116,2.2765 0.89286,3.3928 -0.3269,1.0478 -1.40534,2.0632 -2.5,2.1429 z"
       id="path5503-22"
       inkscape:connector-curvature="0"
       sodipodi:nodetypes="scssss" />
    <path
       style="fill:#857970;fill-opacity:1;fill-rule:evenodd;stroke:#000000;stroke-width:1px;stroke-linecap:butt;stroke-linejoin:miter;stroke-opacity:1"
       d="m 208.5005,1011.8438 c -1.3341,0.097 -2.86575,-0.9135 -3.39285,-2.1429 -0.45164,-1.8611 1.06911,-2.8428 2.5,-3.3928 0.77784,-0.299 1.84001,-0.5088 2.5,0 0.92619,0.714 1.24116,2.2764 0.89285,3.3928 -0.32689,1.0478 -1.40533,2.0632 -2.5,2.1429 z"
       id="path5503-1"
       inkscape:connector-curvature="0"
       sodipodi:nodetypes="scssss" />
    <path
       style="fill:#857970;fill-opacity:1;fill-rule:evenodd;stroke:#000000;stroke-width:1px;stroke-linecap:butt;stroke-linejoin:miter;stroke-opacity:1"
       d="m 151.93196,969.41738 c -1.3341,0.0971 -2.86575,-0.91345 -3.39286,-2.14285 -0.45163,-1.8611 1.06912,-2.8428 2.5,-3.39286 0.77784,-0.29902 1.84001,-0.50878 2.5,0 0.9262,0.714 1.24117,2.27647 0.89286,3.39286 -0.32689,1.04775 -1.40533,2.06318 -2.5,2.14285 z"
       id="path5503-90"
       inkscape:connector-curvature="0"
       sodipodi:nodetypes="scssss" />
    <path
       style="fill:#857970;fill-opacity:1;fill-rule:evenodd;stroke:#000000;stroke-width:1px;stroke-linecap:butt;stroke-linejoin:miter;stroke-opacity:1"
       d="m 103.44464,899.71685 c -1.3341,0.0971 -2.86575,-0.91345 -3.39286,-2.14285 -0.451633,-1.8611 1.06911,-2.8428 2.5,-3.39286 0.77784,-0.29902 1.84001,-0.50878 2.5,0 0.9262,0.714 1.24117,2.27647 0.89286,3.39286 -0.32689,1.04775 -1.40533,2.06318 -2.5,2.14285 z"
       id="path5503-7"
       inkscape:connector-curvature="0"
       sodipodi:nodetypes="scssss" />
    <path
       style="fill:#857970;fill-opacity:1;fill-rule:evenodd;stroke:#000000;stroke-width:1px;stroke-linecap:butt;stroke-linejoin:miter;stroke-opacity:1"
       d="m 69.099453,815.87419 c -1.334101,0.0971 -2.865753,-0.91345 -3.392857,-2.14285 -0.451635,-1.8611 1.069111,-2.8428 2.5,-3.39286 0.777839,-0.29902 1.840009,-0.50878 2.5,0 0.926198,0.714 1.241163,2.27647 0.892857,3.39286 -0.326893,1.04775 -1.405332,2.06318 -2.5,2.14285 z"
       id="path5503-10"
       inkscape:connector-curvature="0"
       sodipodi:nodetypes="scssss" />
    <path
       style="fill:#857970;fill-opacity:1;fill-rule:evenodd;stroke:#000000;stroke-width:1px;stroke-linecap:butt;stroke-linejoin:miter;stroke-opacity:1"
       d="m 54.957317,739.1026 c -1.334101,0.0971 -2.865753,-0.91345 -3.392857,-2.14285 -0.451635,-1.8611 1.069111,-2.8428 2.5,-3.39286 0.777839,-0.29902 1.840009,-0.50878 2.5,0 0.926198,0.714 1.241163,2.27647 0.892857,3.39286 -0.326893,1.04775 -1.405332,2.06318 -2.5,2.14285 z"
       id="path5503-0"
       inkscape:connector-curvature="0"
       sodipodi:nodetypes="scssss" />
    <path
       style="fill:#857970;fill-opacity:1;fill-rule:evenodd;stroke:#000000;stroke-width:1px;stroke-linecap:butt;stroke-linejoin:miter;stroke-opacity:1"
       d="m 57.987775,649.19902 c -1.334101,0.0971 -2.865753,-0.91345 -3.392857,-2.14285 -0.451635,-1.8611 1.069111,-2.8428 2.5,-3.39286 0.777839,-0.29902 1.840009,-0.50878 2.5,0 0.926198,0.714 1.241163,2.27647 0.892857,3.39286 -0.326893,1.04775 -1.405332,2.06318 -2.5,2.14285 z"
       id="path5503-49"
       inkscape:connector-curvature="0"
       sodipodi:nodetypes="scssss" />
    <path
       style="fill:#857970;fill-opacity:1;fill-rule:evenodd;stroke:#000000;stroke-width:1px;stroke-linecap:butt;stroke-linejoin:miter;stroke-opacity:1"
       d="m 56.977622,663.34116 c -1.334101,0.0971 -2.865753,-0.91345 -3.392857,-2.14285 -0.451635,-1.8611 1.069111,-2.8428 2.5,-3.39286 0.777839,-0.29902 1.840009,-0.50878 2.5,0 0.926198,0.714 1.241163,2.27647 0.892857,3.39286 -0.326893,1.04775 -1.405332,2.06318 -2.5,2.14285 z"
       id="path5503-84"
       inkscape:connector-curvature="0"
       sodipodi:nodetypes="scssss" />
  </g>
</svg>
