<?xml version="1.0" encoding="UTF-8" standalone="no"?>
<!-- Created with Inkscape (http://www.inkscape.org/) -->

<svg
   xmlns:dc="http://purl.org/dc/elements/1.1/"
   xmlns:cc="http://creativecommons.org/ns#"
   xmlns:rdf="http://www.w3.org/1999/02/22-rdf-syntax-ns#"
   xmlns:svg="http://www.w3.org/2000/svg"
   xmlns="http://www.w3.org/2000/svg"
   xmlns:sodipodi="http://sodipodi.sourceforge.net/DTD/sodipodi-0.dtd"
   xmlns:inkscape="http://www.inkscape.org/namespaces/inkscape"
   width="427.39767"
   height="308.83005"
   viewBox="0 0 427.39768 308.83005"
   id="svg2"
   version="1.1"
   inkscape:version="0.91 r13725"
   sodipodi:docname="Cailloux.svg"
   inkscape:export-filename="C:\Users\Amaury Punel\Desktop\Projet Jeu S2\Cailloux.png"
   inkscape:export-xdpi="150"
   inkscape:export-ydpi="150">
  <defs
     id="defs4" />
  <sodipodi:namedview
     id="base"
     pagecolor="#ffffff"
     bordercolor="#666666"
     borderopacity="1.0"
     inkscape:pageopacity="0.0"
     inkscape:pageshadow="2"
     inkscape:zoom="0.76289062"
     inkscape:cx="430.76203"
     inkscape:cy="123.96775"
     inkscape:document-units="px"
     inkscape:current-layer="layer1"
     showgrid="false"
     units="px"
     fit-margin-top="0"
     fit-margin-left="0"
     fit-margin-right="0"
     fit-margin-bottom="0"
     inkscape:window-width="1366"
     inkscape:window-height="705"
     inkscape:window-x="-8"
     inkscape:window-y="-8"
     inkscape:window-maximized="1" />
  <metadata
     id="metadata7">
    <rdf:RDF>
      <cc:Work
         rdf:about="">
        <dc:format>image/svg+xml</dc:format>
        <dc:type
           rdf:resource="http://purl.org/dc/dcmitype/StillImage" />
        <dc:title></dc:title>
      </cc:Work>
    </rdf:RDF>
  </metadata>
  <g
     inkscape:label="Calque 1"
     inkscape:groupmode="layer"
     id="layer1"
     transform="translate(-50.663351,-596.16363)">
    <g
       id="g4213"
       transform="translate(-439.1193,74.715822)">
      <g
         transform="translate(435.63281,-88.980319)"
         id="g4170">
        <path
           style="fill:#818286;fill-opacity:1;fill-rule:evenodd;stroke:#000000;stroke-width:3;stroke-linecap:butt;stroke-linejoin:miter;stroke-miterlimit:4;stroke-dasharray:none;stroke-opacity:1"
           d="M 104.27382,891.54878 C 91.304229,844.89814 98.602181,805.00334 95.931905,761.7858 105.04523,744.63709 120.72589,737.33937 134.39736,727.02787 l 274.81942,112.61571 c 0.13866,17.16703 2.93121,31.01668 -1.39032,53.75894 -101.18421,0.97162 -202.36843,6.24638 -303.55264,-1.85374 z"
           id="path4147"
           inkscape:connector-curvature="0"
           sodipodi:nodetypes="cccccc" />
        <path
           style="fill:#c4c0b7;fill-opacity:1;fill-rule:evenodd;stroke:#000000;stroke-width:3;stroke-linecap:butt;stroke-linejoin:miter;stroke-miterlimit:4;stroke-dasharray:none;stroke-opacity:1"
           d="m 270.64847,858.64459 c -39.54681,-11.90468 -79.09362,-31.4124 -118.64042,-49.12455 -11.91608,-27.31624 -12.40924,-52.16253 -18.53758,-78.32122 0.19645,-5.93571 -1.11489,-18.32041 2.78064,-25.48915 10.18433,-10.32831 23.95947,-17.78397 40.31921,-23.17196 l 24.09884,-52.83206 c 2.32545,-4.65092 72.05915,-19.35024 79.24809,-17.6107 0.17583,0.0426 50.57493,40.74415 49.12456,47.2708 l 37.53857,18.53756 c 32.69147,72.39276 30.1301,109.53269 43.09984,162.20372 -46.34357,6.18159 -91.42396,21.2055 -139.03175,18.53756 z"
           id="path4149"
           inkscape:connector-curvature="0"
           sodipodi:nodetypes="ccccccscccc" />
        <path
           style="fill:none;fill-rule:evenodd;stroke:#000000;stroke-width:3;stroke-linecap:butt;stroke-linejoin:miter;stroke-miterlimit:4;stroke-dasharray:none;stroke-opacity:1"
           d="m 272.03879,859.57147 c -3.7569,9.68628 -6.86816,18.81915 -19.00101,35.68481"
           id="path4151"
           inkscape:connector-curvature="0"
           sodipodi:nodetypes="cc" />
        <path
           style="fill:none;fill-rule:evenodd;stroke:#000000;stroke-width:3;stroke-linecap:butt;stroke-linejoin:miter;stroke-miterlimit:4;stroke-dasharray:none;stroke-opacity:1"
           d="m 150.75903,809.58499 c -5.89784,13.80063 -34.00963,64.89786 -44.49016,81.56528"
           id="path4151-4"
           inkscape:connector-curvature="0"
           sodipodi:nodetypes="cc" />
        <path
           style="fill:#fbfbfb;fill-opacity:0.44751383;fill-rule:evenodd;stroke:none;stroke-width:1px;stroke-linecap:butt;stroke-linejoin:miter;stroke-opacity:1"
           d="m 263.6306,615.05004 c 20.47218,-7.0004 46.54688,25.43862 59.86648,42.48867 2.46897,3.16046 23.19704,13.49461 26.28994,16.0477 9.05733,7.47654 5.42517,0.66134 15.20599,7.16284 7.41721,4.93036 39.95364,115.00335 30.87776,123.20095 -7.75754,7.00684 -24.76655,-79.07361 -28.5935,-84.57081 -4.19405,-6.02452 -13.34919,-32.96893 -19.93353,-36.21413 -9.98622,-4.92187 -33.6091,-27.79331 -41.92643,-35.19409 -4.24347,-3.77585 -28.82164,-19.29152 -34.26722,-20.907 -7.95631,-2.3603 -66.50909,17.5329 -70.07013,6.01907 -2.09071,-6.75984 55.85547,-15.74381 62.55064,-18.0332 z"
           id="path4168"
           inkscape:connector-curvature="0"
           sodipodi:nodetypes="sssssssssss" />
      </g>
      <path
         transform="translate(0,552.36216)"
         inkscape:connector-curvature="0"
         id="path4177"
         d="m 601.19441,251.75689 c -14.05681,-0.51598 -46.03256,-2.24953 -51.08812,-2.76971 l -5.20765,-0.53582 3.45377,-5.68706 c 6.50042,-10.70378 25.13161,-44.60586 32.20502,-58.60159 l 7.0683,-13.98565 13.96765,6.41518 c 42.8832,19.69573 69.02917,30.67017 91.36198,38.34802 10.58115,3.63771 11.56364,4.16749 11.32837,6.10849 -0.37959,3.13177 -7.80171,17.90291 -12.47835,24.83383 l -4.06519,6.02471 -39.7971,0.0524 c -21.8884,0.0288 -42.92531,-0.0624 -46.74868,-0.20279 z"
         style="opacity:1;fill:#a8a9ad;fill-opacity:1;stroke:none;stroke-width:3;stroke-linecap:round;stroke-linejoin:round;stroke-miterlimit:4;stroke-dasharray:none;stroke-opacity:1" />
      <path
         transform="translate(0,552.36216)"
         inkscape:connector-curvature="0"
         id="path4179"
         d="m 585.90092,250.83679 c -2.54892,-0.1501 -12.5592,-0.73879 -22.24508,-1.30818 -9.68588,-0.5694 -17.73603,-1.15714 -17.88921,-1.3061 -0.15319,-0.14895 1.78023,-3.76031 4.29649,-8.02524 6.94856,-11.77747 17.90373,-31.72179 28.1803,-51.30341 5.08734,-9.69374 9.37705,-17.76299 9.53268,-17.93166 0.15564,-0.16867 10.85041,4.47696 23.76617,10.32362 32.48394,14.70474 53.42112,23.56902 70.29055,29.75927 20.77004,7.62159 20.7194,7.60028 21.67953,9.1224 1.08745,1.72396 -3.88054,12.56755 -10.8259,23.62962 l -4.80104,7.64674 -48.67505,-0.16707 c -26.77128,-0.0919 -50.76053,-0.28988 -53.30944,-0.43999 z"
         style="opacity:1;fill:#a8a9ad;fill-opacity:1;stroke:none;stroke-width:3;stroke-linecap:round;stroke-linejoin:round;stroke-miterlimit:4;stroke-dasharray:none;stroke-opacity:1" />
      <path
         transform="translate(0,552.36216)"
         inkscape:connector-curvature="0"
         id="path4181"
         d="m 696.21998,245.94914 c 3.72343,-5.75583 8.40734,-15.03189 12.25337,-24.26669 l 1.00723,-2.41848 17.9217,-0.52621 c 19.60021,-0.57549 32.53271,-2.25906 62.87531,-8.1852 25.61333,-5.00248 42.12099,-8.02392 47.8643,-8.76074 l 4.76445,-0.61125 0.68451,13.6929 c 0.63085,12.61957 0.38134,19.95404 -1.05775,31.09178 l -0.54961,4.25361 -37.43893,0.6125 c -20.59141,0.33687 -54.3671,0.8894 -75.05708,1.22785 l -37.61816,0.61536 4.35066,-6.72543 z"
         style="opacity:1;fill:#a8a9ad;fill-opacity:1;stroke:none;stroke-width:3;stroke-linecap:round;stroke-linejoin:round;stroke-miterlimit:4;stroke-dasharray:none;stroke-opacity:1" />
    </g>
    <g
       id="g4203"
       transform="translate(-467.95699,-58.986178)">
      <g
         transform="translate(471.88941,32.770098)"
         id="g4191">
        <path
           style="fill:#c4c0b7;fill-opacity:0.97790055;fill-rule:evenodd;stroke:#000000;stroke-width:3;stroke-linecap:butt;stroke-linejoin:miter;stroke-miterlimit:4;stroke-dasharray:none;stroke-opacity:1"
           d="m 302.1403,913.74465 c 8.52022,3.43854 17.04045,6.60796 25.56067,9.17563 32.73942,6.83755 63.65867,4.5743 94.70558,2.94931 17.96366,-2.72828 33.22405,-6.68532 41.61802,-13.76345 2.84008,-4.80628 5.68016,-9.61256 8.52024,-14.41884 -3.69775,-18.41914 -11.0497,-35.21419 -22.61137,-50.13825 -19.36847,-12.30892 -41.75889,-30.30522 -72.42192,-32.44239 -11.78203,4.7881 -16.29426,15.80746 -22.28367,25.56067 -11.48184,2.90654 -20.62235,-6.8301 -36.04711,17.36815 -9.67005,19.06846 -14.32943,37.51059 -17.04044,55.70917 z"
           id="path4183"
           inkscape:connector-curvature="0"
           sodipodi:nodetypes="cccccccccc" />
        <path
           style="fill:none;fill-rule:evenodd;stroke:#000000;stroke-width:3;stroke-linecap:butt;stroke-linejoin:miter;stroke-miterlimit:4;stroke-dasharray:none;stroke-opacity:1"
           d="m 308.03891,888.51167 c 30.867,6.73851 62.74728,9.42394 95.36099,9.17563 22.40968,-15.8907 34.33096,-33.52947 46.53354,-51.12135"
           id="path4185"
           inkscape:connector-curvature="0"
           sodipodi:nodetypes="ccc" />
        <path
           style="fill:none;fill-rule:evenodd;stroke:#000000;stroke-width:3;stroke-linecap:butt;stroke-linejoin:miter;stroke-miterlimit:4;stroke-dasharray:none;stroke-opacity:1"
           d="m 326.39017,921.60947 c 5.941,-6.93797 10.00669,-16.2201 12.45264,-27.52688"
           id="path4187"
           inkscape:connector-curvature="0"
           sodipodi:nodetypes="cc" />
        <path
           style="fill:none;fill-rule:evenodd;stroke:#000000;stroke-width:3;stroke-linecap:butt;stroke-linejoin:miter;stroke-miterlimit:4;stroke-dasharray:none;stroke-opacity:1"
           d="m 401.76139,896.7042 c 7.44837,9.27974 15.54995,18.39618 19.66206,28.50998"
           id="path4189"
           inkscape:connector-curvature="0"
           sodipodi:nodetypes="cc" />
      </g>
      <path
         inkscape:connector-curvature="0"
         id="path4197"
         d="m 891.97007,950.7276 c -1.60836,-2.86169 -5.25615,-8.15309 -8.1062,-11.75867 -2.85005,-3.60559 -5.18191,-7.04162 -5.18191,-7.63562 0,-0.59401 2.933,-3.31675 6.51777,-6.05053 8.55187,-6.52174 19.08878,-17.99616 28.48966,-31.02451 l 7.5937,-10.52384 2.95472,3.65572 c 4.59869,5.68972 12.96718,23.69859 15.5711,33.50875 l 2.35706,8.88017 -3.23202,6.01413 c -5.20731,9.68973 -13.33342,14.36783 -31.65092,18.22104 -12.24567,2.57595 -11.98677,2.63152 -15.31296,-3.28664 z"
         style="opacity:1;fill:#7b7d7c;fill-opacity:1;stroke:none;stroke-width:3;stroke-linecap:round;stroke-linejoin:round;stroke-miterlimit:4;stroke-dasharray:none;stroke-opacity:1" />
      <path
         inkscape:connector-curvature="0"
         id="path4199"
         d="m 831.49302,957.71772 c -2.5233,-0.22825 -10.26549,-1.07575 -17.20488,-1.88333 l -12.61707,-1.46833 4.35967,-8.3641 c 2.39781,-4.60025 4.72671,-10.32066 5.17533,-12.71201 l 0.81568,-4.34791 7.44173,0.94079 c 4.09295,0.51743 17.97809,1.3766 30.85587,1.90927 l 23.41415,0.96848 5.55523,7.07794 c 3.05537,3.89287 6.80968,9.30993 8.34289,12.03791 l 2.78766,4.95997 -18.649,0.85314 c -18.33487,0.83878 -31.21658,0.84779 -40.27726,0.0282 z"
         style="opacity:1;fill:#7b7d7c;fill-opacity:1;stroke:none;stroke-width:3;stroke-linecap:round;stroke-linejoin:round;stroke-miterlimit:4;stroke-dasharray:none;stroke-opacity:1" />
      <path
         inkscape:connector-curvature="0"
         id="path4201"
         d="m 785.8588,948.80352 c -4.55197,-1.69946 -8.59168,-3.40529 -8.97713,-3.79074 -0.38544,-0.38544 0.30244,-5.34414 1.52864,-11.01933 l 2.22945,-10.31852 13.18168,2.35365 c 7.24993,1.29451 13.44325,2.61522 13.76295,2.93491 1.00041,1.00042 -3.64087,13.50502 -6.69442,18.03618 -1.60306,2.37877 -3.77869,4.453 -4.83475,4.60941 -1.05606,0.15641 -5.64445,-1.1061 -10.19642,-2.80556 z"
         style="opacity:1;fill:#7b7d7c;fill-opacity:1;stroke:none;stroke-width:3;stroke-linecap:round;stroke-linejoin:round;stroke-miterlimit:4;stroke-dasharray:none;stroke-opacity:1" />
    </g>
    <g
       id="g4243"
       transform="translate(-466.64619,-4.2601132)">
      <g
         transform="translate(464.36604,-3.7075133)"
         id="g4230">
        <path
           style="fill:#c4c0b7;fill-opacity:1;fill-rule:evenodd;stroke:#000000;stroke-width:3;stroke-linecap:butt;stroke-linejoin:miter;stroke-miterlimit:4;stroke-dasharray:none;stroke-opacity:1"
           d="m 133.3743,911.45074 c -26.21608,-4.7424 -52.432158,-4.62608 -78.648237,-16.38505 3.250095,-12.00673 3.799902,-23.11337 11.797235,-36.70251 3.097002,-2.89187 7.8833,-8.36954 13.435739,0 1.710916,-12.70793 8.30196,-18.89722 14.091142,-27.52688 17.697591,-12.48697 28.640061,-7.62631 41.618021,-9.17563 24.14154,10.15873 26.87148,20.31747 39.32412,30.4762 6.23546,2.29391 17.3915,5.89862 21.30056,8.19252 4.3193,17.35756 4.94049,28.5516 6.88172,41.94572 -22.64318,6.80009 -46.33054,7.33504 -69.8003,9.17563 z"
           id="path4224"
           inkscape:connector-curvature="0"
           sodipodi:nodetypes="cccccccccc" />
        <path
           style="fill:none;fill-rule:evenodd;stroke:#000000;stroke-width:3;stroke-linecap:butt;stroke-linejoin:miter;stroke-miterlimit:4;stroke-dasharray:none;stroke-opacity:1"
           d="m 80.286738,859.34628 c 14.919461,10.29832 32.269802,18.75761 52.432152,25.56068 25.45393,-7.97406 47.90645,-15.94811 62.91859,-23.92217"
           id="path4226"
           inkscape:connector-curvature="0"
           sodipodi:nodetypes="ccc" />
        <path
           style="fill:none;fill-rule:evenodd;stroke:#000000;stroke-width:3;stroke-linecap:butt;stroke-linejoin:miter;stroke-miterlimit:4;stroke-dasharray:none;stroke-opacity:1"
           d="m 130.75269,911.12304 c 1.76857,-11.18351 1.9117,-19.11612 1.9662,-26.87148"
           id="path4228"
           inkscape:connector-curvature="0"
           sodipodi:nodetypes="cc" />
      </g>
      <path
         transform="translate(0,552.36216)"
         inkscape:connector-curvature="0"
         id="path4235"
         d="m 591.70636,352.69343 c -0.99129,-0.15 -8.8807,-1.22028 -17.532,-2.37841 -17.38019,-2.32663 -25.47888,-3.71352 -33.57565,-5.74976 -7.95108,-1.99961 -19.59644,-6.0483 -19.46252,-6.76645 0.0272,-0.14566 0.81225,-3.65654 1.74465,-7.80196 2.77914,-12.35591 4.33492,-17.14013 7.66417,-23.56817 1.35311,-2.61255 2.04913,-3.555 3.54549,-4.80077 1.02403,-0.85254 2.38896,-1.72403 3.03319,-1.93664 2.09355,-0.69094 3.81551,0.64042 7.19143,5.56015 0.54437,0.79331 1.03671,1.22771 1.1619,1.02515 0.13724,-0.22207 0.87542,0.0923 2.00465,0.85379 11.17031,7.53237 30.1732,16.74636 45.1735,21.9034 l 2.75116,0.94584 -0.19166,6.23495 c -0.18636,6.06244 -1.06517,15.71741 -1.49354,16.40878 -0.14006,0.22604 -0.82638,0.24992 -2.01477,0.0701 z"
         style="opacity:1;fill:#c4c0b7;fill-opacity:1;stroke:none;stroke-width:3;stroke-linecap:round;stroke-linejoin:round;stroke-miterlimit:4;stroke-dasharray:none;stroke-opacity:1" />
      <path
         transform="translate(0,552.36216)"
         inkscape:connector-curvature="0"
         id="path4237"
         d="m 597.06026,353.01785 c 0.46177,-1.87347 1.28073,-11.16073 1.47583,-16.73654 l 0.21584,-6.16818 13.59959,-4.52932 c 19.31827,-6.43392 32.35227,-11.42684 42.88922,-16.42952 2.25096,-1.0687 4.20304,-1.83014 4.33796,-1.6921 0.30749,0.31464 2.06439,8.74162 2.95597,14.17829 0.88832,5.41682 3.16951,23.04308 3.01825,23.32136 -0.40638,0.74762 -17.67224,4.22244 -26.49377,5.33196 -6.68668,0.84102 -38.36857,3.46138 -41.85036,3.46138 -0.18165,0 -0.24848,-0.3318 -0.14853,-0.73733 z"
         style="opacity:1;fill:#7b7d7c;fill-opacity:1;stroke:none;stroke-width:3;stroke-linecap:round;stroke-linejoin:round;stroke-miterlimit:4;stroke-dasharray:none;stroke-opacity:1" />
      <path
         transform="translate(0,552.36216)"
         inkscape:connector-curvature="0"
         id="path4239"
         d="m 592.88554,352.91388 c -0.18024,-0.0738 -7.55351,-1.09782 -16.38505,-2.27565 -19.71836,-2.62977 -24.67199,-3.43 -32.7701,-5.29388 -7.23119,-1.66434 -16.23995,-4.50416 -21.49642,-6.77629 l -1.17896,-0.50961 1.09073,-4.85005 c 0.59991,-2.66753 1.4769,-6.5459 1.94888,-8.61861 2.19928,-9.65818 6.54079,-19.9457 9.54433,-22.61598 4.19533,-3.72983 6.12781,-3.30195 9.90823,2.19385 0.81155,1.17978 1.61949,2.01182 1.93517,1.9929 0.29807,-0.0179 2.0166,0.925 3.81896,2.09527 6.47415,4.20369 16.26068,9.46085 24.57757,13.20267 5.2932,2.38144 15.1622,6.34496 18.76088,7.5346 l 2.70353,0.89373 -10e-4,3.49587 c -0.002,5.2289 -0.81227,15.33234 -1.509,18.8159 -0.17761,0.88801 -0.29991,0.98035 -0.94742,0.71528 l -2e-5,0 z"
         style="opacity:1;fill:#7b7d7c;fill-opacity:1;stroke:none;stroke-width:3;stroke-linecap:round;stroke-linejoin:round;stroke-miterlimit:4;stroke-dasharray:none;stroke-opacity:1" />
      <path
         transform="translate(0,552.36216)"
         inkscape:connector-curvature="0"
         id="path4241"
         d="m 597.17232,353.12074 c -0.0213,-0.28189 0.006,-0.65998 0.0597,-0.84022 0.0933,-0.31017 0.15737,-0.81731 0.49688,-3.93241 0.2067,-1.89651 0.4453,-4.90319 0.59812,-7.53712 0.63955,-11.02238 0.70105,-11.41004 1.75437,-11.05894 0.22369,0.0746 0.4067,-0.0196 0.4067,-0.20915 0,-0.1896 0.2212,-0.25985 0.49155,-0.1561 0.27036,0.10374 0.49156,0.03 0.49156,-0.16385 0,-0.19386 0.22119,-0.2676 0.49155,-0.16385 0.27035,0.10374 0.49155,0.0167 0.49155,-0.19348 0,-0.21015 0.13016,-0.30165 0.28925,-0.20333 0.2475,0.15296 3.07159,-0.66761 4.62626,-1.34421 0.27036,-0.11766 0.60215,-0.2451 0.73733,-0.28319 0.13518,-0.0381 0.31951,-0.10614 0.40963,-0.15119 0.0901,-0.0451 0.31131,-0.1188 0.49155,-0.16386 0.18023,-0.0451 0.40143,-0.11879 0.49155,-0.16385 0.0901,-0.0451 0.31131,-0.11879 0.49155,-0.16385 0.18024,-0.0451 0.40143,-0.11879 0.49155,-0.16385 0.0901,-0.0451 0.31132,-0.11879 0.49155,-0.16385 0.18024,-0.0451 0.40144,-0.11879 0.49155,-0.16385 0.0901,-0.0451 0.27445,-0.10261 0.40963,-0.1279 0.13518,-0.0253 0.43011,-0.16303 0.6554,-0.30608 0.2253,-0.14306 0.40963,-0.15961 0.40963,-0.0368 0,0.12282 0.2212,0.0397 0.49155,-0.18464 0.27035,-0.22437 0.49155,-0.29811 0.49155,-0.16385 0,0.13426 0.2212,0.0605 0.49155,-0.16385 0.27036,-0.22437 0.49155,-0.29811 0.49155,-0.16385 0,0.13425 0.2212,0.0605 0.49156,-0.16385 0.27035,-0.22437 0.49155,-0.29811 0.49155,-0.16385 0,0.13425 0.2212,0.0605 0.49155,-0.16385 0.27035,-0.22438 0.49155,-0.29811 0.49155,-0.16385 0,0.13425 0.2212,0.0605 0.49155,-0.16385 0.27036,-0.22438 0.49155,-0.32277 0.49155,-0.21866 0,0.15628 3.00832,-0.85325 4.91552,-1.64956 0.27035,-0.11288 0.60215,-0.2364 0.73733,-0.2745 0.13517,-0.0381 0.3195,-0.10613 0.40962,-0.15119 0.0901,-0.0451 0.31132,-0.11879 0.49155,-0.16385 0.18024,-0.0451 0.40144,-0.11879 0.49155,-0.16385 0.0901,-0.0451 0.31132,-0.11879 0.49156,-0.16385 0.18023,-0.0451 0.36456,-0.11164 0.40962,-0.14796 0.0451,-0.0363 0.30313,-0.11384 0.57348,-0.17228 0.27035,-0.0584 0.93395,-0.29285 1.47465,-0.52094 0.54071,-0.22809 1.09371,-0.4455 1.22888,-0.48313 0.13518,-0.0376 0.28264,-0.0981 0.3277,-0.13446 0.0451,-0.0363 0.30313,-0.11384 0.57348,-0.17227 0.27035,-0.0584 0.93395,-0.29101 1.47465,-0.51683 0.54071,-0.22583 1.13057,-0.44703 1.31081,-0.49155 0.18023,-0.0445 0.69636,-0.2254 1.14695,-0.40194 0.45059,-0.17654 0.89299,-0.31373 0.9831,-0.30487 0.0901,0.009 0.53252,-0.18592 0.98311,-0.43286 0.45059,-0.24694 1.10922,-0.497 1.46362,-0.55569 0.35441,-0.0587 0.98113,-0.32737 1.39273,-0.59705 0.4116,-0.26969 0.74836,-0.39625 0.74836,-0.28125 0,0.115 0.36866,-0.0325 0.81925,-0.3277 0.45059,-0.29524 0.81925,-0.44271 0.81925,-0.3277 0,0.115 0.36867,-0.0325 0.81926,-0.32771 0.45058,-0.29523 0.81925,-0.45447 0.81925,-0.35386 0,0.10062 0.33179,-10e-4 0.73732,-0.2266 0.40553,-0.22525 0.81106,-0.4268 0.90118,-0.44788 1.22847,-0.28738 1.96621,-0.60244 1.96621,-0.83967 0,-0.1607 0.1106,-0.26799 0.24577,-0.23842 0.48946,0.10705 2.04814,-0.45967 2.04814,-0.74468 0,-0.1607 0.11059,-0.26195 0.24577,-0.22501 0.49899,0.13638 2.70353,-0.7853 2.70353,-1.1303 0,-0.1963 0.0824,-0.27452 0.18308,-0.17383 0.1007,0.1007 1.78992,-0.53624 3.75382,-1.41541 1.96391,-0.87917 3.76171,-1.52434 3.99511,-1.43372 0.2344,0.091 0.46039,0.78554 0.50484,1.55147 0.0443,0.76268 0.22031,1.43331 0.39122,1.49028 0.17091,0.057 0.2288,0.31713 0.12864,0.57813 -0.10016,0.26101 -0.0194,0.67058 0.17942,0.91016 0.19883,0.23958 0.286,0.51112 0.19371,0.60341 -0.16792,0.16793 0.37575,3.26973 0.73543,4.19586 0.10501,0.27035 0.16028,0.80926 0.12284,1.19758 -0.0374,0.38831 0.0905,0.80403 0.28432,0.92382 0.19382,0.11978 0.27766,0.33872 0.18631,0.48652 -0.0913,0.1478 -0.0115,0.98554 0.17738,1.86164 0.18891,0.8761 0.33337,1.98874 0.32103,2.47254 -0.0124,0.4838 0.11279,0.96321 0.27806,1.06535 0.16527,0.10215 0.22399,0.4783 0.13048,0.8359 -0.0935,0.3576 -0.063,0.91045 0.0677,1.22855 0.25341,0.6165 0.46028,2.28175 0.47131,3.79382 0.004,0.50685 0.10602,1.08222 0.2274,1.27861 0.12137,0.19638 0.25777,0.81395 0.30312,1.37237 0.0817,1.00687 0.2553,2.51406 0.59811,5.19437 0.0979,0.76552 0.17824,1.93288 0.1785,2.59415 2.7e-4,0.66126 0.12864,1.2815 0.28526,1.3783 0.15662,0.0968 0.21733,0.63549 0.1349,1.1971 -0.10519,0.71673 -0.40636,1.12676 -1.01038,1.37558 -1.16605,0.48034 -1.73938,0.62921 -2.41066,0.62594 -0.31186,-0.002 -0.64838,0.12889 -0.74782,0.28978 -0.0994,0.1609 -0.38236,0.2152 -0.62871,0.12066 -0.24635,-0.0945 -0.5367,-0.0282 -0.64523,0.1474 -0.10853,0.1756 -0.49211,0.24219 -0.8524,0.14797 -0.36029,-0.0942 -0.65584,-0.0435 -0.65677,0.11269 -9.9e-4,0.1562 -0.62745,0.32021 -1.39225,0.36447 -0.7648,0.0443 -1.43277,0.20715 -1.48439,0.362 -0.0516,0.15484 -0.45736,0.21203 -0.90166,0.1271 -0.4443,-0.0849 -0.80782,-0.0102 -0.80782,0.16603 0,0.17626 -0.36866,0.24999 -0.81925,0.16385 -0.45059,-0.0861 -0.82041,-0.0288 -0.82182,0.12737 -10e-4,0.15619 -0.77288,0.31269 -1.71439,0.34779 -0.9415,0.0351 -1.75501,0.19336 -1.80779,0.35169 -0.0528,0.15834 -0.53476,0.22349 -1.07107,0.14478 -0.53782,-0.0789 -0.9751,0.007 -0.9751,0.1911 0,0.18382 -0.29273,0.25766 -0.65051,0.1641 -0.35777,-0.0936 -0.91077,-0.0647 -1.22888,0.0641 -0.3181,0.12884 -1.3157,0.29574 -2.21687,0.3709 -0.90118,0.0752 -1.93344,0.22982 -2.29391,0.3437 -0.76538,0.2418 -2.43732,0.40413 -4.18715,0.40652 -0.6808,9.9e-4 -1.41402,0.11059 -1.62937,0.24368 -0.21534,0.13309 -0.94491,0.20203 -1.62126,0.15319 -0.67635,-0.0488 -1.40997,0.0226 -1.63028,0.15877 -0.2203,0.13615 -1.10882,0.20996 -1.97449,0.16401 -0.86566,-0.0459 -1.57394,0.0567 -1.57394,0.22821 0,0.17515 -0.63947,0.23967 -1.45943,0.14724 -0.80268,-0.0905 -1.72434,-0.0592 -2.04813,0.0694 -0.32378,0.12866 -1.39976,0.27713 -2.39105,0.32994 -0.9913,0.0528 -2.76089,0.17227 -3.93242,0.26548 -3.80232,0.30253 -7.33399,0.57474 -9.17562,0.70722 -0.9913,0.0713 -3.05582,0.22482 -4.58782,0.34114 -5.78091,0.43891 -6.8786,0.41727 -6.92052,-0.13643 z"
         style="opacity:1;fill:#bfc0c2;fill-opacity:1;stroke:none;stroke-width:3;stroke-linecap:round;stroke-linejoin:round;stroke-miterlimit:4;stroke-dasharray:none;stroke-opacity:1" />
    </g>
  </g>
</svg>
