<?xml version="1.0" encoding="UTF-8" standalone="no"?>
<!-- Created with Inkscape (http://www.inkscape.org/) -->

<svg
   xmlns:dc="http://purl.org/dc/elements/1.1/"
   xmlns:cc="http://creativecommons.org/ns#"
   xmlns:rdf="http://www.w3.org/1999/02/22-rdf-syntax-ns#"
   xmlns:svg="http://www.w3.org/2000/svg"
   xmlns="http://www.w3.org/2000/svg"
   xmlns:sodipodi="http://sodipodi.sourceforge.net/DTD/sodipodi-0.dtd"
   xmlns:inkscape="http://www.inkscape.org/namespaces/inkscape"
   width="201.87714"
   height="286.09592"
   viewBox="0 0 201.87714 286.09592"
   id="svg4200"
   version="1.1"
   inkscape:version="0.91 r13725"
   sodipodi:docname="Casque_Chevalier_Projet_Final.svg">
  <defs
     id="defs4202" />
  <sodipodi:namedview
     id="base"
     pagecolor="#ffffff"
     bordercolor="#666666"
     borderopacity="1.0"
     inkscape:pageopacity="0.0"
     inkscape:pageshadow="2"
     inkscape:zoom="0.7"
     inkscape:cx="122.85153"
     inkscape:cy="194.86327"
     inkscape:document-units="px"
     inkscape:current-layer="layer1"
     showgrid="false"
     units="px"
     inkscape:window-width="1366"
     inkscape:window-height="705"
     inkscape:window-x="-8"
     inkscape:window-y="-8"
     inkscape:window-maximized="1"
     fit-margin-top="0"
     fit-margin-left="0"
     fit-margin-right="0"
     fit-margin-bottom="0" />
  <metadata
     id="metadata4205">
    <rdf:RDF>
      <cc:Work
         rdf:about="">
        <dc:format>image/svg+xml</dc:format>
        <dc:type
           rdf:resource="http://purl.org/dc/dcmitype/StillImage" />
        <dc:title></dc:title>
      </cc:Work>
    </rdf:RDF>
  </metadata>
  <g
     inkscape:label="Calque 1"
     inkscape:groupmode="layer"
     id="layer1"
     transform="translate(-107.35429,-602.36215)">
    <path
       style="fill:#5a5a5a;fill-opacity:1;fill-rule:evenodd;stroke:#000000;stroke-width:1px;stroke-linecap:butt;stroke-linejoin:miter;stroke-opacity:1"
       d="m 234.28571,870.2193 c 17.86863,-9.19603 35.89826,-20.11795 48.57143,-35.71428 9.40683,-11.57658 14.66559,-26.31811 18.57143,-40.71429 5.51489,-20.32683 2.98246,-42.07931 6.42857,-62.85714 1.0395,-6.26756 0.94643,-11.96875 0.75019,-18.31889 -0.491,-15.88784 -3.8634,-30.32513 -12.05621,-43.94652 -9.63246,-16.01495 -18.46686,-26.53082 -33.93908,-37.01287 -10.76779,-7.29491 -22.83484,-12.68383 -22.83484,-12.68383 0,0 -18.17163,-3.82393 -21.83339,-5.18075 -5.52954,-1.91454 -22.92271,-11.09838 -24.74747,-10.92349 0,0 -14.95553,14.83025 -21.01758,20.75761 -7.66078,7.49056 -14.86799,12.20964 -22.68384,19.53825 -5.42759,5.08924 -12.15392,12.52873 -18.23223,19.95667 -5.31181,6.49124 -9.29383,13.47621 -12.51794,21.21937 -2.97973,7.15625 -4.91038,13.92738 -6.05349,21.59445 -0.95381,6.39742 -3.40555,19.28571 -3.40555,19.28571 l -1.42857,17.85715 1.42857,10 2.14286,10 c 0,0 -1.19001,7.59682 -1.42857,11.42857 -0.16274,2.61399 2.13443,10.29251 3.21429,12.67857 2.13569,4.71905 10.81955,16.07429 15.17857,23.39285 7.43613,12.48486 11.91567,19.55117 20.53571,31.25001 7.14745,9.70028 13.09571,17.83526 19.28572,25.71428 7.38297,9.39751 25.35714,20.35715 25.35714,20.35715 0,0 33.59542,-14.16089 40.71428,-17.67858 z"
       id="path4772"
       inkscape:connector-curvature="0"
       sodipodi:nodetypes="csssssscccsssssccccssssscc" />
    <path
       style="fill:#ffc477;fill-opacity:1;fill-rule:evenodd;stroke:none;stroke-width:1px;stroke-linecap:butt;stroke-linejoin:miter;stroke-opacity:1"
       d="m 116.16754,759.67046 -0.25254,-11.86929 10.85914,2.27284 22.22336,1.76777 39.90103,-0.50508 51.26524,-3.78807 1.01015,6.56599 -0.89286,1.73713 -12.23912,6.09155 -11.8693,2.27285 -20.96066,-1.01016 -18.68782,-1.26269 -44.19418,-0.25254 -10.6066,0.25254 -5.55584,-1.26269 z"
       id="path4800"
       inkscape:connector-curvature="0"
       sodipodi:nodetypes="cccccccccccccccc" />
    <path
       style="fill:#414141;fill-opacity:1;fill-rule:evenodd;stroke:none;stroke-width:1px;stroke-linecap:butt;stroke-linejoin:miter;stroke-opacity:1"
       d="m 147.32143,802.18359 35.89286,-6.25 27.14285,-6.78572 22.14286,-11.07142 11.42857,-10.35715 11.57465,-18.04654 9.18111,-16.49171 6.3871,-11.17603 5.81889,-13.04841 30.96682,18.40555 -1.42857,11.07143 -0.35714,15.71428 -1.78572,20 -1.42857,15.71429 -7.85714,23.92857 -5.71429,11.42857 -9.64285,13.21429 -17.85715,15.35714 -25.35714,15 -42.54332,19.32904 -33.17096,-51.4719 -9.64286,-19.28571 z"
       id="path4796"
       inkscape:connector-curvature="0"
       sodipodi:nodetypes="ccccccccccccccccccccccc" />
    <path
       style="fill:#232323;fill-opacity:1;fill-rule:evenodd;stroke:none;stroke-width:1px;stroke-linecap:butt;stroke-linejoin:miter;stroke-opacity:1"
       d="m 110.86424,775.07529 9.09137,14.39467 9.34392,7.57614 11.61675,4.79823 5.80838,0 5.05076,16.92005 9.84899,19.95052 18.43528,29.04188 13.8896,19.95051 -2.02031,-0.75761 -13.88959,-10.10152 -7.58512,-6.30448 -5.7994,-8.0902 -25.50636,-35.1028 -19.95051,-30.55711 -6.56599,-10.85914 -2.02031,-6.06092 z"
       id="path4794"
       inkscape:connector-curvature="0"
       sodipodi:nodetypes="cccccccccccccccccc" />
    <path
       style="fill:none;fill-rule:evenodd;stroke:#000000;stroke-width:1px;stroke-linecap:butt;stroke-linejoin:miter;stroke-opacity:1"
       d="m 193.21429,603.43359 c -2.26094,-0.87522 -32.15567,38.97124 -35,60.35715 -1.52157,11.44035 -5.90561,29.50463 -6.95443,46.10168 -1.04881,16.59705 0.75619,35.68402 0.883,35.68402"
       id="path4774"
       inkscape:connector-curvature="0"
       sodipodi:nodetypes="cssc" />
    <path
       style="fill:none;fill-rule:evenodd;stroke:#000000;stroke-width:1px;stroke-linecap:butt;stroke-linejoin:miter;stroke-opacity:1"
       d="m 292.6917,703.85953 c -2.52598,-2.02831 -4.32656,-5.61194 -4.04061,-8.83883 0.11748,-1.3258 1.2166,-2.47312 2.27284,-3.283 0.99309,-0.76146 2.32517,-1.58058 3.53554,-1.26269 1.6161,0.42446 2.60284,2.26185 3.28299,3.78807 1.10502,2.47963 1.95838,5.5375 1.01016,8.08122 -0.39558,1.06119 -1.43118,1.98076 -2.52539,2.27285 -1.16449,0.31085 -2.59575,-0.003 -3.53553,-0.75762 z"
       id="path4776"
       inkscape:connector-curvature="0"
       sodipodi:nodetypes="ssssssss" />
    <path
       style="fill:none;fill-rule:evenodd;stroke:#000000;stroke-width:1px;stroke-linecap:butt;stroke-linejoin:miter;stroke-opacity:1"
       d="m 299.51023,690.22247 c 0,0 -8.83149,-7.62312 -11.61675,-7.57614 0,0 -8.61864,17.30221 -9.34392,20.70813 -0.25103,1.17883 1.51523,3.28299 1.51523,3.28299 l 22.22336,12.87945 c 2.21614,1.28435 0.25254,-12.37437 0.25254,-12.37437 z"
       id="path4780"
       inkscape:connector-curvature="0"
       sodipodi:nodetypes="ccscscc" />
    <path
       style="fill:none;fill-rule:evenodd;stroke:#000000;stroke-width:1px;stroke-linecap:butt;stroke-linejoin:miter;stroke-opacity:1"
       d="m 108.5914,750.83163 c 0,0 3.79706,5.26656 6.06091,7.57614 0.92045,0.93904 1.8017,2.05721 3.03046,2.52538 4.72241,1.79929 10.10067,0.36476 15.15229,0.50508 7.57509,0.21041 15.15088,0.42089 22.72843,0.50507 6.73393,0.0748 13.47144,-0.19218 20.20305,0 11.79953,0.33686 23.55104,2.05181 35.35534,2.02031 5.39797,-0.0144 13.20201,-0.44437 18.18275,-2.52538 4.23058,-1.76758 11.61676,-5.80838 11.61676,-5.80838 l -1e-5,-10.35406 c 0,0 8.10599,-1.5724 12.12183,-2.52539 2.54301,-0.60348 6.75789,-3.42901 8.64758,-5.23459 0,0 5.3299,-8.30514 7.84137,-12.65229 3.39504,-5.87653 8.25979,-17.97353 8.25979,-17.97353 l 23.23351,14.14213"
       id="path4782"
       inkscape:connector-curvature="0"
       sodipodi:nodetypes="csssssssccssscc" />
    <path
       style="fill:#646464;fill-opacity:0.99447512;fill-rule:evenodd;stroke:#000000;stroke-width:1px;stroke-linecap:butt;stroke-linejoin:miter;stroke-opacity:1"
       d="m 274.64286,707.89788 33.21428,19.28571 0.71429,-5.53571 -31.25,-19.10715 z"
       id="path4784"
       inkscape:connector-curvature="0"
       sodipodi:nodetypes="ccccc" />
    <path
       style="fill:none;fill-opacity:1;fill-rule:evenodd;stroke:#000000;stroke-width:1px;stroke-linecap:butt;stroke-linejoin:miter;stroke-opacity:1"
       d="m 116.25,758.79073 -0.71429,-10.89286 c 0,0 6.27847,1.49125 9.47067,1.9236 7.27458,0.98527 14.63417,1.26254 21.97082,1.51523 11.86226,0.40856 23.74153,0.26474 35.60787,0 9.43513,-0.2105 18.86398,-0.69331 28.28427,-1.26269 9.94387,-0.60103 29.7995,-2.27284 29.7995,-2.27284 l -0.50507,-5.80838 c 0,0 -62.12438,3.283 -63.38707,3.53553 -1.2627,0.25254 -25.75889,0.50508 -25.75889,0.50508 0,0 -16.95007,-0.26557 -25.25382,-1.76777 -4.6653,-0.84398 -13.63706,-4.04061 -13.63706,-4.04061 l -4.54568,-1.76776"
       id="path4786"
       inkscape:connector-curvature="0"
       sodipodi:nodetypes="ccssssccscscc" />
    <path
       style="fill:none;fill-rule:evenodd;stroke:#000000;stroke-width:1px;stroke-linecap:butt;stroke-linejoin:miter;stroke-opacity:1"
       d="m 154.64286,765.57644 c -3.17494,7.98124 -5.48943,21.72061 -7.70921,36.3673"
       id="path4788"
       inkscape:connector-curvature="0"
       sodipodi:nodetypes="cc" />
    <path
       style="fill:none;fill-rule:evenodd;stroke:#000000;stroke-width:1px;stroke-linecap:butt;stroke-linejoin:miter;stroke-opacity:1"
       d="m 194.28571,888.07645 c 0,0 -32.93633,-45.64623 -43.57142,-71.42857 -2.1471,-5.20515 -3.80231,-14.66081 -3.80231,-14.66081"
       id="path4790"
       inkscape:connector-curvature="0"
       sodipodi:nodetypes="csc" />
    <path
       style="fill:none;fill-rule:evenodd;stroke:#000000;stroke-width:1px;stroke-linecap:butt;stroke-linejoin:miter;stroke-opacity:1"
       d="m 109.82143,772.89788 c 0,0 7.10483,14.73359 13.92857,19.99999 3.75204,2.89574 10.26108,6.04492 15.35714,8.21429 2.30286,0.98032 8.21429,0.89286 8.21429,0.89286 0,0 21.44653,-2.88944 31.96428,-5.35715 13.46343,-3.15883 25.70083,-5.01486 39.6967,-12.05619 5.9862,-3.01166 16.58798,-8.36128 21.43601,-13.51015 9.98337,-10.6029 24.40301,-38.71937 24.40301,-38.71937"
       id="path4792"
       inkscape:connector-curvature="0"
       sodipodi:nodetypes="csscsssc" />
    <path
       style="fill:none;fill-rule:evenodd;stroke:#000000;stroke-width:1px;stroke-linecap:butt;stroke-linejoin:miter;stroke-opacity:1"
       d="m 193.57143,603.07645 c 0,0 -0.43652,14.67312 1.07143,21.78571 2.32931,10.98672 5.39253,22.45266 12.14285,31.42857 4.49364,5.97519 10.88117,10.88229 17.85715,13.57143 6.46654,2.49276 14.15721,4.02956 20.71428,1.78571 3.98544,-1.36383 6.61716,-5.3122 9.28572,-8.57142 2.03069,-2.48017 5,-8.21429 5,-8.21429 0,0 6.03414,3.87506 9.28571,5.35714 3.32297,1.51462 6.70588,3.50457 10.35714,3.57143 2.86162,0.0524 5.81042,-0.94661 8.21429,-2.5 1.06288,-0.68684 2.5,-2.85714 2.5,-2.85714"
       id="path4798"
       inkscape:connector-curvature="0"
       sodipodi:nodetypes="cssssscsssc" />
  </g>
</svg>
