<?xml version="1.0" encoding="UTF-8" standalone="no"?>
<!-- Created with Inkscape (http://www.inkscape.org/) -->

<svg
   xmlns:dc="http://purl.org/dc/elements/1.1/"
   xmlns:cc="http://creativecommons.org/ns#"
   xmlns:rdf="http://www.w3.org/1999/02/22-rdf-syntax-ns#"
   xmlns:svg="http://www.w3.org/2000/svg"
   xmlns="http://www.w3.org/2000/svg"
   xmlns:sodipodi="http://sodipodi.sourceforge.net/DTD/sodipodi-0.dtd"
   xmlns:inkscape="http://www.inkscape.org/namespaces/inkscape"
   width="303.9361"
   height="475.49728"
   viewBox="0 0 303.9361 475.49729"
   id="svg2"
   version="1.1"
   inkscape:version="0.91 r13725"
   sodipodi:docname="Chapeau_Mage_Projet_Final.svg">
  <defs
     id="defs4" />
  <sodipodi:namedview
     id="base"
     pagecolor="#ffffff"
     bordercolor="#666666"
     borderopacity="1.0"
     inkscape:pageopacity="0.0"
     inkscape:pageshadow="2"
     inkscape:zoom="0.7"
     inkscape:cx="419.07612"
     inkscape:cy="135.75212"
     inkscape:document-units="px"
     inkscape:current-layer="layer1"
     showgrid="false"
     units="px"
     inkscape:window-width="1366"
     inkscape:window-height="705"
     inkscape:window-x="-8"
     inkscape:window-y="-8"
     inkscape:window-maximized="1"
     fit-margin-top="0"
     fit-margin-left="0"
     fit-margin-right="0"
     fit-margin-bottom="0" />
  <metadata
     id="metadata7">
    <rdf:RDF>
      <cc:Work
         rdf:about="">
        <dc:format>image/svg+xml</dc:format>
        <dc:type
           rdf:resource="http://purl.org/dc/dcmitype/StillImage" />
        <dc:title></dc:title>
      </cc:Work>
    </rdf:RDF>
  </metadata>
  <g
     inkscape:label="Calque 1"
     inkscape:groupmode="layer"
     id="layer1"
     transform="translate(-28.280404,-558.04044)">
    <path
       style="fill:#2f2f2f;fill-opacity:1;fill-rule:evenodd;stroke:#000000;stroke-width:3.06221366px;stroke-linecap:butt;stroke-linejoin:miter;stroke-opacity:1"
       d="m 261.82977,1003.8926 c -19.32723,18.856 -25.0344,15.2266 -51.40147,21.873 -29.83601,7.5208 -32.99992,7.827 -63.43155,3.2809 -13.41801,-2.0044 -59.933528,-0.2982 -68.352993,-10.9364 -12.092468,-15.2793 -38.807925,-5.7001 -39.91813,-25.15395 -1.649768,-28.90883 -16.085135,-19.45109 -4.374617,-45.93321 8.99905,-20.35043 26.049792,-36.31917 31.956864,-41.296 10.036865,-8.45633 3.736391,-11.22586 11.789063,-15.57365 30.077673,-16.23957 18.652557,-0.0609 32.809443,-16.95156 3.60695,-4.30342 2.02605,-3.70471 4.06454,-7.77274 2.03833,-4.06799 57.98492,-8.9592 62.9314,-11.61658 32.78152,-17.61107 25.24915,-12.8948 62.0546,-7.40505 25.20059,3.7588 21.5718,2.76092 43.74593,15.31107 9.91147,5.60973 22.87952,13.51642 31.16896,21.32611 9.79596,7.38952 22.74438,15.10376 11.48327,36.09036 l -6.56189,37.73089 c -2.22424,12.78949 -18.16527,16.08871 -26.79489,25.64956 -8.6296,9.56084 -21.37894,14.09277 -31.16841,21.37725 z"
       id="path4151"
       inkscape:connector-curvature="0"
       sodipodi:nodetypes="cssssssssssssccsssc" />
    <path
       style="fill:#2f2f2f;fill-opacity:1;fill-rule:evenodd;stroke:#000000;stroke-width:3.06221366px;stroke-linecap:butt;stroke-linejoin:miter;stroke-opacity:1"
       d="m 103.30484,941.5436 3.09332,11.59988 c 0,0 5.91788,5.28211 9.27989,7.34662 6.96908,4.27951 13.7064,3.72084 23.19979,8.50655 6.15171,3.10117 13.60422,8.17979 20.49313,8.11995 11.54877,-0.10044 35.1863,0.77331 35.1863,0.77331 13.06895,-2.55986 25.25426,-1.75462 36.73297,-8.50659 11.28622,-6.63873 30.54639,-18.94647 30.54639,-18.94647 z"
       id="path4157"
       inkscape:connector-curvature="0"
       sodipodi:nodetypes="ccssssscc" />
    <path
       style="fill:#2f2f2f;fill-opacity:1;fill-rule:evenodd;stroke:#000000;stroke-width:3.06221366px;stroke-linecap:butt;stroke-linejoin:miter;stroke-opacity:1"
       d="m 115.11987,914.9141 c -4.18455,2.66422 -10.26837,8.843 -10.65504,10.38966 -0.38666,1.54667 -3.81273,10.6227 -1.93333,15.46651 2.08344,5.36968 8.00396,8.6194 13.14655,11.21325 13.23146,6.67378 28.74383,7.30604 43.30625,10.05321 12.28735,2.31801 24.61748,5.63236 37.11964,5.41329 18.73021,-0.32821 38.23324,-2.31368 55.2928,-10.05325 6.59904,-2.99383 12.04844,-8.25471 17.01314,-13.53317 7.54527,-8.02205 14.13487,-17.16022 18.9465,-27.06642 2.52966,-5.20806 4.84571,-10.83941 5.02662,-16.6265 0.35164,-11.24914 -7.73325,-32.86635 -7.73325,-32.86635 l -12.75988,-11.59988 c 0,0 -109.65025,29.20936 -156.77,59.20965 z"
       id="path4155"
       inkscape:connector-curvature="0"
       sodipodi:nodetypes="ssssssssssccs" />
    <path
       style="fill:#505050;fill-opacity:1;fill-rule:evenodd;stroke:#000000;stroke-width:3.06221366px;stroke-linecap:butt;stroke-linejoin:miter;stroke-opacity:1"
       d="m 115.00754,938.00038 c -12.20797,-22.8929 18.87962,-47.71891 21.32612,-73.54786 0.62258,-6.57285 -1.95244,-16.6573 -2.46067,-23.23999 -0.64604,-8.36765 -1.10761,-14.47215 4.10116,-21.05269 4.83676,-6.11059 14.01759,-1.85999 20.2325,-6.56193 7.80087,-5.9018 0.89983,-14.81774 8.20233,-21.32611 3.1854,-2.83901 5.85568,-0.64518 7.92896,-4.37462 8.36008,-15.03835 5.96926,-21.33726 7.65553,-27.34116 3.94346,-14.04052 23.78535,-14.98996 26.24755,-21.87296 4.533,-12.67187 -2.24344,-25.87666 4.92141,-38.00428 2.63543,-4.46088 8.83804,-7.18095 10.66305,-12.03012 0.78108,-2.07535 -4.23565,-9.10111 -4.9214,-11.20988 -3.02498,-9.30239 -6.50176,-10.98569 -8.74918,-20.5059 -1.34008,-5.67676 1.1649,-9.11158 -0.27345,-14.76424 -6.95907,-27.34992 -42.37887,-82.57042 -42.37887,-82.57042 1.56976,-0.39243 62.66815,63.1384 71.08709,76.55534 1.65553,2.63834 1.94778,-0.37993 4.92144,0.54682 9.75132,3.039 11.36783,16.34901 19.95905,21.87299 3.42828,2.20431 8.10259,4.19772 11.20988,6.83526 4.13166,3.50706 4.67398,8.44139 8.47581,12.30355 2.18501,2.21971 7.11974,2.81374 8.74917,5.46826 3.51356,5.72389 1.77612,24.55745 0.27346,31.44238 -7.5994,34.81819 -9.81825,32.5565 -9.84284,42.92568 -0.009,3.59038 1.58628,13.64124 1.36706,17.22492 -0.51917,8.4868 -5.12841,6.53526 -5.19483,15.03768 -0.0625,8.00324 3.53385,14.96709 3.28095,22.96657 -0.24927,7.88247 -5.51768,9.83552 -7.38214,17.49838 -0.78044,3.20754 0.78046,5.81505 3e-5,9.02259 -0.62148,2.55429 -4.26542,5.05474 -4.64804,7.65554 -2.38574,16.21607 13.46562,30.48274 12.03012,41.01177 -2.65877,19.50146 -11.55658,38.92637 -22.69318,51.40146 -5.22696,5.8552 -28.96521,7.49706 -51.67486,14.21743 -44.41545,2.07502 -75.21018,-4.29632 -92.41321,-15.58446 z"
       id="path4153"
       inkscape:connector-curvature="0"
       sodipodi:nodetypes="cssssssssssssscsssssssssssssssscc" />
    <path
       style="fill:none;fill-rule:evenodd;stroke:#000000;stroke-width:1.53110683;stroke-linecap:butt;stroke-linejoin:miter;stroke-miterlimit:4;stroke-dasharray:none;stroke-opacity:1"
       d="m 211.18378,648.45316 c 0,0 -0.38207,5.18402 1.15999,6.95992 1.68373,1.93905 4.78441,2.49356 7.34659,2.31996 5.11953,-0.34686 9.7568,-3.57345 13.91988,-6.57326 3.32816,-2.39817 6.808,-5.15924 8.50658,-8.89325 0.58948,-1.29583 -0.66456,-3.29328 0.38667,-4.25329 0.0952,-0.087 0.38666,0 0.38666,0"
       id="path4159"
       inkscape:connector-curvature="0"
       sodipodi:nodetypes="csssssc" />
    <path
       style="fill:none;fill-rule:evenodd;stroke:#000000;stroke-width:1.53110683;stroke-linecap:butt;stroke-linejoin:miter;stroke-miterlimit:4;stroke-dasharray:none;stroke-opacity:1"
       d="m 216.40375,671.4596 c 0,0 9.09781,3.00088 12.95319,3.67328 5.71933,0.99748 11.62747,1.39438 17.39984,0.77333 4.50709,-0.48493 9.26329,-1.14126 13.14655,-3.47996 1.95335,-1.17641 3.55633,-3.0203 4.63993,-5.02663 1.26267,-2.33791 1.93332,-7.73325 1.93332,-7.73325"
       id="path4161"
       inkscape:connector-curvature="0"
       sodipodi:nodetypes="cssssc" />
    <path
       style="fill:none;fill-rule:evenodd;stroke:#000000;stroke-width:1.53110683;stroke-linecap:butt;stroke-linejoin:miter;stroke-miterlimit:4;stroke-dasharray:none;stroke-opacity:1"
       d="m 223.36367,685.57279 c 0,0 8.98671,2.14177 12.9532,2.31996 7.41114,0.33296 22.0398,-2.95659 22.0398,-2.95659"
       id="path4163"
       inkscape:connector-curvature="0"
       sodipodi:nodetypes="csc" />
    <path
       style="fill:none;fill-rule:evenodd;stroke:#000000;stroke-width:1.53110683;stroke-linecap:butt;stroke-linejoin:miter;stroke-miterlimit:4;stroke-dasharray:none;stroke-opacity:1"
       d="m 218.88956,694.55585 c 0,0 18.43438,2.42568 26.32056,2.61682 3.86764,0.0937 8.10397,1.27045 11.59988,-0.38667 3.71416,-1.76055 7.10758,-3.0036 7.9266,-7.15327"
       id="path4165"
       inkscape:connector-curvature="0"
       sodipodi:nodetypes="cssc" />
    <path
       style="fill:none;fill-rule:evenodd;stroke:#000000;stroke-width:1.53110683;stroke-linecap:round;stroke-linejoin:miter;stroke-miterlimit:4;stroke-dasharray:none;stroke-opacity:1"
       d="m 208.85006,740.94567 c 0,0 16.29772,7.92384 24.51422,10.72702 20.65311,7.04613 34.80372,2.94288 34.80372,2.94288"
       id="path4167"
       inkscape:connector-curvature="0"
       sodipodi:nodetypes="csc" />
    <path
       style="fill:none;fill-rule:evenodd;stroke:#000000;stroke-width:1.53110683;stroke-linecap:round;stroke-linejoin:miter;stroke-miterlimit:4;stroke-dasharray:none;stroke-opacity:1"
       d="m 147.96441,816.07151 c 15.99026,8.32965 27.60683,7.9119 40.79294,10.63323"
       id="path4169"
       inkscape:connector-curvature="0"
       sodipodi:nodetypes="cc" />
    <path
       style="fill:#000000;fill-opacity:0.40883998;fill-rule:evenodd;stroke:none;stroke-width:1px;stroke-linecap:butt;stroke-linejoin:miter;stroke-opacity:1"
       d="m 278.8335,901.61479 -6.90115,20.61344 -16.46256,19.89036 c 0,0 -38.32306,10.6445 -49.76851,10.63327 l -39.50586,-0.0389 c -56.18394,-2.22097 -57.08405,-27.25665 -53.51589,-28.1487 28.14909,13.59231 100.99113,17.29845 115.04816,-2.4299 12.0146,-14.7038 21.95179,-23.43469 29.7161,-47.31301 13.85214,-40.17309 15.22508,-79.57698 23.74563,-121.08029 l 2.96061,23.18647 -5.01523,7.64414 3.02127,30.69419 -7.20254,11.4558 1.09367,9.84282 -7.65554,13.12379 0.69561,5.50041 12.63384,5.60428 -0.13167,30.39899 z"
       id="path4272"
       inkscape:connector-curvature="0"
       sodipodi:nodetypes="cccsccccccccccccccc" />
  </g>
</svg>
