<?xml version="1.0" encoding="UTF-8" standalone="no"?>
<!-- Created with Inkscape (http://www.inkscape.org/) -->

<svg
   xmlns:dc="http://purl.org/dc/elements/1.1/"
   xmlns:cc="http://creativecommons.org/ns#"
   xmlns:rdf="http://www.w3.org/1999/02/22-rdf-syntax-ns#"
   xmlns:svg="http://www.w3.org/2000/svg"
   xmlns="http://www.w3.org/2000/svg"
   xmlns:xlink="http://www.w3.org/1999/xlink"
   xmlns:sodipodi="http://sodipodi.sourceforge.net/DTD/sodipodi-0.dtd"
   xmlns:inkscape="http://www.inkscape.org/namespaces/inkscape"
   width="616.07782"
   height="266.0932"
   viewBox="0 0 616.07783 266.09321"
   id="svg12831"
   version="1.1"
   inkscape:version="0.91 r13725"
   sodipodi:docname="Eruption.svg"
   inkscape:export-filename="C:\Users\Amaury Punel\Desktop\GIT PROJET TUTORE\warfare-of-heroes\Images\PNG\Eruption.png"
   inkscape:export-xdpi="90"
   inkscape:export-ydpi="90">
  <defs
     id="defs12833">
    <linearGradient
       inkscape:collect="always"
       id="linearGradient13934">
      <stop
         style="stop-color:#ca0606;stop-opacity:1;"
         offset="0"
         id="stop13936" />
      <stop
         style="stop-color:#810404;stop-opacity:1"
         offset="1"
         id="stop13938" />
    </linearGradient>
    <linearGradient
       inkscape:collect="always"
       id="linearGradient13926">
      <stop
         style="stop-color:#0a0a0a;stop-opacity:1"
         offset="0"
         id="stop13928" />
      <stop
         style="stop-color:#1e1e1e;stop-opacity:0"
         offset="1"
         id="stop13930" />
    </linearGradient>
    <radialGradient
       inkscape:collect="always"
       xlink:href="#linearGradient13926"
       id="radialGradient13932"
       cx="259.53918"
       cy="801.3432"
       fx="259.53918"
       fy="801.3432"
       r="308.03891"
       gradientTransform="matrix(0.98336042,0.00467546,-0.00219448,0.4615507,8.6987955,448.62047)"
       gradientUnits="userSpaceOnUse" />
    <radialGradient
       inkscape:collect="always"
       xlink:href="#linearGradient13934"
       id="radialGradient13940"
       cx="252.76938"
       cy="810.08997"
       fx="252.76938"
       fy="810.08997"
       r="288.30682"
       gradientTransform="matrix(1,0,0,0.4293569,3.9324117,470.13709)"
       gradientUnits="userSpaceOnUse" />
  </defs>
  <sodipodi:namedview
     id="base"
     pagecolor="#ffffff"
     bordercolor="#666666"
     borderopacity="1.0"
     inkscape:pageopacity="0.0"
     inkscape:pageshadow="2"
     inkscape:zoom="0.76289062"
     inkscape:cx="428.3823"
     inkscape:cy="197.60131"
     inkscape:document-units="px"
     inkscape:current-layer="layer1"
     showgrid="false"
     units="px"
     fit-margin-top="0"
     fit-margin-left="0"
     fit-margin-right="0"
     fit-margin-bottom="0"
     inkscape:window-width="1366"
     inkscape:window-height="705"
     inkscape:window-x="-8"
     inkscape:window-y="-8"
     inkscape:window-maximized="1" />
  <metadata
     id="metadata12836">
    <rdf:RDF>
      <cc:Work
         rdf:about="">
        <dc:format>image/svg+xml</dc:format>
        <dc:type
           rdf:resource="http://purl.org/dc/dcmitype/StillImage" />
        <dc:title></dc:title>
      </cc:Work>
    </rdf:RDF>
  </metadata>
  <g
     inkscape:label="Calque 1"
     inkscape:groupmode="layer"
     id="layer1"
     transform="translate(45.878113,-686.64786)">
    <ellipse
       style="opacity:1;fill:url(#radialGradient13932);fill-opacity:1;stroke:none;stroke-width:4;stroke-linecap:square;stroke-linejoin:round;stroke-miterlimit:4;stroke-dasharray:none;stroke-opacity:1"
       id="path13924"
       cx="262.1608"
       cy="819.69446"
       rx="308.03891"
       ry="133.0466" />
    <ellipse
       style="opacity:1;fill:#d93606;fill-opacity:0;stroke:none;stroke-width:4;stroke-linecap:square;stroke-linejoin:round;stroke-miterlimit:4;stroke-dasharray:none;stroke-opacity:1"
       id="path13841"
       cx="249.70815"
       cy="810.19116"
       rx="221.52586"
       ry="115.67844" />
    <path
       style="fill:url(#radialGradient13940);fill-opacity:1"
       d="m 359.45616,937.17835 c -2.2877,-2.50956 -5.11454,-5.54159 -6.28186,-6.73785 -3.18791,-3.26693 -10.12288,-10.88282 -10.26515,-11.27305 -0.18912,-0.51873 3.99647,-2.42346 5.32549,-2.42346 0.64157,0 1.16649,-0.21224 1.16649,-0.47165 0,-0.2594 0.3985,-0.47164 0.88555,-0.47164 0.48704,0 1.14293,-0.31014 1.45752,-0.6892 0.31459,-0.37906 1.03036,-0.82455 1.5906,-0.98997 0.56024,-0.16542 2.88116,-1.244 5.15761,-2.39684 2.27645,-1.15285 4.37859,-1.94801 4.67142,-1.76704 0.31036,0.19182 0.40244,0.11876 0.22077,-0.17518 -0.1714,-0.27733 -0.0863,-0.57936 0.18916,-0.67117 0.30684,-0.10228 -0.24259,-2.39858 -1.41867,-5.92917 l -1.91946,-5.76225 0.94997,-0.94996 c 0.52247,-0.52248 1.14451,-0.94996 1.3823,-0.94996 0.23778,0 0.52014,-0.26341 0.62745,-0.58535 0.1393,-0.41789 0.43645,-0.34401 1.03874,0.25828 0.464,0.464 0.68319,0.9927 0.48709,1.17491 -0.1961,0.1822 -0.45129,0.066 -0.5671,-0.25829 -0.1158,-0.32425 -0.40511,-0.58955 -0.64289,-0.58955 -0.76628,0 -0.43308,0.68536 0.75265,1.54812 0.93935,0.68348 1.1035,0.70553 0.878,0.11791 -0.39347,-1.02538 0.46423,-0.89562 1.47696,0.22344 0.47096,0.5204 0.95098,0.85148 1.06672,0.73574 0.11574,-0.11574 -0.44795,-0.91294 -1.25265,-1.77156 -0.80469,-0.85861 -1.46371,-1.87948 -1.46449,-2.26859 -9.4e-4,-0.38911 0.84996,-1.50853 1.89051,-2.48761 2.14819,-2.02127 2.17776,-3.04234 0.17461,-6.02735 -0.61863,-0.92186 -1.12478,-1.84139 -1.12478,-2.04339 0,-0.202 -1.31378,-2.10075 -2.9195,-4.21945 -5.40263,-7.12862 -6.04176,-8.01468 -6.04176,-8.37603 0,-0.19804 -1.17715,-2.02032 -2.61589,-4.0495 -1.43873,-2.02919 -3.44285,-4.96287 -4.45358,-6.5193 -1.54691,-2.38209 -5.49913,-8.10254 -11.91721,-17.24901 -1.11696,-1.59179 -1.54857,-1.8533 -3.06569,-1.85743 -0.97114,-0.003 -6.93524,-0.31916 -13.25355,-0.70337 -11.1257,-0.67654 -11.55497,-0.73958 -13.61787,-1.99968 -1.17152,-0.71562 -2.58145,-1.73698 -3.13317,-2.2697 -2.87199,-2.77306 -10.85328,-8.36914 -12.4398,-8.72215 -0.97316,-0.21654 -9.71249,-1.71129 -19.42073,-3.32166 -16.99839,-2.81965 -17.76605,-2.90592 -20.75239,-2.33195 -1.70557,0.32781 -5.22345,0.99321 -7.8175,1.47868 -2.59405,0.48547 -6.41437,1.20281 -8.48961,1.59409 -2.07524,0.39128 -6.53229,1.23092 -9.90455,1.86585 -3.37226,0.63494 -8.04155,1.39883 -10.37619,1.69754 -2.33465,0.29872 -8.48962,1.30198 -13.67771,2.22948 l -9.43291,1.68635 -3.64866,3.87652 c -2.00677,2.13208 -4.39825,4.80216 -5.31441,5.93351 -0.91615,1.13135 -3.09458,3.51574 -4.84094,5.29865 l -3.17521,3.24166 -11.79113,-0.29961 c -6.48512,-0.16479 -15.66038,-0.43317 -20.38945,-0.59639 l -8.59833,-0.29678 -1.11453,2.4056 c -0.61299,1.32308 -1.33787,2.67959 -1.61083,3.01447 -0.94023,1.15349 -7.19759,13.59992 -7.19759,14.31661 0,0.39486 0.82842,1.82308 1.84093,3.17382 1.01251,1.35075 2.19041,3.30486 2.61754,4.34248 0.42714,1.03762 1.63854,3.21094 2.69199,4.8296 1.05346,1.61865 1.81275,3.21047 1.6873,3.53737 -0.12544,0.32691 -2.74892,1.85143 -5.82994,3.38783 -3.08103,1.5364 -7.40591,3.78112 -9.61085,4.98827 -4.14313,2.26826 -6.26695,3.22821 -5.42392,2.4516 0.2594,-0.23897 3.54913,-2.73674 7.3105,-5.5506 3.76137,-2.81386 6.91004,-5.28524 6.99705,-5.49195 0.087,-0.20672 0.35231,-0.25588 0.58955,-0.10925 0.95991,0.59325 0.31371,-1.08561 -1.80895,-4.69975 -5.80811,-9.88918 -7.41376,-13.37858 -6.74603,-14.66051 2.64544,-5.07878 4.98033,-9.22547 6.39292,-11.35362 0.93521,-1.40896 2.33887,-3.78218 3.11924,-5.27383 0.78037,-1.49166 1.69617,-2.9949 2.0351,-3.34054 0.74456,-0.7593 8.31532,-1.23545 40.30198,-2.53471 2.6435,-0.10738 3.09641,-0.26639 3.7296,-1.3094 0.39639,-0.65295 1.60852,-2.56675 2.69361,-4.25288 1.08509,-1.68613 2.09015,-3.39535 2.23346,-3.79825 0.21484,-0.604 -1.40678,-1.1241 -9.23983,-2.96351 -5.22522,-1.22703 -13.00236,-3.06016 -17.28254,-4.07363 -4.28018,-1.01346 -8.32943,-1.95638 -8.99833,-2.09537 -0.73536,-0.15279 -3.48465,0.47364 -6.95388,1.58447 -3.15573,1.01044 -6.42878,1.96976 -7.27343,2.13181 l -1.53573,0.29465 1.88658,-1.21887 c 1.03762,-0.67037 3.26614,-1.99371 4.95227,-2.94074 1.68614,-0.94704 3.17847,-1.88405 3.3163,-2.08225 0.13784,-0.19819 1.47505,-0.92093 2.9716,-1.60607 2.45719,-1.12494 3.05019,-1.21341 6.1166,-0.91252 3.70186,0.36323 14.41433,2.275 30.27939,5.40373 8.87837,1.75089 8.70488,1.75124 12.73442,-0.0258 1.32144,-0.58274 8.4049,-3.13785 11.79113,-4.25323 1.55643,-0.51267 3.78495,-1.26217 4.95228,-1.66555 1.16732,-0.40338 2.69955,-0.84272 3.40495,-0.9763 1.26729,-0.23999 1.27372,-0.25996 0.54065,-1.67756 -1.51661,-2.9328 -7.91176,-13.36653 -8.99739,-14.67933 -1.5921,-1.92522 -2.96618,-4.76742 -2.96618,-6.13535 0,-0.64115 0.63672,-2.89261 1.41493,-5.00324 1.96507,-5.32954 1.96312,-5.33737 -1.53284,-6.18832 -1.62128,-0.39464 -7.28661,-2.15198 -12.58962,-3.90522 -5.30301,-1.75323 -10.07842,-3.08796 -10.61201,-2.96607 -0.5336,0.12189 -3.41095,1.32973 -6.39411,2.68409 -2.98315,1.35435 -7.4402,3.19597 -9.90455,4.0925 l -4.48063,1.63003 -3.30151,-0.81695 c -1.81584,-0.44933 -5.62461,-1.74533 -8.46394,-2.88001 l -5.16243,-2.06304 -2.3839,1.01652 c -1.31114,0.55909 -3.60858,1.6199 -5.10541,2.35736 -1.49684,0.73745 -2.83245,1.32752 -2.96802,1.31125 -0.45884,-0.055 -3.25059,1.14839 -8.93147,3.85006 -8.98818,4.27453 -10.99464,5.1793 -11.48586,5.1793 -0.53641,0 -12.242877,5.71524 -16.240367,7.92875 -1.50097,0.83112 -5.47518,3.31361 -8.83158,5.51663 -3.3564,2.20302 -6.20657,4.0055 -6.33371,4.0055 -0.20198,0 -5.08303,3.16673 -10.0626,6.52843 l -1.63608,1.10452 -13.73803,-3.78295 c -20.6347,-5.682 -19.68712,-5.51843 -23.90702,-4.12669 -1.92979,0.63646 -6.16172,2.24821 -9.40428,3.58168 -9.574671,3.93746 -11.636331,4.5396 -16.74340103,4.89017 -2.59404997,0.17807 -10.72767997,1.07261 -18.07472997,1.98786 -7.34706,0.91526 -13.69973,1.59835 -14.11705,1.51798 -0.78024,-0.15026 12.59587,-3.00084 16.39166,-3.49323 2.13606,-0.27708 12.56062,-2.24944 16.50758,-3.12327 1.16732,-0.25844 2.5468899,-0.50003 3.0656999,-0.53686 0.51881,-0.0368 1.0494101,-0.18256 1.1791101,-0.32385 0.52892,-0.57616 4.0682,-2.44922 6.77963,-3.58792 1.589,-0.66732 5.844351,-2.69027 9.456331,-4.49544 4.43662,-2.21731 6.88488,-3.19175 7.54632,-3.00353 4.41953,1.25757 25.67371,6.41437 28.09869,6.81745 1.68613,0.28027 3.72387,0.69968 4.52832,0.93204 1.74115,0.50291 3.46695,-0.53812 7.97028,-4.80787 1.55643,-1.4757 3.67883,-3.25488 4.71645,-3.95373 1.03762,-0.69884 2.32499,-1.70663 2.86083,-2.23952 0.53583,-0.53289 1.79805,-1.60561 2.80492,-2.38382 1.00687,-0.77822 2.58474,-2.18646 3.50638,-3.12944 0.92164,-0.94298 3.09899,-2.35806 4.83855,-3.14462 1.73956,-0.78655 4.28644,-2.16289 5.65974,-3.05851 1.3733,-0.89563 5.680507,-3.27495 9.571577,-5.28737 3.89107,-2.01242 7.39304,-3.92075 7.78214,-4.24075 0.60364,-0.49643 3.92715,-2.23814 8.48962,-4.44904 2.59821,-1.25906 4.20653,-2.27599 3.97141,-2.51111 -0.26222,-0.26223 -1.16789,-0.22387 -19.77153,0.83734 -13.359467,0.76206 -11.832507,0.42632 -30.656927,6.74081 -7.57206,2.53999 -13.21242,4.18838 -13.91354,4.06622 -11.62141,-2.02484 -22.917891,-4.11134 -23.071311,-4.26135 -0.2788,-0.27262 1.2203,-0.23916 13.156491,0.29368 l 10.60174,0.47327 5.83569,-1.70269 c 3.20963,-0.93648 6.55738,-2.00424 7.43945,-2.37279 0.88206,-0.36855 3.14215,-0.98988 5.02242,-1.38073 1.88027,-0.39086 4.69211,-1.1195 6.24854,-1.61922 1.55643,-0.49971 3.25435,-0.97283 3.77316,-1.05138 0.51881,-0.0785 1.07529,-0.32359 1.23662,-0.54454 0.2994,-0.41007 12.893377,-1.56243 31.091257,-2.84488 l 10.16055,-0.71604 7.99779,2.37386 c 4.39878,1.30562 9.37667,2.78088 11.06198,3.27835 3.36147,0.99224 5.23198,1.13965 5.92065,0.46658 0.24643,-0.24086 1.50926,-0.85857 2.80629,-1.3727 1.29702,-0.51412 4.64297,-2.01499 7.43544,-3.33524 2.79248,-1.32026 5.3799,-2.40047 5.74983,-2.40047 1.14061,0 1.27359,-0.85021 0.31024,-1.98368 -0.50578,-0.59511 -1.84328,-2.20536 -2.97223,-3.57834 l -2.05263,-2.49633 -19.56379,0.0282 -19.5638,0.0281 -4.40008,-1.42797 c -2.42005,-0.78538 -8.42453,-3.02533 -13.34329,-4.97766 -4.91877,-1.95233 -10.36714,-3.8433 -12.107497,-4.20214 -1.74036,-0.35885 -6.98462,-0.89631 -11.65391,-1.19437 -11.3215,-0.72271 -15.06694,-1.00763 -15.22075,-1.15789 -0.0705,-0.0688 -0.0705,-4.34767 0,-9.50854 l 0.12811,-9.38341 1.04227,4.24481 c 0.57325,2.33464 1.50144,6.31415 2.06263,8.84335 0.96282,4.3392 1.08779,4.59854 2.21593,4.59854 0.65756,0 5.49641,-0.33239 10.75301,-0.73863 10.37509,-0.80181 10.23754,-0.81627 15.998027,1.68133 1.29702,0.56235 5.22347,1.98458 8.72543,3.1605 3.50197,1.17592 6.9452,2.4342 7.65163,2.79617 2.11613,1.0843 7.89881,3.06932 8.27241,2.83968 0.19125,-0.11755 4.27417,-0.3612 9.07316,-0.54144 4.79899,-0.18024 10.60175,-0.42879 12.89502,-0.55232 3.53428,-0.19038 4.32477,-0.0955 5.1881,0.62272 0.56018,0.46603 0.75321,0.54521 0.42895,0.17596 -0.32425,-0.36926 -0.58955,-0.7896 -0.58955,-0.9341 0,-0.14451 1.62421,-0.31786 3.60935,-0.38524 2.83433,-0.0962 3.79644,0.0468 4.48063,0.66598 0.8109,0.73384 0.93105,0.7344 1.73379,0.008 0.90007,-0.81455 2.04866,-1.01369 2.60987,-0.45249 0.18044,0.18045 0.58724,0.36975 0.90398,0.42067 0.31675,0.0509 3.12279,0.77228 6.23565,1.60302 3.11286,0.83074 7.56991,1.88424 9.90455,2.34111 2.33464,0.45686 8.62223,1.96725 13.9724,3.35641 l 9.7276,2.52575 3.95011,-3.18459 c 2.17257,-1.75152 4.69296,-3.7836 5.60088,-4.51574 0.90791,-0.73214 3.03032,-2.48268 4.71645,-3.8901 1.68613,-1.40741 3.53943,-2.88629 4.11844,-3.28639 1.28433,-0.88748 5.56487,-4.48929 7.12563,-5.99577 0.62707,-0.60527 2.22707,-1.85554 3.55555,-2.77839 3.74866,-2.60406 7.3677,-5.79673 7.3677,-6.49968 0,-0.35028 -0.89953,-1.02365 -1.99894,-1.49637 -1.09942,-0.47273 -2.85041,-1.30223 -3.89108,-1.84334 -10.87607,-5.65512 -13.27374,-6.93824 -13.65967,-7.30999 -0.24644,-0.23739 -0.83676,-0.43161 -1.31183,-0.43161 -0.47507,0 -0.99525,-0.37142 -1.15597,-0.82538 -0.99155,-2.80081 -4.87276,-10.3955 -5.67286,-11.10056 -1.14268,-1.00696 -5.80106,-3.89799 -8.27259,-5.13405 -0.97277,-0.4865 -1.76867,-1.02509 -1.76867,-1.19687 0,-0.17178 0.47676,-0.85661 1.05949,-1.52184 l 1.05948,-1.20951 -1.41322,1.25277 -1.41322,1.25277 -4.92093,-3.24483 c -2.70652,-1.78466 -6.01368,-3.79771 -7.34925,-4.47344 -1.33557,-0.67574 -2.95149,-1.68948 -3.59095,-2.25275 -0.63945,-0.56328 -0.93287,-0.87678 -0.65205,-0.69667 0.28083,0.18011 2.20102,0.98788 4.26708,1.79505 5.11913,1.99995 8.62494,3.51129 13.78083,5.94086 2.40053,1.13119 6.90887,3.05532 10.01853,4.27586 l 5.65394,2.21916 1.41356,2.86118 c 0.77747,1.57364 2.22783,4.13461 3.22304,5.69104 1.98982,3.11192 4.17076,4.49972 9.99225,6.35839 5.52883,1.76522 17.46336,6.88219 18.00928,7.72152 0.17743,0.27279 0.46261,1.51403 0.63374,2.75832 0.17114,1.24429 0.47836,2.36568 0.68271,2.49198 0.20435,0.12629 3.7395,-0.59841 7.85587,-1.61047 4.11638,-1.01205 8.50504,-1.979 9.75258,-2.14877 1.24755,-0.16978 3.43576,-0.61278 4.8627,-0.98445 l 2.59443,-0.67576 4.1739,2.09274 c 2.29564,1.15101 5.62567,2.98748 7.40007,4.08105 1.77441,1.09357 3.54455,1.96948 3.93366,1.94647 0.3891,-0.023 4.83888,-1.42395 9.88839,-3.11322 5.04951,-1.68926 9.22931,-3.02301 9.28844,-2.96388 0.20294,0.20294 -16.11696,8.3358 -16.72712,8.3358 -0.33549,0 -1.27671,0.34479 -2.09162,0.76619 -1.33557,0.69065 -1.62386,0.69564 -2.92436,0.0506 -5.60444,-2.77998 -6.94021,-3.50564 -9.43656,-5.12644 -1.59857,-1.03791 -3.38722,-1.82168 -4.15725,-1.82168 -0.74333,0 -4.15004,0.82976 -7.57045,1.84392 -8.20422,2.43256 -14.68649,4.11776 -17.3026,4.49817 -2.81083,0.40872 -3.90662,1.19315 -5.80339,4.15438 -0.87149,1.36057 -2.80084,3.85333 -4.28746,5.53946 -1.48661,1.68613 -3.0317,3.70242 -3.43352,4.48063 -0.40183,0.77822 -1.31595,2.05166 -2.03138,2.82987 -0.71543,0.77822 -3.91409,4.9169 -7.10813,9.19708 -3.19404,4.28018 -6.40525,8.4061 -7.13603,9.16871 -0.73077,0.76261 -1.32868,1.59153 -1.32868,1.84206 0,0.25053 -0.52951,1.14973 -1.17669,1.99823 -1.05964,1.38925 -1.53358,4.24348 -0.60983,3.67257 0.20437,-0.12631 0.37159,-0.0174 0.37159,0.24199 0,0.25941 -0.21224,0.60282 -0.47165,0.76314 -0.2594,0.16032 -0.45488,0.54427 -0.43441,0.85321 0.0266,0.40205 0.10514,0.3933 0.27611,-0.0308 0.13138,-0.32587 0.46577,-0.45226 0.74311,-0.28086 0.29803,0.18419 0.36661,0.089 0.1677,-0.23288 -0.18509,-0.29949 -0.16483,-0.53677 0.045,-0.5273 0.20986,0.009 0.95586,0.91149 1.65777,2.00449 0.70191,1.093 2.25401,3.22072 3.44911,4.72827 l 2.17292,2.74099 9.52113,-0.26374 c 5.23662,-0.14506 14.3031,-0.37746 20.14773,-0.51645 l 10.62661,-0.25271 2.09577,1.78444 c 3.69646,3.14734 5.60032,5.30287 5.01713,5.68034 -0.29648,0.1919 -0.96021,0.87951 -1.47497,1.52802 -0.85267,1.07424 -0.80706,1.06244 0.51277,-0.13258 0.91794,-0.83115 1.73438,-1.20205 2.22852,-1.01243 0.42892,0.16459 5.07971,-0.0475 10.33508,-0.47126 5.25538,-0.42377 11.9126,-0.94027 14.79384,-1.14776 4.25821,-0.30666 5.51244,-0.57225 6.70178,-1.41914 0.80474,-0.57302 3.64725,-2.00033 6.31669,-3.1718 2.66944,-1.17146 8.67386,-4.00649 13.34315,-6.30007 4.66928,-2.29358 9.86917,-4.7706 11.5553,-5.50451 1.68613,-0.73391 3.5963,-1.73017 4.24481,-2.21392 3.14271,-2.34426 3.63944,-2.39855 30.89276,-3.37689 4.66929,-0.16761 10.18753,-0.59805 12.26277,-0.95652 2.07524,-0.35847 5.68333,-0.89632 8.01797,-1.19523 2.33464,-0.2989 5.09377,-0.72774 6.13139,-0.95297 1.03762,-0.22522 4.89709,-0.96906 8.57659,-1.65296 l 6.69002,-1.24347 6.28021,1.1955 c 10.5283,2.00415 14.1561,2.60874 17.5997,2.93305 1.8159,0.17101 4.6678,0.58919 6.3377,0.92928 2.5131,0.51183 3.6912,0.5101 6.8389,-0.01 2.0914,-0.34561 6.3495,-0.97765 9.4624,-1.40454 3.1129,-0.42689 10.5392,-1.66528 16.503,-2.75199 l 10.8431,-1.97582 4.2557,2.12241 c 2.3406,1.16732 7.3708,3.60302 11.1782,5.41266 3.8074,1.80965 6.8359,3.37685 6.7301,3.48268 -0.1059,0.10582 -1.4197,-0.24197 -2.9198,-0.77289 -3.5438,-1.25427 -13.9082,-4.42115 -18.9442,-5.78842 -3.8929,-1.05695 -4.0169,-1.06135 -8.0179,-0.28416 -2.2352,0.43417 -4.7006,0.88766 -5.4788,1.00776 -0.7783,0.1201 -7.1985,1.53587 -14.2672,3.14616 l -12.8522,2.9278 -15.9182,-2.23543 c -8.7549,-1.22948 -16.29848,-2.31149 -16.76333,-2.40444 -0.72077,-0.14411 -26.61003,5.08474 -31.46246,6.35446 -2.37081,0.62037 -4.18923,0.90486 -8.71762,1.36385 -3.91448,0.39677 -4.07275,0.46229 -7.19328,2.97771 -3.09932,2.49832 -5.64241,4.36345 -7.26581,5.32882 -1.54235,0.91717 -8.67567,6.0616 -9.83845,7.09532 -0.64851,0.57653 -2.6648,1.94332 -4.48063,3.03731 -3.22286,1.94168 -3.63302,2.05043 -17.21505,4.56409 -12.20151,2.25817 -18.96217,3.39442 -20.50478,3.44619 -0.68056,0.0228 8.14794,6.38862 10.5032,7.57331 1.11396,0.56033 2.92419,1.68897 4.02272,2.5081 2.21573,1.65218 7.43267,5.15136 10.6883,7.16902 1.16347,0.72106 3.49811,1.59569 5.18809,1.94364 1.68999,0.34794 4.87675,1.05606 7.0817,1.57358 2.20494,0.51752 8.78439,1.91117 14.621,3.09698 5.83661,1.18582 15.60983,3.22957 21.71828,4.54168 l 11.10626,2.38566 7.52372,-2.3653 c 4.13805,-1.30092 8.37268,-2.50611 9.4103,-2.67819 2.02649,-0.3361 2.32556,-0.41027 3.77316,-0.93587 4.27338,-1.55154 4.14518,-1.53949 7.45868,-0.70149 1.7676,0.44704 5.0542,1.0866 7.3034,1.42123 3.7154,0.55275 4.2844,0.78185 6.219,2.50396 l 2.1295,1.89554 -1.6507,-1.81764 c -1.5773,-1.73673 -1.5983,-1.8047 -0.4717,-1.52668 4.191,1.03421 6.1289,1.34971 6.6805,1.08766 2.4853,-1.18065 11.8745,-7.35978 14.0495,-9.24615 0.6105,-0.5295 1.3458,-0.96274 1.6339,-0.96274 0.2882,0 1.9005,-0.9597 3.5831,-2.13266 10.0524,-7.00786 9.7042,-6.8307 13.378,-6.80616 1.8474,0.0124 7.1755,0.49602 11.8402,1.07485 l 8.4814,1.05241 0.7857,7.29686 c 0.4321,4.01326 1.0471,10.01449 1.3666,13.33606 l 0.5809,6.03921 2.4236,2.09237 c 1.3329,1.1508 3.7379,2.99632 5.3444,4.10116 4.2285,2.90815 18.0917,13.23738 20.8798,15.55712 0.9079,0.75543 2.952,2.2609 4.5424,3.34549 2.9971,2.0439 7.9811,5.98097 7.5713,5.98097 -0.1285,0 -3.5964,-1.69646 -7.7065,-3.76991 -4.1102,-2.07345 -7.6531,-3.77138 -7.8732,-3.77316 -0.2201,-0.002 -3.9343,-1.86792 -8.2538,-4.14696 -4.3194,-2.27903 -8.9147,-4.53738 -10.2117,-5.01855 -1.2971,-0.48117 -2.5705,-1.03261 -2.8299,-1.22543 -0.2594,-0.19281 -3.3369,-1.7998 -6.8389,-3.57108 -3.5019,-1.77128 -6.5254,-3.4408 -6.7187,-3.71004 -0.1934,-0.26924 -0.7547,-1.55073 -1.2474,-2.84776 -0.4926,-1.29702 -1.5228,-3.73779 -2.2892,-5.42392 -0.7664,-1.68613 -1.8403,-4.55137 -2.3865,-6.36721 -0.5462,-1.81583 -1.2716,-3.68173 -1.612,-4.14644 -0.5941,-0.81099 -0.7134,-0.80932 -2.9692,0.0415 -1.2926,0.48752 -4.5788,1.65087 -7.3025,2.58523 -4.7822,1.64049 -9.059,3.19851 -16.5076,6.01373 -1.9455,0.73532 -5.5536,1.98223 -8.018,2.77092 l -4.4806,1.43398 -7.5463,-1.18215 c -4.1505,-0.65017 -9.2443,-1.22181 -11.3195,-1.2703 l -3.7732,-0.0882 -8.01794,4.08145 c -9.11613,4.64045 -13.21837,6.50314 -14.32595,6.50492 -0.42168,4.7e-4 -2.14626,-0.30322 -3.83239,-0.67533 -1.68613,-0.37211 -4.65749,-0.9339 -6.60303,-1.24843 -3.37552,-0.5457 -26.69011,-5.39658 -28.41662,-5.91241 -0.63579,-0.18995 -0.82538,0.0315 -0.82538,0.9643 0,0.66599 0.18749,1.2109 0.41664,1.2109 0.22915,0 0.53065,0.37142 0.67001,0.82537 0.70412,2.29365 6.76852,15.61878 9.49827,20.8703 0.3371,0.64852 0.87804,2.02808 1.20209,3.0657 0.32404,1.03762 1.12478,2.88882 1.77941,4.11379 1.3211,2.47209 0.51208,2.06544 11.90242,5.98259 9.09225,3.12684 8.85557,3.08987 11.08366,1.73119 2.87125,-1.75088 9.41562,-5.30127 14.14045,-7.67136 2.32975,-1.16865 4.77433,-2.50821 5.43241,-2.9768 1.18453,-0.84346 1.24781,-0.82908 6.32225,1.43704 2.8193,1.25897 5.7588,2.42805 6.5324,2.59797 0.7736,0.16991 2.9203,1.00852 4.7703,1.86358 9.2922,4.29471 11.95,5.37285 12.8057,5.19472 0.5138,-0.10694 2.7382,-0.51528 4.9431,-0.90742 2.205,-0.39214 6.3437,-1.14221 9.1971,-1.66683 2.8535,-0.52462 5.8643,-1.06492 6.6907,-1.20066 1.3387,-0.21989 2.4364,0.42312 10.0617,5.8938 l 8.5591,6.14062 8.0967,-0.71262 c 4.4531,-0.39194 8.3089,-0.70597 8.5683,-0.69785 1.3128,0.0411 -12.6622,3.36362 -15.0927,3.58826 l -2.8299,0.26154 -4.1528,-3.23199 c -2.2841,-1.7776 -5.7686,-4.35708 -7.7433,-5.73219 l -3.5905,-2.50021 -2.1612,0.92328 c -1.1887,0.5078 -3.1163,1.1707 -4.2837,1.4731 -1.1673,0.3024 -5.6634,1.80791 -9.9914,3.34559 -4.328,1.53768 -7.9855,2.79578 -8.1276,2.79578 -0.1422,0 -1.6949,-0.88288 -3.4504,-1.96194 -1.7556,-1.07907 -4.3612,-2.51169 -5.7903,-3.1836 -2.8699,-1.34935 -9.4323,-5.01436 -12.7301,-7.10958 -1.1673,-0.74165 -2.37837,-1.36513 -2.69121,-1.38552 -0.31284,-0.0204 -1.6416,0.59548 -2.95281,1.36859 -1.31121,0.77312 -4.98169,2.70709 -8.15664,4.29772 -3.17494,1.59062 -6.93994,3.51391 -8.36667,4.27397 -1.42672,0.76006 -3.65525,1.92134 -4.95227,2.58062 l -2.35823,1.1987 -3.77316,-1.74654 c -4.02344,-1.86238 -12.89758,-5.4071 -13.53658,-5.4071 -0.2111,0 -1.25756,1.85711 -2.32545,4.1269 -1.06789,2.26979 -2.81505,5.93094 -3.88257,8.13588 -1.79613,3.70988 -1.95891,4.37479 -2.18183,8.91207 -0.18142,3.69255 -0.41556,4.99702 -0.94836,5.28354 -0.38911,0.20925 -2.5934,1.23927 -4.89844,2.28893 -2.30503,1.04967 -5.85342,2.89017 -7.88531,4.09 -3.10836,1.8355 -3.62451,2.31203 -3.25404,3.00426 0.24217,0.4525 0.34166,0.95675 0.22108,1.12056 -0.12057,0.16381 -0.0709,0.1849 0.11034,0.0469 0.31734,-0.24165 3.44359,4.32781 3.44359,5.03328 0,0.18997 1.18548,2.10997 2.63439,4.26666 2.72605,4.0577 4.15094,6.51531 3.7775,6.51531 -0.11845,0 -2.08713,-2.05328 -4.37483,-4.56284 z m 53.14543,-92.83189 c 0.60925,-0.64852 1.0016,-1.17912 0.8719,-1.17912 -0.12971,0 -0.7343,0.5306 -1.34355,1.17912 -0.60924,0.64851 -1.0016,1.17911 -0.87189,1.17911 0.1297,0 0.73429,-0.5306 1.34354,-1.17911 z m 7.29476,-6.49787 c 0.22154,0.20156 0.25281,0.10553 0.0695,-0.21342 -0.45265,-0.78753 -1.39128,-0.11356 -4.04386,2.90366 l -2.10352,2.39269 2.83755,-2.72471 c 1.56065,-1.49859 3.0188,-2.55979 3.24034,-2.35822 z M 211.9931,819.46717 c -0.13083,-0.32425 -0.23789,-0.0589 -0.23789,0.58956 0,0.64851 0.10706,0.91381 0.23789,0.58955 0.13084,-0.32425 0.13084,-0.85485 0,-1.17911 z m 267.45442,1.24789 c -0.1568,-0.15672 -0.5636,-0.17347 -0.904,-0.0372 -0.3763,0.15056 -0.2645,0.26232 0.2849,0.28495 0.4972,0.0205 0.7758,-0.091 0.6191,-0.24772 z M 243.75262,810.4611 c 0,-0.0895 -0.47755,-0.56704 -1.06121,-1.0612 l -1.0612,-0.89848 0.89848,1.0612 c 0.84435,0.99727 1.22393,1.27592 1.22393,0.89848 z m 28.35887,-1.1343 c 0.58666,-0.74806 0.56998,-0.76474 -0.17808,-0.17807 -0.45395,0.35602 -0.82537,0.72744 -0.82537,0.82538 0,0.38818 0.38731,0.13833 1.00345,-0.64731 z m -32.13204,-2.62975 c 0,-0.0845 -0.58366,-0.66814 -1.29702,-1.29702 l -1.29702,-1.14342 1.14341,1.29703 c 1.0687,1.21226 1.45063,1.51332 1.45063,1.14341 z m 35.84504,-1.0255 c 0.60924,-0.64851 1.0016,-1.17911 0.87189,-1.17911 -0.1297,0 -0.73429,0.5306 -1.34354,1.17911 -0.60925,0.64851 -1.0016,1.17911 -0.8719,1.17911 0.12971,0 0.7343,-0.5306 1.34355,-1.17911 z m -40.08984,-3.22842 c 0,-0.0895 -0.47754,-0.56704 -1.0612,-1.0612 l -1.06121,-0.89848 0.89848,1.06121 c 0.84435,0.99726 1.22393,1.27591 1.22393,0.89847 z m -4.00289,-3.97989 -1.83332,-1.75295 1.62108,1.92284 c 0.89159,1.05756 1.71659,1.84639 1.83332,1.75295 0.11673,-0.0934 -0.61275,-0.95872 -1.62108,-1.92284 z m -4.06633,-4.24234 c -1.13914,-1.23947 -2.60175,-2.64983 -3.25027,-3.13414 -0.64851,-0.4843 0.19432,0.52981 1.87296,2.25358 3.52797,3.62282 4.4242,4.19582 1.37731,0.88056 z M 382.4163,779.78881 c 0,-0.0979 -0.37142,-0.46935 -0.82538,-0.82538 -0.74806,-0.58666 -0.76474,-0.56998 -0.17808,0.17808 0.61615,0.78564 1.00346,1.03549 1.00346,0.6473 z m -251.04297,-9.53978 c -0.15673,-0.15672 -0.56352,-0.17347 -0.90399,-0.0372 -0.37625,0.15056 -0.26449,0.26232 0.28495,0.28495 0.49719,0.0205 0.77576,-0.091 0.61904,-0.24772 z"
       id="path13886"
       inkscape:connector-curvature="0" />
  </g>
</svg>
