<?xml version="1.0" encoding="UTF-8" standalone="no"?>
<!-- Created with Inkscape (http://www.inkscape.org/) -->

<svg
   xmlns:dc="http://purl.org/dc/elements/1.1/"
   xmlns:cc="http://creativecommons.org/ns#"
   xmlns:rdf="http://www.w3.org/1999/02/22-rdf-syntax-ns#"
   xmlns:svg="http://www.w3.org/2000/svg"
   xmlns="http://www.w3.org/2000/svg"
   xmlns:sodipodi="http://sodipodi.sourceforge.net/DTD/sodipodi-0.dtd"
   xmlns:inkscape="http://www.inkscape.org/namespaces/inkscape"
   width="211.10423"
   height="289.90353"
   viewBox="0 0 211.10423 289.90353"
   id="svg2"
   version="1.1"
   inkscape:version="0.91 r13725"
   sodipodi:docname="fleche.svg">
  <defs
     id="defs4" />
  <sodipodi:namedview
     id="base"
     pagecolor="#ffffff"
     bordercolor="#666666"
     borderopacity="1.0"
     inkscape:pageopacity="0.0"
     inkscape:pageshadow="2"
     inkscape:zoom="1.979899"
     inkscape:cx="-7.1230564"
     inkscape:cy="168.38522"
     inkscape:document-units="px"
     inkscape:current-layer="layer1"
     showgrid="false"
     units="px"
     fit-margin-top="0"
     fit-margin-left="0"
     fit-margin-right="0"
     fit-margin-bottom="0"
     inkscape:window-width="1920"
     inkscape:window-height="1138"
     inkscape:window-x="-8"
     inkscape:window-y="-8"
     inkscape:window-maximized="1" />
  <metadata
     id="metadata7">
    <rdf:RDF>
      <cc:Work
         rdf:about="">
        <dc:format>image/svg+xml</dc:format>
        <dc:type
           rdf:resource="http://purl.org/dc/dcmitype/StillImage" />
        <dc:title></dc:title>
      </cc:Work>
    </rdf:RDF>
  </metadata>
  <g
     inkscape:label="Layer 1"
     inkscape:groupmode="layer"
     id="layer1"
     transform="translate(-84.352814,-757.90781)">
    <path
       style="opacity:0.95400002;fill:#b08122;fill-opacity:1;fill-rule:evenodd;stroke:#b08122;stroke-width:1.51522887;stroke-linecap:round;stroke-linejoin:round;stroke-miterlimit:4;stroke-dasharray:none;stroke-dashoffset:0;stroke-opacity:0.95686275"
       d="m 85.740423,150.50475 0,-142.9238529 2.904189,1.9739769 C 117.85256,29.407517 293.10557,149.70248 293.18603,149.95362 c 0.0615,0.19193 -13.46194,9.69826 -30.05204,21.12518 -16.59011,11.42692 -63.29052,43.63028 -103.7787,71.56301 l -73.614867,50.7868 0,-142.92386 z m 97.384227,62.09869 c 47.41605,-32.2657 87.6543,-59.6812 89.41833,-60.92332 3.09525,-2.17949 3.17468,-2.28939 2.27285,-3.14476 -0.51397,-0.4875 -39.68647,-27.7641 -87.05,-60.614676 C 140.4023,55.070107 100.5702,27.427084 99.250044,26.491745 97.929889,25.556407 96.623004,24.79113 96.345855,24.79113 c -0.333781,0 -0.503907,41.60687 -0.503907,123.23861 0,86.54081 0.159565,123.23861 0.535851,123.23861 0.294718,0 39.330801,-26.39921 86.746851,-58.66491 z"
       id="path4159"
       inkscape:connector-curvature="0"
       transform="translate(0,752.36216)" />
    <path
       style="opacity:0.95400002;fill:#d8bf2a;fill-opacity:1;fill-rule:evenodd;stroke:#d8bf2a;stroke-width:1.51522887;stroke-linecap:round;stroke-linejoin:round;stroke-miterlimit:4;stroke-dasharray:none;stroke-dashoffset:0;stroke-opacity:0.95686275"
       d="m 96.852101,147.98765 c 0,-69.190169 0.189994,-121.1881 0.442455,-121.092036 1.552992,0.590931 176.279774,122.390976 175.966374,122.664146 -0.95732,0.83444 -175.834953,119.68829 -176.105405,119.68829 -0.166883,0 -0.303424,-54.56718 -0.303424,-121.2604 z"
       id="path4157"
       inkscape:connector-curvature="0"
       transform="translate(0,752.36216)" />
    <path
       style="fill:none;fill-rule:evenodd;stroke:#000000;stroke-width:1px;stroke-linecap:butt;stroke-linejoin:round;stroke-opacity:1"
       d="m 84.852814,1047.3114 0,-288.90363 210.104266,143.95439 z"
       id="path4136"
       inkscape:connector-curvature="0"
       sodipodi:nodetypes="cccc" />
    <path
       style="fill:none;fill-rule:evenodd;stroke:#000000;stroke-width:0.84954274px;stroke-linecap:butt;stroke-linejoin:round;stroke-opacity:1"
       d="m 96.398088,1023.143 0,-245.43602 178.492552,123.92085 z"
       id="path4136-2"
       inkscape:connector-curvature="0"
       sodipodi:nodetypes="cccc" />
  </g>
</svg>
