<?xml version="1.0" encoding="UTF-8" standalone="no"?>
<!-- Created with Inkscape (http://www.inkscape.org/) -->

<svg
   xmlns:dc="http://purl.org/dc/elements/1.1/"
   xmlns:cc="http://creativecommons.org/ns#"
   xmlns:rdf="http://www.w3.org/1999/02/22-rdf-syntax-ns#"
   xmlns:svg="http://www.w3.org/2000/svg"
   xmlns="http://www.w3.org/2000/svg"
   xmlns:sodipodi="http://sodipodi.sourceforge.net/DTD/sodipodi-0.dtd"
   xmlns:inkscape="http://www.inkscape.org/namespaces/inkscape"
   width="100.43189mm"
   height="128.42252mm"
   viewBox="0 0 355.86104 455.04041"
   id="svg4316"
   version="1.1"
   inkscape:version="0.91 r13725"
   sodipodi:docname="fondecrou.svg">
  <defs
     id="defs4318">
    <filter
       inkscape:collect="always"
       style="color-interpolation-filters:sRGB"
       id="filter6416"
       x="-0.013654078"
       width="1.0273082"
       y="-0.012775151"
       height="1.0255502">
      <feGaussianBlur
         inkscape:collect="always"
         stdDeviation="1.8092146"
         id="feGaussianBlur6418" />
    </filter>
  </defs>
  <sodipodi:namedview
     id="base"
     pagecolor="#ffffff"
     bordercolor="#666666"
     borderopacity="1.0"
     inkscape:pageopacity="0.0"
     inkscape:pageshadow="2"
     inkscape:zoom="0.98994949"
     inkscape:cx="277.26364"
     inkscape:cy="162.78733"
     inkscape:document-units="px"
     inkscape:current-layer="layer1"
     showgrid="false"
     fit-margin-top="0"
     fit-margin-left="0"
     fit-margin-right="0"
     fit-margin-bottom="0"
     inkscape:window-width="1920"
     inkscape:window-height="1138"
     inkscape:window-x="-8"
     inkscape:window-y="-8"
     inkscape:window-maximized="1" />
  <metadata
     id="metadata4321">
    <rdf:RDF>
      <cc:Work
         rdf:about="">
        <dc:format>image/svg+xml</dc:format>
        <dc:type
           rdf:resource="http://purl.org/dc/dcmitype/StillImage" />
        <dc:title></dc:title>
      </cc:Work>
    </rdf:RDF>
  </metadata>
  <g
     inkscape:label="Layer 1"
     inkscape:groupmode="layer"
     id="layer1"
     transform="translate(-227.78376,-187.69914)">
    <path
       style="fill:#a49381;fill-opacity:1;fill-rule:evenodd;stroke:#000000;stroke-width:2;stroke-linecap:butt;stroke-linejoin:miter;stroke-miterlimit:4;stroke-dasharray:none;stroke-opacity:1"
       d="m 235.93377,603.54674 0,-377.14273 31.875,-31.42857 276.25,0 31.875,31.42857 0,377.14273 -31.875,31.4288 -276.25,0 z"
       id="path4686-2"
       inkscape:connector-curvature="0"
       sodipodi:nodetypes="ccccccccc" />
    <path
       style="fill:#4c3b29;fill-opacity:1;fill-rule:evenodd;stroke:#000000;stroke-width:2;stroke-linecap:butt;stroke-linejoin:miter;stroke-miterlimit:4;stroke-dasharray:none;stroke-opacity:1"
       d="m 245.93377,594.97544 0,-359.99997 30,-30 260,0 30,30 0,359.99997 -30,30.0001 -260,0 z"
       id="path4686"
       inkscape:connector-curvature="0"
       sodipodi:nodetypes="ccccccccc" />
    <path
       style="fill:#3a3228;fill-opacity:1;fill-rule:evenodd;stroke:none;stroke-width:1px;stroke-linecap:butt;stroke-linejoin:miter;stroke-opacity:1;filter:url(#filter6416)"
       d="m 246.9316,284.05867 c 1.13052,-0.65947 30.42367,149.37304 63.63962,207.08128 29.73295,51.657 141.16115,56.75852 188.30679,20.29233 58.71932,-45.41819 66.03872,-197.35855 66.03872,-197.35855 l -0.11095,284.41021 -29.64631,25.4605 -263.81833,-0.01 -24.43306,-25.5695 z"
       id="path6402"
       inkscape:connector-curvature="0"
       sodipodi:nodetypes="csscccccc" />
    <path
       style="fill:#a49381;fill-opacity:1;fill-rule:evenodd;stroke:#000000;stroke-width:2.70000005;stroke-linecap:butt;stroke-linejoin:miter;stroke-miterlimit:4;stroke-dasharray:none;stroke-opacity:1"
       d="m 230.38536,220.85255 17.04877,14.22009 29.50236,-28.79551 -14.44416,-16.61547 z"
       id="path6265"
       inkscape:connector-curvature="0"
       sodipodi:nodetypes="ccccc" />
    <circle
       style="opacity:1;fill:#a49381;fill-opacity:1;stroke:#000000;stroke-width:0.90000004;stroke-linecap:butt;stroke-linejoin:miter;stroke-miterlimit:4;stroke-dasharray:none;stroke-opacity:1"
       id="path6267"
       cx="245.54269"
       cy="221.08076"
       r="3.1803534" />
    <circle
       style="opacity:1;fill:#a49381;fill-opacity:1;stroke:#000000;stroke-width:0.90000004;stroke-linecap:butt;stroke-linejoin:miter;stroke-miterlimit:4;stroke-dasharray:none;stroke-opacity:1"
       id="path6267-9"
       cx="263.07663"
       cy="203.90401"
       r="3.1803534" />
    <path
       style="fill:#a49381;fill-opacity:1;fill-rule:evenodd;stroke:#000000;stroke-width:2.70000005;stroke-linecap:butt;stroke-linejoin:miter;stroke-miterlimit:4;stroke-dasharray:none;stroke-opacity:1"
       d="m 580.64833,222.41878 -17.04877,14.22009 -29.50236,-28.79551 14.44416,-16.61547 z"
       id="path6265-7"
       inkscape:connector-curvature="0"
       sodipodi:nodetypes="ccccc" />
    <circle
       style="opacity:1;fill:#a49381;fill-opacity:1;stroke:#000000;stroke-width:0.90000004;stroke-linecap:butt;stroke-linejoin:miter;stroke-miterlimit:4;stroke-dasharray:none;stroke-opacity:1"
       id="path6267-2"
       cx="-565.49103"
       cy="222.64699"
       r="3.1803534"
       transform="scale(-1,1)" />
    <circle
       style="opacity:1;fill:#a49381;fill-opacity:1;stroke:#000000;stroke-width:0.90000004;stroke-linecap:butt;stroke-linejoin:miter;stroke-miterlimit:4;stroke-dasharray:none;stroke-opacity:1"
       id="path6267-9-1"
       cx="-547.95709"
       cy="205.47023"
       r="3.1803534"
       transform="scale(-1,1)" />
    <path
       style="fill:#fffff0;fill-opacity:0.3535912;fill-rule:evenodd;stroke:none;stroke-width:1px;stroke-linecap:butt;stroke-linejoin:miter;stroke-opacity:1"
       d="m 240.3928,227.41419 c 0,0 -0.83347,-5.80455 0.70685,-9.36494 3.2074,-7.41381 8.57837,-13.18157 16.21936,-16.76776 2.58869,-1.21497 5.59937,-2.75648 8.31889,-1.87237 3.40023,1.1054 9.4157,6.66317 9.4157,6.66317 l -12.73459,-14.28759 -30.04596,29.17292 z"
       id="path6351"
       inkscape:connector-curvature="0"
       sodipodi:nodetypes="cssscccc" />
    <path
       style="fill:#fffff0;fill-opacity:0.35294118;fill-rule:evenodd;stroke:none;stroke-width:1px;stroke-linecap:butt;stroke-linejoin:miter;stroke-opacity:1"
       d="m 570.48485,228.91605 c 0,0 0.83347,-5.80455 -0.70685,-9.36494 -3.2074,-7.41381 -8.57838,-13.18157 -16.21936,-16.76776 -2.58869,-1.21497 -5.59937,-2.75648 -8.31889,-1.87237 -3.40023,1.1054 -9.4157,6.66317 -9.4157,6.66317 l 12.73459,-14.28759 30.04595,29.17292 z"
       id="path6351-8"
       inkscape:connector-curvature="0"
       sodipodi:nodetypes="cssscccc" />
    <path
       style="fill:#fffff0;fill-opacity:0.35294118;fill-rule:evenodd;stroke:none;stroke-width:1px;stroke-linecap:butt;stroke-linejoin:miter;stroke-opacity:1"
       d="m 270.33099,196.26469 272.48865,0 c 0,0 -82.48726,2.45464 -123.74368,2.52538 -49.58873,0.085 -148.74497,-2.52538 -148.74497,-2.52538 z"
       id="path6368"
       inkscape:connector-curvature="0"
       sodipodi:nodetypes="ccsc" />
    <path
       style="fill:#000000;fill-opacity:0.35294118;fill-rule:evenodd;stroke:none;stroke-width:1px;stroke-linecap:butt;stroke-linejoin:miter;stroke-opacity:1"
       d="m 269.26798,634.24144 4.14412,-4.7494 c -0.46705,0.6339 16.7413,2.0907 22.16452,1.912 7.31031,-0.2409 223.54565,1.2687 237.14286,-0.7142 1.53143,-0.2233 5.01177,-1.9436 5.01177,-1.9436 l 4.55806,5.2426 z"
       id="path6370"
       inkscape:connector-curvature="0"
       sodipodi:nodetypes="ccssccc" />
    <path
       style="fill:#a49381;fill-opacity:1;fill-rule:evenodd;stroke:#000000;stroke-width:2.70000005;stroke-linecap:butt;stroke-linejoin:miter;stroke-miterlimit:4;stroke-dasharray:none;stroke-opacity:1"
       d="m 229.79982,609.58624 17.04877,-14.2202 29.50236,28.7956 -14.44416,16.6154 z"
       id="path6265-7-2-7"
       inkscape:connector-curvature="0"
       sodipodi:nodetypes="ccccc" />
    <circle
       style="opacity:1;fill:#a49381;fill-opacity:1;stroke:#000000;stroke-width:0.90000004;stroke-linecap:butt;stroke-linejoin:miter;stroke-miterlimit:4;stroke-dasharray:none;stroke-opacity:1"
       id="path6267-2-9-9"
       cx="244.95712"
       cy="-609.35797"
       r="3.1803534"
       transform="scale(1,-1)" />
    <circle
       style="opacity:1;fill:#a49381;fill-opacity:1;stroke:#000000;stroke-width:0.90000004;stroke-linecap:butt;stroke-linejoin:miter;stroke-miterlimit:4;stroke-dasharray:none;stroke-opacity:1"
       id="path6267-9-1-0-3"
       cx="262.49106"
       cy="-626.53473"
       r="3.1803534"
       transform="scale(1,-1)" />
    <path
       style="fill:#000000;fill-opacity:0.3535912;fill-rule:evenodd;stroke:none;stroke-width:1px;stroke-linecap:butt;stroke-linejoin:miter;stroke-opacity:1"
       d="m 239.09181,603.50004 c 0,0 -0.83347,5.8046 0.70685,9.3649 3.2074,7.4138 8.57838,13.1816 16.21936,16.7678 2.58869,1.215 5.59937,2.7565 8.31889,1.8724 3.40023,-1.1054 10.12999,-7.1096 10.12999,-7.1096 l -12.73459,15.6269 -30.76024,-30.0658 z"
       id="path6351-7"
       inkscape:connector-curvature="0"
       sodipodi:nodetypes="cssscccc" />
    <path
       style="fill:#a49381;fill-opacity:1;fill-rule:evenodd;stroke:#000000;stroke-width:2.70000005;stroke-linecap:butt;stroke-linejoin:miter;stroke-miterlimit:4;stroke-dasharray:none;stroke-opacity:1"
       d="m 581.62874,609.09594 -17.04877,-14.2201 -29.50236,28.7956 14.44416,16.6154 z"
       id="path6265-7-2"
       inkscape:connector-curvature="0"
       sodipodi:nodetypes="ccccc" />
    <circle
       style="opacity:1;fill:#a49381;fill-opacity:1;stroke:#000000;stroke-width:0.90000004;stroke-linecap:butt;stroke-linejoin:miter;stroke-miterlimit:4;stroke-dasharray:none;stroke-opacity:1"
       id="path6267-2-9"
       cx="-566.47137"
       cy="-608.86774"
       r="3.1803534"
       transform="scale(-1,-1)" />
    <circle
       style="opacity:1;fill:#a49381;fill-opacity:1;stroke:#000000;stroke-width:0.90000004;stroke-linecap:butt;stroke-linejoin:miter;stroke-miterlimit:4;stroke-dasharray:none;stroke-opacity:1"
       id="path6267-9-1-0"
       cx="-548.9375"
       cy="-626.04449"
       r="3.1803534"
       transform="scale(-1,-1)" />
    <path
       style="fill:#000000;fill-opacity:0.3535912;fill-rule:evenodd;stroke:none;stroke-width:1px;stroke-linecap:butt;stroke-linejoin:miter;stroke-opacity:1"
       d="m 572.37344,603.26974 c 0,0 0.83347,5.8046 -0.70685,9.3649 -3.2074,7.4139 -8.57837,13.1817 -16.21936,16.7679 -2.58869,1.215 -5.59937,2.7565 -8.31889,1.8724 -3.40023,-1.1054 -10.12999,-7.1096 -10.12999,-7.1096 l 12.73459,15.6269 30.76025,-30.0659 z"
       id="path6351-7-8"
       inkscape:connector-curvature="0"
       sodipodi:nodetypes="cssscccc" />
  </g>
</svg>
