<?xml version="1.0" encoding="UTF-8" standalone="no"?>
<!-- Created with Inkscape (http://www.inkscape.org/) -->

<svg
   xmlns:dc="http://purl.org/dc/elements/1.1/"
   xmlns:cc="http://creativecommons.org/ns#"
   xmlns:rdf="http://www.w3.org/1999/02/22-rdf-syntax-ns#"
   xmlns:svg="http://www.w3.org/2000/svg"
   xmlns="http://www.w3.org/2000/svg"
   xmlns:sodipodi="http://sodipodi.sourceforge.net/DTD/sodipodi-0.dtd"
   xmlns:inkscape="http://www.inkscape.org/namespaces/inkscape"
   width="570"
   height="600.48718"
   viewBox="0 0 570.00001 600.48719"
   id="svg2"
   version="1.1"
   inkscape:version="0.91 r13725"
   sodipodi:docname="Knight.svg"
   inkscape:export-filename="C:\Users\Amaury Punel\Desktop\GIT PROJET TUTORE\warfare-of-heroes\Images\SVG\Knight.png"
   inkscape:export-xdpi="89.926979"
   inkscape:export-ydpi="89.926979">
  <defs
     id="defs4" />
  <sodipodi:namedview
     id="base"
     pagecolor="#ffffff"
     bordercolor="#666666"
     borderopacity="1.0"
     inkscape:pageopacity="0.0"
     inkscape:pageshadow="2"
     inkscape:zoom="1.0788903"
     inkscape:cx="391.72694"
     inkscape:cy="130.97182"
     inkscape:document-units="px"
     inkscape:current-layer="layer1"
     showgrid="false"
     units="px"
     fit-margin-top="0"
     fit-margin-left="0"
     fit-margin-right="0"
     fit-margin-bottom="0"
     inkscape:window-width="1366"
     inkscape:window-height="705"
     inkscape:window-x="-8"
     inkscape:window-y="-8"
     inkscape:window-maximized="1" />
  <metadata
     id="metadata7">
    <rdf:RDF>
      <cc:Work
         rdf:about="">
        <dc:format>image/svg+xml</dc:format>
        <dc:type
           rdf:resource="http://purl.org/dc/dcmitype/StillImage" />
        <dc:title></dc:title>
      </cc:Work>
    </rdf:RDF>
  </metadata>
  <g
     inkscape:label="Calque 1"
     inkscape:groupmode="layer"
     id="layer1"
     transform="translate(76.939358,-453.15445)">
    <g
       id="g5753"
       transform="matrix(0.86959801,-1.3416971,1.3416971,0.86959801,-174.98048,745.70854)">
      <rect
         y="167.54231"
         x="46.239227"
         height="34.86948"
         width="11.501709"
         id="rect5684-9"
         style="opacity:1;fill:#541d06;fill-opacity:1;stroke:#000000;stroke-width:1.86999989;stroke-linecap:butt;stroke-linejoin:miter;stroke-miterlimit:4;stroke-dasharray:none;stroke-opacity:1" />
      <ellipse
         ry="5.7193537"
         rx="5.7524986"
         cy="203.59146"
         cx="51.990631"
         id="path5686-5"
         style="opacity:1;fill:#f2c100;fill-opacity:1;stroke:#000000;stroke-width:1.87;stroke-linecap:butt;stroke-linejoin:miter;stroke-miterlimit:4;stroke-dasharray:none;stroke-opacity:1" />
      <rect
         ry="0"
         y="171.55679"
         x="22.934998"
         height="8.1300001"
         width="58.129997"
         id="rect4162-5"
         style="opacity:1;fill:#f2c100;fill-opacity:1;stroke:#000000;stroke-width:1.87;stroke-linecap:butt;stroke-linejoin:miter;stroke-miterlimit:4;stroke-dasharray:none;stroke-opacity:1" />
      <path
         sodipodi:nodetypes="cccccc"
         inkscape:connector-curvature="0"
         id="path4164-2"
         d="M 40.778302,171.52807 27.953112,62.448287 52,40.632324 76.04735,62.448287 63.22229,171.52807 Z"
         style="fill:#c0c1b0;fill-opacity:1;fill-rule:evenodd;stroke:#000000;stroke-width:1.87013519px;stroke-linecap:butt;stroke-linejoin:miter;stroke-opacity:1" />
      <path
         sodipodi:nodetypes="ccccccccccc"
         inkscape:connector-curvature="0"
         id="path5646-6"
         d="M 41.25741,170.87712 27.929272,62.384762 52.08674,41.2852 76.24421,62.461209 63.09521,171.32272 62.46826,170.63469 72.072,64.513804 l -20.072,-17 -19.927998,17 9.559018,105.917216 z"
         style="fill:#dcddcc;fill-opacity:1;fill-rule:evenodd;stroke:#dcddcc;stroke-width:1px;stroke-linecap:butt;stroke-linejoin:miter;stroke-opacity:1" />
      <path
         sodipodi:nodetypes="cccccc"
         inkscape:connector-curvature="0"
         id="path4164-6-1"
         d="M 40.778092,171.52774 27.952902,62.447949 52.00002,40.631986 76.04714,62.447949 63.22208,171.52774 Z"
         style="fill:none;fill-opacity:1;fill-rule:evenodd;stroke:#000000;stroke-width:1.87;stroke-linecap:butt;stroke-linejoin:miter;stroke-miterlimit:4;stroke-dasharray:none;stroke-opacity:1" />
      <path
         sodipodi:nodetypes="ccccc"
         inkscape:connector-curvature="0"
         id="path5682-4"
         d="M 52,40.985852 52,171.58679 63.27379,171.37056 76.03117,62.82475 Z"
         style="fill:#000000;fill-opacity:0.39215686;fill-rule:evenodd;stroke:none;stroke-width:1px;stroke-linecap:butt;stroke-linejoin:miter;stroke-opacity:1" />
    </g>
    <path
       style="opacity:0.96799999;fill:#ffffff;fill-opacity:1;stroke:#ffffff;stroke-width:5.57563925;stroke-miterlimit:4;stroke-dasharray:none;stroke-opacity:1"
       d="m 300.71107,1024.0378 c -49.40036,-2.7577 -107.27639,-10.1088 -171.44609,-21.7764 -28.74473,-5.22651 -28.66804,-5.20676 -28.66804,-7.37592 0,-0.91075 2.31226,-10.86823 5.13833,-22.12781 24.21977,-96.49562 52.65291,-167.39182 84.05538,-209.58669 30.18648,-40.56096 62.87788,-55.09273 98.27276,-43.68358 8.77682,2.82911 9.27495,3.16348 9.27495,6.22605 0,2.41793 4.21559,8.87355 16.66973,25.52747 50.3927,67.38605 75.28881,110.57105 89.16698,154.66981 4.64385,14.75611 4.69281,15.09038 5.20071,35.51988 0.33686,13.54909 0.0491,22.98001 -0.83877,27.49308 -3.06138,15.56074 -15.84813,33.82681 -32.20559,46.00601 -5.53911,4.1242 -11.47407,8.032 -13.18877,8.684 -2.83662,1.0785 -44.55087,1.3665 -61.43158,0.4241 z"
       id="path4138"
       inkscape:connector-curvature="0" />
    <path
       style="fill:#d8d6d6;fill-opacity:1;stroke:#d8d6d6;stroke-width:14.61507702;stroke-miterlimit:4;stroke-dasharray:none;stroke-opacity:1"
       d="m 383.72821,1018.1606 c 9.07418,-6.6513 20.1505,-20.18831 25.53105,-31.20338 6.2913,-12.87936 7.07357,-17.3772 7.03895,-40.47254 -0.0288,-19.17059 -0.35325,-23.12225 -2.58511,-31.47868 -2.90742,-10.88564 -10.14604,-32.60398 -11.42847,-34.28913 -0.47056,-0.61832 -1.24028,-2.389 -1.71052,-3.93483 -1.40148,-4.60723 -11.71089,-25.53921 -19.10295,-38.78616 -9.0404,-16.20082 -20.91416,-35.00258 -32.65919,-51.71488 -5.21459,-7.41998 -10.68775,-15.26152 -12.16258,-17.42568 -1.47484,-2.16415 -7.76419,-10.50618 -13.97632,-18.53787 -6.21216,-8.03166 -20.10344,-27.15492 -19.877,-27.38136 1.04638,-1.04637 24.91473,24.03524 37.64902,36.86164 30.51763,30.73833 59.74836,74.12642 86.66608,128.64116 16.33265,33.07743 40.14324,65.98977 43.74142,83.32217 1.19394,5.75123 -5.66758,14.54202 -8.31559,20.32605 -6.6306,14.48309 -28.94438,16.73979 -55.84226,23.42879 -8.30329,2.0648 -17.6264,4.061 -20.71806,4.4355 l -5.62119,0.6813 z"
       id="path4160"
       inkscape:connector-curvature="0"
       sodipodi:nodetypes="ssssssssssssssssscs"
       inkscape:export-xdpi="260.78418"
       inkscape:export-ydpi="260.78418" />
    <path
       style="fill:none;fill-rule:evenodd;stroke:#000000;stroke-width:21.7602253;stroke-linecap:butt;stroke-linejoin:miter;stroke-miterlimit:4;stroke-dasharray:none;stroke-opacity:1"
       d="M 86.144286,1005.6401 C 231.10866,361.07989 489.4703,944.57731 479.62419,980.61546 457.31106,1062.2845 251.41172,1039.1347 86.144286,1005.6401 Z"
       id="path4156"
       inkscape:connector-curvature="0"
       sodipodi:nodetypes="csc"
       inkscape:export-xdpi="260.78418"
       inkscape:export-ydpi="260.78418" />
    <path
       style="fill:#5a5a5a;fill-opacity:1;fill-rule:evenodd;stroke:#000000;stroke-width:1.12469161px;stroke-linecap:butt;stroke-linejoin:miter;stroke-opacity:1"
       d="m 294.80528,754.41112 c 20.09669,-10.3427 40.37445,-22.62648 54.62787,-40.16755 10.57978,-13.02008 16.49426,-29.59976 20.88713,-45.79101 6.20255,-22.86142 3.35434,-47.32625 7.23015,-70.6949 1.16912,-7.04908 1.06445,-13.46115 0.84374,-20.6031 -0.55223,-17.86891 -4.34513,-34.10641 -13.55952,-49.42627 -10.83355,-18.01187 -20.76952,-29.83898 -38.17099,-41.62806 -12.11045,-8.20452 -25.68216,-14.2654 -25.68216,-14.2654 0,0 -20.43747,-4.30073 -24.55582,-5.82674 -6.21904,-2.15328 -25.78098,-12.48227 -27.83328,-12.28556 0,0 -16.82035,16.67946 -23.63829,23.34591 -8.61601,8.42458 -16.7219,13.73207 -25.51232,21.9745 -6.10436,5.72383 -13.66941,14.09096 -20.50563,22.4451 -5.97415,7.30065 -10.4527,15.15658 -14.07883,23.86525 -3.35128,8.04858 -5.52267,15.664 -6.80831,24.28708 -1.07274,7.19513 -3.83019,21.69048 -3.83019,21.69048 l -1.6067,20.08378 1.6067,11.24692 2.41006,11.24692 c 0,0 -1.33839,8.54407 -1.6067,12.8536 -0.18304,2.93994 2.40057,11.5759 3.61507,14.2595 2.40201,5.30746 12.16867,18.07861 17.07122,26.30973 8.36335,14.04161 13.40145,21.98903 23.09634,35.14662 8.03868,10.90982 14.72864,20.05917 21.69048,28.92063 8.30357,10.5693 28.51897,22.89552 28.51897,22.89552 0,0 37.78449,-15.92664 45.79101,-19.88295 z"
       id="path4772"
       inkscape:connector-curvature="0"
       sodipodi:nodetypes="csssssscccsssssccccssssscc" />
    <path
       style="fill:#ffc477;fill-opacity:1;fill-rule:evenodd;stroke:none;stroke-width:1px;stroke-linecap:butt;stroke-linejoin:miter;stroke-opacity:1"
       d="m 161.95876,630.07778 -0.28403,-13.3493 12.21319,2.55625 24.99443,1.98819 44.87634,-0.56806 57.65759,-4.26041 1.13611,7.38472 -1.0042,1.95373 -13.76523,6.85112 -13.3493,2.55626 -23.57428,-1.13612 -21.01804,-1.42014 -49.70481,-0.28403 -11.92915,0.28403 -6.24862,-1.42013 z"
       id="path4800"
       inkscape:connector-curvature="0"
       sodipodi:nodetypes="cccccccccccccccc" />
    <path
       style="fill:#414141;fill-opacity:1;fill-rule:evenodd;stroke:none;stroke-width:1px;stroke-linecap:butt;stroke-linejoin:miter;stroke-opacity:1"
       d="m 196.99728,677.89194 40.36841,-7.02933 30.52733,-7.63184 24.90388,-12.45194 12.85362,-11.6486 13.01791,-20.29678 10.32592,-18.54808 7.18351,-12.5696 6.54445,-14.67543 34.82812,20.70057 -1.60669,12.45194 -0.40167,17.67371 -2.00839,22.49383 -1.6067,17.67374 -8.83687,26.91225 -6.4268,12.85362 -10.84523,14.862 -20.08379,17.27205 -28.51896,16.87037 -47.84811,21.73921 -37.30711,-57.89001 -10.84524,-21.69047 z"
       id="path4796"
       inkscape:connector-curvature="0"
       sodipodi:nodetypes="ccccccccccccccccccccccc" />
    <path
       style="fill:#232323;fill-opacity:1;fill-rule:evenodd;stroke:none;stroke-width:1px;stroke-linecap:butt;stroke-linejoin:miter;stroke-opacity:1"
       d="m 155.9942,647.40347 10.22498,16.18956 10.50903,8.52081 13.06525,5.39653 6.53264,0 5.68055,19.02984 11.07707,22.43817 20.73401,32.66316 15.62151,22.43817 -2.27222,-0.85208 -15.6215,-11.36109 -8.53092,-7.09059 -6.52255,-9.09898 -28.68677,-39.47982 -22.43818,-34.36732 -7.38471,-12.21319 -2.27222,-6.81666 z"
       id="path4794"
       inkscape:connector-curvature="0"
       sodipodi:nodetypes="cccccccccccccccccc" />
    <path
       style="fill:none;fill-rule:evenodd;stroke:#000000;stroke-width:1.12469161px;stroke-linecap:butt;stroke-linejoin:miter;stroke-opacity:1"
       d="m 248.61259,454.35948 c -2.54286,-0.98435 -36.1652,43.83064 -39.36419,67.88319 -1.71131,12.86687 -6.642,33.18362 -7.8216,51.85017 -1.17959,18.66656 0.85048,40.13351 0.99311,40.13351"
       id="path4774"
       inkscape:connector-curvature="0"
       sodipodi:nodetypes="cssc" />
    <path
       style="fill:none;fill-rule:evenodd;stroke:#000000;stroke-width:1.12469161px;stroke-linecap:butt;stroke-linejoin:miter;stroke-opacity:1"
       d="m 360.49399,567.30769 c -2.84094,-2.28121 -4.86604,-6.31168 -4.54443,-9.94094 0.13213,-1.49111 1.3683,-2.7815 2.55624,-3.69236 1.11692,-0.85641 2.6151,-1.77767 3.97638,-1.42014 1.81762,0.47739 2.9274,2.54388 3.69237,4.26041 1.2428,2.78882 2.20257,6.22797 1.13611,9.08889 -0.44491,1.19349 -1.60963,2.22772 -2.84028,2.55623 -1.3097,0.34962 -2.91943,-0.003 -3.97639,-0.85209 z"
       id="path4776"
       inkscape:connector-curvature="0"
       sodipodi:nodetypes="ssssssss" />
    <path
       style="fill:none;fill-rule:evenodd;stroke:#000000;stroke-width:1.12469161px;stroke-linecap:butt;stroke-linejoin:miter;stroke-opacity:1"
       d="m 368.16273,551.97022 c 0,0 -9.93269,-8.57366 -13.06525,-8.52082 0,0 -9.69331,19.45965 -10.50902,23.29024 -0.28234,1.32583 1.70415,3.69236 1.70415,3.69236 l 24.99443,14.48541 c 2.49248,1.4445 0.28404,-13.91735 0.28404,-13.91735 z"
       id="path4780"
       inkscape:connector-curvature="0"
       sodipodi:nodetypes="ccscscc" />
    <path
       style="fill:none;fill-rule:evenodd;stroke:#000000;stroke-width:1.12469161px;stroke-linecap:butt;stroke-linejoin:miter;stroke-opacity:1"
       d="m 153.43795,620.13683 c 0,0 4.27052,5.92325 6.81666,8.52081 1.03522,1.05613 2.02634,2.31373 3.40832,2.84027 5.31125,2.02365 11.36014,0.41025 17.04165,0.56806 8.51964,0.23665 17.04007,0.47337 25.56248,0.56805 7.57359,0.0842 15.15121,-0.21614 22.7222,0 13.27083,0.37887 26.48765,2.30765 39.76386,2.27223 6.07104,-0.0162 14.84818,-0.49979 20.44997,-2.84028 4.7581,-1.98798 13.06528,-6.53263 13.06528,-6.53263 l -1e-5,-11.64513 c 0,0 9.11673,-1.76847 13.63331,-2.84029 2.86011,-0.67872 7.60055,-3.85656 9.72586,-5.88729 0,0 5.99449,-9.34072 8.81913,-14.22992 3.81838,-6.60929 9.28971,-20.21468 9.28971,-20.21468 l 26.13053,15.90553"
       id="path4782"
       inkscape:connector-curvature="0"
       sodipodi:nodetypes="csssssssccssscc" />
    <path
       style="fill:#646464;fill-opacity:0.99447512;fill-rule:evenodd;stroke:#000000;stroke-width:1.12469161px;stroke-linecap:butt;stroke-linejoin:miter;stroke-opacity:1"
       d="m 340.19462,571.84959 37.35581,21.69047 0.80336,-6.22595 -35.1466,-21.48966 z"
       id="path4784"
       inkscape:connector-curvature="0"
       sodipodi:nodetypes="ccccc" />
    <path
       style="fill:none;fill-opacity:1;fill-rule:evenodd;stroke:#000000;stroke-width:1.12469161px;stroke-linecap:butt;stroke-linejoin:miter;stroke-opacity:1"
       d="m 162.05151,629.08835 -0.80336,-12.25111 c 0,0 7.06135,1.67719 10.65159,2.16346 8.18166,1.10813 16.45891,1.41997 24.71039,1.70416 13.34139,0.45952 26.7019,0.29777 40.04788,0 10.61161,-0.23674 21.21615,-0.77975 31.81107,-1.42013 11.18379,-0.67597 33.51525,-2.55625 33.51525,-2.55625 l -0.56805,-6.53263 c 0,0 -69.87076,3.69236 -71.29091,3.97638 -1.42014,0.28403 -28.9708,0.56807 -28.9708,0.56807 0,0 -19.0636,-0.29869 -28.40276,-1.9882 -5.24702,-0.94922 -15.33748,-4.54444 -15.33748,-4.54444 l -5.11249,-1.9882"
       id="path4786"
       inkscape:connector-curvature="0"
       sodipodi:nodetypes="ccssssccscscc" />
    <path
       style="fill:none;fill-rule:evenodd;stroke:#000000;stroke-width:1.12469161px;stroke-linecap:butt;stroke-linejoin:miter;stroke-opacity:1"
       d="m 205.23162,636.72018 c -3.57082,8.97644 -6.1739,24.42899 -8.67047,40.902"
       id="path4788"
       inkscape:connector-curvature="0"
       sodipodi:nodetypes="cc" />
    <path
       style="fill:none;fill-rule:evenodd;stroke:#000000;stroke-width:1.12469161px;stroke-linecap:butt;stroke-linejoin:miter;stroke-opacity:1"
       d="m 249.81761,774.49491 c 0,0 -37.04321,-51.33793 -49.00441,-80.33511 -2.41481,-5.85419 -4.27642,-16.48889 -4.27642,-16.48889"
       id="path4790"
       inkscape:connector-curvature="0"
       sodipodi:nodetypes="csc" />
    <path
       style="fill:none;fill-rule:evenodd;stroke:#000000;stroke-width:1.12469161px;stroke-linecap:butt;stroke-linejoin:miter;stroke-opacity:1"
       d="m 154.82135,644.95454 c 0,0 7.99074,16.57075 15.66534,22.49382 4.2199,3.25682 11.54055,6.79867 17.27205,9.23855 2.59001,1.10255 9.23854,1.00418 9.23854,1.00418 0,0 24.12073,-3.24972 35.94996,-6.02513 15.1422,-3.55271 28.90551,-5.64017 44.64654,-13.5595 6.73263,-3.38719 18.65636,-9.40386 24.1089,-15.19475 11.22821,-11.92499 27.44585,-43.54735 27.44585,-43.54735"
       id="path4792"
       inkscape:connector-curvature="0"
       sodipodi:nodetypes="csscsssc" />
    <path
       style="fill:none;fill-rule:evenodd;stroke:#000000;stroke-width:1.12469161px;stroke-linecap:butt;stroke-linejoin:miter;stroke-opacity:1"
       d="m 249.01427,453.95782 c 0,0 -0.49095,16.50274 1.20502,24.50222 2.61976,12.35666 6.06494,25.25231 13.65697,35.34744 5.05396,6.72025 12.23795,12.23921 20.08379,15.26367 7.27286,2.80359 15.92249,4.53202 23.29717,2.00837 4.48239,-1.53388 7.44226,-5.97458 10.44357,-9.6402 2.28389,-2.78943 5.62345,-9.23855 5.62345,-9.23855 0,0 6.78655,4.35826 10.44357,6.02514 3.7373,1.70348 7.54204,3.94156 11.64858,4.01675 3.21844,0.059 6.53492,-1.06464 9.23854,-2.81172 1.19542,-0.77249 2.81173,-3.21341 2.81173,-3.21341"
       id="path4798"
       inkscape:connector-curvature="0"
       sodipodi:nodetypes="cssssscsssc" />
    <path
       style="fill:#3c2019;fill-opacity:1;fill-rule:evenodd;stroke:#000000;stroke-width:0.62598711px;stroke-linecap:butt;stroke-linejoin:miter;stroke-opacity:1"
       d="m 200.3784,804.76692 c 46.82702,1.73257 84.05728,-13.20833 117.6157,-29.7201 38.94394,20.83423 73.38774,29.62268 110.65993,35.41118 -2.37717,86.35575 -3.44879,172.90345 -117.6157,242.8194 C 233.53742,1008.4199 193.59662,928.85026 200.3784,804.76692 Z"
       id="path5413"
       inkscape:connector-curvature="0"
       sodipodi:nodetypes="ccccc" />
    <path
       style="fill:#b3aba5;fill-opacity:1;fill-rule:evenodd;stroke:#000000;stroke-width:0.56213003px;stroke-linecap:butt;stroke-linejoin:miter;stroke-opacity:1"
       d="m 211.70372,814.97222 c 42.0502,1.55583 75.48257,-11.86095 105.61769,-26.68835 34.97128,18.70893 65.90146,26.60087 99.37151,31.79888 -2.13468,77.54655 -3.09699,155.26558 -105.61769,218.04945 C 241.48019,997.85054 205.61375,926.39774 211.70372,814.97222 Z"
       id="path5413-9"
       inkscape:connector-curvature="0"
       sodipodi:nodetypes="ccccc" />
    <path
       style="fill:#2f3571;fill-opacity:1;fill-rule:evenodd;stroke:none;stroke-width:1px;stroke-linecap:butt;stroke-linejoin:miter;stroke-opacity:1"
       d="m 406.95931,915.83561 c -65.31506,10.31012 -123.1798,7.69281 -186.82815,-0.40877 0,0 -2.86496,-11.1513 -3.9435,-17.09816 -1.21956,-6.72429 -2.90049,-20.91577 -2.90049,-20.91577 58.98897,6.52156 126.18874,9.34832 200.26079,-0.44717"
       id="path5432"
       inkscape:connector-curvature="0"
       sodipodi:nodetypes="ccscc" />
    <path
       style="fill:#2f3571;fill-opacity:1;fill-rule:evenodd;stroke:none;stroke-width:1px;stroke-linecap:butt;stroke-linejoin:miter;stroke-opacity:1"
       d="m 334.59914,1021.6819 c -7.98278,6.3936 -15.64731,11.1958 -23.34243,16.151 -4.22294,-2.049 -10.01118,-6.0547 -15.33704,-9.4824 l -0.21891,-230.00269 c 7.54504,-3.47789 15.21967,-6.50864 21.36869,-9.98652 8.17458,4.38192 12.2163,6.48209 17.97217,8.98046"
       id="path5432-3"
       inkscape:connector-curvature="0"
       sodipodi:nodetypes="cccccc" />
    <path
       style="fill:#ab823d;fill-opacity:1;fill-rule:evenodd;stroke:#000000;stroke-width:0.62598711px;stroke-linecap:butt;stroke-linejoin:miter;stroke-opacity:1"
       d="m 375.703,842.87952 -127.63786,1.26471 c 1.06896,43.46471 12.6142,111.40083 64.65237,149.47067 51.2857,-43.56952 58.76503,-99.61996 62.98549,-150.73538 z"
       id="path5434"
       inkscape:connector-curvature="0"
       sodipodi:nodetypes="cccc" />
    <path
       style="fill:#daba57;fill-opacity:1;fill-rule:evenodd;stroke:#000000;stroke-width:0.53217256px;stroke-linecap:butt;stroke-linejoin:miter;stroke-opacity:1"
       d="m 366.1665,853.10307 -108.50921,1.07514 c 0.90876,36.9509 10.70182,94.63869 54.9412,127.00308 43.5997,-37.03992 49.98006,-84.62325 53.56801,-128.07822 z"
       id="path5434-8"
       inkscape:connector-curvature="0"
       sodipodi:nodetypes="cccc" />
    <path
       style="fill:#2f3571;fill-opacity:1;fill-rule:evenodd;stroke:none;stroke-width:1px;stroke-linecap:butt;stroke-linejoin:miter;stroke-opacity:1"
       d="m 374.83415,902.94754 c 0,0 3.82224,9.29609 32.14703,12.37297 0,0 0.77098,-2.5911 1.57828,-6.20342 0.6933,-3.10223 2.10404,-11.15083 2.60235,-13.8984 1.21955,-6.72429 2.34718,-18.14937 2.34718,-18.14937 -58.98896,6.52166 -15.04086,14.27766 -26.03674,14.28352"
       id="path5432-6"
       inkscape:connector-curvature="0"
       sodipodi:nodetypes="ccsscc" />
    <path
       style="fill:#857970;fill-opacity:1;fill-rule:evenodd;stroke:#000000;stroke-width:0.62598711px;stroke-linecap:butt;stroke-linejoin:miter;stroke-opacity:1"
       d="m 216.52786,812.10258 c -0.83513,0.0608 -1.79393,-0.5718 -2.12389,-1.34139 -0.28271,-1.16503 0.66925,-1.77956 1.56497,-2.12389 0.48691,-0.18718 1.15182,-0.31849 1.56497,0 0.57979,0.44695 0.77695,1.42504 0.55892,2.12389 -0.20463,0.65588 -0.87973,1.29152 -1.56497,1.34139 z"
       id="path5503"
       inkscape:connector-curvature="0"
       sodipodi:nodetypes="scssss" />
    <path
       style="fill:#857970;fill-opacity:1;fill-rule:evenodd;stroke:#000000;stroke-width:0.62598711px;stroke-linecap:butt;stroke-linejoin:miter;stroke-opacity:1"
       d="m 264.50107,805.32898 c -0.83513,0.0608 -1.79393,-0.57181 -2.12388,-1.3414 -0.28272,-1.16502 0.66925,-1.77956 1.56496,-2.12388 0.48692,-0.18719 1.15183,-0.31849 1.56496,0 0.5798,0.44695 0.77696,1.42504 0.55892,2.12388 -0.20462,0.65588 -0.87971,1.29152 -1.56496,1.3414 z"
       id="path5503-3"
       inkscape:connector-curvature="0"
       sodipodi:nodetypes="scssss" />
    <path
       style="fill:#857970;fill-opacity:1;fill-rule:evenodd;stroke:#000000;stroke-width:0.65316796px;stroke-linecap:butt;stroke-linejoin:miter;stroke-opacity:1"
       d="m 312.93068,798.65481 c -0.87139,0.0634 -1.87183,-0.59664 -2.2161,-1.39964 -0.29501,-1.21563 0.6983,-1.85683 1.63291,-2.21612 0.50806,-0.1953 1.20184,-0.33232 1.63292,0 0.60496,0.46637 0.81068,1.48693 0.58319,2.21612 -0.21353,0.68435 -0.91792,1.3476 -1.63292,1.39964 z"
       id="path5503-8"
       inkscape:connector-curvature="0"
       sodipodi:nodetypes="scssss" />
    <path
       style="fill:#857970;fill-opacity:1;fill-rule:evenodd;stroke:#000000;stroke-width:0.65316796px;stroke-linecap:butt;stroke-linejoin:miter;stroke-opacity:1"
       d="m 324.80707,792.71661 c -0.8714,0.0634 -1.87183,-0.59663 -2.21611,-1.39964 -0.295,-1.21561 0.69831,-1.85682 1.63292,-2.21611 0.50805,-0.19531 1.20182,-0.33231 1.63292,0 0.60496,0.46637 0.81068,1.48692 0.58318,2.21611 -0.21352,0.68436 -0.91792,1.34761 -1.63291,1.39964 z"
       id="path5503-4"
       inkscape:connector-curvature="0"
       sodipodi:nodetypes="scssss" />
    <path
       style="fill:#857970;fill-opacity:1;fill-rule:evenodd;stroke:#000000;stroke-width:0.65316796px;stroke-linecap:butt;stroke-linejoin:miter;stroke-opacity:1"
       d="m 338.00305,799.3146 c -0.8714,0.0634 -1.87182,-0.59663 -2.21611,-1.39964 -0.29499,-1.21561 0.69831,-1.85682 1.63294,-2.2161 0.50805,-0.19532 1.20182,-0.33232 1.63291,0 0.60496,0.46635 0.81068,1.48691 0.58318,2.2161 -0.21351,0.68436 -0.91792,1.34761 -1.63292,1.39964 z"
       id="path5503-2"
       inkscape:connector-curvature="0"
       sodipodi:nodetypes="scssss" />
    <path
       style="fill:#857970;fill-opacity:1;fill-rule:evenodd;stroke:#000000;stroke-width:0.62598711px;stroke-linecap:butt;stroke-linejoin:miter;stroke-opacity:1"
       d="m 376.42569,807.85834 c -0.83513,0.0608 -1.79392,-0.5718 -2.12389,-1.34139 -0.28271,-1.16502 0.66925,-1.77956 1.56497,-2.12388 0.48692,-0.18719 1.15182,-0.31849 1.56497,0 0.57979,0.44695 0.77695,1.42504 0.55892,2.12388 -0.20463,0.65588 -0.87972,1.29152 -1.56497,1.34139 z"
       id="path5503-85"
       inkscape:connector-curvature="0"
       sodipodi:nodetypes="scssss" />
    <path
       style="fill:#857970;fill-opacity:1;fill-rule:evenodd;stroke:#000000;stroke-width:0.62598711px;stroke-linecap:butt;stroke-linejoin:miter;stroke-opacity:1"
       d="m 413.10155,815.44646 c -0.83512,0.0608 -1.79392,-0.57181 -2.12388,-1.3414 -0.28272,-1.16502 0.66925,-1.77955 1.56496,-2.12389 0.48692,-0.18718 1.15183,-0.31848 1.56498,0 0.57978,0.44696 0.77694,1.42504 0.55892,2.12389 -0.20464,0.65588 -0.87973,1.29152 -1.56498,1.3414 z"
       id="path5503-83"
       inkscape:connector-curvature="0"
       sodipodi:nodetypes="scssss" />
    <path
       style="fill:#857970;fill-opacity:1;fill-rule:evenodd;stroke:#000000;stroke-width:0.62598711px;stroke-linecap:butt;stroke-linejoin:miter;stroke-opacity:1"
       d="m 423.85137,817.97583 c -0.83512,0.0608 -1.79392,-0.57181 -2.12388,-1.3414 -0.28272,-1.16502 0.66925,-1.77956 1.56496,-2.12388 0.48692,-0.18719 1.15183,-0.31849 1.56498,0 0.57978,0.44695 0.77695,1.42504 0.55891,2.12388 -0.20463,0.65587 -0.87971,1.29152 -1.56497,1.3414 z"
       id="path5503-42"
       inkscape:connector-curvature="0"
       sodipodi:nodetypes="scssss" />
    <path
       style="fill:#857970;fill-opacity:1;fill-rule:evenodd;stroke:#000000;stroke-width:0.62598711px;stroke-linecap:butt;stroke-linejoin:miter;stroke-opacity:1"
       d="m 422.5867,827.46096 c -0.83515,0.0608 -1.79394,-0.5718 -2.1239,-1.34139 -0.28272,-1.16503 0.66925,-1.77956 1.56498,-2.12389 0.48692,-0.18718 1.15181,-0.31849 1.56496,0 0.57979,0.44696 0.77695,1.42504 0.55892,2.12389 -0.20464,0.65588 -0.87973,1.29153 -1.56496,1.34139 z"
       id="path5503-30"
       inkscape:connector-curvature="0"
       sodipodi:nodetypes="scssss" />
    <path
       style="fill:#857970;fill-opacity:1;fill-rule:evenodd;stroke:#000000;stroke-width:0.62598711px;stroke-linecap:butt;stroke-linejoin:miter;stroke-opacity:1"
       d="m 421.322,869.19554 c -0.83512,0.0606 -1.79391,-0.57176 -2.12388,-1.34133 -0.28271,-1.1651 0.66925,-1.77963 1.56496,-2.12388 0.48692,-0.18721 1.15183,-0.31852 1.56497,0 0.57979,0.44689 0.77696,1.42497 0.55893,2.12388 -0.20463,0.65586 -0.87973,1.29148 -1.56498,1.34133 z"
       id="path5503-5"
       inkscape:connector-curvature="0"
       sodipodi:nodetypes="scssss" />
    <path
       style="fill:#857970;fill-opacity:1;fill-rule:evenodd;stroke:#000000;stroke-width:0.62598711px;stroke-linecap:butt;stroke-linejoin:miter;stroke-opacity:1"
       d="m 414.99857,912.82722 c -0.83512,0.0605 -1.79391,-0.57186 -2.12387,-1.34143 -0.28272,-1.165 0.66925,-1.77953 1.56496,-2.12387 0.48692,-0.18722 1.15183,-0.31852 1.56497,0 0.57979,0.44689 0.77695,1.42506 0.55892,2.12387 -0.20463,0.65596 -0.87972,1.29158 -1.56498,1.34143 z"
       id="path5503-9"
       inkscape:connector-curvature="0"
       sodipodi:nodetypes="scssss" />
    <path
       style="fill:#857970;fill-opacity:1;fill-rule:evenodd;stroke:#000000;stroke-width:0.62598711px;stroke-linecap:butt;stroke-linejoin:miter;stroke-opacity:1"
       d="m 398.55768,961.51756 c -0.83513,0.0605 -1.79393,-0.57176 -2.12389,-1.34133 -0.28272,-1.16501 0.66925,-1.77963 1.56497,-2.12397 0.48692,-0.18712 1.15182,-0.31852 1.56497,0 0.57978,0.44698 0.77695,1.42506 0.55891,2.12397 -0.20463,0.65586 -0.87971,1.29148 -1.56496,1.34133 z"
       id="path5503-94"
       inkscape:connector-curvature="0"
       sodipodi:nodetypes="scssss" />
    <path
       style="fill:#857970;fill-opacity:1;fill-rule:evenodd;stroke:#000000;stroke-width:0.62598711px;stroke-linecap:butt;stroke-linejoin:miter;stroke-opacity:1"
       d="m 362.51415,1007.6786 c -0.83513,0.061 -1.79392,-0.5718 -2.12388,-1.3415 -0.28272,-1.165 0.66925,-1.7795 1.56497,-2.1238 0.48692,-0.1873 1.15182,-0.3185 1.56497,0 0.57978,0.4469 0.77695,1.425 0.55891,2.1238 -0.20462,0.6559 -0.87972,1.2916 -1.56497,1.3415 z"
       id="path5503-50"
       inkscape:connector-curvature="0"
       sodipodi:nodetypes="scssss" />
    <path
       style="fill:#857970;fill-opacity:1;fill-rule:evenodd;stroke:#000000;stroke-width:0.62598711px;stroke-linecap:butt;stroke-linejoin:miter;stroke-opacity:1"
       d="m 311.29442,1046.8837 c -0.83514,0.061 -1.79394,-0.5718 -2.1239,-1.3414 -0.28271,-1.165 0.66925,-1.7795 1.56498,-2.1239 0.48691,-0.1872 1.15181,-0.3185 1.56496,0 0.57979,0.447 0.77695,1.4251 0.55892,2.1239 -0.20464,0.6559 -0.87972,1.2916 -1.56496,1.3414 z"
       id="path5503-92"
       inkscape:connector-curvature="0"
       sodipodi:nodetypes="scssss" />
    <path
       style="fill:#857970;fill-opacity:1;fill-rule:evenodd;stroke:#000000;stroke-width:0.62598711px;stroke-linecap:butt;stroke-linejoin:miter;stroke-opacity:1"
       d="m 323.30893,1041.1927 c -0.83514,0.061 -1.79394,-0.5719 -2.12389,-1.3415 -0.28273,-1.1651 0.66925,-1.7796 1.56496,-2.1238 0.48693,-0.1873 1.15183,-0.3186 1.56497,0 0.57979,0.4469 0.77696,1.425 0.55892,2.1238 -0.20464,0.6559 -0.87972,1.2915 -1.56496,1.3415 z"
       id="path5503-22"
       inkscape:connector-curvature="0"
       sodipodi:nodetypes="scssss" />
    <path
       style="fill:#857970;fill-opacity:1;fill-rule:evenodd;stroke:#000000;stroke-width:0.62598711px;stroke-linecap:butt;stroke-linejoin:miter;stroke-opacity:1"
       d="m 300.54459,1039.928 c -0.83514,0.06 -1.79393,-0.5719 -2.12389,-1.3415 -0.28272,-1.165 0.66925,-1.7795 1.56497,-2.1239 0.48692,-0.1871 1.15182,-0.3185 1.56497,0 0.57978,0.447 0.77695,1.4251 0.55891,2.1239 -0.20463,0.6559 -0.87972,1.2916 -1.56496,1.3415 z"
       id="path5503-1"
       inkscape:connector-curvature="0"
       sodipodi:nodetypes="scssss" />
    <path
       style="fill:#857970;fill-opacity:1;fill-rule:evenodd;stroke:#000000;stroke-width:0.62598711px;stroke-linecap:butt;stroke-linejoin:miter;stroke-opacity:1"
       d="m 265.13341,1013.3696 c -0.83513,0.061 -1.79392,-0.5718 -2.12389,-1.3414 -0.28271,-1.1649 0.66926,-1.7796 1.56497,-2.1239 0.48691,-0.1871 1.15182,-0.3184 1.56497,0 0.57979,0.447 0.77695,1.4251 0.55892,2.1239 -0.20463,0.6559 -0.87972,1.2915 -1.56497,1.3414 z"
       id="path5503-90"
       inkscape:connector-curvature="0"
       sodipodi:nodetypes="scssss" />
    <path
       style="fill:#857970;fill-opacity:1;fill-rule:evenodd;stroke:#000000;stroke-width:0.62598711px;stroke-linecap:butt;stroke-linejoin:miter;stroke-opacity:1"
       d="m 234.78097,969.73805 c -0.83513,0.0606 -1.79393,-0.57186 -2.12388,-1.34143 -0.28273,-1.165 0.66925,-1.77962 1.56496,-2.12387 0.48692,-0.18712 1.15183,-0.31852 1.56497,0 0.57979,0.44698 0.77696,1.42496 0.55891,2.12387 -0.20462,0.65586 -0.87971,1.29148 -1.56496,1.34143 z"
       id="path5503-7"
       inkscape:connector-curvature="0"
       sodipodi:nodetypes="scssss" />
    <path
       style="fill:#857970;fill-opacity:1;fill-rule:evenodd;stroke:#000000;stroke-width:0.62598711px;stroke-linecap:butt;stroke-linejoin:miter;stroke-opacity:1"
       d="m 213.28132,917.25358 c -0.83512,0.0605 -1.79391,-0.57177 -2.12388,-1.34134 -0.28271,-1.16501 0.66925,-1.77963 1.56497,-2.12397 0.48691,-0.18712 1.15182,-0.31843 1.56497,0 0.57978,0.44699 0.77695,1.42506 0.55892,2.12397 -0.20463,0.65586 -0.87973,1.29148 -1.56498,1.34134 z"
       id="path5503-10"
       inkscape:connector-curvature="0"
       sodipodi:nodetypes="scssss" />
    <path
       style="fill:#857970;fill-opacity:1;fill-rule:evenodd;stroke:#000000;stroke-width:0.62598711px;stroke-linecap:butt;stroke-linejoin:miter;stroke-opacity:1"
       d="m 204.42853,869.19554 c -0.83513,0.0606 -1.79392,-0.57176 -2.12389,-1.34133 -0.28271,-1.1651 0.66925,-1.77963 1.56498,-2.12388 0.48691,-0.18721 1.15181,-0.31852 1.56496,0 0.57979,0.44689 0.77695,1.42497 0.55892,2.12388 -0.20463,0.65586 -0.87972,1.29148 -1.56497,1.34133 z"
       id="path5503-0"
       inkscape:connector-curvature="0"
       sodipodi:nodetypes="scssss" />
    <path
       style="fill:#857970;fill-opacity:1;fill-rule:evenodd;stroke:#000000;stroke-width:0.62598711px;stroke-linecap:butt;stroke-linejoin:miter;stroke-opacity:1"
       d="m 206.32555,812.91709 c -0.83512,0.0607 -1.79391,-0.57181 -2.12388,-1.3414 -0.28271,-1.16503 0.66925,-1.77955 1.56497,-2.12389 0.48691,-0.18717 1.15182,-0.31849 1.56497,0 0.57979,0.44696 0.77695,1.42504 0.55892,2.12389 -0.20463,0.65588 -0.87973,1.29153 -1.56498,1.3414 z"
       id="path5503-49"
       inkscape:connector-curvature="0"
       sodipodi:nodetypes="scssss" />
    <path
       style="fill:#857970;fill-opacity:1;fill-rule:evenodd;stroke:#000000;stroke-width:0.62598711px;stroke-linecap:butt;stroke-linejoin:miter;stroke-opacity:1"
       d="m 205.69322,821.76989 c -0.83513,0.0608 -1.79393,-0.57181 -2.12388,-1.3414 -0.28273,-1.16503 0.66924,-1.77955 1.56496,-2.12389 0.48692,-0.18719 1.15182,-0.31849 1.56496,0 0.57979,0.44696 0.77696,1.42504 0.55892,2.12389 -0.20463,0.65588 -0.87972,1.29152 -1.56496,1.3414 z"
       id="path5503-84"
       inkscape:connector-curvature="0"
       sodipodi:nodetypes="scssss" />
    <path
       style="fill:none;fill-rule:evenodd;stroke:#f11212;stroke-width:1px;stroke-linecap:butt;stroke-linejoin:miter;stroke-opacity:1"
       d="m -25.034172,1082.3748 411.533972,-6.4881 158.46603,6.4881 -1.98744,-73.8739 1.98744,-526.12604 60.27726,660.24704 z"
       id="path8485"
       inkscape:connector-curvature="0"
       sodipodi:nodetypes="ccccccc" />
  </g>
</svg>
