<?xml version="1.0" encoding="UTF-8" standalone="no"?>
<!-- Created with Inkscape (http://www.inkscape.org/) -->

<svg
   xmlns:dc="http://purl.org/dc/elements/1.1/"
   xmlns:cc="http://creativecommons.org/ns#"
   xmlns:rdf="http://www.w3.org/1999/02/22-rdf-syntax-ns#"
   xmlns:svg="http://www.w3.org/2000/svg"
   xmlns="http://www.w3.org/2000/svg"
   xmlns:sodipodi="http://sodipodi.sourceforge.net/DTD/sodipodi-0.dtd"
   xmlns:inkscape="http://www.inkscape.org/namespaces/inkscape"
   width="204.91254"
   height="337.88699"
   viewBox="0 0 204.91254 337.887"
   id="svg2"
   version="1.1"
   inkscape:version="0.91 r13725"
   sodipodi:docname="MuteMusicOff.svg">
  <defs
     id="defs4" />
  <sodipodi:namedview
     id="base"
     pagecolor="#ffffff"
     bordercolor="#666666"
     borderopacity="1.0"
     inkscape:pageopacity="0.0"
     inkscape:pageshadow="2"
     inkscape:zoom="1.0788903"
     inkscape:cx="63.350415"
     inkscape:cy="141.47119"
     inkscape:document-units="px"
     inkscape:current-layer="layer1"
     showgrid="false"
     units="px"
     fit-margin-top="0"
     fit-margin-left="0"
     fit-margin-right="0"
     fit-margin-bottom="0"
     inkscape:window-width="1366"
     inkscape:window-height="705"
     inkscape:window-x="-8"
     inkscape:window-y="-8"
     inkscape:window-maximized="1" />
  <metadata
     id="metadata7">
    <rdf:RDF>
      <cc:Work
         rdf:about="">
        <dc:format>image/svg+xml</dc:format>
        <dc:type
           rdf:resource="http://purl.org/dc/dcmitype/StillImage" />
        <dc:title></dc:title>
      </cc:Work>
    </rdf:RDF>
  </metadata>
  <g
     inkscape:label="Calque 1"
     inkscape:groupmode="layer"
     id="layer1"
     transform="translate(-143.00389,-635.83963)">
    <path
       style="fill:#efdf11;fill-opacity:1"
       d="m 223.165,973.19823 c -9.55627,-1.21169 -18.79865,-5.44628 -24.22562,-11.09947 -1.77409,-1.84804 -4.62791,-6.25496 -6.34184,-9.79315 -2.71303,-5.60073 -3.10539,-7.44465 -3.03253,-14.25141 0.0826,-7.71721 2.06361,-13.8771 5.60021,-17.41369 6.06846,-6.06846 17.49616,-6.96483 25.32576,-1.98651 10.45238,6.64597 10.89276,23.68673 0.80045,30.97367 -5.65493,4.08303 -8.27546,4.94409 -13.51456,4.44068 -4.38624,-0.42146 -4.91157,-0.27902 -4.15877,1.12761 4.04738,7.56258 22.12701,13.45838 33.82405,11.03008 16.29529,-3.38289 24.93035,-12.66666 28.22101,-30.34113 1.4619,-7.85201 0.86433,-25.58627 -1.17775,-34.95247 l -1.27571,-5.85113 -4.02235,0.60009 c -20.88931,3.11647 -25.15073,3.06055 -38.46576,-0.50474 -17.03792,-4.56215 -32.69684,-16.09818 -38.49865,-28.3622 -4.12042,-8.70984 -7.53228,-23.66228 -7.54611,-33.07078 -0.0145,-9.8829 1.85769,-17.47698 6.94101,-28.15395 6.751,-14.17973 9.32738,-17.18073 39.80274,-46.36263 l 14.15735,-13.55648 -1.4388,-7.94352 c -6.09703,-33.66105 -7.2235,-44.8241 -5.61709,-55.66411 1.35662,-9.15456 5.0154,-21.77941 6.31183,-21.77941 0.45712,0 0.83113,-0.675 0.83113,-1.5 0,-0.825 0.34015,-1.5 0.75589,-1.5 0.41574,0 1.35775,-1.35971 2.09336,-3.02157 1.6843,-3.80509 10.46652,-13.48142 13.99057,-15.41494 6.16806,-3.38419 7.15752,-3.59144 10.49292,-2.19782 8.55494,3.57448 17.63367,18.51051 23.70071,38.99163 6.71247,22.65997 3.05051,42.73011 -11.5209,63.1427 -2.35569,3.3 -9.1932,10.85675 -15.19448,16.79277 l -10.91141,10.79277 2.32148,13.70723 c 1.27681,7.53898 2.50187,14.60723 2.72236,15.70723 0.22048,1.1 0.43432,2.24633 0.47519,2.54739 0.0409,0.30107 2.907,0.36702 6.36918,0.14657 4.48503,-0.28559 8.43832,0.22398 13.75,1.77233 14.13586,4.12057 22.90924,12.42508 29.08828,27.53371 2.79003,6.82202 3.27879,9.25657 3.31932,16.53373 0.0451,8.09873 -0.17625,8.99076 -4.34268,17.5 -3.55951,7.26969 -5.92473,10.48001 -12.5,16.96627 -5.03082,4.96271 -10.29284,9.07292 -13.85979,10.826 -3.1625,1.55429 -5.75,2.95537 -5.75,3.11351 0,0.15813 0.43759,2.59489 0.97241,5.41502 0.53483,2.82013 1.24068,8.39405 1.56855,12.38649 1.74315,21.22595 0.65386,31.72452 -4.30842,41.52471 -5.24974,10.36787 -18.18758,19.08173 -30.73254,20.69891 -2.75,0.3545 -5.9,0.77195 -7,0.92766 -1.1,0.15572 -4.7,-0.0592 -8,-0.47765 z m 34.42659,-83.342 c 4.45516,-0.96541 4.54642,-1.8047 1.77153,-16.29156 -1.45183,-7.5796 -4.31978,-22.9193 -6.37322,-34.08822 l -3.73353,-20.30713 -2.54568,0.62793 c -4.4701,1.1026 -11.85463,6.49744 -14.10162,10.30209 -1.22608,2.07603 -2.40075,6.15645 -2.69103,9.3478 -0.6402,7.03846 2.07143,13.31897 8.44041,19.54914 4.57325,4.47358 4.79906,4.96036 3.35787,7.23851 -0.77152,1.21956 -1.82396,0.98014 -6.59348,-1.5 -6.63171,-3.44848 -9.79812,-6.87154 -13.36768,-14.45121 -2.2337,-4.74308 -2.56801,-6.7114 -2.42924,-14.30239 0.17452,-9.54653 1.4535,-13.42743 6.5791,-19.96352 3.4145,-4.3541 13.33967,-12.24359 17.29419,-13.7471 2.40009,-0.91251 2.633,-1.39573 2.0524,-4.25815 -0.3602,-1.77586 -1.35082,-7.27884 -2.20137,-12.22884 -0.85055,-4.95 -1.92651,-9.39383 -2.39103,-9.87518 -0.47398,-0.49116 -2.93256,1.04463 -5.60302,3.5 -26.43815,24.30869 -32.60397,30.72198 -35.63674,37.06699 -4.79269,10.02706 -6.44753,22.9474 -4.3339,33.83752 4.08835,21.06455 16.72665,36.14326 33.57945,40.06351 3.54206,0.82394 24.45962,0.44778 28.92659,-0.52019 z m 19.03267,-8.54499 c 6.87642,-4.66968 11.12925,-9.52828 14.70414,-16.79859 2.41657,-4.91459 2.56149,-5.99624 2.14374,-16 -0.39158,-9.37686 -0.7974,-11.35923 -3.22001,-15.72907 -5.81571,-10.49026 -13.31,-15.33075 -25.1185,-16.22383 -6.06206,-0.45847 -7.46863,-0.29644 -7.46863,0.86033 0,1.22331 2.58574,15.77452 5.92867,33.3635 0.52266,2.75 1.47119,8.375 2.10784,12.5 1.55602,10.08164 4.05819,22 4.61874,22 0.24997,0 3.08677,-1.78755 6.30401,-3.97234 z M 264.27284,717.69116 c 9.35432,-9.37399 11.24373,-13.42227 12.09151,-25.90758 0.69074,-10.17255 -0.89148,-20.32848 -4.23017,-27.15251 -3.31105,-6.76754 -5.89497,-7.65502 -11.496,-3.94844 -2.18525,1.44613 -3.98362,2.96044 -3.99638,3.36514 -0.0128,0.40469 -1.64466,2.53581 -3.62644,4.73581 -4.24693,4.71456 -10.65263,17.73259 -12.83683,26.08772 -1.70845,6.53526 -1.48231,10.72665 1.58689,29.41228 1.03891,6.325 1.89132,11.93591 1.89425,12.4687 0.006,1.02697 7.27672,-5.69663 20.61317,-19.06112 z"
       id="path4149"
       inkscape:connector-curvature="0" />
    <circle
       style="opacity:1;fill:none;fill-opacity:1;stroke:#ab1717;stroke-width:16.05836868;stroke-linecap:square;stroke-linejoin:round;stroke-miterlimit:4;stroke-dasharray:none;stroke-opacity:1"
       id="path4151"
       cx="245.46016"
       cy="820.36261"
       r="94.427086" />
    <rect
       style="opacity:1;fill:none;fill-opacity:1;stroke:#ab1717;stroke-width:15.54006386;stroke-linecap:square;stroke-linejoin:round;stroke-miterlimit:4;stroke-dasharray:none;stroke-opacity:1"
       id="rect4153"
       width="7.6203976"
       height="182.6279"
       x="744.57446"
       y="286.0784"
       transform="matrix(0.67973203,0.73346054,-0.70447239,0.70973139,0,0)" />
  </g>
</svg>
