<?xml version="1.0" encoding="UTF-8" standalone="no"?>
<!-- Created with Inkscape (http://www.inkscape.org/) -->

<svg
   xmlns:dc="http://purl.org/dc/elements/1.1/"
   xmlns:cc="http://creativecommons.org/ns#"
   xmlns:rdf="http://www.w3.org/1999/02/22-rdf-syntax-ns#"
   xmlns:svg="http://www.w3.org/2000/svg"
   xmlns="http://www.w3.org/2000/svg"
   xmlns:xlink="http://www.w3.org/1999/xlink"
   xmlns:sodipodi="http://sodipodi.sourceforge.net/DTD/sodipodi-0.dtd"
   xmlns:inkscape="http://www.inkscape.org/namespaces/inkscape"
   width="201.36067"
   height="123.40339"
   viewBox="0 0 201.36068 123.40339"
   id="svg12187"
   version="1.1"
   inkscape:version="0.91 r13725"
   sodipodi:docname="Roots.svg"
   inkscape:export-filename="C:\Users\Amaury Punel\Desktop\GIT PROJET TUTORE\warfare-of-heroes\Images\PNG\Roots.png"
   inkscape:export-xdpi="90"
   inkscape:export-ydpi="90">
  <defs
     id="defs12189">
    <linearGradient
       inkscape:collect="always"
       id="linearGradient12758">
      <stop
         style="stop-color:#443c00;stop-opacity:1"
         offset="0"
         id="stop12760" />
      <stop
         style="stop-color:#94821d;stop-opacity:0.99607843"
         offset="1"
         id="stop12762" />
    </linearGradient>
    <linearGradient
       inkscape:collect="always"
       xlink:href="#linearGradient12758"
       id="linearGradient12764"
       x1="234.99088"
       y1="762.57562"
       x2="245.41241"
       y2="714.42749"
       gradientUnits="userSpaceOnUse" />
    <linearGradient
       inkscape:collect="always"
       xlink:href="#linearGradient12758"
       id="linearGradient12772"
       x1="222.56479"
       y1="774.81555"
       x2="215.23503"
       y2="734.76929"
       gradientUnits="userSpaceOnUse" />
    <linearGradient
       inkscape:collect="always"
       xlink:href="#linearGradient12758"
       id="linearGradient12780"
       x1="296.75928"
       y1="751.50555"
       x2="279.16666"
       y2="723.26483"
       gradientUnits="userSpaceOnUse" />
    <linearGradient
       inkscape:collect="always"
       xlink:href="#linearGradient12758"
       id="linearGradient12788"
       x1="254.32895"
       y1="713.57574"
       x2="281.81744"
       y2="713.57574"
       gradientUnits="userSpaceOnUse"
       gradientTransform="translate(-4.6296296,10.416666)" />
    <linearGradient
       inkscape:collect="always"
       xlink:href="#linearGradient12758"
       id="linearGradient12796"
       x1="270.60184"
       y1="726.43622"
       x2="280.78705"
       y2="726.43622"
       gradientUnits="userSpaceOnUse"
       gradientTransform="translate(-2.5462963,0)" />
  </defs>
  <sodipodi:namedview
     id="base"
     pagecolor="#ffffff"
     bordercolor="#666666"
     borderopacity="1.0"
     inkscape:pageopacity="0.0"
     inkscape:pageshadow="2"
     inkscape:zoom="1.08"
     inkscape:cx="74.109822"
     inkscape:cy="107.14113"
     inkscape:document-units="px"
     inkscape:current-layer="layer1"
     showgrid="false"
     units="px"
     fit-margin-top="0"
     fit-margin-left="0"
     fit-margin-right="0"
     fit-margin-bottom="0"
     inkscape:window-width="1366"
     inkscape:window-height="705"
     inkscape:window-x="-8"
     inkscape:window-y="-8"
     inkscape:window-maximized="1" />
  <metadata
     id="metadata12192">
    <rdf:RDF>
      <cc:Work
         rdf:about="">
        <dc:format>image/svg+xml</dc:format>
        <dc:type
           rdf:resource="http://purl.org/dc/dcmitype/StillImage" />
        <dc:title></dc:title>
      </cc:Work>
    </rdf:RDF>
  </metadata>
  <g
     inkscape:label="Calque 1"
     inkscape:groupmode="layer"
     id="layer1"
     transform="translate(-136.14829,-783.18271)">
    <g
       id="g12820"
       transform="matrix(1.7128999,0,0,1.7128999,-170.01695,-421.9333)">
      <path
         sodipodi:nodetypes="ccccccc"
         inkscape:connector-curvature="0"
         id="path12754"
         d="m 250.23148,731.29735 c 1.36977,-7.67713 2.46318,-15.90699 4.39815,-22.45371 6.33897,-5.57918 9.89005,-5.58257 13.19444,-5.09259 7.82671,4.25073 7.87037,10.18519 7.87037,10.18519 -5.91538,11.77438 -5.64316,17.69772 -8.79629,26.1574 l -6.25,4.16667 z"
         style="fill:url(#linearGradient12788);fill-opacity:1;fill-rule:evenodd;stroke:none;stroke-width:1px;stroke-linecap:butt;stroke-linejoin:miter;stroke-opacity:1" />
      <path
         sodipodi:nodetypes="cccccccccccc"
         inkscape:connector-curvature="0"
         id="path12748"
         d="m 178.74088,766.90053 c 2.66846,-10.15219 1.02516,-14.2679 9.1662,-32.08169 6.32904,-6.21444 10.2555,-12.42887 19.33094,-18.64331 10.70321,-2.72106 24.62221,-2.62518 40.24935,-1.65328 14.17748,11.98557 25.42358,26.2511 34.04589,42.55736 0.39214,5.55124 3.85598,11.38173 -1.96419,16.36821 -5.63558,-0.10811 -8.21207,1.09482 -17.67767,-0.65473 -8.99721,-12.1202 -15.76574,-22.90321 -27.4986,-36.6648 -5.2189,-1.79011 -10.63421,-3.12193 -17.67767,-0.65472 -2.07124,7.96244 -6.06324,9.98933 -5.90618,28.76834 -0.86015,5.4015 -6.79049,6.87405 -20.79927,6.85138 -9.26398,-1.15144 -5.5839,-1.25177 -11.2688,-4.19276 z"
         style="fill:url(#linearGradient12764);fill-opacity:1;fill-rule:evenodd;stroke:none;stroke-width:1px;stroke-linecap:butt;stroke-linejoin:miter;stroke-opacity:1" />
      <path
         sodipodi:nodetypes="cccccc"
         inkscape:connector-curvature="0"
         id="path12752"
         d="m 263.42593,730.6029 c 7.17592,-0.55167 14.35185,-3.03565 21.52777,-1.38889 3.85649,2.77778 7.92967,5.55555 8.7963,8.33333 0.98497,3.34943 2.14248,5.66362 2.5463,12.5 -6.46391,0.58749 -11.628,1.82489 -16.89815,3.00926 z"
         style="fill:url(#linearGradient12780);fill-opacity:1;fill-rule:evenodd;stroke:none;stroke-width:1px;stroke-linecap:butt;stroke-linejoin:miter;stroke-opacity:1" />
      <path
         inkscape:connector-curvature="0"
         id="path12756"
         d="m 278.24074,728.51957 -6.48148,-6.01852 -3.70371,7.87037 z"
         style="fill:url(#linearGradient12796);fill-opacity:1;fill-rule:evenodd;stroke:none;stroke-width:1px;stroke-linecap:butt;stroke-linejoin:miter;stroke-opacity:1" />
      <path
         inkscape:connector-curvature="0"
         d="m 189.24219,744.53613 c 0.83618,-2.74272 2.48917,-5.1673 4.04845,-7.543 1.7437,-2.49193 3.53176,-4.98179 5.57132,-7.24498 1.21149,-1.34431 1.54572,-1.58897 2.84921,-2.76702 0.4558,-0.34022 0.89608,-0.7023 1.3674,-1.02067 0.41713,-0.28176 0.85356,-0.53485 1.29461,-0.77745 2.28426,-1.25648 3.05364,-1.91313 5.08214,-2.46013 1.00163,-0.2701 1.31753,-0.26467 2.3566,-0.38139 1.1683,-0.084 1.11871,-0.11334 2.24657,-0.0734 0.32457,0.0115 0.65254,0.004 0.97245,0.0603 0.47411,0.0829 0.93384,0.23369 1.39967,0.35479 3.15021,0.81896 0.38027,0.13359 3.85704,0.97348 4.56805,1.07992 9.23249,1.60785 13.9078,1.92089 0.54981,0.0263 1.09968,0.0511 1.64941,0.0788 0.95005,0.0479 1.49963,0.0568 2.41697,0.19468 1.15948,0.17421 2.30058,0.49071 3.44037,0.75864 1.83974,0.45687 3.77978,0.68959 5.53206,1.44171 1.13212,0.63755 1.3967,1.74185 1.76216,2.89978 0.91609,2.50641 2.25892,4.81119 3.74955,7.01324 1.05515,1.56273 2.21788,3.05685 3.74976,4.17284 1.46223,0.91439 2.84861,1.93901 4.22384,2.97815 1.18083,0.97506 2.38156,1.92913 3.42591,3.05309 0.39612,0.37901 0.72512,0.81482 1.02161,1.27346 0,0 -2.91934,1.70042 -2.91934,1.70042 l 0,0 c -0.27545,-0.45037 -0.60205,-0.85633 -0.95838,-1.24616 -0.97434,-1.14238 -2.12607,-2.11114 -3.27401,-3.07337 -0.83578,-0.64274 -1.67614,-1.26793 -2.5741,-1.82285 -0.43602,-0.26945 -0.89648,-0.49903 -1.32497,-0.78028 -0.14716,-0.0966 -0.28395,-0.20814 -0.42593,-0.31221 -1.52739,-1.22926 -2.50902,-2.7733 -3.58896,-4.39385 -0.9774,-1.49599 -0.77541,-1.16709 -1.73852,-2.72375 -0.27596,-0.44603 -0.56653,-0.88363 -0.82219,-1.3416 -0.19417,-0.34782 -0.34739,-0.71699 -0.52582,-1.07314 -0.7753,-1.54749 -0.24995,-0.41357 -0.88871,-1.84183 -0.36098,-1.00229 -0.65314,-2.09684 -1.64812,-2.64469 -1.70816,-0.72602 -3.54942,-1.09218 -5.35394,-1.49174 -1.15368,-0.24867 -2.30309,-0.51773 -3.46957,-0.70115 -0.96946,-0.15244 -1.266,-0.17302 -2.28871,-0.26267 -0.52794,-0.0463 -1.05633,-0.0873 -1.5845,-0.13087 -4.65714,-0.43739 -9.30433,-1.01046 -13.88291,-1.99007 -2.84399,-0.60988 -5.67754,-1.46041 -8.61337,-1.08541 -0.98793,0.14021 -1.37341,0.1585 -2.32039,0.43022 -0.38493,0.11045 -1.31115,0.74672 -1.13777,0.38573 0.2469,-0.51404 1.24207,-0.41857 1.41461,-0.9621 0.33224,-1.04663 -3.38701,2.82149 -2.77321,1.77806 -1.37234,1.19237 -1.67145,1.38984 -2.94086,2.76106 -2.05883,2.22396 -3.83357,4.69969 -5.54581,7.19301 -1.46009,2.24981 -3.02514,4.57814 -3.68694,7.2105 0,0 -3.05248,1.51301 -3.05248,1.51301 z"
         id="path12798"
         style="opacity:0.719;fill:#327100;fill-opacity:0.55801104;stroke:none;stroke-width:4;stroke-linecap:square;stroke-linejoin:round;stroke-miterlimit:4;stroke-dasharray:none;stroke-opacity:1" />
      <path
         sodipodi:nodetypes="ccccc"
         inkscape:connector-curvature="0"
         id="path12750"
         d="m 237.50001,739.3992 c -17.14404,5.57179 -35.83889,20.66651 -55.78705,32.4074 4.12592,4.06206 18.74989,4.49019 38.88889,3.00926 13.38079,-6.30185 26.03901,-14.31143 31.71297,-15.27778 -3.95544,-7.04057 -9.65228,-13.50067 -14.81481,-20.13888 z"
         style="fill:url(#linearGradient12772);fill-opacity:1;fill-rule:evenodd;stroke:none;stroke-width:1px;stroke-linecap:butt;stroke-linejoin:miter;stroke-opacity:1" />
      <path
         inkscape:connector-curvature="0"
         d="m 199.20429,762.82974 c 1.12656,-0.24139 2.23486,-0.54957 3.34168,-0.86819 1.91405,-0.59477 3.85461,-1.09777 5.77069,-1.685 1.06829,-0.35802 2.16746,-0.6728 3.13981,-1.2558 -4.63119,2.76598 -2.90437,1.90393 -2.0607,0.92641 0.29988,-0.34746 0.55274,-0.72793 0.80843,-1.10789 0.47148,-0.68599 0.8788,-1.4108 1.30396,-2.12519 0.36779,-0.61761 0.88115,-1.10293 1.45265,-1.52695 1.2255,-0.80373 1.34554,-0.89119 3.51599,-2.04385 0.15364,-0.0816 0.33815,-0.0823 0.50535,-0.13032 0.66324,-0.19057 1.31518,-0.42525 1.97202,-0.63641 1.4783,-0.41848 2.96565,-0.80171 4.45135,-1.192 1.29055,-0.37349 2.58706,-0.72893 3.82733,-1.24995 0.82252,-0.26708 1.53391,-0.76486 2.31133,-1.12835 0.13919,-0.071 0.27729,-0.1441 0.41758,-0.21289 0.29193,-0.14314 1.15099,-0.60477 0.86943,-0.44217 -4.41226,2.54804 -2.39171,1.43902 -1.46316,0.71049 0.73055,-0.64129 1.33143,-1.40956 2.04588,-2.06688 0.62927,-0.53613 1.31414,-1.00737 2.02373,-1.43062 0,0 3.15547,-1.21457 3.15547,-1.21457 l 0,0 c -0.71618,0.41742 -1.42464,0.85248 -2.06518,1.38066 -0.76046,0.62449 -1.36567,1.39894 -2.06941,2.08378 -1.61226,1.42613 -3.6298,2.31145 -5.53621,3.2878 -0.75398,0.39379 -1.49153,0.82347 -2.30479,1.08955 -1.24175,0.47308 -2.52265,0.82396 -3.80218,1.17901 -1.48651,0.39332 -2.97678,0.77433 -4.45023,1.21504 -0.67104,0.22254 -1.35183,0.4296 -2.0159,0.67228 -0.17024,0.0622 -0.65762,0.30028 -0.50398,0.20414 0.7402,-0.46321 3.65889,-2.13963 2.26538,-1.31537 -0.58029,0.38186 -1.12833,0.81446 -1.51371,1.40293 -0.45157,0.70837 -0.84409,1.45288 -1.3202,2.14641 -0.34315,0.51407 -0.68163,1.01567 -1.07633,1.49215 -0.0808,0.0976 -0.13576,0.22455 -0.24258,0.29273 -1.02446,0.65393 -2.08957,1.24187 -3.13436,1.8628 -0.97523,0.48677 -2.02776,0.78261 -3.06456,1.10745 -1.92986,0.56284 -3.87239,1.08246 -5.7876,1.69515 -1.15469,0.34061 -2.32098,0.63826 -3.47292,0.98585 0,0 2.70594,-2.10223 2.70594,-2.10223 z"
         id="path12800"
         style="opacity:0.719;fill:#327100;fill-opacity:0.55801104;stroke:none;stroke-width:4;stroke-linecap:square;stroke-linejoin:round;stroke-miterlimit:4;stroke-dasharray:none;stroke-opacity:1" />
      <path
         inkscape:connector-curvature="0"
         d="m 268.26937,730.75681 c 1.82029,0.10512 3.63735,0.0559 5.45478,-0.0666 1.477,-0.12483 2.96328,-0.20475 4.43493,-0.38817 0.54954,-0.0685 1.52318,-0.24636 2.07919,-0.34414 0.98767,-0.17813 1.97744,-0.35118 2.97542,-0.46179 0.17689,-0.0196 0.35384,-0.0604 0.53153,-0.0504 0.18984,0.0107 0.37289,0.0747 0.55933,0.11201 1.26938,0.34971 2.1995,1.23318 3.11641,2.12336 0.69814,0.68517 1.28821,1.46093 1.85509,2.25434 0.38758,0.52238 0.75664,1.05832 1.20845,1.52794 0.0586,0.0582 0.11721,0.11636 0.17582,0.17454 0,0 -2.90421,1.77977 -2.90421,1.77977 l 0,0 c -0.0609,-0.0613 -0.12178,-0.12255 -0.18267,-0.18383 -0.44719,-0.49117 -0.79035,-1.06119 -1.19022,-1.58982 -0.55743,-0.77279 -1.10641,-1.55489 -1.78866,-2.22637 -0.87112,-0.85644 -1.76663,-1.70146 -3.01247,-1.94152 -0.17237,-0.0149 -0.34409,-0.0452 -0.5171,-0.0448 -0.1716,3.3e-4 -0.34196,0.0294 -0.51267,0.0468 -0.96501,0.0986 -1.92304,0.25249 -2.87989,0.40983 -2.1527,0.34239 -4.3192,0.56199 -6.49633,0.67887 -1.88903,0.11772 -3.77742,0.15754 -5.66911,0.19701 0,0 2.76238,-2.00699 2.76238,-2.00699 z"
         id="path12812"
         style="opacity:0.719;fill:#327100;fill-opacity:0.55801104;stroke:none;stroke-width:4;stroke-linecap:square;stroke-linejoin:round;stroke-miterlimit:4;stroke-dasharray:none;stroke-opacity:1" />
      <path
         inkscape:connector-curvature="0"
         d="m 259.32246,707.93092 c -0.34581,1.12041 -0.70464,2.23761 -1.0084,3.37035 -0.23674,0.88153 -0.48136,1.76103 -0.7291,2.63961 -0.13782,0.61331 -0.29512,1.22307 -0.4027,1.84273 -0.0492,0.35856 -0.0279,0.18099 -0.0642,0.53266 0,0 -3.0465,1.51516 -3.0465,1.51516 l 0,0 c 0.0337,-0.3672 0.0138,-0.1817 0.0604,-0.55643 0.10156,-0.63645 0.26431,-1.25756 0.40745,-1.88528 0.24539,-0.88874 0.53563,-1.76472 0.77405,-2.65541 0.28913,-1.12312 0.71198,-2.21019 0.93875,-3.35009 0,0 3.07031,-1.4533 3.07031,-1.4533 z"
         id="path12816"
         style="opacity:0.719;fill:#327100;fill-opacity:0.55801104;stroke:none;stroke-width:4;stroke-linecap:square;stroke-linejoin:round;stroke-miterlimit:4;stroke-dasharray:none;stroke-opacity:1" />
    </g>
  </g>
</svg>
