<?xml version="1.0" encoding="UTF-8" standalone="no"?>
<!-- Created with Inkscape (http://www.inkscape.org/) -->

<svg
   xmlns:dc="http://purl.org/dc/elements/1.1/"
   xmlns:cc="http://creativecommons.org/ns#"
   xmlns:rdf="http://www.w3.org/1999/02/22-rdf-syntax-ns#"
   xmlns:svg="http://www.w3.org/2000/svg"
   xmlns="http://www.w3.org/2000/svg"
   xmlns:sodipodi="http://sodipodi.sourceforge.net/DTD/sodipodi-0.dtd"
   xmlns:inkscape="http://www.inkscape.org/namespaces/inkscape"
   width="59.135632mm"
   height="59.135632mm"
   viewBox="0 0 209.5357 209.5357"
   id="svg5492"
   version="1.1"
   inkscape:version="0.91 r13725"
   sodipodi:docname="sort3.svg">
  <defs
     id="defs5494" />
  <sodipodi:namedview
     id="base"
     pagecolor="#ffffff"
     bordercolor="#666666"
     borderopacity="1.0"
     inkscape:pageopacity="0.0"
     inkscape:pageshadow="2"
     inkscape:zoom="1"
     inkscape:cx="-64.660714"
     inkscape:cy="-139.23214"
     inkscape:document-units="px"
     inkscape:current-layer="layer1"
     showgrid="false"
     fit-margin-top="0"
     fit-margin-left="0"
     fit-margin-right="0"
     fit-margin-bottom="0"
     inkscape:window-width="1920"
     inkscape:window-height="1138"
     inkscape:window-x="-8"
     inkscape:window-y="-8"
     inkscape:window-maximized="1" />
  <metadata
     id="metadata5497">
    <rdf:RDF>
      <cc:Work
         rdf:about="">
        <dc:format>image/svg+xml</dc:format>
        <dc:type
           rdf:resource="http://purl.org/dc/dcmitype/StillImage" />
        <dc:title></dc:title>
      </cc:Work>
    </rdf:RDF>
  </metadata>
  <g
     inkscape:label="Layer 1"
     inkscape:groupmode="layer"
     id="layer1"
     transform="translate(-18.232143,-23.594358)">
    <g
       id="g4645"
       transform="matrix(6.7531259,0,0,6.7531259,-4241.7015,-4923.2765)">
      <path
         style="fill:#f6d877"
         d="m 631.49762,748.30627 0,-15 15,0 15,0 0,15 0,15 -15,0 -15,0 0,-15 z"
         id="path4745"
         inkscape:connector-curvature="0" />
      <path
         style="fill:#f5d367"
         d="m 631.49762,748.30627 0,-15 15,0 15,0 0,15 0,15 -15,0 -15,0 0,-15 z m 6.18165,11.10778 c 0.63071,-1.02052 -1.91391,-3.60778 -3.54833,-3.60778 -1.22779,0 -0.86677,3.54999 0.41355,4.06661 1.89043,0.76281 2.42843,0.68406 3.13478,-0.45883 z"
         id="path4743"
         inkscape:connector-curvature="0" />
      <path
         style="fill:#ddbb88"
         d="m 631.49762,748.30627 0,-15 15,0 15,0 0,15 0,15 -15,0 -15,0 0,-15 z m 9.62374,11.48438 c -0.24714,-0.64454 -1.02378,-1.17188 -1.72587,-1.17188 -0.76458,0 -1.05421,-0.57934 -0.72218,-1.44459 0.30488,-0.79452 0.13649,-1.32186 -0.37421,-1.17187 -0.5107,0.14999 -1.81405,-0.78198 -2.89632,-2.07104 l -1.96778,-2.34375 -0.0312,4.29687 c -0.0172,2.36329 0.19948,4.52755 0.4814,4.80947 0.28193,0.28193 2.1265,0.45771 4.09904,0.39063 2.44917,-0.0833 3.44396,-0.49357 3.13711,-1.29384 z m -1.18624,-5.85938 c 0,-0.51562 -0.18604,-0.9375 -0.41342,-0.9375 -0.22738,0 -0.67416,0.42188 -0.99283,0.9375 -0.31867,0.51563 -0.13263,0.9375 0.41342,0.9375 0.54606,0 0.99283,-0.42187 0.99283,-0.9375 z"
         id="path4741"
         inkscape:connector-curvature="0" />
      <path
         style="fill:#f5c958"
         d="m 631.49762,748.30627 0,-15 15,0 15,0 0,15 0,15 -15,0 -15,0 0,-15 z m 9.62374,11.48438 c -0.24714,-0.64454 -1.02378,-1.17188 -1.72587,-1.17188 -0.76458,0 -1.05421,-0.57934 -0.72218,-1.44459 0.30488,-0.79452 0.13649,-1.32186 -0.37421,-1.17187 -0.5107,0.14999 -1.81405,-0.78198 -2.89632,-2.07104 l -1.96778,-2.34375 -0.0312,4.29687 c -0.0172,2.36329 0.19948,4.52755 0.4814,4.80947 0.28193,0.28193 2.1265,0.45771 4.09904,0.39063 2.44917,-0.0833 3.44396,-0.49357 3.13711,-1.29384 z m -1.18624,-5.85938 c 0,-0.51562 -0.18604,-0.9375 -0.41342,-0.9375 -0.22738,0 -0.67416,0.42188 -0.99283,0.9375 -0.31867,0.51563 -0.13263,0.9375 0.41342,0.9375 0.54606,0 0.99283,-0.42187 0.99283,-0.9375 z"
         id="path4739"
         inkscape:connector-curvature="0" />
      <path
         style="fill:#f6c649"
         d="m 631.49762,748.30627 0,-15 15,0 15,0 0,15 0,15 -15,0 -15,0 0,-15 z m 20.4129,11.41754 c 0.19308,-0.57922 -1.14585,-0.74448 -3.48725,-0.43043 -3.19363,0.42835 -3.80065,0.24674 -3.80065,-1.13711 0,-1.33583 -0.54,-1.53887 -2.8591,-1.07505 -1.76645,0.35329 -2.64184,0.22028 -2.2906,-0.34804 0.31267,-0.50592 0.7313,-1.7652 0.93027,-2.79839 0.42847,-2.22486 -1.21147,-2.53769 -2.03622,-0.38842 -0.47252,1.23136 -0.95577,1.04325 -2.78308,-1.08332 l -2.21127,-2.57342 0,5.14582 c 0,2.8302 0.30964,5.45546 0.68809,5.83391 1.01329,1.01329 17.48251,-0.0437 17.84981,-1.14555 z"
         id="path4737"
         inkscape:connector-curvature="0" />
      <path
         style="fill:#e6b561"
         d="m 631.49762,748.30627 0,-15 15,0 15,0 0,15 0,15 -15,0 -15,0 0,-15 z m 20.87762,11.37277 c -0.70367,-0.70592 -1.50612,-1.05677 -1.78321,-0.77968 -0.73663,0.73663 -5.96941,-1.24943 -5.96941,-2.26564 0,-0.47526 -0.97541,-0.68724 -2.16758,-0.47106 -1.95428,0.35438 -2.12625,0.10248 -1.74755,-2.55979 l 0.42004,-2.95285 -2.00246,1.78593 c -1.995,1.77928 -2.00256,1.77579 -2.03096,-0.9375 -0.0264,-2.5254 -0.10811,-2.58709 -1.12321,-0.84843 -1.05957,1.81484 -1.11582,1.7998 -1.75304,-0.46875 -0.43772,-1.55832 -0.68966,-0.27546 -0.75179,3.82812 -0.0514,3.39454 0.18832,6.45365 0.5327,6.79803 0.34438,0.34438 4.90783,0.52016 10.14101,0.39062 8.05087,-0.19928 9.31801,-0.433 8.23546,-1.519 z"
         id="path4735"
         inkscape:connector-curvature="0" />
      <path
         style="fill:#e9b350"
         d="m 631.49762,748.30627 0,-15 15,0 15,0 0,15 0,15 -15,0 -15,0 0,-15 z m 13.125,12.8843 c 0,-0.53299 1.93742,-0.70082 4.68301,-0.40565 4.22045,0.45371 4.54014,0.36057 3.23661,-0.94296 -0.79552,-0.79552 -1.67312,-1.21969 -1.95021,-0.9426 -0.73663,0.73663 -5.96941,-1.24943 -5.96941,-2.26564 0,-0.47526 -0.97541,-0.68724 -2.16758,-0.47106 -1.95428,0.35438 -2.12625,0.10248 -1.74755,-2.55979 l 0.42004,-2.95285 -2.00246,1.78593 c -1.99422,1.77858 -2.00245,1.77495 -2.00245,-0.88231 0,-2.5474 -0.0623,-2.58583 -1.37643,-0.84843 -1.33011,1.75856 -1.37944,1.74093 -1.46568,-0.52394 l -0.0892,-2.34375 -0.92133,2.30797 c -0.50673,1.26939 -0.7964,4.22251 -0.6437,6.5625 0.26626,4.08031 0.412,4.27373 3.55888,4.72328 5.54688,0.79241 8.4375,0.70995 8.4375,-0.2407 z"
         id="path4733"
         inkscape:connector-curvature="0" />
      <path
         style="fill:#f7c035"
         d="m 631.49762,748.30627 0,-15 15,0 15,0 0,15 0,15 -15,0 -15,0 0,-15 z m 24.375,12.9005 c 0,-0.39215 -0.63281,-0.713 -1.40625,-0.713 -0.77344,0 -1.40625,-0.68555 -1.40625,-1.52344 0,-1.19695 -0.61039,-1.40136 -2.84818,-0.9538 -1.96178,0.39236 -3.00114,0.17102 -3.33968,-0.71119 -0.30074,-0.78373 -1.67037,-1.20183 -3.52904,-1.07729 -2.88661,0.19341 -3.01804,0.0599 -2.64502,-2.68725 0.32121,-2.36565 0.16834,-2.6779 -0.84153,-1.7189 -1.8299,1.7377 -2.73229,1.42989 -2.74841,-0.9375 -0.0113,-1.66624 -0.19758,-1.81965 -0.88652,-0.73028 -1.09723,1.73496 -1.51242,1.3035 -2.68031,-2.78535 -0.81187,-2.84243 -0.94851,-2.18016 -1.02176,4.95209 -0.0774,7.53805 0.0811,8.2946 1.87686,8.9589 2.52259,0.93317 21.47609,0.86875 21.47609,-0.073 z"
         id="path4731"
         inkscape:connector-curvature="0" />
      <path
         style="fill:#d5a766"
         d="m 631.49762,748.30627 0,-15 15,0 15,0 0,15 0,15 -15,0 -15,0 0,-15 z m 24.375,12.9005 c 0,-0.39215 -0.63281,-0.713 -1.40625,-0.713 -0.77344,0 -1.40625,-0.68555 -1.40625,-1.52344 0,-1.19695 -0.61039,-1.40136 -2.84818,-0.9538 -2.03914,0.40783 -2.9991,0.17635 -3.37948,-0.81493 -0.29222,-0.76151 -0.90898,-1.15115 -1.37058,-0.86587 -0.46159,0.28528 -0.83926,0.11142 -0.83926,-0.38636 0,-0.49779 -0.91038,-0.66699 -2.02306,-0.37602 -1.67975,0.43926 -1.93789,0.20334 -1.52116,-1.39024 0.67897,-2.59636 -0.79029,-5.07506 -1.6619,-2.80369 -0.87976,2.29261 -2.28036,1.99981 -2.36789,-0.49502 -0.0407,-1.16016 -0.28768,-1.57941 -0.54883,-0.93166 -0.79474,1.97128 -2.18966,0.28993 -2.18966,-2.6393 0,-1.51644 -0.42188,-2.75717 -0.9375,-2.75717 -0.55175,0 -0.9375,3.29132 -0.9375,7.99896 0,7.26023 0.18114,8.06597 1.96141,8.72453 2.52259,0.93317 21.47609,0.86875 21.47609,-0.073 z"
         id="path4729"
         inkscape:connector-curvature="0" />
      <path
         style="fill:#c9a668"
         d="m 631.49762,750.25939 c 0,-9.5603 0.31316,-13.17323 1.17187,-13.51973 0.9375,-0.37829 0.9375,-0.48767 0,-0.54688 -1.41681,-0.0895 -1.5903,-2.88651 -0.17904,-2.88651 0.54605,0 0.69181,0.48706 0.3239,1.08235 -0.45715,0.73968 -0.25205,0.82427 0.64779,0.26718 1.76115,-1.09031 23.34726,-1.20123 25.57049,-0.13139 1.21358,0.58398 1.55749,0.52635 1.11655,-0.18711 -0.35047,-0.56707 -0.2892,-1.03103 0.13614,-1.03103 1.06346,0 1.2379,11.12352 0.18465,11.77447 -1.26686,0.78296 -1.02193,4.87344 0.32452,5.41978 0.9111,0.36969 0.88883,0.67393 -0.10009,1.36719 -0.88889,0.62314 -0.95948,1.08481 -0.23437,1.53295 0.57067,0.3527 1.03113,1.98746 1.02323,3.63281 -0.0109,2.27632 -0.23163,2.65534 -0.92314,1.5853 -0.54606,-0.84496 -0.91452,-0.96059 -0.92314,-0.2897 -0.008,0.6141 0.40751,1.37728 0.92314,1.69595 0.51562,0.31867 0.9375,1.18732 0.9375,1.93033 0,1.11994 -2.56471,1.35092 -15,1.35092 l -15,0 0,-13.04688 z m 24.375,10.94738 c 0,-0.39215 -0.63281,-0.713 -1.40625,-0.713 -0.77344,0 -1.40625,-0.68555 -1.40625,-1.52344 0,-1.19695 -0.61039,-1.40136 -2.84818,-0.9538 -2.03914,0.40783 -2.9991,0.17635 -3.37948,-0.81493 -0.29222,-0.76151 -0.90898,-1.15115 -1.37058,-0.86587 -0.46159,0.28528 -0.83926,0.11142 -0.83926,-0.38636 0,-0.49779 -0.91038,-0.66699 -2.02306,-0.37602 -1.67975,0.43926 -1.93789,0.20334 -1.52116,-1.39024 0.67897,-2.59636 -0.79029,-5.07506 -1.6619,-2.80369 -0.87976,2.29261 -2.28036,1.99981 -2.36789,-0.49502 -0.0407,-1.16016 -0.28768,-1.57941 -0.54883,-0.93166 -0.79474,1.97128 -2.18966,0.28993 -2.18966,-2.6393 0,-1.51644 -0.42188,-2.75717 -0.9375,-2.75717 -0.55175,0 -0.9375,3.29132 -0.9375,7.99896 0,7.26023 0.18114,8.06597 1.96141,8.72453 2.52259,0.93317 21.47609,0.86875 21.47609,-0.073 z"
         id="path4727"
         inkscape:connector-curvature="0" />
      <path
         style="fill:#d9a656"
         d="m 631.49762,750.61082 c 0,-17.2006 -0.58353,-16.62049 16.84182,-16.74317 9.60453,-0.0676 13.15725,0.20885 13.15764,1.02392 3e-4,0.6141 -0.42134,1.37728 -0.93696,1.69595 -0.51563,0.31867 -0.90785,1.9256 -0.87161,3.57095 0.0556,2.5217 0.19244,2.69706 0.87161,1.11655 0.71944,-1.67422 0.81277,-1.60485 0.87161,0.6478 0.0362,1.38754 -0.35599,2.78353 -0.87161,3.1022 -1.33656,0.82604 -1.16179,4.90899 0.23437,5.4755 0.9111,0.36969 0.88883,0.67393 -0.10009,1.36719 -0.88889,0.62314 -0.95948,1.08481 -0.23437,1.53295 0.57067,0.3527 1.03113,1.98746 1.02323,3.63281 -0.0114,2.38609 -0.21909,2.70694 -1.02593,1.5853 -0.8745,-1.21568 -0.946,-1.1994 -0.52766,0.12014 0.26616,0.83951 -0.0104,2.08479 -0.61469,2.76728 -0.91041,1.02833 -0.81757,1.02824 0.54201,-5.5e-4 1.39848,-1.05822 1.64063,-1.01696 1.64063,0.27959 0,1.33968 -1.78854,1.52104 -15,1.52104 l -15,0 0,-12.69545 z m 24.375,10.6115 c 0,-0.4007 -0.63281,-0.72855 -1.40625,-0.72855 -0.77344,0 -1.40625,-0.68555 -1.40625,-1.52344 0,-1.19695 -0.61039,-1.40136 -2.84818,-0.9538 -2.03914,0.40783 -2.9991,0.17635 -3.37948,-0.81493 -0.29222,-0.76151 -0.90898,-1.15115 -1.37058,-0.86587 -0.46159,0.28528 -0.83926,0.11142 -0.83926,-0.38636 0,-0.49779 -0.91038,-0.66699 -2.02306,-0.37602 -1.67975,0.43926 -1.93789,0.20334 -1.52116,-1.39024 0.67897,-2.59636 -0.79029,-5.07506 -1.6619,-2.80369 -0.87976,2.29261 -2.28036,1.99981 -2.36789,-0.49502 -0.0407,-1.16016 -0.28768,-1.57941 -0.54883,-0.93166 -0.79474,1.97128 -2.18966,0.28993 -2.18966,-2.6393 0,-1.51644 -0.42188,-2.75717 -0.9375,-2.75717 -0.90084,0 -1.40551,16.09449 -0.53206,16.96794 0.73517,0.73517 23.03206,0.44291 23.03206,-0.30189 z m -24.375,-26.5098 c 0,-0.77344 0.40863,-1.40625 0.90808,-1.40625 0.49944,0 0.66524,0.63281 0.36844,1.40625 -0.69096,1.80063 -1.27652,1.80063 -1.27652,0 z"
         id="path4725"
         inkscape:connector-curvature="0" />
      <path
         style="fill:#cf9d63"
         d="m 631.49762,761.78523 c 0,-1.10385 0.32142,-1.25773 1.17187,-0.56101 0.65212,0.53423 6.08794,0.96195 12.25583,0.96436 6.09617,0.002 11.33445,0.25484 11.64062,0.56101 0.30617,0.30618 -5.20895,0.55668 -12.25582,0.55668 -11.19364,0 -12.8125,-0.19218 -12.8125,-1.52104 z m 27.71144,0.0453 c 1.0009,-0.81168 1.28217,-1.20229 0.62506,-0.86804 -1.95494,0.99443 -6.774,-0.47577 -6.774,-2.06662 0,-1.11397 -0.65845,-1.31726 -2.84818,-0.87931 -2.03914,0.40783 -2.9991,0.17635 -3.37948,-0.81493 -0.29222,-0.76151 -0.90898,-1.15115 -1.37058,-0.86587 -0.46159,0.28528 -0.83926,0.11142 -0.83926,-0.38636 0,-0.49779 -0.91038,-0.66699 -2.02306,-0.37602 -1.67975,0.43926 -1.93789,0.20334 -1.52116,-1.39024 0.67897,-2.59636 -0.79029,-5.07506 -1.6619,-2.80369 -0.87976,2.29261 -2.28036,1.99981 -2.36789,-0.49502 -0.0407,-1.16016 -0.28768,-1.57941 -0.54883,-0.93166 -0.79474,1.97128 -2.18966,0.28993 -2.18966,-2.6393 0,-2.54729 -1.18927,-3.70394 -2.11197,-2.05404 -0.21628,0.38671 -0.17757,0.0703 0.086,-0.70313 0.26358,-0.77344 0.5747,-3.03105 0.69139,-5.01691 0.11669,-1.98587 0.57017,-3.96026 1.00774,-4.38754 1.34777,-1.31607 27.51722,-1.56359 27.51567,-0.26025 -7.3e-4,0.6141 -0.387,1.3549 -0.85838,1.64623 -1.01349,0.62637 -0.87035,22.54111 0.15392,23.56536 1.40891,1.40887 0.65211,3.20311 -1.35105,3.20311 -2.01466,0 -2.01917,-0.0284 -0.23438,-1.47577 z M 631.71512,751.1188 c 0,-1.80469 0.19294,-2.54297 0.42874,-1.64062 0.23581,0.90234 0.23581,2.3789 0,3.28125 -0.2358,0.90234 -0.42874,0.16406 -0.42874,-1.64063 z m -0.2175,-16.40625 c 0,-0.77344 0.40863,-1.40625 0.90808,-1.40625 0.49944,0 0.66524,0.63281 0.36844,1.40625 -0.69096,1.80063 -1.27652,1.80063 -1.27652,0 z"
         id="path4723"
         inkscape:connector-curvature="0" />
      <path
         style="fill:#f0ac2e"
         d="m 631.49762,761.78523 c 0,-1.10385 0.32142,-1.25773 1.17187,-0.56101 0.65212,0.53423 6.08794,0.96195 12.25583,0.96436 6.09617,0.002 11.33445,0.25484 11.64062,0.56101 0.30617,0.30618 -5.20895,0.55668 -12.25582,0.55668 -11.19364,0 -12.8125,-0.19218 -12.8125,-1.52104 z m 26.32812,1.25576 c 0.21485,-0.14591 1.12891,-0.83038 2.03125,-1.52104 1.40436,-1.07492 1.64063,-1.03672 1.64063,0.26528 0,0.93504 -0.78256,1.52104 -2.03125,1.52104 -1.11719,0 -1.85547,-0.11938 -1.64063,-0.26528 z m -3.125,-2.25596 c -0.90234,-0.23581 -1.64062,-1.08336 -1.64062,-1.88344 0,-1.12038 -0.65457,-1.32378 -2.84818,-0.88506 -2.03914,0.40783 -2.9991,0.17635 -3.37948,-0.81493 -0.29222,-0.76151 -0.90898,-1.15115 -1.37058,-0.86587 -0.46159,0.28528 -0.83926,0.11142 -0.83926,-0.38636 0,-0.49779 -0.91038,-0.66699 -2.02306,-0.37602 -1.67975,0.43926 -1.93789,0.20334 -1.52116,-1.39024 0.67897,-2.59636 -0.79029,-5.07506 -1.6619,-2.80369 -0.87976,2.29261 -2.28036,1.99981 -2.36789,-0.49502 -0.0407,-1.16016 -0.28768,-1.57941 -0.54883,-0.93166 -0.79474,1.97128 -2.18966,0.28993 -2.18966,-2.6393 0,-2.54729 -1.18927,-3.70394 -2.11197,-2.05404 -0.21628,0.38671 -0.17757,0.0703 0.086,-0.70313 0.26358,-0.77344 0.5747,-3.03105 0.69139,-5.01691 0.11669,-1.98587 0.57017,-3.96026 1.00774,-4.38754 1.03891,-1.01447 27.51741,-1.60951 27.51567,-0.61835 -7.3e-4,0.41715 -0.42381,0.49735 -0.94018,0.17821 -0.6103,-0.37718 -0.9167,3.86476 -0.87554,12.12144 0.0348,6.98593 -0.2004,13.12839 -0.52273,13.64992 -0.60349,0.97648 -1.6163,1.04506 -4.45976,0.30199 z m -22.98562,-9.66626 c 0,-1.80469 0.19294,-2.54297 0.42874,-1.64062 0.23581,0.90234 0.23581,2.3789 0,3.28125 -0.2358,0.90234 -0.42874,0.16406 -0.42874,-1.64063 z m -0.2175,-16.40625 c 0,-0.77344 0.40863,-1.40625 0.90808,-1.40625 0.49944,0 0.66524,0.63281 0.36844,1.40625 -0.69096,1.80063 -1.27652,1.80063 -1.27652,0 z"
         id="path4721"
         inkscape:connector-curvature="0" />
      <path
         style="fill:#d7a44b"
         d="m 631.49762,761.78523 c 0,-1.10385 0.32142,-1.25773 1.17187,-0.56101 0.65212,0.53423 6.08794,0.96195 12.25583,0.96436 6.09617,0.002 11.33445,0.25484 11.64062,0.56101 0.30617,0.30618 -5.20895,0.55668 -12.25582,0.55668 -11.19364,0 -12.8125,-0.19218 -12.8125,-1.52104 z m 26.32812,1.25576 c 0.21485,-0.14591 1.12891,-0.83038 2.03125,-1.52104 1.40436,-1.07492 1.64063,-1.03672 1.64063,0.26528 0,0.93504 -0.78256,1.52104 -2.03125,1.52104 -1.11719,0 -1.85547,-0.11938 -1.64063,-0.26528 z m -2.65625,-2.23061 c -0.64453,-0.26007 -1.17187,-1.04209 -1.17187,-1.73781 0,-1.33761 -3.50881,-2.88249 -4.43752,-1.95378 -0.98285,0.98285 -2.96495,-1.41334 -2.39585,-2.89638 0.48286,-1.25831 0.2619,-1.28579 -1.69635,-0.21091 -3.02553,1.66069 -4.78075,1.88242 -4.33585,0.54773 0.20106,-0.60319 0.92807,-1.09671 1.61557,-1.09671 0.6875,0 1.44536,-0.58607 1.68412,-1.30237 0.24698,-0.74094 0.0101,-1.04033 -0.54941,-0.69451 -0.54095,0.33433 -1.62153,-0.0301 -2.40129,-0.80988 -1.26532,-1.26532 -1.48182,-1.21585 -2.01376,0.46013 -0.93159,2.9352 -2.60819,2.22344 -2.14802,-0.91189 0.30057,-2.04794 0.11896,-2.54868 -0.68298,-1.88313 -1.52188,1.26304 -2.3204,0.17401 -2.35938,-3.21773 l -0.0332,-2.89062 -1.43778,2.34375 c -0.89294,1.45559 -1.17342,1.63322 -0.74015,0.46875 0.3837,-1.03125 0.7931,-3.4998 0.90979,-5.48566 0.11669,-1.98587 0.57017,-3.96026 1.00774,-4.38754 1.03891,-1.01447 27.51741,-1.60951 27.51567,-0.61835 -7.3e-4,0.41715 -0.42381,0.49735 -0.94018,0.17821 -0.6103,-0.37718 -0.9167,3.86476 -0.87554,12.12144 0.0348,6.98593 -0.2004,13.12839 -0.52273,13.64992 -0.61736,0.99891 -2.03793,1.11542 -3.99101,0.32734 z m -23.45437,-9.69161 c 0,-1.80469 0.19294,-2.54297 0.42874,-1.64062 0.23581,0.90234 0.23581,2.3789 0,3.28125 -0.2358,0.90234 -0.42874,0.16406 -0.42874,-1.64063 z m -0.2175,-16.40625 c 0,-0.77344 0.40863,-1.40625 0.90808,-1.40625 0.49944,0 0.66524,0.63281 0.36844,1.40625 -0.69096,1.80063 -1.27652,1.80063 -1.27652,0 z"
         id="path4719"
         inkscape:connector-curvature="0" />
      <path
         style="fill:#cf9a4e"
         d="m 631.49762,761.78523 c 0,-1.302 0.23627,-1.3402 1.64062,-0.26528 0.90235,0.69066 1.81641,1.37513 2.03126,1.52104 0.21484,0.1459 -0.52344,0.26528 -1.64063,0.26528 -1.24869,0 -2.03125,-0.586 -2.03125,-1.52104 z m 7.26562,0.90015 c 0.64454,-0.26007 1.69922,-0.26007 2.34375,0 0.64454,0.26008 0.11719,0.47286 -1.17187,0.47286 -1.28906,0 -1.81641,-0.21278 -1.17188,-0.47286 z m 6.5416,-0.0557 c 1.66427,-0.20711 4.6174,-0.21051 6.5625,-0.008 1.94509,0.20298 0.5834,0.37243 -3.02597,0.37659 -3.60938,0.004 -5.20082,-0.16189 -3.53653,-0.36899 z m 12.5209,0.41134 c 0.21485,-0.14591 1.12891,-0.83038 2.03125,-1.52104 1.40436,-1.07492 1.64063,-1.03672 1.64063,0.26528 0,0.93504 -0.78256,1.52104 -2.03125,1.52104 -1.11719,0 -1.85547,-0.11938 -1.64063,-0.26528 z m -2.65625,-2.23061 c -0.64453,-0.26007 -1.17187,-1.04209 -1.17187,-1.73781 0,-1.33761 -3.50881,-2.88249 -4.43752,-1.95378 -0.98285,0.98285 -2.96495,-1.41334 -2.39585,-2.89638 0.48286,-1.25831 0.2619,-1.28579 -1.69635,-0.21091 -3.02553,1.66069 -4.78075,1.88242 -4.33585,0.54773 0.20106,-0.60319 0.92807,-1.09671 1.61557,-1.09671 0.6875,0 1.44536,-0.58607 1.68412,-1.30237 0.24698,-0.74094 0.0101,-1.04033 -0.54941,-0.69451 -0.54095,0.33433 -1.62153,-0.0301 -2.40129,-0.80988 -1.26532,-1.26532 -1.48182,-1.21585 -2.01376,0.46013 -0.93159,2.9352 -2.60819,2.22344 -2.14802,-0.91189 0.32594,-2.22077 0.15869,-2.58166 -0.82,-1.76941 -1.42973,1.18656 -1.59607,0.81701 -2.90799,-6.46061 -1.34358,-7.45321 -1.11271,-7.57879 14.54831,-7.91345 7.34838,-0.15703 13.3601,0.0558 13.35937,0.47294 -7.3e-4,0.41715 -0.42381,0.49735 -0.94018,0.17821 -0.6103,-0.37718 -0.9167,3.86476 -0.87554,12.12144 0.0348,6.98593 -0.2004,13.12839 -0.52273,13.64992 -0.61736,0.99891 -2.03793,1.11542 -3.99101,0.32734 z m -23.67187,-26.09786 c 0,-0.77344 0.40863,-1.40625 0.90808,-1.40625 0.49944,0 0.66524,0.63281 0.36844,1.40625 -0.69096,1.80063 -1.27652,1.80063 -1.27652,0 z"
         id="path4717"
         inkscape:connector-curvature="0" />
      <path
         style="fill:#d5a837"
         d="m 631.49762,761.78523 c 0,-1.24574 0.25452,-1.30981 1.40625,-0.35396 1.77068,1.46954 1.77068,1.875 0,1.875 -0.77344,0 -1.40625,-0.68447 -1.40625,-1.52104 z m 21.38672,0.88062 c 0.67676,-0.27082 1.48535,-0.23751 1.79687,0.074 0.31153,0.31152 -0.24218,0.5331 -1.23046,0.49239 -1.09214,-0.045 -1.31429,-0.26713 -0.56641,-0.56641 z m 5.80078,0.28646 c 0,-0.19468 0.63281,-0.87914 1.40625,-1.52104 1.15173,-0.95585 1.40625,-0.89178 1.40625,0.35396 0,0.83657 -0.63281,1.52104 -1.40625,1.52104 -0.77344,0 -1.40625,-0.15928 -1.40625,-0.35396 z m -3.04688,-2.17312 c -0.90234,-0.23259 -1.64062,-0.99635 -1.64062,-1.69724 0,-1.34457 -3.50534,-2.89534 -4.43752,-1.96316 -0.98285,0.98285 -2.96495,-1.41334 -2.39585,-2.89638 0.48286,-1.25831 0.2619,-1.28579 -1.69635,-0.21091 -3.02553,1.66069 -4.78075,1.88242 -4.33585,0.54773 0.20106,-0.60319 0.92807,-1.09671 1.61557,-1.09671 0.6875,0 1.44536,-0.58607 1.68412,-1.30237 0.24698,-0.74094 0.0101,-1.04033 -0.54941,-0.69451 -0.54095,0.33433 -1.62153,-0.0301 -2.40129,-0.80988 -1.26532,-1.26532 -1.48182,-1.21585 -2.01376,0.46013 -0.93159,2.9352 -2.60819,2.22344 -2.14802,-0.91189 0.31329,-2.13459 0.13771,-2.56424 -0.74763,-1.82948 -1.62183,1.34601 -2.08502,0.20721 -2.81544,-6.92206 -0.50183,-4.89815 -0.36037,-6.32895 0.66084,-6.68415 2.31017,-0.80352 27.0833,-1.01834 27.08192,-0.23484 -7.3e-4,0.41715 -0.41151,0.50495 -0.91285,0.19511 -0.56961,-0.35204 -1.00918,4.43361 -1.17188,12.75838 -0.15461,7.91106 -0.64112,13.40163 -1.19785,13.51844 -0.51563,0.10819 -1.67578,0.006 -2.57813,-0.22621 z m -24.14062,-26.06667 c 0,-0.77344 0.40863,-1.40625 0.90808,-1.40625 0.49944,0 0.66524,0.63281 0.36844,1.40625 -0.69096,1.80063 -1.27652,1.80063 -1.27652,0 z"
         id="path4715"
         inkscape:connector-curvature="0" />
      <path
         style="fill:#f59a25"
         d="m 631.49762,761.78523 c 0,-1.24574 0.25452,-1.30981 1.40625,-0.35396 1.77068,1.46954 1.77068,1.875 0,1.875 -0.77344,0 -1.40625,-0.68447 -1.40625,-1.52104 z m 27.1875,1.16708 c 0,-0.19468 0.63281,-0.87914 1.40625,-1.52104 1.15173,-0.95585 1.40625,-0.89178 1.40625,0.35396 0,0.83657 -0.63281,1.52104 -1.40625,1.52104 -0.77344,0 -1.40625,-0.15928 -1.40625,-0.35396 z m -3.04688,-2.17312 c -0.90234,-0.23259 -1.64062,-0.99635 -1.64062,-1.69724 0,-1.34457 -3.50534,-2.89534 -4.43752,-1.96316 -0.98285,0.98285 -2.96495,-1.41334 -2.39585,-2.89638 0.48286,-1.25831 0.2619,-1.28579 -1.69635,-0.21091 -3.02553,1.66069 -4.78075,1.88242 -4.33585,0.54773 0.20106,-0.60319 0.92807,-1.09671 1.61557,-1.09671 0.6875,0 1.44536,-0.58607 1.68412,-1.30237 0.24698,-0.74094 0.0101,-1.04033 -0.54941,-0.69451 -0.54095,0.33433 -1.6094,-0.018 -2.37432,-0.78291 -1.22374,-1.22373 -1.45448,-1.22477 -1.92116,-0.009 -0.9062,2.36152 -2.7195,1.57408 -2.23321,-0.96979 0.34914,-1.82638 0.18272,-2.13045 -0.74474,-1.36072 -1.66024,1.37787 -2.11908,0.26949 -2.85271,-6.89114 -0.50183,-4.89815 -0.36037,-6.32895 0.66084,-6.68415 2.31017,-0.80352 27.0833,-1.01834 27.08192,-0.23484 -7.3e-4,0.41715 -0.41151,0.50495 -0.91285,0.19511 -0.56961,-0.35204 -1.00918,4.43361 -1.17188,12.75838 -0.15461,7.91106 -0.64112,13.40163 -1.19785,13.51844 -0.51563,0.10819 -1.67578,0.006 -2.57813,-0.22621 z m -24.14062,-26.06667 c 0,-0.77344 0.40863,-1.40625 0.90808,-1.40625 0.49944,0 0.66524,0.63281 0.36844,1.40625 -0.69096,1.80063 -1.27652,1.80063 -1.27652,0 z"
         id="path4713"
         inkscape:connector-curvature="0" />
      <path
         style="fill:#eba518"
         d="m 631.49762,761.78523 c 0,-1.24574 0.25452,-1.30981 1.40625,-0.35396 1.77068,1.46954 1.77068,1.875 0,1.875 -0.77344,0 -1.40625,-0.68447 -1.40625,-1.52104 z m 27.1875,1.16708 c 0,-0.19468 0.63281,-0.87914 1.40625,-1.52104 1.15173,-0.95585 1.40625,-0.89178 1.40625,0.35396 0,0.83657 -0.63281,1.52104 -1.40625,1.52104 -0.77344,0 -1.40625,-0.15928 -1.40625,-0.35396 z m -2.57813,-2.14604 c -0.64453,-0.25781 -1.17187,-0.98203 -1.17187,-1.60937 0,-2.1221 -2.0121,-3.2921 -4.21875,-2.45313 -3.27134,1.24376 -4.53528,-0.7081 -2.29928,-3.55071 2.041,-2.59472 2.32832,-3.94929 0.8377,-3.94929 -0.54605,0 -0.78177,0.3415 -0.5238,0.75889 0.58467,0.94603 -4.37304,5.12617 -6.43941,5.42944 -0.83881,0.12311 -1.36059,-0.26968 -1.15953,-0.87287 0.20106,-0.60319 0.92807,-1.09671 1.61557,-1.09671 0.6875,0 1.43018,-0.54053 1.65039,-1.20117 0.22022,-0.66065 0.0444,-1.13803 -0.39062,-1.06086 -1.76105,0.31239 -3.13477,-0.13425 -3.13477,-1.01922 0,-0.51562 0.94922,-0.97081 2.10937,-1.01151 1.16151,-0.0408 1.54808,-0.29807 0.86027,-0.57262 -0.82882,-0.33084 -0.27681,-1.0899 1.64063,-2.25596 1.58935,-0.96654 2.88973,-2.37622 2.88973,-3.13262 0,-0.97595 -0.72026,-0.70775 -2.48065,0.92372 -1.36435,1.26445 -2.83008,2.29899 -3.25717,2.29899 -0.42709,0 -1.43101,1.26563 -2.23093,2.8125 -1.43593,2.77679 -3.28125,3.78084 -3.28125,1.78535 0,-0.56494 0.87248,-2.25244 1.93884,-3.75 1.06636,-1.49757 1.49796,-2.72285 0.95911,-2.72285 -0.53885,0 -1.66841,1.05107 -2.51014,2.3357 -0.84172,1.28464 -1.87303,2.12395 -2.29179,1.86514 -1.11464,-0.68889 -2.22311,-12.63953 -1.25968,-13.58096 1.05487,-1.0308 27.54175,-1.6489 27.53999,-0.64268 -7.3e-4,0.41715 -0.41151,0.50495 -0.91285,0.19511 -0.56961,-0.35204 -1.00918,4.43361 -1.17188,12.75838 -0.25307,12.94942 -0.61256,14.39718 -3.30723,13.31931 z m -8.39989,-12.50129 c 0.26986,-1.03197 0.10813,-1.63988 -0.35941,-1.35093 -0.46754,0.28896 -0.85007,1.13329 -0.85007,1.8763 0,1.94039 0.63703,1.66368 1.20948,-0.52537 z m -16.20948,-13.59246 c 0,-0.77344 0.40863,-1.40625 0.90808,-1.40625 0.49944,0 0.66524,0.63281 0.36844,1.40625 -0.69096,1.80063 -1.27652,1.80063 -1.27652,0 z"
         id="path4711"
         inkscape:connector-curvature="0" />
      <path
         style="fill:#d59732"
         d="m 631.49762,761.78523 c 0,-1.24574 0.25452,-1.30981 1.40625,-0.35396 1.77068,1.46954 1.77068,1.875 0,1.875 -0.77344,0 -1.40625,-0.68447 -1.40625,-1.52104 z m 27.1875,1.16708 c 0,-0.19468 0.63281,-0.87914 1.40625,-1.52104 1.15173,-0.95585 1.40625,-0.89178 1.40625,0.35396 0,0.83657 -0.63281,1.52104 -1.40625,1.52104 -0.77344,0 -1.40625,-0.15928 -1.40625,-0.35396 z m -2.57813,-2.14604 c -0.64453,-0.25781 -1.17187,-0.98203 -1.17187,-1.60937 0,-2.1221 -2.0121,-3.2921 -4.21875,-2.45313 -3.27134,1.24376 -4.53528,-0.7081 -2.29928,-3.55071 2.041,-2.59472 2.32832,-3.94929 0.8377,-3.94929 -0.54605,0 -0.73209,0.42188 -0.41342,0.9375 0.31867,0.51563 -0.1032,0.9375 -0.9375,0.9375 -0.8343,0 -1.28256,-0.37918 -0.99614,-0.84261 0.28642,-0.46344 0.70912,-2.67829 0.93935,-4.92188 0.23022,-2.24359 0.20187,-3.56789 -0.063,-2.94287 -0.26486,0.62501 -1.92829,2.03051 -3.69652,3.12333 -1.76822,1.09283 -3.21495,2.37442 -3.21495,2.84799 0,1.30146 3.52475,1.03204 4.06661,-0.31083 0.26008,-0.64454 0.49971,-0.75 0.53252,-0.23438 0.0328,0.51563 -0.34288,1.57031 -0.83488,2.34375 -0.74349,1.16879 -1.21958,1.20478 -2.81942,0.21314 -1.60902,-0.99732 -2.01477,-0.95886 -2.47266,0.23438 -0.63019,1.64225 -2.22217,1.92905 -2.22217,0.40033 0,-0.56494 0.87248,-2.25244 1.93884,-3.75 1.06636,-1.49757 1.51216,-2.72285 0.99066,-2.72285 -0.5215,0 -1.56087,0.87473 -2.30971,1.94385 -0.91529,1.30676 -1.57801,1.59358 -2.02203,0.87513 -0.36328,-0.5878 -0.42742,-1.30182 -0.14253,-1.58671 0.28489,-0.28489 -0.0947,-1.13071 -0.84362,-1.87959 -1.67536,-1.67536 -1.81894,-8.62925 -0.18974,-9.18955 2.23775,-0.76959 26.95579,-0.94009 26.95446,-0.18593 -7.3e-4,0.41715 -0.41151,0.50495 -0.91285,0.19511 -0.56961,-0.35204 -1.00918,4.43361 -1.17188,12.75838 -0.25307,12.94942 -0.61256,14.39718 -3.30723,13.31931 z m -24.60937,-26.09375 c 0,-0.77344 0.40863,-1.40625 0.90808,-1.40625 0.49944,0 0.66524,0.63281 0.36844,1.40625 -0.69096,1.80063 -1.27652,1.80063 -1.27652,0 z"
         id="path4709"
         inkscape:connector-curvature="0" />
      <path
         style="fill:#b69153"
         d="m 631.49762,761.78523 c 0,-1.24574 0.25452,-1.30981 1.40625,-0.35396 1.77068,1.46954 1.77068,1.875 0,1.875 -0.77344,0 -1.40625,-0.68447 -1.40625,-1.52104 z m 27.1875,1.16708 c 0,-0.19468 0.63281,-0.87914 1.40625,-1.52104 1.15173,-0.95585 1.40625,-0.89178 1.40625,0.35396 0,0.83657 -0.63281,1.52104 -1.40625,1.52104 -0.77344,0 -1.40625,-0.15928 -1.40625,-0.35396 z m -3.69068,-4.25024 c -1.68803,-2.37062 -2.35808,-2.68828 -4.19627,-1.9894 -3.35367,1.27506 -4.64783,-0.63791 -2.38108,-3.51961 2.041,-2.59472 2.32832,-3.94929 0.8377,-3.94929 -0.54605,0 -0.73209,0.42188 -0.41342,0.9375 0.31867,0.51563 -0.1032,0.9375 -0.9375,0.9375 -0.8343,0 -1.28256,-0.37918 -0.99614,-0.84261 0.28642,-0.46344 0.70912,-2.67829 0.93935,-4.92188 0.23022,-2.24359 0.20187,-3.56789 -0.063,-2.94287 -0.26486,0.62501 -1.92829,2.03051 -3.69652,3.12333 -1.76822,1.09283 -3.21495,2.37442 -3.21495,2.84799 0,1.30146 3.52475,1.03204 4.06661,-0.31083 0.26008,-0.64454 0.49971,-0.75 0.53252,-0.23438 0.0328,0.51563 -0.34288,1.57031 -0.83488,2.34375 -0.74349,1.16879 -1.21958,1.20478 -2.81942,0.21314 -1.60902,-0.99732 -2.01477,-0.95886 -2.47266,0.23438 -0.63019,1.64225 -2.22217,1.92905 -2.22217,0.40033 0,-0.56494 0.87248,-2.25244 1.93884,-3.75 1.06636,-1.49757 1.51216,-2.72285 0.99066,-2.72285 -0.5215,0 -1.56087,0.87473 -2.30971,1.94385 -0.91529,1.30676 -1.57801,1.59358 -2.02203,0.87513 -0.36328,-0.5878 -0.42742,-1.30182 -0.14253,-1.58671 0.28489,-0.28489 -0.0947,-1.13071 -0.84362,-1.87959 -1.67536,-1.67536 -1.81894,-8.62925 -0.18974,-9.18955 2.23775,-0.76959 26.95579,-0.94009 26.95446,-0.18593 -7.3e-4,0.41715 -0.41151,0.50495 -0.91285,0.19511 -0.56961,-0.35204 -1.00918,4.43361 -1.17188,12.75838 -0.28148,14.40303 -0.94711,16.09204 -4.41978,11.21511 z m -23.49682,-23.98955 c 0,-0.77344 0.40863,-1.40625 0.90808,-1.40625 0.49944,0 0.66524,0.63281 0.36844,1.40625 -0.69096,1.80063 -1.27652,1.80063 -1.27652,0 z"
         id="path4707"
         inkscape:connector-curvature="0" />
      <path
         style="fill:#d3754f"
         d="m 631.49762,761.78523 c 0,-1.24574 0.25452,-1.30981 1.40625,-0.35396 1.77068,1.46954 1.77068,1.875 0,1.875 -0.77344,0 -1.40625,-0.68447 -1.40625,-1.52104 z m 27.1875,1.16708 c 0,-0.19468 0.63281,-0.87914 1.40625,-1.52104 1.15173,-0.95585 1.40625,-0.89178 1.40625,0.35396 0,0.83657 -0.63281,1.52104 -1.40625,1.52104 -0.77344,0 -1.40625,-0.15928 -1.40625,-0.35396 z m -3.69068,-4.25024 c -1.68803,-2.37062 -2.35808,-2.68828 -4.19627,-1.9894 -3.35367,1.27506 -4.64783,-0.63791 -2.38108,-3.51961 2.041,-2.59472 2.32832,-3.94929 0.8377,-3.94929 -0.54605,0 -0.73209,0.42188 -0.41342,0.9375 0.31867,0.51563 -0.1032,0.9375 -0.9375,0.9375 -0.8343,0 -1.28256,-0.37918 -0.99614,-0.84261 0.28642,-0.46344 0.70912,-2.67829 0.93935,-4.92188 0.23022,-2.24359 0.20187,-3.56789 -0.063,-2.94287 -0.26486,0.62501 -1.92829,2.03051 -3.69652,3.12333 -1.76822,1.09283 -3.21495,2.37442 -3.21495,2.84799 0,1.30146 3.52475,1.03204 4.06661,-0.31083 0.26008,-0.64454 0.49971,-0.75 0.53252,-0.23438 0.0328,0.51563 -0.34288,1.57031 -0.83488,2.34375 -0.74349,1.16879 -1.21958,1.20478 -2.81942,0.21314 -1.60902,-0.99732 -2.01477,-0.95886 -2.47266,0.23438 -0.63019,1.64225 -2.22217,1.92905 -2.22217,0.40033 0,-0.56494 0.87248,-2.25244 1.93884,-3.75 1.06636,-1.49757 1.51216,-2.72285 0.99066,-2.72285 -0.5215,0 -1.56087,0.87473 -2.30971,1.94385 -0.91529,1.30676 -1.57801,1.59358 -2.02203,0.87513 -0.36328,-0.5878 -0.42742,-1.30182 -0.14253,-1.58671 0.28489,-0.28489 -0.11646,-1.15243 -0.8919,-1.92786 -0.91546,-0.91546 -1.31076,-2.76673 -1.12723,-5.27902 l 0.28265,-3.86914 12.65625,0 12.65625,0 0,13.04688 c 0,14.14313 -0.65448,15.86493 -4.15943,10.94267 z m -23.49682,-24.4583 c 0,-0.51562 0.44677,-0.9375 0.99283,-0.9375 0.54605,0 0.73209,0.42188 0.41342,0.9375 -0.31867,0.51563 -0.76545,0.9375 -0.99283,0.9375 -0.22738,0 -0.41342,-0.42187 -0.41342,-0.9375 z m 28.59375,0 c -0.31867,-0.51562 -0.13263,-0.9375 0.41342,-0.9375 0.54606,0 0.99283,0.42188 0.99283,0.9375 0,0.51563 -0.18604,0.9375 -0.41342,0.9375 -0.22738,0 -0.67416,-0.42187 -0.99283,-0.9375 z"
         id="path4705"
         inkscape:connector-curvature="0" />
      <path
         style="fill:#e88527"
         d="m 631.49762,761.78523 c 0,-1.24574 0.25452,-1.30981 1.40625,-0.35396 1.77068,1.46954 1.77068,1.875 0,1.875 -0.77344,0 -1.40625,-0.68447 -1.40625,-1.52104 z m 27.1875,1.16708 c 0,-0.19468 0.63281,-0.87914 1.40625,-1.52104 1.15173,-0.95585 1.40625,-0.89178 1.40625,0.35396 0,0.83657 -0.63281,1.52104 -1.40625,1.52104 -0.77344,0 -1.40625,-0.15928 -1.40625,-0.35396 z m -3.75355,-4.33853 c -1.62841,-2.28689 -2.30285,-2.59709 -4.1334,-1.90111 -3.35367,1.27506 -4.64783,-0.63791 -2.38108,-3.51961 2.041,-2.59472 2.32832,-3.94929 0.8377,-3.94929 -0.54605,0 -0.73209,0.42188 -0.41342,0.9375 0.31867,0.51563 -0.1032,0.9375 -0.9375,0.9375 -0.8343,0 -1.28256,-0.37918 -0.99614,-0.84261 0.28642,-0.46344 0.70912,-2.67829 0.93935,-4.92188 0.23022,-2.24359 0.20187,-3.56789 -0.063,-2.94287 -0.26486,0.62501 -1.92829,2.03051 -3.69652,3.12333 -1.76822,1.09283 -3.21495,2.37442 -3.21495,2.84799 0,1.30146 3.52475,1.03204 4.06661,-0.31083 0.26008,-0.64454 0.49971,-0.75 0.53252,-0.23438 0.0328,0.51563 -0.34288,1.57031 -0.83488,2.34375 -0.74349,1.16879 -1.21958,1.20478 -2.81942,0.21314 -1.60902,-0.99732 -2.01477,-0.95886 -2.47266,0.23438 -0.63019,1.64225 -2.22217,1.92905 -2.22217,0.40033 0,-0.56494 0.87248,-2.25244 1.93884,-3.75 1.06636,-1.49757 1.51216,-2.72285 0.99066,-2.72285 -0.5215,0 -1.56087,0.87473 -2.30971,1.94385 -0.91529,1.30676 -1.57801,1.59358 -2.02203,0.87513 -0.36328,-0.5878 -0.42742,-1.30182 -0.14253,-1.58671 0.28489,-0.28489 -0.11646,-1.15243 -0.8919,-1.92786 -0.91546,-0.91546 -1.31076,-2.76673 -1.12723,-5.27902 l 0.28265,-3.86914 12.65625,0 12.65625,0 0.26011,12.78045 c 0.21634,10.62962 0.0248,12.87074 -1.13819,13.31702 -0.86922,0.33355 -2.1346,-0.49745 -3.34422,-2.19621 z m -23.43395,-24.37001 c 0,-0.51562 0.44677,-0.9375 0.99283,-0.9375 0.54605,0 0.73209,0.42188 0.41342,0.9375 -0.31867,0.51563 -0.76545,0.9375 -0.99283,0.9375 -0.22738,0 -0.41342,-0.42187 -0.41342,-0.9375 z m 28.59375,0 c -0.31867,-0.51562 -0.13263,-0.9375 0.41342,-0.9375 0.54606,0 0.99283,0.42188 0.99283,0.9375 0,0.51563 -0.18604,0.9375 -0.41342,0.9375 -0.22738,0 -0.67416,-0.42187 -0.99283,-0.9375 z"
         id="path4703"
         inkscape:connector-curvature="0" />
      <path
         style="fill:#e79016"
         d="m 631.49762,761.78523 c 0,-1.24574 0.25452,-1.30981 1.40625,-0.35396 1.77068,1.46954 1.77068,1.875 0,1.875 -0.77344,0 -1.40625,-0.68447 -1.40625,-1.52104 z m 27.1875,1.16708 c 0,-0.19468 0.63281,-0.87914 1.40625,-1.52104 1.15173,-0.95585 1.40625,-0.89178 1.40625,0.35396 0,0.83657 -0.63281,1.52104 -1.40625,1.52104 -0.77344,0 -1.40625,-0.15928 -1.40625,-0.35396 z m -2.56244,-2.74864 c -0.45349,-0.61388 -0.78201,-2.21454 -0.73003,-3.55703 0.11164,-2.8837 -2.03675,-3.151 -4.61052,-0.57364 -1.29636,1.29817 -1.96347,1.42998 -2.97758,0.58834 -1.61894,-1.3436 -1.66405,-1.86399 -0.13506,-1.55819 0.64454,0.1289 1.05596,-0.32433 0.91428,-1.00719 -0.14168,-0.68286 0.14557,-0.99238 0.63834,-0.68783 0.49277,0.30455 1.15329,0.13734 1.46782,-0.37158 0.31453,-0.50892 -0.3946,-1.16788 -1.57584,-1.46435 -1.47928,-0.37128 -2.14772,-1.22731 -2.14772,-2.75047 0,-1.21628 0.21094,-2.08187 0.46875,-1.92353 0.25781,0.15834 0.55776,-0.94329 0.66654,-2.44805 l 0.1978,-2.73594 -3.71342,2.98418 c -2.04238,1.6413 -3.71342,3.33546 -3.71342,3.76478 0,1.24375 3.54448,0.90271 4.06661,-0.39127 0.26008,-0.64454 0.49971,-0.75 0.53252,-0.23438 0.0328,0.51563 -0.34288,1.57031 -0.83488,2.34375 -0.74349,1.16879 -1.21958,1.20478 -2.81942,0.21314 -1.60902,-0.99732 -2.01477,-0.95886 -2.47266,0.23438 -0.30127,0.78511 -0.92451,1.42748 -1.38497,1.42748 -1.39273,0 -0.90475,-2.2041 1.0378,-4.6875 2.43323,-3.11071 2.43323,-5.24573 0,-2.8125 -1.03125,1.03125 -1.875,2.32177 -1.875,2.86783 0,0.54605 -0.45064,0.71432 -1.00141,0.37392 -0.55078,-0.3404 -0.78542,-1.18179 -0.52142,-1.86976 0.264,-0.68797 0.008,-1.40821 -0.56904,-1.60053 -0.57698,-0.19233 -1.08062,-2.43443 -1.11921,-4.98245 l -0.0702,-4.63276 12.65625,0 12.65625,0 0.26011,12.78045 c 0.21345,10.48764 0.0155,12.8743 -1.10333,13.30365 -0.74989,0.28776 -1.73448,0.0209 -2.18797,-0.59295 z m -4.93756,-11.07469 c 0,-1.65587 -0.23426,-1.79537 -1.39593,-0.83128 -1.41093,1.17097 -1.11042,2.82107 0.51376,2.82107 0.48519,0 0.88217,-0.89541 0.88217,-1.98979 z m -19.6875,-14.88521 c 0,-0.51562 0.44677,-0.9375 0.99283,-0.9375 0.54605,0 0.73209,0.42188 0.41342,0.9375 -0.31867,0.51563 -0.76545,0.9375 -0.99283,0.9375 -0.22738,0 -0.41342,-0.42187 -0.41342,-0.9375 z m 28.59375,0 c -0.31867,-0.51562 -0.13263,-0.9375 0.41342,-0.9375 0.54606,0 0.99283,0.42188 0.99283,0.9375 0,0.51563 -0.18604,0.9375 -0.41342,0.9375 -0.22738,0 -0.67416,-0.42187 -0.99283,-0.9375 z"
         id="path4701"
         inkscape:connector-curvature="0" />
      <path
         style="fill:#e57527"
         d="m 631.49762,761.78523 c 0,-1.24574 0.25452,-1.30981 1.40625,-0.35396 1.77068,1.46954 1.77068,1.875 0,1.875 -0.77344,0 -1.40625,-0.68447 -1.40625,-1.52104 z m 27.1875,1.16708 c 0,-0.19468 0.63281,-0.87914 1.40625,-1.52104 1.15173,-0.95585 1.40625,-0.89178 1.40625,0.35396 0,0.83657 -0.63281,1.52104 -1.40625,1.52104 -0.77344,0 -1.40625,-0.15928 -1.40625,-0.35396 z m -2.56244,-2.74864 c -0.45349,-0.61388 -0.78231,-2.19309 -0.7307,-3.50934 0.0664,-1.69349 -0.41253,-2.43133 -1.63809,-2.52365 -0.95256,-0.0718 -1.96535,0.47784 -2.25065,1.22131 -0.2853,0.74348 -1.36899,1.35178 -2.40821,1.35178 -1.47439,0 -1.6601,-0.2764 -0.84534,-1.25813 0.57429,-0.69198 0.73142,-1.57088 0.34917,-1.95313 -0.38224,-0.38224 -0.1067,-0.55437 0.61232,-0.38249 0.87496,0.20915 1.44286,-0.7661 1.7172,-2.94898 0.40088,-3.18967 0.36936,-3.22479 -1.43167,-1.59488 -1.81068,1.63864 -1.83312,1.59153 -1.33734,-2.807 l 0.50424,-4.47362 -4.833,4.04642 c -2.65814,2.22552 -4.83299,4.63993 -4.83299,5.36536 0,0.72542 -0.42188,1.31895 -0.9375,1.31895 -1.3835,0 -1.14466,-1.0748 0.9375,-4.21875 2.48077,-3.74584 2.41067,-5.69192 -0.11408,-3.16717 l -1.98909,1.98909 -1.82375,-2.88043 c -1.11587,-1.7624 -1.7084,-4.08099 -1.52655,-5.97346 l 0.29722,-3.09303 12.65625,0 12.65625,0 0.26011,12.78045 c 0.21345,10.48764 0.0155,12.8743 -1.10333,13.30365 -0.74989,0.28776 -1.73448,0.0209 -2.18797,-0.59295 z m -13.37506,-10.0224 c 0,-0.51562 0.44677,-0.9375 0.99283,-0.9375 0.54605,0 0.73209,0.42188 0.41342,0.9375 -0.31867,0.51563 -0.76545,0.9375 -0.99283,0.9375 -0.22738,0 -0.41342,-0.42187 -0.41342,-0.9375 z m -11.25,-15.9375 c 0,-0.51562 0.44677,-0.9375 0.99283,-0.9375 0.54605,0 0.73209,0.42188 0.41342,0.9375 -0.31867,0.51563 -0.76545,0.9375 -0.99283,0.9375 -0.22738,0 -0.41342,-0.42187 -0.41342,-0.9375 z m 28.59375,0 c -0.31867,-0.51562 -0.13263,-0.9375 0.41342,-0.9375 0.54606,0 0.99283,0.42188 0.99283,0.9375 0,0.51563 -0.18604,0.9375 -0.41342,0.9375 -0.22738,0 -0.67416,-0.42187 -0.99283,-0.9375 z"
         id="path4699"
         inkscape:connector-curvature="0" />
      <path
         style="fill:#e8751b"
         d="m 631.49762,761.78523 c 0,-1.24574 0.25452,-1.30981 1.40625,-0.35396 1.77068,1.46954 1.77068,1.875 0,1.875 -0.77344,0 -1.40625,-0.68447 -1.40625,-1.52104 z m 27.1875,1.16708 c 0,-0.19468 0.63281,-0.87914 1.40625,-1.52104 1.15173,-0.95585 1.40625,-0.89178 1.40625,0.35396 0,0.83657 -0.63281,1.52104 -1.40625,1.52104 -0.77344,0 -1.40625,-0.15928 -1.40625,-0.35396 z m -2.51356,-2.7333 c -0.38423,-0.6217 -0.58267,-2.23565 -0.44096,-3.58657 0.33131,-3.1586 -2.23079,-4.31729 -3.84191,-1.73748 -0.63503,1.01685 -1.94852,1.84881 -2.91887,1.84881 -1.36964,0 -1.53072,-0.28142 -0.72013,-1.25813 0.57429,-0.69198 0.73142,-1.57088 0.34917,-1.95313 -0.38224,-0.38224 -0.0813,-0.55437 0.66865,-0.38249 0.75,0.17188 1.38281,-0.17969 1.40625,-0.78125 0.0234,-0.60156 0.31313,-1.36427 0.64377,-1.69491 0.33064,-0.33064 0.38968,-1.40988 0.1312,-2.39831 -0.4477,-1.71199 -0.55075,-1.69831 -2.17448,0.28866 -1.69339,2.07221 -1.70097,2.0583 -1.16254,-2.13294 0.29808,-2.32031 1.00607,-4.5287 1.57331,-4.90752 0.56724,-0.37882 0.67676,-0.69523 0.24337,-0.70312 -1.42472,-0.026 -10.93077,8.62131 -10.93077,9.94327 0,0.7108 -0.42188,1.29237 -0.9375,1.29237 -1.3835,0 -1.14466,-1.0748 0.9375,-4.21875 1.02445,-1.54687 1.83868,-3.65625 1.8094,-4.6875 -0.0512,-1.80123 -0.0847,-1.79714 -0.85287,0.10397 -0.4398,1.08843 -1.4186,2.21649 -2.17512,2.50679 -1.88745,0.72428 -4.66602,-4.65019 -4.25784,-8.23576 l 0.32018,-2.8125 12.65625,0 12.65625,0 0.26011,12.78045 c 0.21664,10.64411 0.0258,12.87037 -1.14185,13.31843 -0.77108,0.29589 -1.71634,0.0293 -2.10057,-0.59239 z m -13.42394,-10.03774 c 0,-0.51562 0.44677,-0.9375 0.99283,-0.9375 0.54605,0 0.73209,0.42188 0.41342,0.9375 -0.31867,0.51563 -0.76545,0.9375 -0.99283,0.9375 -0.22738,0 -0.41342,-0.42187 -0.41342,-0.9375 z m -11.25,-15.9375 c 0,-0.51562 0.44677,-0.9375 0.99283,-0.9375 0.54605,0 0.73209,0.42188 0.41342,0.9375 -0.31867,0.51563 -0.76545,0.9375 -0.99283,0.9375 -0.22738,0 -0.41342,-0.42187 -0.41342,-0.9375 z m 28.59375,0 c -0.31867,-0.51562 -0.13263,-0.9375 0.41342,-0.9375 0.54606,0 0.99283,0.42188 0.99283,0.9375 0,0.51563 -0.18604,0.9375 -0.41342,0.9375 -0.22738,0 -0.67416,-0.42187 -0.99283,-0.9375 z"
         id="path4697"
         inkscape:connector-curvature="0" />
      <path
         style="fill:#d98a15"
         d="m 631.49762,761.78523 c 0,-1.24574 0.25452,-1.30981 1.40625,-0.35396 1.77068,1.46954 1.77068,1.875 0,1.875 -0.77344,0 -1.40625,-0.68447 -1.40625,-1.52104 z m 27.1875,1.16708 c 0,-0.19468 0.63281,-0.87914 1.40625,-1.52104 1.15173,-0.95585 1.40625,-0.89178 1.40625,0.35396 0,0.83657 -0.63281,1.52104 -1.40625,1.52104 -0.77344,0 -1.40625,-0.15928 -1.40625,-0.35396 z m -2.51356,-2.7333 c -0.38423,-0.6217 -0.58267,-2.23565 -0.44096,-3.58657 0.33131,-3.1586 -2.23079,-4.31729 -3.84191,-1.73748 -0.63503,1.01685 -2.00233,1.83539 -3.03846,1.81899 -1.62638,-0.0257 -1.69166,-0.18591 -0.47761,-1.17187 2.90142,-2.35634 3.8254,-4.26522 3.22413,-6.66086 l -0.6066,-2.41689 -1.7102,2.09284 c -1.70122,2.08185 -1.70736,2.07068 -1.16824,-2.1259 0.29808,-2.32031 1.00607,-4.5287 1.57331,-4.90752 0.71544,-0.47779 0.72245,-0.69317 0.0229,-0.70312 -0.55465,-0.008 -1.99928,1.04033 -3.21029,2.32939 -1.21101,1.28906 -2.58802,2.34375 -3.06002,2.34375 -1.15743,0 -4.36986,3.92784 -4.40879,5.39063 -0.0327,1.22786 -1.91075,1.6912 -1.90001,0.46875 0.003,-0.38672 0.84437,-1.96875 1.86882,-3.51563 1.02445,-1.54687 1.86543,-3.60767 1.86882,-4.57956 0.005,-1.48441 -0.31509,-1.35862 -2.00239,0.78643 l -2.00857,2.55349 -1.80427,-2.84965 c -1.09871,-1.73529 -1.68804,-4.05919 -1.50706,-5.94268 l 0.29722,-3.09303 12.65625,0 12.65625,0 0.26011,12.78045 c 0.21664,10.64411 0.0258,12.87037 -1.14185,13.31843 -0.77108,0.29589 -1.71634,0.0293 -2.10057,-0.59239 z m -13.42394,-10.03774 c 0,-0.51562 0.44677,-0.9375 0.99283,-0.9375 0.54605,0 0.73209,0.42188 0.41342,0.9375 -0.31867,0.51563 -0.76545,0.9375 -0.99283,0.9375 -0.22738,0 -0.41342,-0.42187 -0.41342,-0.9375 z m -11.25,-15.9375 c 0,-0.51562 0.44677,-0.9375 0.99283,-0.9375 0.54605,0 0.73209,0.42188 0.41342,0.9375 -0.31867,0.51563 -0.76545,0.9375 -0.99283,0.9375 -0.22738,0 -0.41342,-0.42187 -0.41342,-0.9375 z m 28.59375,0 c -0.31867,-0.51562 -0.13263,-0.9375 0.41342,-0.9375 0.54606,0 0.99283,0.42188 0.99283,0.9375 0,0.51563 -0.18604,0.9375 -0.41342,0.9375 -0.22738,0 -0.67416,-0.42187 -0.99283,-0.9375 z"
         id="path4695"
         inkscape:connector-curvature="0" />
      <path
         style="fill:#d56a29"
         d="m 631.49762,761.78523 c 0,-1.24574 0.25452,-1.30981 1.40625,-0.35396 1.77068,1.46954 1.77068,1.875 0,1.875 -0.77344,0 -1.40625,-0.68447 -1.40625,-1.52104 z m 27.1875,1.16708 c 0,-0.19468 0.63281,-0.87914 1.40625,-1.52104 1.15173,-0.95585 1.40625,-0.89178 1.40625,0.35396 0,0.83657 -0.63281,1.52104 -1.40625,1.52104 -0.77344,0 -1.40625,-0.15928 -1.40625,-0.35396 z m -2.51918,-2.73386 c -0.38732,-0.62201 -0.57407,-2.13742 -0.415,-3.36758 0.41481,-3.20783 -1.76468,-4.17327 -4.21805,-1.86844 -1.3104,1.23105 -2.2448,1.54665 -2.64795,0.89434 -0.34264,-0.5544 -0.27768,-1.008 0.14434,-1.008 1.51688,0 3.11162,-3.8195 2.54212,-6.08855 l -0.58125,-2.31589 -1.57633,1.94668 c -1.52548,1.88389 -1.56402,1.81532 -1.19477,-2.12591 0.20986,-2.23992 0.85761,-4.38253 1.43944,-4.76135 0.70949,-0.46194 0.72577,-0.6935 0.0494,-0.70312 -0.55466,-0.008 -1.99929,1.04033 -3.2103,2.32939 -1.21101,1.28906 -2.6398,2.34375 -3.17508,2.34375 -0.53528,0 -1.95768,1.16016 -3.16089,2.57813 l -2.18765,2.57812 1.44931,-3.00032 c 0.79712,-1.65017 1.44931,-3.74795 1.44931,-4.66172 0,-1.4094 -0.22137,-1.34537 -1.45941,0.42219 -1.68397,2.4042 -3.70792,2.81124 -2.84901,0.57297 0.41354,-1.07767 0.17633,-1.35585 -0.82764,-0.97059 -1.593,0.61129 -2.71716,-2.49303 -2.20726,-6.0953 0.31004,-2.19035 0.3946,-2.20473 12.96832,-2.20473 l 12.65625,0 0.26011,12.78045 c 0.21664,10.64411 0.0258,12.87037 -1.14185,13.31843 -0.77108,0.29589 -1.71886,0.0291 -2.10619,-0.59295 z m -24.66832,-25.97468 c 0,-0.51562 0.44677,-0.9375 0.99283,-0.9375 0.54605,0 0.73209,0.42188 0.41342,0.9375 -0.31867,0.51563 -0.76545,0.9375 -0.99283,0.9375 -0.22738,0 -0.41342,-0.42187 -0.41342,-0.9375 z m 28.59375,0 c -0.31867,-0.51562 -0.13263,-0.9375 0.41342,-0.9375 0.54606,0 0.99283,0.42188 0.99283,0.9375 0,0.51563 -0.18604,0.9375 -0.41342,0.9375 -0.22738,0 -0.67416,-0.42187 -0.99283,-0.9375 z"
         id="path4693"
         inkscape:connector-curvature="0" />
      <path
         style="fill:#b47736"
         d="m 631.49762,761.78523 c 0,-1.24574 0.25452,-1.30981 1.40625,-0.35396 1.77068,1.46954 1.77068,1.875 0,1.875 -0.77344,0 -1.40625,-0.68447 -1.40625,-1.52104 z m 27.1875,1.16708 c 0,-0.19468 0.63281,-0.87914 1.40625,-1.52104 1.15173,-0.95585 1.40625,-0.89178 1.40625,0.35396 0,0.83657 -0.63281,1.52104 -1.40625,1.52104 -0.77344,0 -1.40625,-0.15928 -1.40625,-0.35396 z m -2.69033,-2.78008 c -0.59773,-0.72022 -0.6286,-1.65958 -0.0829,-2.5224 0.47824,-0.75615 0.84267,-2.4295 0.80986,-3.71856 -0.0328,-1.28906 -0.26454,-1.84011 -0.51496,-1.22454 -0.25042,0.61556 -0.98202,0.91709 -1.62577,0.67006 -0.64375,-0.24703 -1.9385,0.39953 -2.87722,1.43681 -0.93872,1.03728 -2.06797,1.66272 -2.50944,1.38988 -0.44147,-0.27284 0.01,-1.36796 1.0024,-2.4336 1.85371,-1.98972 2.20679,-7.43996 0.57829,-8.9265 -0.45636,-0.41658 -0.55242,-0.27367 -0.21401,0.31836 0.33772,0.59082 -0.14914,2.0167 -1.08191,3.16861 l -1.69593,2.0944 0.39728,-3.40299 c 0.2185,-1.87164 0.84331,-3.40299 1.38846,-3.40299 0.54515,0 0.71649,-0.27469 0.38075,-0.61043 -0.33573,-0.33573 0.1213,-1.16607 1.01563,-1.84518 0.94493,-0.71754 1.14884,-1.24725 0.4868,-1.26457 -0.62659,-0.0164 -2.58072,1.23581 -4.34252,2.78268 -1.76179,1.54688 -3.55359,2.8125 -3.98178,2.8125 -0.42818,0 -1.76296,1.16016 -2.96617,2.57813 l -2.18765,2.57812 1.44931,-3.00032 c 0.79712,-1.65017 1.44931,-3.74795 1.44931,-4.66172 0,-1.4094 -0.22137,-1.34537 -1.45941,0.42219 -1.67647,2.39349 -3.70949,2.81535 -2.8566,0.59275 0.31465,-0.81997 0.28701,-1.95212 -0.0614,-2.5159 -0.39327,-0.63632 -0.8852,-0.33759 -1.29721,0.78773 -0.53114,1.45072 -0.80027,1.11204 -1.34754,-1.6958 -1.23549,-6.33886 -1.06288,-6.4211 12.86262,-6.12815 l 12.44081,0.26172 0.26011,12.78045 c 0.21345,10.48764 0.0155,12.8743 -1.10333,13.30365 -0.74989,0.28776 -1.79203,0.007 -2.31586,-0.62439 z m -24.49717,-25.92846 c 0,-0.51562 0.44677,-0.9375 0.99283,-0.9375 0.54605,0 0.73209,0.42188 0.41342,0.9375 -0.31867,0.51563 -0.76545,0.9375 -0.99283,0.9375 -0.22738,0 -0.41342,-0.42187 -0.41342,-0.9375 z m 28.59375,0 c -0.31867,-0.51562 -0.13263,-0.9375 0.41342,-0.9375 0.54606,0 0.99283,0.42188 0.99283,0.9375 0,0.51563 -0.18604,0.9375 -0.41342,0.9375 -0.22738,0 -0.67416,-0.42187 -0.99283,-0.9375 z"
         id="path4691"
         inkscape:connector-curvature="0" />
      <path
         style="fill:#d26d10"
         d="m 631.49762,761.78523 c 0,-1.24574 0.25452,-1.30981 1.40625,-0.35396 1.77068,1.46954 1.77068,1.875 0,1.875 -0.77344,0 -1.40625,-0.68447 -1.40625,-1.52104 z m 28.125,0.63887 c 0,-0.4852 0.42187,-1.14291 0.9375,-1.46158 0.51562,-0.31867 0.9375,0.0783 0.9375,0.88217 0,0.80387 -0.42188,1.46158 -0.9375,1.46158 -0.51563,0 -0.9375,-0.39698 -0.9375,-0.88217 z m -4.10156,-2.67822 c -0.25422,-0.41133 -0.0747,-1.36055 0.39906,-2.10937 0.47371,-0.74882 0.83444,-2.41618 0.80163,-3.70524 -0.0328,-1.28906 -0.26454,-1.84011 -0.51496,-1.22454 -0.25042,0.61556 -0.98202,0.91709 -1.62577,0.67006 -0.64375,-0.24703 -1.9385,0.39953 -2.87722,1.43681 -0.93872,1.03728 -2.06797,1.66272 -2.50944,1.38988 -0.44147,-0.27284 0.01,-1.36796 1.0024,-2.4336 1.85371,-1.98972 2.20679,-7.43996 0.57829,-8.9265 -0.45636,-0.41658 -0.55242,-0.27367 -0.21401,0.31836 0.33772,0.59082 -0.14914,2.0167 -1.08191,3.16861 l -1.69593,2.0944 0.39728,-3.40299 c 0.2185,-1.87164 0.84331,-3.40299 1.38846,-3.40299 0.54515,0 0.71649,-0.27469 0.38075,-0.61043 -0.33573,-0.33573 0.1213,-1.16607 1.01563,-1.84518 0.94493,-0.71754 1.14884,-1.24725 0.4868,-1.26457 -0.62659,-0.0164 -2.58072,1.23581 -4.34252,2.78268 -1.76179,1.54688 -3.55359,2.8125 -3.98178,2.8125 -0.42818,0 -1.76296,1.16016 -2.96617,2.57813 l -2.18765,2.57812 1.44931,-3.00032 c 0.79712,-1.65017 1.44931,-3.74795 1.44931,-4.66172 0,-1.4094 -0.22137,-1.34537 -1.45941,0.42219 -1.79018,2.55584 -3.5624,2.73883 -2.78438,0.2875 0.31353,-0.98786 0.13102,-2.06744 -0.40558,-2.39908 -0.53659,-0.33164 -1.00528,0.1602 -1.04152,1.09298 -0.0588,1.51385 -0.15241,1.49462 -0.87161,-0.17905 -1.21559,-2.82884 -1.08752,-6.77955 0.23437,-7.22979 0.64454,-0.21953 6.44532,-0.37013 12.89063,-0.33468 l 11.71875,0.0645 0.26083,12.89063 c 0.24861,12.28672 0.17434,12.89062 -1.5853,12.89062 -1.01537,0 -2.05412,-0.33655 -2.30834,-0.74789 z m -24.02344,-25.50211 c 0,-0.51562 0.44677,-0.9375 0.99283,-0.9375 0.54605,0 0.73209,0.42188 0.41342,0.9375 -0.31867,0.51563 -0.76545,0.9375 -0.99283,0.9375 -0.22738,0 -0.41342,-0.42187 -0.41342,-0.9375 z m 28.59375,0 c -0.31867,-0.51562 -0.13263,-0.9375 0.41342,-0.9375 0.54606,0 0.99283,0.42188 0.99283,0.9375 0,0.51563 -0.18604,0.9375 -0.41342,0.9375 -0.22738,0 -0.67416,-0.42187 -0.99283,-0.9375 z"
         id="path4689"
         inkscape:connector-curvature="0" />
      <path
         style="fill:#966f43"
         d="m 631.49762,761.78523 c 0,-1.24574 0.25452,-1.30981 1.40625,-0.35396 1.77068,1.46954 1.77068,1.875 0,1.875 -0.77344,0 -1.40625,-0.68447 -1.40625,-1.52104 z m 28.125,0.63887 c 0,-0.4852 0.42187,-1.14291 0.9375,-1.46158 0.51562,-0.31867 0.9375,0.0783 0.9375,0.88217 0,0.80387 -0.42188,1.46158 -0.9375,1.46158 -0.51563,0 -0.9375,-0.39698 -0.9375,-0.88217 z m -3.33984,-6.38345 c 0.28878,-2.44922 0.28738,-3.94949 -0.003,-3.33392 -0.2905,0.61556 -1.13472,0.88646 -1.87605,0.60198 -0.75106,-0.28821 -2.16332,0.46156 -3.18949,1.69329 -1.01289,1.21579 -1.85565,1.73483 -1.87281,1.15344 -0.0171,-0.5814 0.59195,-1.57425 1.35357,-2.20633 1.48786,-1.23481 1.54322,-7.77095 0.0772,-9.10875 -0.45377,-0.41406 -0.5511,-0.2733 -0.21629,0.31281 0.3348,0.58611 -2.3e-4,1.57104 -0.74452,2.18875 -1.15605,0.95943 -1.22859,0.68844 -0.49781,-1.85964 0.47049,-1.6405 1.34669,-3.57466 1.94711,-4.29812 2.03648,-2.45385 -0.82755,-1.42088 -4.15096,1.49711 -1.76179,1.54688 -3.53622,2.8125 -3.94317,2.8125 -0.40696,0 -1.61689,0.72709 -2.68874,1.61575 -1.07185,0.88866 -1.42148,1.01522 -0.77695,0.28125 0.64454,-0.73398 1.15846,-2.41028 1.14206,-3.72512 -0.0273,-2.18759 -0.13559,-2.25129 -1.27522,-0.75 -1.63217,2.15011 -2.10847,2.07049 -2.80434,-0.46875 -0.43647,-1.59266 -0.77577,-1.80306 -1.38513,-0.8589 -0.64502,0.99941 -0.92737,0.93696 -1.40627,-0.31105 -0.98253,-2.56043 -0.6817,-5.86698 0.57265,-6.29422 0.64454,-0.21953 6.44532,-0.37013 12.89063,-0.33468 l 11.71875,0.0645 0.26083,12.89063 c 0.25359,12.53287 0.20647,12.89062 -1.69807,12.89062 -1.78562,0 -1.91245,-0.3939 -1.43385,-4.45312 z m -24.78516,-21.79688 c 0,-0.51562 0.44677,-0.9375 0.99283,-0.9375 0.54605,0 0.73209,0.42188 0.41342,0.9375 -0.31867,0.51563 -0.76545,0.9375 -0.99283,0.9375 -0.22738,0 -0.41342,-0.42187 -0.41342,-0.9375 z m 28.59375,0 c -0.31867,-0.51562 -0.13263,-0.9375 0.41342,-0.9375 0.54606,0 0.99283,0.42188 0.99283,0.9375 0,0.51563 -0.18604,0.9375 -0.41342,0.9375 -0.22738,0 -0.67416,-0.42187 -0.99283,-0.9375 z"
         id="path4687"
         inkscape:connector-curvature="0" />
      <path
         style="fill:#c55a25"
         d="m 631.49762,761.84469 c 0,-0.80387 0.42187,-1.20084 0.9375,-0.88217 0.51562,0.31867 0.9375,0.97638 0.9375,1.46158 0,0.48519 -0.42188,0.88217 -0.9375,0.88217 -0.51563,0 -0.9375,-0.65771 -0.9375,-1.46158 z m 28.125,0.57941 c 0,-0.4852 0.42187,-1.14291 0.9375,-1.46158 0.51562,-0.31867 0.9375,0.0783 0.9375,0.88217 0,0.80387 -0.42188,1.46158 -0.9375,1.46158 -0.51563,0 -0.9375,-0.39698 -0.9375,-0.88217 z m -3.33984,-6.38345 c 0.28878,-2.44922 0.28738,-3.94949 -0.003,-3.33392 -0.2905,0.61556 -1.13472,0.88646 -1.87605,0.60198 -0.75106,-0.28821 -2.16332,0.46156 -3.18949,1.69329 -1.01289,1.21579 -1.85565,1.73483 -1.87281,1.15344 -0.0171,-0.5814 0.59195,-1.57425 1.35357,-2.20633 1.48786,-1.23481 1.54322,-7.77095 0.0772,-9.10875 -0.45377,-0.41406 -0.5511,-0.2733 -0.21629,0.31281 0.3348,0.58611 -2.3e-4,1.57104 -0.74452,2.18875 -1.15605,0.95943 -1.22859,0.68844 -0.49781,-1.85964 0.47049,-1.6405 1.34669,-3.57466 1.94711,-4.29812 2.03648,-2.45385 -0.82755,-1.42088 -4.15096,1.49711 -1.76179,1.54688 -3.53622,2.8125 -3.94317,2.8125 -0.40696,0 -1.61689,0.72709 -2.68874,1.61575 -1.07185,0.88866 -1.42148,1.01522 -0.77695,0.28125 0.64454,-0.73398 1.15846,-2.41028 1.14206,-3.72512 -0.0273,-2.18759 -0.13559,-2.25129 -1.27522,-0.75 -1.63217,2.15011 -2.10847,2.07049 -2.80434,-0.46875 -0.43647,-1.59266 -0.77577,-1.80306 -1.38513,-0.8589 -0.64502,0.99941 -0.92737,0.93696 -1.40627,-0.31105 -0.5779,-1.50598 -0.84462,-6.01713 -0.36485,-6.1707 1.53736,-0.49206 22.013,-0.89385 23.71988,-0.46545 2.29397,0.57575 2.29575,0.58597 2.29575,13.21458 0,12.13862 -0.0764,12.63839 -1.93244,12.63839 -1.75407,0 -1.88398,-0.41106 -1.4074,-4.45312 z"
         id="path4685"
         inkscape:connector-curvature="0" />
      <path
         style="fill:#c8561a"
         d="m 631.49762,761.84469 c 0,-0.80387 0.42187,-1.20084 0.9375,-0.88217 0.51562,0.31867 0.9375,0.97638 0.9375,1.46158 0,0.48519 -0.42188,0.88217 -0.9375,0.88217 -0.51563,0 -0.9375,-0.65771 -0.9375,-1.46158 z m 28.125,0.57941 c 0,-0.4852 0.42187,-1.14291 0.9375,-1.46158 0.51562,-0.31867 0.9375,0.0783 0.9375,0.88217 0,0.80387 -0.42188,1.46158 -0.9375,1.46158 -0.51563,0 -0.9375,-0.39698 -0.9375,-0.88217 z m -3.75,-3.80533 c 0,-1.03125 0.49219,-1.875 1.09375,-1.875 0.60156,0 0.83943,-0.25432 0.5286,-0.56515 -0.31083,-0.31083 -0.18064,-1.57645 0.2893,-2.8125 0.5509,-1.44898 0.51919,-2.24735 -0.0893,-2.24735 -0.51904,0 -1.17633,0.60617 -1.46063,1.34705 -0.2843,0.74088 -1.1158,1.11724 -1.84777,0.83636 -0.73198,-0.28089 -2.15959,0.48403 -3.17248,1.69982 -1.01288,1.21579 -1.85565,1.73483 -1.8728,1.15344 -0.0172,-0.5814 0.59195,-1.57425 1.35357,-2.20633 1.48785,-1.23481 1.54322,-7.77095 0.0771,-9.10875 -0.45376,-0.41406 -0.55109,-0.2733 -0.21629,0.31281 0.33481,0.58611 -2.3e-4,1.57104 -0.74451,2.18875 -1.15884,0.96174 -1.2247,0.67485 -0.45843,-1.99696 0.49215,-1.71604 0.90128,-3.33378 0.90918,-3.595 0.008,-0.26122 0.37561,0.0951 0.81715,0.79191 0.57105,0.90115 0.9236,0.44381 1.22125,-1.58425 l 0.41846,-2.8511 -3.64801,2.9905 c -2.0064,1.64477 -4.41587,3.42885 -5.35437,3.9646 -0.9385,0.53576 -2.48964,1.5701 -3.44698,2.29854 -1.46425,1.11415 -1.55455,1.11578 -0.56874,0.0103 0.64454,-0.72279 1.15846,-2.38994 1.14206,-3.70478 -0.0273,-2.18759 -0.13559,-2.25129 -1.27522,-0.75 -1.63217,2.15011 -2.10847,2.07049 -2.80434,-0.46875 -0.43647,-1.59266 -0.77577,-1.80306 -1.38513,-0.8589 -0.64502,0.99941 -0.92737,0.93696 -1.40627,-0.31105 -1.09572,-2.85538 -0.6196,-5.88725 1.02352,-6.51778 0.89251,-0.34249 1.76437,-0.19782 1.93747,0.32149 0.20567,0.61699 1.12646,0.63558 2.65704,0.0537 2.58817,-0.98402 16.20816,-1.22007 18.54982,-0.32149 1.2501,0.47971 1.48293,2.54045 1.48293,13.125 0,11.93095 -0.0933,12.55595 -1.875,12.55595 -1.25,0 -1.875,-0.625 -1.875,-1.875 z m 0,-12.1875 c 0,-0.51562 -0.44677,-0.9375 -0.99283,-0.9375 -0.54605,0 -0.73209,0.42188 -0.41342,0.9375 0.31867,0.51563 0.76545,0.9375 0.99283,0.9375 0.22738,0 0.41342,-0.42187 0.41342,-0.9375 z"
         id="path4683"
         inkscape:connector-curvature="0" />
      <path
         style="fill:#b46113"
         d="m 631.49762,761.84469 c 0,-0.80387 0.42187,-1.20084 0.9375,-0.88217 0.51562,0.31867 0.9375,0.97638 0.9375,1.46158 0,0.48519 -0.42188,0.88217 -0.9375,0.88217 -0.51563,0 -0.9375,-0.65771 -0.9375,-1.46158 z m 28.125,0.57941 c 0,-0.4852 0.42187,-1.14291 0.9375,-1.46158 0.51562,-0.31867 0.9375,0.0783 0.9375,0.88217 0,0.80387 -0.42188,1.46158 -0.9375,1.46158 -0.51563,0 -0.9375,-0.39698 -0.9375,-0.88217 z m -3.75,-3.80533 c 0,-1.03125 0.37399,-1.875 0.83109,-1.875 0.45711,0 1.01685,-1.26562 1.24389,-2.8125 0.22703,-1.54687 0.29476,-2.8125 0.15051,-2.8125 -1.24273,0 -5.82914,2.71881 -7.11618,4.21845 -0.88518,1.03142 -1.62347,1.41334 -1.64062,0.84873 -0.0172,-0.56462 0.80261,-1.78116 1.8217,-2.70342 1.01909,-0.92227 1.65645,-1.99471 1.41634,-2.38321 -0.2401,-0.38849 0.27821,-0.64852 1.15181,-0.57783 1.09259,0.0884 1.65715,-0.67619 1.80874,-2.44959 0.25493,-2.98225 -1.13358,-3.46772 -2.01103,-0.70313 -1.17585,3.70476 -1.93396,1.76949 -1.41856,-3.62121 l 0.52548,-5.49621 -2.83065,1.98059 c -1.55686,1.08932 -3.38374,2.71886 -4.05975,3.62121 -0.676,0.90234 -1.69929,1.64062 -2.27399,1.64062 -0.57469,0 -1.92186,0.72709 -2.99371,1.61575 -1.07185,0.88866 -1.42148,1.01522 -0.77695,0.28125 0.64454,-0.73398 1.17188,-2.26966 1.17188,-3.41263 0,-1.14296 0.52734,-2.26646 1.17187,-2.49665 0.64454,-0.23019 0.87556,-0.73744 0.5134,-1.12723 -0.75902,-0.81691 -3.56027,1.69895 -3.56027,3.19755 0,1.69619 -1.46538,1.11123 -1.59362,-0.63616 -0.30158,-4.10903 -0.72685,-5.69472 -1.41349,-5.27035 -0.40859,0.25252 -0.74935,1.59439 -0.75725,2.98192 -0.0112,1.97322 -0.21233,2.21646 -0.92314,1.11655 -1.49147,-2.30788 -1.09985,-6.2996 0.68524,-6.9846 0.89251,-0.34249 1.76437,-0.19782 1.93747,0.32149 0.20567,0.61699 1.12646,0.63558 2.65704,0.0537 2.58817,-0.98402 16.20816,-1.22007 18.54982,-0.32149 1.2501,0.47971 1.48293,2.54045 1.48293,13.125 0,11.93095 -0.0933,12.55595 -1.875,12.55595 -1.25,0 -1.875,-0.625 -1.875,-1.875 z"
         id="path4681"
         inkscape:connector-curvature="0" />
      <path
         style="fill:#ae5028"
         d="m 631.49762,761.84469 c 0,-0.80387 0.42187,-1.20084 0.9375,-0.88217 0.51562,0.31867 0.9375,0.97638 0.9375,1.46158 0,0.48519 -0.42188,0.88217 -0.9375,0.88217 -0.51563,0 -0.9375,-0.65771 -0.9375,-1.46158 z m 28.125,0.57941 c 0,-0.4852 0.42187,-1.14291 0.9375,-1.46158 0.51562,-0.31867 0.9375,0.0783 0.9375,0.88217 0,0.80387 -0.42188,1.46158 -0.9375,1.46158 -0.51563,0 -0.9375,-0.39698 -0.9375,-0.88217 z m -3.49223,-3.80533 c -0.0777,-1.03125 0.20653,-1.875 0.63159,-1.875 0.42506,0 0.95858,-1.26562 1.18562,-2.8125 0.22703,-1.54687 0.29476,-2.8125 0.15051,-2.8125 -1.24273,0 -5.82914,2.71881 -7.11618,4.21845 -0.88518,1.03142 -1.62347,1.41334 -1.64062,0.84873 -0.0172,-0.56462 0.80261,-1.78116 1.8217,-2.70342 1.01909,-0.92227 1.65645,-1.99471 1.41634,-2.38321 -0.2401,-0.38849 0.27821,-0.64852 1.15181,-0.57783 1.09259,0.0884 1.65715,-0.67619 1.80874,-2.44959 0.25493,-2.98225 -1.13358,-3.46772 -2.01103,-0.70313 -1.17585,3.70476 -1.93396,1.76949 -1.41856,-3.62121 l 0.52548,-5.49621 -2.83065,1.98059 c -1.55686,1.08932 -3.38374,2.71886 -4.05975,3.62121 -0.676,0.90234 -1.69929,1.64062 -2.27399,1.64062 -0.57469,0 -1.92186,0.72709 -2.99371,1.61575 -1.07185,0.88866 -1.42148,1.01522 -0.77695,0.28125 0.64454,-0.73398 1.17188,-2.26966 1.17188,-3.41263 0,-1.14296 0.52734,-2.26646 1.17187,-2.49665 0.64454,-0.23019 0.87556,-0.73744 0.5134,-1.12723 -0.75902,-0.81691 -3.56027,1.69895 -3.56027,3.19755 0,1.69619 -1.46538,1.11123 -1.59362,-0.63616 -0.35468,-4.83254 -0.69368,-5.57602 -2.34555,-5.14405 -1.07299,0.28059 -1.68583,-0.0736 -1.68583,-0.97444 0,-1.63664 3.0902,-3.12653 3.56021,-1.7165 0.20567,0.61699 1.12646,0.63558 2.65704,0.0537 2.58817,-0.98402 16.20816,-1.22007 18.54982,-0.32149 1.2501,0.47971 1.48293,2.54045 1.48293,13.125 0,11.4326 -0.1499,12.55595 -1.6755,12.55595 -1.00341,0 -1.73215,-0.75211 -1.81673,-1.875 z m -21.67224,-17.8125 c 0,-1.28906 0.21278,-1.81641 0.47286,-1.17187 0.26007,0.64453 0.26007,1.69921 0,2.34375 -0.26008,0.64453 -0.47286,0.11718 -0.47286,-1.17188 z"
         id="path4679"
         inkscape:connector-curvature="0" />
      <path
         style="fill:#c55709"
         d="m 631.49762,761.84469 c 0,-0.80387 0.42187,-1.20084 0.9375,-0.88217 0.51562,0.31867 0.9375,0.97638 0.9375,1.46158 0,0.48519 -0.42188,0.88217 -0.9375,0.88217 -0.51563,0 -0.9375,-0.65771 -0.9375,-1.46158 z m 28.125,0.57941 c 0,-0.4852 0.42187,-1.14291 0.9375,-1.46158 0.51562,-0.31867 0.9375,0.0783 0.9375,0.88217 0,0.80387 -0.42188,1.46158 -0.9375,1.46158 -0.51563,0 -0.9375,-0.39698 -0.9375,-0.88217 z m -3.49223,-3.80533 c -0.0777,-1.03125 0.25442,-1.875 0.73799,-1.875 0.48358,0 0.87924,-1.02979 0.87924,-2.28842 0,-1.25863 0.42187,-2.54916 0.9375,-2.86783 0.57781,-0.35711 0.9375,1.24026 0.9375,4.16342 0,3.92958 -0.2873,4.74283 -1.6755,4.74283 -1.00341,0 -1.73215,-0.75211 -1.81673,-1.875 z m -6.78908,-2.43282 c -0.0172,-0.56462 0.80261,-1.78116 1.8217,-2.70342 1.01909,-0.92227 1.65645,-1.99471 1.41634,-2.38321 -0.2401,-0.38849 0.28927,-0.64852 1.17638,-0.57783 1.00896,0.0804 1.65584,-0.5883 1.72755,-1.78582 0.063,-1.0529 0.61315,-2.84587 1.22247,-3.98438 0.60931,-1.13851 0.73755,-2.07002 0.28498,-2.07002 -0.45257,0 -1.61803,1.47656 -2.58992,3.28125 -1.69957,3.1559 -3.6783,4.64014 -2.66472,1.9988 0.27067,-0.70535 0.57383,-3.20671 0.6737,-5.55858 0.15784,-3.71706 -0.002,-4.11959 -1.22467,-3.07889 -2.90077,2.4696 -4.22048,2.7443 -2.34375,0.48785 1.62017,-1.94798 1.63875,-2.07068 0.13671,-0.9028 -0.95606,0.74336 -2.10988,2.32893 -2.56405,3.52349 -0.45418,1.19456 -1.57038,2.43618 -2.48047,2.75915 -0.91008,0.32298 -2.49844,1.25019 -3.52969,2.06048 -1.22819,0.96503 -1.47074,1.01289 -0.70313,0.13875 0.64454,-0.73398 1.17188,-2.12401 1.17188,-3.08896 0,-0.96496 0.63281,-2.38728 1.40625,-3.16072 1.89401,-1.89401 1.77736,-3.36106 -0.23438,-2.9477 -0.9441,0.19399 -1.52367,1.01919 -1.36515,1.94374 0.15151,0.88365 -0.16489,1.60664 -0.70312,1.60664 -0.53823,0 -0.9786,0.63281 -0.9786,1.40625 0,0.77344 -0.44677,1.40625 -0.99283,1.40625 -0.54605,0 -0.75397,-0.38647 -0.46204,-0.85883 0.29193,-0.47235 0.10717,-1.97303 -0.41059,-3.33483 -0.62207,-1.63617 -0.62435,-2.28006 -0.007,-1.89834 0.51407,0.31771 0.93467,-0.0652 0.93467,-0.85094 0,-2.38302 3.25327,-3.36956 11.11169,-3.36956 10.65258,0 10.45081,-0.16198 10.45081,8.39017 l 0,7.25207 -3.49151,1.78826 c -1.92033,0.98354 -4.22661,2.632 -5.12506,3.66325 -0.89845,1.03125 -1.64759,1.41304 -1.66474,0.84843 z m -14.88316,-15.37968 c 0,-1.28906 0.21278,-1.81641 0.47286,-1.17187 0.26007,0.64453 0.26007,1.69921 0,2.34375 -0.26008,0.64453 -0.47286,0.11718 -0.47286,-1.17188 z m -1.08553,-4.21081 c 0,-0.7778 0.17643,-1.41419 0.39207,-1.41419 0.21565,0 1.0594,-0.25607 1.875,-0.56905 2.1239,-0.81502 1.833,0.8369 -0.39207,2.22648 -1.56385,0.97664 -1.875,0.93628 -1.875,-0.24324 z"
         id="path4677"
         inkscape:connector-curvature="0" />
      <path
         style="fill:#896530"
         d="m 631.49762,761.84469 c 0,-0.80387 0.42187,-1.20084 0.9375,-0.88217 0.51562,0.31867 0.9375,0.97638 0.9375,1.46158 0,0.48519 -0.42188,0.88217 -0.9375,0.88217 -0.51563,0 -0.9375,-0.65771 -0.9375,-1.46158 z m 28.125,0.57941 c 0,-0.4852 0.42187,-1.14291 0.9375,-1.46158 0.51562,-0.31867 0.9375,0.0783 0.9375,0.88217 0,0.80387 -0.42188,1.46158 -0.9375,1.46158 -0.51563,0 -0.9375,-0.39698 -0.9375,-0.88217 z m -2.4005,-6.10366 c 1.52266,-5.99683 2.4005,-6.242 2.4005,-0.67042 0,4.0835 -0.27154,4.84375 -1.73007,4.84375 -1.58136,0 -1.63899,-0.35873 -0.67043,-4.17333 z m -4.22069,-4.24482 c 1.77241,-1.53614 2.94939,-3.06615 2.61551,-3.40003 -0.33387,-0.33387 0.0198,-1.81918 0.7859,-3.30068 2.05533,-3.97458 0.17866,-3.2772 -2.212,0.82199 l -2.05032,3.51562 0.22542,-5.79268 c 0.19724,-5.06828 0.0496,-5.643 -1.18082,-4.59573 -2.91515,2.48129 -4.22028,2.74382 -2.34375,0.47144 l 1.875,-2.27053 -2.10938,1.78593 c -1.16015,0.98226 -2.10937,2.17255 -2.10937,2.64509 0,1.11982 -2.42911,3.53773 -3.55412,3.53773 -0.95254,0 -0.77935,-3.18531 0.32377,-5.95446 0.54836,-1.37656 0.32365,-1.65602 -1.08599,-1.35057 -0.97757,0.21182 -1.66441,0.91003 -1.52629,1.55156 0.13811,0.64153 -0.35084,1.76837 -1.08656,2.50409 -1.15857,1.15857 -1.4696,0.95926 -2.32292,-1.48857 -0.5868,-1.6833 -0.6213,-2.60134 -0.0853,-2.27008 0.49495,0.3059 0.89992,-0.0867 0.89992,-0.87241 0,-2.38302 3.25327,-3.36956 11.11169,-3.36956 10.65464,0 10.45081,-0.16392 10.45081,8.4047 l 0,7.2666 -4.92188,2.47677 -4.92187,2.47677 3.22256,-2.79299 z m -19.62881,-15.48016 c 0,-0.7778 0.17643,-1.41419 0.39207,-1.41419 0.21565,0 1.0594,-0.25607 1.875,-0.56905 2.1239,-0.81502 1.833,0.8369 -0.39207,2.22648 -1.56385,0.97664 -1.875,0.93628 -1.875,-0.24324 z"
         id="path4675"
         inkscape:connector-curvature="0" />
      <path
         style="fill:#b64c10"
         d="m 631.49762,761.84469 c 0,-0.80387 0.42187,-1.20084 0.9375,-0.88217 0.51562,0.31867 0.9375,0.97638 0.9375,1.46158 0,0.48519 -0.42188,0.88217 -0.9375,0.88217 -0.51563,0 -0.9375,-0.65771 -0.9375,-1.46158 z m 28.72348,0.0553 c 0.29679,-0.77344 0.70543,-1.40625 0.90807,-1.40625 0.20265,0 0.36845,0.63281 0.36845,1.40625 0,0.77344 -0.40863,1.40625 -0.90808,1.40625 -0.49944,0 -0.66524,-0.63281 -0.36844,-1.40625 z m -2.99898,-5.57958 c 1.52266,-5.99683 2.4005,-6.242 2.4005,-0.67042 0,4.0835 -0.27154,4.84375 -1.73007,4.84375 -1.58136,0 -1.63899,-0.35873 -0.67043,-4.17333 z m -4.22069,-4.24482 c 1.77241,-1.53614 2.94939,-3.06615 2.61551,-3.40003 -0.33387,-0.33387 0.0198,-1.81918 0.7859,-3.30068 2.05533,-3.97458 0.17866,-3.2772 -2.212,0.82199 l -2.05032,3.51562 0.22542,-5.79268 c 0.19724,-5.06828 0.0496,-5.643 -1.18082,-4.59573 -2.91515,2.48129 -4.22028,2.74382 -2.34375,0.47144 l 1.875,-2.27053 -2.10938,1.78593 c -1.16015,0.98226 -2.10937,2.17255 -2.10937,2.64509 0,1.11982 -2.42911,3.53773 -3.55412,3.53773 -0.95254,0 -0.77935,-3.18531 0.32377,-5.95446 0.54836,-1.37656 0.32365,-1.65602 -1.08599,-1.35057 -0.97757,0.21182 -1.66441,0.91003 -1.52629,1.55156 0.13811,0.64153 -0.35084,1.76837 -1.08656,2.50409 -1.15857,1.15857 -1.4696,0.95926 -2.32292,-1.48857 -0.54188,-1.55445 -0.62823,-2.60562 -0.1919,-2.33595 0.43634,0.26967 1.01657,-0.36333 1.28941,-1.40667 0.46513,-1.77863 1.12973,-1.88032 10.65346,-1.63008 l 10.15739,0.2669 0.27107,7.11349 0.27107,7.11348 -4.95857,2.49581 -4.95857,2.49581 3.22256,-2.79299 z M 633.37262,737.0972 c 0,-0.50185 0.84375,-1.36402 1.875,-1.91593 1.03125,-0.55191 1.875,-0.66823 1.875,-0.2585 0,0.40974 -0.84375,1.27191 -1.875,1.91593 -1.03864,0.64864 -1.875,0.76395 -1.875,0.2585 z"
         id="path4673"
         inkscape:connector-curvature="0" />
      <path
         style="fill:#91512e"
         d="m 631.49762,761.84469 c 0,-0.80387 0.42187,-1.20084 0.9375,-0.88217 0.51562,0.31867 0.9375,0.97638 0.9375,1.46158 0,0.48519 -0.42188,0.88217 -0.9375,0.88217 -0.51563,0 -0.9375,-0.65771 -0.9375,-1.46158 z m 28.72348,0.0553 c 0.29679,-0.77344 0.70543,-1.40625 0.90807,-1.40625 0.20265,0 0.36845,0.63281 0.36845,1.40625 0,0.77344 -0.40863,1.40625 -0.90808,1.40625 -0.49944,0 -0.66524,-0.63281 -0.36844,-1.40625 z m -3.44397,-3.21962 c 0.53377,-0.99735 0.97049,-2.87089 0.97049,-4.16342 0,-1.29253 0.42187,-2.61079 0.9375,-2.92946 0.57781,-0.35711 0.9375,1.24026 0.9375,4.16342 0,4.14516 -0.24044,4.74283 -1.90799,4.74283 -1.59585,0 -1.74922,-0.29665 -0.9375,-1.81337 z m -0.93416,-10.212 c 0.36085,-1.97333 0.96192,-4.08271 1.3357,-4.6875 0.37378,-0.6048 0.44377,-1.09963 0.15553,-1.09963 -0.79896,0 -3.97299,3.34852 -4.55432,4.80469 -0.28304,0.70898 -0.44069,-1.11618 -0.35033,-4.05592 0.10391,-3.38094 -0.16344,-5.01726 -0.72758,-4.45312 -1.28879,1.2888 -2.60511,1.09624 -1.91422,-0.28002 0.32356,-0.64454 -0.64307,0.21308 -2.14805,1.90582 -2.27773,2.56187 -2.9197,2.85676 -3.83038,1.75945 -0.60173,-0.72504 -0.81428,-2.04732 -0.47233,-2.93841 0.47571,-1.2397 0.20432,-1.53481 -1.15571,-1.25671 -1.06497,0.21776 -1.66699,1.00743 -1.50194,1.97008 0.16546,0.96502 -0.32626,1.60664 -1.23127,1.60664 -1.13518,0 -1.4343,-0.75136 -1.21297,-3.04687 l 0.29377,-3.04688 10.3125,0 10.3125,0 0.27746,6.8964 c 0.23111,5.7445 -0.004,7.10967 -1.40625,8.17331 -2.57889,1.9558 -2.89231,1.63244 -2.18211,-2.25133 z m -22.47035,-11.3712 c 0,-0.50185 0.84375,-1.36402 1.875,-1.91593 1.03125,-0.55191 1.875,-0.66823 1.875,-0.2585 0,0.40974 -0.84375,1.27191 -1.875,1.91593 -1.03864,0.64864 -1.875,0.76395 -1.875,0.2585 z"
         id="path4671"
         inkscape:connector-curvature="0" />
      <path
         style="fill:#745231"
         d="m 631.49762,761.84469 c 0,-0.80387 0.42187,-1.20084 0.9375,-0.88217 0.51562,0.31867 0.9375,0.97638 0.9375,1.46158 0,0.48519 -0.42188,0.88217 -0.9375,0.88217 -0.51563,0 -0.9375,-0.65771 -0.9375,-1.46158 z m 28.72348,0.0553 c 0.29679,-0.77344 0.70543,-1.40625 0.90807,-1.40625 0.20265,0 0.36845,0.63281 0.36845,1.40625 0,0.77344 -0.40863,1.40625 -0.90808,1.40625 -0.49944,0 -0.66524,-0.63281 -0.36844,-1.40625 z m -3.48877,-3.13589 c 0.55841,-1.0434 1.01529,-2.95462 1.01529,-4.24715 0,-1.29253 0.44663,-2.62609 0.99252,-2.96346 0.65981,-0.40779 0.8955,0.90645 0.70312,3.92061 -0.22445,3.51663 -0.67499,4.6073 -2.00781,4.86056 -1.45735,0.27692 -1.56417,0.0383 -0.70312,-1.57056 z m -0.86284,-10.44072 c 0.37543,-2.05307 1.21419,-4.37339 1.86391,-5.15625 0.97382,-1.17338 0.91414,-1.42339 -0.33974,-1.42339 -0.83657,0 -1.52104,0.61185 -1.52104,1.35967 0,0.74781 -0.57095,1.69703 -1.26878,2.10937 -0.69783,0.41234 -1.48977,1.38252 -1.75987,2.15596 -0.2701,0.77344 -0.50774,-0.70226 -0.52809,-3.27933 -0.0204,-2.57706 0.43483,-5.31925 1.01153,-6.09375 0.85529,-1.14865 0.81442,-1.20028 -0.22175,-0.28017 -0.91858,0.81568 -1.78098,0.85468 -3.1148,0.14084 -1.01448,-0.54294 -1.62282,-0.62845 -1.35186,-0.19003 0.27095,0.43841 -0.45087,1.9804 -1.60405,3.42662 -1.81247,2.27306 -2.25399,2.43998 -3.25707,1.23134 -0.86221,-1.03891 -0.89738,-1.88958 -0.13685,-3.31064 0.92896,-1.73577 0.8267,-1.838 -1.10682,-1.10643 -1.22876,0.46492 -2.01376,1.44731 -1.85487,2.3213 0.15634,0.85997 -0.35044,1.51525 -1.17187,1.51525 -0.97823,0 -1.44735,-0.89782 -1.44735,-2.77002 0,-2.38464 0.42389,-2.84836 3.04687,-3.33312 1.67579,-0.3097 6.42188,-0.43429 10.54688,-0.27685 l 7.5,0.28624 0.27746,6.8964 c 0.23111,5.7445 -0.004,7.10967 -1.40625,8.17331 -2.59216,1.96587 -2.89227,1.63224 -2.15559,-2.39632 z m -7.28482,-8.05969 c 0.89007,-0.92928 1.8201,-1.4878 2.06674,-1.24116 0.24664,0.24664 -0.4816,1.00696 -1.6183,1.68959 -1.97467,1.18586 -1.99464,1.16589 -0.44844,-0.44843 z m -15.21205,-3.22893 c 0,-0.53618 0.65101,-1.22468 1.44668,-1.53001 2.19879,-0.84376 2.45697,0.067 0.38568,1.36055 -1.15975,0.72428 -1.83236,0.78648 -1.83236,0.16946 z"
         id="path4669"
         inkscape:connector-curvature="0" />
      <path
         style="fill:#ac3a0c"
         d="m 631.49762,761.90002 c 0,-0.77344 0.1658,-1.40625 0.36845,-1.40625 0.20264,0 0.61128,0.63281 0.90807,1.40625 0.2968,0.77344 0.131,1.40625 -0.36844,1.40625 -0.49945,0 -0.90808,-0.63281 -0.90808,-1.40625 z m 28.72348,0 c 0.29679,-0.77344 0.70543,-1.40625 0.90807,-1.40625 0.20265,0 0.36845,0.63281 0.36845,1.40625 0,0.77344 -0.40863,1.40625 -0.90808,1.40625 -0.49944,0 -0.66524,-0.63281 -0.36844,-1.40625 z m -3.48877,-3.13589 c 0.55841,-1.0434 1.01529,-2.95462 1.01529,-4.24715 0,-1.29253 0.44663,-2.62609 0.99252,-2.96346 0.65981,-0.40779 0.8955,0.90645 0.70312,3.92061 -0.22445,3.51663 -0.67499,4.6073 -2.00781,4.86056 -1.45735,0.27692 -1.56417,0.0383 -0.70312,-1.57056 z m -0.86284,-10.44072 c 0.37543,-2.05307 1.21419,-4.37339 1.86391,-5.15625 0.97382,-1.17338 0.91414,-1.42339 -0.33974,-1.42339 -0.83657,0 -1.52104,0.61185 -1.52104,1.35967 0,0.74781 -0.57095,1.69703 -1.26878,2.10937 -0.69783,0.41234 -1.48653,1.38252 -1.75267,2.15596 -0.26613,0.77344 -0.51495,-0.83106 -0.55292,-3.56555 -0.0594,-4.27517 0.21905,-5.08784 1.98704,-5.79995 1.52506,-0.61427 1.64665,-0.8435 0.47078,-0.88758 -0.87191,-0.0327 -1.83464,0.34403 -2.1394,0.83714 -0.78861,1.27599 -3.42375,0.0684 -2.68211,-1.22917 0.35101,-0.6141 0.24839,-0.73925 -0.23976,-0.29239 -0.46939,0.42969 -0.8644,1.0625 -0.8778,1.40625 -0.0134,0.34375 -0.81678,1.81046 -1.78529,3.25935 -1.53452,2.29567 -1.93488,2.46039 -3.11402,1.28125 -1.05334,-1.05334 -1.1205,-1.78774 -0.30312,-3.31502 0.95971,-1.79325 0.86683,-1.89262 -1.08036,-1.15588 -1.22876,0.46492 -2.01376,1.44731 -1.85487,2.3213 0.15634,0.85997 -0.35044,1.51525 -1.17187,1.51525 -0.97823,0 -1.44735,-0.89782 -1.44735,-2.77002 0,-2.38464 0.42389,-2.84836 3.04687,-3.33312 1.67579,-0.3097 6.42188,-0.43429 10.54688,-0.27685 l 7.5,0.28624 0.27746,6.8964 c 0.23111,5.7445 -0.004,7.10967 -1.40625,8.17331 -2.59216,1.96587 -2.89227,1.63224 -2.15559,-2.39632 z m -7.28482,-8.05969 c 0.89007,-0.92928 1.8201,-1.4878 2.06674,-1.24116 0.24664,0.24664 -0.4816,1.00696 -1.6183,1.68959 -1.97467,1.18586 -1.99464,1.16589 -0.44844,-0.44843 z m -15.21205,-3.22893 c 0,-0.53618 0.65101,-1.22468 1.44668,-1.53001 2.19879,-0.84376 2.45697,0.067 0.38568,1.36055 -1.15975,0.72428 -1.83236,0.78648 -1.83236,0.16946 z"
         id="path4667"
         inkscape:connector-curvature="0" />
      <path
         style="fill:#934312"
         d="m 631.49762,761.90002 c 0,-0.77344 0.1658,-1.40625 0.36845,-1.40625 0.20264,0 0.61128,0.63281 0.90807,1.40625 0.2968,0.77344 0.131,1.40625 -0.36844,1.40625 -0.49945,0 -0.90808,-0.63281 -0.90808,-1.40625 z m 28.72348,0 c 0.29679,-0.77344 0.70543,-1.40625 0.90807,-1.40625 0.20265,0 0.36845,0.63281 0.36845,1.40625 0,0.77344 -0.40863,1.40625 -0.90808,1.40625 -0.49944,0 -0.66524,-0.63281 -0.36844,-1.40625 z m -3.48877,-3.13589 c 0.55841,-1.0434 1.01529,-2.95462 1.01529,-4.24715 0,-1.29253 0.44663,-2.62609 0.99252,-2.96346 0.65981,-0.40779 0.8955,0.90645 0.70312,3.92061 -0.22445,3.51663 -0.67499,4.6073 -2.00781,4.86056 -1.45735,0.27692 -1.56417,0.0383 -0.70312,-1.57056 z m -0.85971,-10.24926 c 0,-1.43215 0.65673,-3.54152 1.45941,-4.6875 1.32088,-1.88582 1.32088,-2.0836 0,-2.0836 -0.80268,0 -1.45941,0.58768 -1.45941,1.30595 0,1.87471 -2.55441,2.59386 -3.20366,0.90193 -1.09648,-2.85738 -0.50603,-5.097 1.56303,-5.92867 1.52833,-0.61431 1.67269,-0.86423 0.52408,-0.90729 -0.87191,-0.0327 -1.83464,0.34403 -2.1394,0.83714 -0.30475,0.4931 -1.17098,0.65983 -1.92494,0.37051 -0.75396,-0.28932 -1.09714,-0.96889 -0.76262,-1.51016 0.34296,-0.55492 0.16131,-0.70791 -0.41651,-0.3508 -0.5636,0.34833 -0.86178,1.47946 -0.66261,2.51364 0.19916,1.03418 -0.0407,1.63139 -0.533,1.32712 -0.49231,-0.30427 -1.13224,0.0647 -1.42206,0.81999 -0.51297,1.33678 -2.57614,1.56681 -3.72738,0.41557 -0.31451,-0.31451 -0.12311,-1.41032 0.42535,-2.43512 0.86257,-1.61172 0.74429,-1.79713 -0.87615,-1.37338 -1.03034,0.26944 -2.10261,0.86085 -2.38282,1.31423 -0.91116,1.47429 -2.27381,0.87011 -2.27381,-1.00818 0,-2.35189 3.57555,-3.05482 13.59375,-2.67247 l 7.5,0.28624 0.27851,6.94864 c 0.19742,4.92544 -0.0756,7.17325 -0.9375,7.72002 -2.05031,1.30061 -2.62226,0.90717 -2.62226,-1.80381 z m -22.5,-11.48008 c 0,-0.53618 0.65101,-1.22468 1.44668,-1.53001 2.19879,-0.84376 2.45697,0.067 0.38568,1.36055 -1.15975,0.72428 -1.83236,0.78648 -1.83236,0.16946 z"
         id="path4665"
         inkscape:connector-curvature="0" />
      <path
         style="fill:#784612"
         d="m 631.49762,761.90002 c 0,-0.77344 0.1658,-1.40625 0.36845,-1.40625 0.20264,0 0.61128,0.63281 0.90807,1.40625 0.2968,0.77344 0.131,1.40625 -0.36844,1.40625 -0.49945,0 -0.90808,-0.63281 -0.90808,-1.40625 z m 28.72348,0 c 0.29679,-0.77344 0.70543,-1.40625 0.90807,-1.40625 0.20265,0 0.36845,0.63281 0.36845,1.40625 0,0.77344 -0.40863,1.40625 -0.90808,1.40625 -0.49944,0 -0.66524,-0.63281 -0.36844,-1.40625 z m -2.36256,-3.4603 c 0.061,-1.19058 0.43297,-3.43032 0.82658,-4.9772 0.64236,-2.52442 0.72702,-2.36204 0.82658,1.5853 0.061,2.41879 -0.31096,4.65853 -0.82658,4.9772 -0.53086,0.32809 -0.88939,-0.35953 -0.82658,-1.5853 z m -1.42805,-10.80351 c 0.307,-1.95178 0.99154,-4.07603 1.5212,-4.72056 0.67601,-0.82264 0.62434,-1.17188 -0.17338,-1.17188 -0.62501,0 -1.87836,0.91629 -2.7852,2.03619 l -1.64881,2.0362 -0.68255,-2.7195 c -0.54463,-2.16996 -0.26819,-3.05502 1.36802,-4.37994 1.12781,-0.91325 1.50971,-1.66045 0.84865,-1.66045 -0.66105,0 -2.04593,0.73828 -3.07751,1.64063 -1.03157,0.90234 -1.56724,1.11328 -1.19036,0.46875 0.3785,-0.64733 0.21605,-1.17188 -0.36293,-1.17188 -0.57649,0 -0.74714,-0.48706 -0.37923,-1.08235 0.40103,-0.64887 0.25853,-0.82871 -0.35579,-0.44904 -0.5636,0.34833 -0.86561,1.45957 -0.67113,2.46943 0.19449,1.00986 0.0631,1.79478 -0.292,1.74427 -1.79165,-0.25489 -3.0419,0.22421 -2.57146,0.98539 0.41063,0.66441 -1.22131,0.74897 -2.97281,0.15403 -0.11615,-0.0394 0.18982,-1.12642 0.67992,-2.41548 1.01183,-2.66132 0.24796,-2.96933 -2.39894,-0.96732 -2.46629,1.86541 -3.22606,1.77204 -3.22606,-0.39645 0,-2.35189 3.57555,-3.05482 13.59375,-2.67247 l 7.5,0.28624 0.27435,6.7425 c 0.24353,5.98506 0.0592,6.85763 -1.64078,7.76744 -1.8072,0.96718 -1.88367,0.82497 -1.35695,-2.52375 z m -23.05787,-10.40982 c 0,-1.13302 1.77862,-2.454 2.42878,-1.80384 0.23597,0.23597 -0.21398,0.96268 -0.99987,1.61492 -0.89099,0.73945 -1.42891,0.81057 -1.42891,0.18892 z"
         id="path4663"
         inkscape:connector-curvature="0" />
      <path
         style="fill:#90320d"
         d="m 631.49762,761.90002 c 0,-0.77344 0.1658,-1.40625 0.36845,-1.40625 0.20264,0 0.61128,0.63281 0.90807,1.40625 0.2968,0.77344 0.131,1.40625 -0.36844,1.40625 -0.49945,0 -0.90808,-0.63281 -0.90808,-1.40625 z m 28.59375,0.46875 c 0.31867,-0.51562 0.76545,-0.9375 0.99283,-0.9375 0.22738,0 0.41342,0.42188 0.41342,0.9375 0,0.51563 -0.44677,0.9375 -0.99283,0.9375 -0.54605,0 -0.73209,-0.42187 -0.41342,-0.9375 z m -2.21847,-4.21875 c 0.0531,-1.03125 0.41861,-3.14062 0.81222,-4.6875 l 0.71566,-2.8125 0.0966,3.28125 c 0.0531,1.80469 -0.31239,3.91406 -0.81222,4.6875 -0.74775,1.15706 -0.89168,1.074 -0.81222,-0.46875 z m -1.43897,-10.51381 c 0.67092,-4.23939 1.15301,-5.1649 2.31597,-4.44615 1.66225,1.02733 0.95752,5.94235 -1.00243,6.99129 -1.75772,0.9407 -1.83998,0.78132 -1.31354,-2.54514 z m -3.77218,-4.53955 c -0.54463,-2.16996 -0.26819,-3.05502 1.36802,-4.37994 1.7606,-1.42565 1.8185,-1.66045 0.40944,-1.66045 -0.90263,0 -2.24627,0.73828 -2.98589,1.64063 -0.73961,0.90234 -1.07762,1.11328 -0.75114,0.46875 0.32648,-0.64454 0.12193,-1.17188 -0.45456,-1.17188 -0.57649,0 -0.74714,-0.48706 -0.37923,-1.08235 0.40103,-0.64887 0.25853,-0.82871 -0.35579,-0.44904 -0.5636,0.34833 -0.86561,1.45957 -0.67113,2.46943 0.19449,1.00986 0.0631,1.79478 -0.292,1.74427 -1.79165,-0.25489 -3.0419,0.22421 -2.57146,0.98539 0.41063,0.66441 -1.22131,0.74897 -2.97281,0.15403 -0.11615,-0.0394 0.20068,-1.15498 0.70405,-2.47895 0.84408,-2.2201 0.75119,-2.35622 -1.19508,-1.75108 -1.16066,0.36088 -2.25093,1.02226 -2.4228,1.46972 -0.58499,1.523 -2.03125,0.8203 -2.03125,-0.98693 0,-2.30797 2.7966,-2.86466 13.125,-2.61266 l 7.96875,0.19442 0.29377,3.04688 c 0.22439,2.32719 -0.0723,3.04687 -1.25597,3.04687 -0.85236,0 -2.29172,0.91629 -3.19856,2.03619 l -1.64881,2.0362 -0.68255,-2.7195 z m -18.82038,-6.97789 c 0.31867,-0.51562 1.00128,-0.9375 1.51691,-0.9375 0.51562,0 0.67676,0.42188 0.35809,0.9375 -0.31867,0.51563 -1.00128,0.9375 -1.51691,0.9375 -0.51562,0 -0.67676,-0.42187 -0.35809,-0.9375 z"
         id="path4661"
         inkscape:connector-curvature="0" />
      <path
         style="fill:#712b08"
         d="m 631.49762,761.90002 c 0,-0.77344 0.1658,-1.40625 0.36845,-1.40625 0.20264,0 0.61128,0.63281 0.90807,1.40625 0.2968,0.77344 0.131,1.40625 -0.36844,1.40625 -0.49945,0 -0.90808,-0.63281 -0.90808,-1.40625 z m 28.59375,0.46875 c 0.31867,-0.51562 0.76545,-0.9375 0.99283,-0.9375 0.22738,0 0.41342,0.42188 0.41342,0.9375 0,0.51563 -0.44677,0.9375 -0.99283,0.9375 -0.54605,0 -0.73209,-0.42187 -0.41342,-0.9375 z m -1.78541,-6.09375 c 0.77871,-4.65068 1.32122,-5.39921 1.3023,-1.79688 -0.008,1.50391 -0.44542,3.36719 -0.97228,4.14063 -0.68636,1.0076 -0.77992,0.34318 -0.33002,-2.34375 z m -1.49081,-9.39729 c 0.92191,-4.08765 1.63031,-4.97436 2.39079,-2.99257 0.93388,2.43365 0.0514,5.7885 -1.60569,6.10414 -1.32469,0.25233 -1.44038,-0.20617 -0.7851,-3.11157 z m -4.25797,-4.30418 c -0.50824,-1.60131 -0.12781,-2.56732 1.55572,-3.95037 l 2.22847,-1.83073 -3.60791,0.66045 c -2.72271,0.49842 -3.43472,0.38023 -2.90202,-0.48169 0.45404,-0.73466 0.31427,-0.90011 -0.39176,-0.46376 -0.60371,0.37311 -0.87277,1.04224 -0.59792,1.48695 0.51124,0.82721 -3.02481,3.74937 -4.53703,3.74937 -0.46101,0 -0.63658,-1.05469 -0.39016,-2.34375 0.51501,-2.69409 0.6348,-2.62593 -2.51217,-1.42945 -1.89901,0.722 -2.40478,0.62717 -2.40478,-0.45089 0,-1.84588 2.75343,-2.31428 12.1875,-2.07325 l 7.96875,0.20359 0.29377,3.04688 c 0.22942,2.37939 -0.0625,3.04687 -1.33243,3.04687 -0.89441,0 -2.35949,0.66362 -3.25574,1.47471 -1.49761,1.35532 -1.68401,1.30311 -2.30229,-0.64493 z m -18.71581,-6.45478 c 0.31867,-0.51562 1.00128,-0.9375 1.51691,-0.9375 0.51562,0 0.67676,0.42188 0.35809,0.9375 -0.31867,0.51563 -1.00128,0.9375 -1.51691,0.9375 -0.51562,0 -0.67676,-0.42187 -0.35809,-0.9375 z"
         id="path4659"
         inkscape:connector-curvature="0" />
      <path
         style="fill:#681900"
         d="m 631.49762,761.90002 c 0,-0.77344 0.1658,-1.40625 0.36845,-1.40625 0.20264,0 0.61128,0.63281 0.90807,1.40625 0.2968,0.77344 0.131,1.40625 -0.36844,1.40625 -0.49945,0 -0.90808,-0.63281 -0.90808,-1.40625 z m 28.59375,0.46875 c 0.31867,-0.51562 0.76545,-0.9375 0.99283,-0.9375 0.22738,0 0.41342,0.42188 0.41342,0.9375 0,0.51563 -0.44677,0.9375 -0.99283,0.9375 -0.54605,0 -0.73209,-0.42187 -0.41342,-0.9375 z m -2.75903,-14.82337 c 0.0582,-1.32947 0.59732,-2.58106 1.19805,-2.7813 1.5083,-0.50277 1.40419,4.15935 -0.10582,4.7388 -0.79538,0.30522 -1.16248,-0.35269 -1.09223,-1.9575 z m -3.91451,-5.38157 c 0.32015,-0.83431 0.16298,-1.21062 -0.36845,-0.88217 -1.89373,1.17039 -0.84872,-1.36436 1.18261,-2.86851 2.07742,-1.53828 2.0558,-1.55413 -1.42725,-1.04619 -2.43226,0.35469 -3.33847,0.1951 -2.90203,-0.51107 0.38094,-0.61637 0.20196,-0.75943 -0.44774,-0.35789 -0.59529,0.36791 -1.08235,1.17536 -1.08235,1.79434 0,0.61897 -0.84375,1.65234 -1.875,2.29636 -1.9293,1.20487 -2.3428,0.70302 -1.94498,-2.36055 0.18321,-1.4109 -0.0637,-1.43108 -3.15024,-0.25758 -1.32263,0.50286 -2.40478,0.55452 -2.40478,0.11479 0,-1.9876 2.98184,-2.6646 11.25,-2.55423 l 8.90625,0.11889 0.29377,3.04688 c 0.24315,2.52178 -0.03,3.04687 -1.58529,3.04687 -1.03349,0 -2.13981,0.42188 -2.45848,0.9375 -0.93301,1.50965 -2.5975,1.07599 -1.98604,-0.51744 z"
         id="path4657"
         inkscape:connector-curvature="0" />
      <path
         style="fill:#542704"
         d="m 631.49762,761.90002 c 0,-0.77344 0.1658,-1.40625 0.36845,-1.40625 0.20264,0 0.61128,0.63281 0.90807,1.40625 0.2968,0.77344 0.131,1.40625 -0.36844,1.40625 -0.49945,0 -0.90808,-0.63281 -0.90808,-1.40625 z m 28.59375,0.46875 c 0.31867,-0.51562 0.76545,-0.9375 0.99283,-0.9375 0.22738,0 0.41342,0.42188 0.41342,0.9375 0,0.51563 -0.44677,0.9375 -0.99283,0.9375 -0.54605,0 -0.73209,-0.42187 -0.41342,-0.9375 z m -2.32939,-14.29687 c 0.008,-0.64454 0.42331,-1.80469 0.92314,-2.57813 0.70817,-1.09582 0.91196,-0.83713 0.92314,1.17188 0.008,1.41796 -0.40752,2.57812 -0.92314,2.57812 -0.51563,0 -0.93104,-0.52734 -0.92314,-1.17187 z m -4.34317,-7.22397 c 0.0605,-1.09285 0.74287,-2.42799 1.51631,-2.96697 1.0455,-0.72858 0.49899,-0.85405 -2.13038,-0.48911 -2.42655,0.33678 -3.33744,0.16856 -2.90203,-0.53596 0.38094,-0.61637 0.20196,-0.75943 -0.44774,-0.35789 -0.59529,0.36791 -1.08235,1.17536 -1.08235,1.79434 0,0.61897 -0.84375,1.65234 -1.875,2.29636 -1.69564,1.05895 -1.875,0.93628 -1.875,-1.28237 0,-2.17339 -0.2779,-2.38358 -2.43551,-1.84205 -1.76641,0.44334 -2.32477,0.27809 -2.03243,-0.60149 0.29361,-0.88341 2.92822,-1.21277 9.70113,-1.21277 l 9.29806,0 0.29377,3.04688 c 0.19627,2.03554 -0.11491,3.05112 -0.9375,3.05967 -0.6772,0.007 -2.12455,0.25255 -3.21633,0.54558 -1.58375,0.42508 -1.96281,0.13109 -1.875,-1.45422 z"
         id="path4655"
         inkscape:connector-curvature="0" />
      <path
         style="fill:#4f1301"
         d="m 631.49762,762.31344 c 0,-0.54605 0.42187,-0.73209 0.9375,-0.41342 0.51562,0.31867 0.9375,0.76545 0.9375,0.99283 0,0.22738 -0.42188,0.41342 -0.9375,0.41342 -0.51563,0 -0.9375,-0.44677 -0.9375,-0.99283 z m 28.59375,0.0553 c 0.31867,-0.51562 0.76545,-0.9375 0.99283,-0.9375 0.22738,0 0.41342,0.42188 0.41342,0.9375 0,0.51563 -0.44677,0.9375 -0.99283,0.9375 -0.54605,0 -0.73209,-0.42187 -0.41342,-0.9375 z m -2.34375,-13.95184 c 0,-0.51563 0.42187,-1.19824 0.9375,-1.51691 0.51562,-0.31867 0.9375,-0.15753 0.9375,0.35809 0,0.51563 -0.42188,1.19824 -0.9375,1.51691 -0.51563,0.31867 -0.9375,0.15753 -0.9375,-0.35809 z m -3.88428,-6.57033 c 1.00708,-0.63812 1.02632,-0.95777 0.0924,-1.535 -0.88971,-0.54986 -0.7415,-1.06711 0.60303,-2.10465 1.63827,-1.26421 1.49621,-1.33305 -1.75398,-0.84993 -2.43456,0.36187 -3.33888,0.20571 -2.90203,-0.50113 0.38094,-0.61637 0.20196,-0.75943 -0.44774,-0.35789 -0.59529,0.36791 -1.08235,1.17536 -1.08235,1.79434 0,0.61897 -0.84375,1.65234 -1.875,2.29636 -1.67168,1.04398 -1.875,0.93628 -1.875,-0.99324 0,-3.30893 1.78829,-4.41419 7.14207,-4.41419 6.36193,0 7.85793,0.6482 7.85793,3.40476 0,1.57047 -0.7386,2.54746 -2.40478,3.18094 -3.03212,1.15281 -5.12667,1.20253 -3.3545,0.0796 z m -13.92822,-4.63408 c 0,-1.34419 1.06501,-1.92347 2.51401,-1.36744 1.13561,0.43577 1.16199,0.68118 0.14272,1.3273 -1.60307,1.01619 -2.65673,1.03211 -2.65673,0.0401 z"
         id="path4653"
         inkscape:connector-curvature="0" />
      <path
         style="fill:#362306"
         d="m 631.49762,762.31344 c 0,-0.54605 0.42187,-0.73209 0.9375,-0.41342 0.51562,0.31867 0.9375,0.76545 0.9375,0.99283 0,0.22738 -0.42188,0.41342 -0.9375,0.41342 -0.51563,0 -0.9375,-0.44677 -0.9375,-0.99283 z m 28.59375,0.0553 c 0.31867,-0.51562 0.76545,-0.9375 0.99283,-0.9375 0.22738,0 0.41342,0.42188 0.41342,0.9375 0,0.51563 -0.44677,0.9375 -0.99283,0.9375 -0.54605,0 -0.73209,-0.42187 -0.41342,-0.9375 z M 654.22998,740.469 c -0.0807,-1.07179 0.3613,-2.30801 0.9823,-2.74715 0.68345,-0.4833 -0.0735,-0.65129 -1.91779,-0.42562 -1.67578,0.20504 -3.04687,-0.0335 -3.04687,-0.53017 0,-0.49663 -1.14817,0.2452 -2.55149,1.64852 -2.68884,2.68884 -3.90805,1.95278 -2.16383,-1.30634 0.85751,-1.60226 1.9341,-1.92455 6.38893,-1.91261 2.9467,0.008 5.92189,0.37201 6.61154,0.80914 2.06431,1.30848 0.91502,5.06595 -1.76745,5.77848 -1.97429,0.52442 -2.414,0.29649 -2.53534,-1.31425 z"
         id="path4651"
         inkscape:connector-curvature="0" />
      <path
         style="fill:#310e00"
         d="m 654.37529,740.43709 c -0.0133,-1.08601 0.42368,-2.32087 0.97098,-2.74412 0.55583,-0.42985 -0.33984,-0.60646 -2.02904,-0.40008 -2.34398,0.28637 -2.80462,0.10495 -2.04807,-0.80663 1.25631,-1.51377 6.18416,-1.38297 7.49707,0.199 1.58647,1.91157 0.61635,4.39375 -1.98959,5.09066 -1.98964,0.53209 -2.38117,0.3138 -2.40135,-1.33883 z m -9.75267,-0.96216 c 0,-1.46017 2.46098,-4.29366 3.7292,-4.29366 1.38012,0 -0.0361,3.3345 -1.9144,4.50753 -1.4786,0.9234 -1.8148,0.88378 -1.8148,-0.21387 z"
         id="path4649"
         inkscape:connector-curvature="0" />
      <path
         style="fill:#130000"
         d="m 654.93512,739.72567 c 0,-1.16807 0.4015,-1.59442 1.09682,-1.16469 0.73749,0.4558 0.90069,0.16679 0.49817,-0.88217 -0.39089,-1.01863 -0.12082,-1.56004 0.77818,-1.56004 2.17282,0 1.73326,4.37561 -0.49817,4.95914 -1.40532,0.3675 -1.875,0.0288 -1.875,-1.35224 z m -8.4375,-2.6694 c 0,-0.51562 0.42187,-0.9375 0.9375,-0.9375 0.51562,0 0.9375,0.42188 0.9375,0.9375 0,0.51563 -0.42188,0.9375 -0.9375,0.9375 -0.51563,0 -0.9375,-0.42187 -0.9375,-0.9375 z"
         id="path4647"
         inkscape:connector-curvature="0" />
    </g>
    <rect
       style="opacity:0.95400002;fill:none;fill-opacity:1;fill-rule:evenodd;stroke:#12f600;stroke-width:14.5150919;stroke-linecap:round;stroke-linejoin:round;stroke-miterlimit:4;stroke-dasharray:none;stroke-dashoffset:0;stroke-opacity:1"
       id="rect6205"
       width="195.02061"
       height="195.02061"
       x="25.489689"
       y="30.851904" />
  </g>
</svg>
