<?xml version="1.0" encoding="UTF-8" standalone="no"?>
<!-- Created with Inkscape (http://www.inkscape.org/) -->

<svg
   xmlns:dc="http://purl.org/dc/elements/1.1/"
   xmlns:cc="http://creativecommons.org/ns#"
   xmlns:rdf="http://www.w3.org/1999/02/22-rdf-syntax-ns#"
   xmlns:svg="http://www.w3.org/2000/svg"
   xmlns="http://www.w3.org/2000/svg"
   xmlns:sodipodi="http://sodipodi.sourceforge.net/DTD/sodipodi-0.dtd"
   xmlns:inkscape="http://www.inkscape.org/namespaces/inkscape"
   width="59.135632mm"
   height="59.135632mm"
   viewBox="0 0 209.5357 209.5357"
   id="svg5492"
   version="1.1"
   inkscape:version="0.91 r13725"
   sodipodi:docname="sort6.svg">
  <defs
     id="defs5494" />
  <sodipodi:namedview
     id="base"
     pagecolor="#ffffff"
     bordercolor="#666666"
     borderopacity="1.0"
     inkscape:pageopacity="0.0"
     inkscape:pageshadow="2"
     inkscape:zoom="1"
     inkscape:cx="-64.660714"
     inkscape:cy="-139.23214"
     inkscape:document-units="px"
     inkscape:current-layer="layer1"
     showgrid="false"
     fit-margin-top="0"
     fit-margin-left="0"
     fit-margin-right="0"
     fit-margin-bottom="0"
     inkscape:window-width="1920"
     inkscape:window-height="1138"
     inkscape:window-x="-8"
     inkscape:window-y="-8"
     inkscape:window-maximized="1" />
  <metadata
     id="metadata5497">
    <rdf:RDF>
      <cc:Work
         rdf:about="">
        <dc:format>image/svg+xml</dc:format>
        <dc:type
           rdf:resource="http://purl.org/dc/dcmitype/StillImage" />
        <dc:title></dc:title>
      </cc:Work>
    </rdf:RDF>
  </metadata>
  <g
     inkscape:label="Layer 1"
     inkscape:groupmode="layer"
     id="layer1"
     transform="translate(-18.232143,-23.594358)">
    <g
       id="g4343"
       transform="matrix(6.661104,0,0,6.661104,-3314.1743,-4883.7118)">
      <path
         style="fill:#fef9a6"
         d="m 501.18796,752.34686 0,-15 15,0 15,0 0,15 0,15 -15,0 -15,0 0,-15 z m 6.30859,-11.81641 c -0.31152,-0.31152 -1.12011,-0.34483 -1.79687,-0.074 -0.74788,0.29928 -0.52573,0.52142 0.56641,0.56641 0.98828,0.0407 1.54199,-0.18087 1.23046,-0.4924 z"
         id="path4441"
         inkscape:connector-curvature="0" />
      <path
         style="fill:#fef38d"
         d="m 501.18796,752.34686 0,-15 15,0 15,0 0,15 0,15 -15,0 -15,0 0,-15 z m 19.51172,-4.62891 c 0.23437,-0.70312 -0.11719,-1.05468 -0.82031,-0.82031 -0.67676,0.22559 -1.41504,0.96387 -1.64063,1.64063 -0.23437,0.70312 0.11719,1.05468 0.82031,0.82031 0.67676,-0.22559 1.41504,-0.96387 1.64063,-1.64063 z m -13.20313,-7.1875 c -0.31152,-0.31152 -1.12011,-0.34483 -1.79687,-0.074 -0.74788,0.29928 -0.52573,0.52142 0.56641,0.56641 0.98828,0.0407 1.54199,-0.18087 1.23046,-0.4924 z"
         id="path4439"
         inkscape:connector-curvature="0" />
      <path
         style="fill:#fde579"
         d="m 501.18796,752.34686 0,-15 15,0 15,0 0,15 0,15 -15,0 -15,0 0,-15 z m 15.11907,-0.23438 c 1.47878,-2.74323 0.36049,-1.85138 -2.93882,2.34375 -2.75056,3.49741 -2.81651,3.69793 -0.53957,1.64063 1.42669,-1.28906 2.99197,-3.08203 3.47839,-3.98438 z m 5.50593,-4.48611 c 0,-0.49748 -0.84375,-0.90451 -1.875,-0.90451 -1.26081,0 -1.875,0.625 -1.875,1.90799 0,1.61747 0.28549,1.75519 1.875,0.90451 1.03125,-0.55191 1.875,-1.4105 1.875,-1.90799 z m -14.31641,-7.09592 c -0.31152,-0.31152 -1.12011,-0.34483 -1.79687,-0.074 -0.74788,0.29928 -0.52573,0.52142 0.56641,0.56641 0.98828,0.0407 1.54199,-0.18087 1.23046,-0.4924 z"
         id="path4437"
         inkscape:connector-curvature="0" />
      <path
         style="fill:#f7cc86"
         d="m 501.18796,752.34686 0,-15 15,0 15,0 0,15 0,15 -15,0 -15,0 0,-15 z m 14.33684,1.43561 c 1.43995,-1.82083 3.20202,-3.31061 3.91571,-3.31061 0.71369,0 1.96133,-1.33044 2.77254,-2.95654 1.75981,-3.52763 1.84503,-4.54346 0.38116,-4.54346 -0.60156,0 -0.81616,0.27759 -0.47688,0.61687 0.72669,0.72669 -1.07785,3.13313 -2.34949,3.13313 -0.48292,0 -0.6173,-0.42188 -0.29863,-0.9375 0.31867,-0.51563 0.13263,-0.9375 -0.41342,-0.9375 -0.54606,0 -0.99283,0.8762 -0.99283,1.94712 0,1.07091 -1.24611,3.19322 -2.76913,4.71624 -1.52302,1.52302 -3.69923,4.07534 -4.83602,5.67181 l -2.06689,2.90269 2.25789,-1.49582 c 1.24185,-0.82269 3.43604,-2.98559 4.87599,-4.80643 z m -8.02825,-13.25202 c -0.31152,-0.31152 -1.12011,-0.34483 -1.79687,-0.074 -0.74788,0.29928 -0.52573,0.52142 0.56641,0.56641 0.98828,0.0407 1.54199,-0.18087 1.23046,-0.4924 z"
         id="path4435"
         inkscape:connector-curvature="0" />
      <path
         style="fill:#fbd073"
         d="m 501.18791,752.58123 -6e-5,-14.76562 14.99987,0 14.99987,0 1.8e-4,14.76562 1.9e-4,14.76563 -15,0 -15,0 -5e-5,-14.76563 z m 14.33689,1.20124 c 1.43995,-1.82083 3.20202,-3.31061 3.91571,-3.31061 0.71369,0 1.96133,-1.33044 2.77254,-2.95654 1.75981,-3.52763 1.84503,-4.54346 0.38116,-4.54346 -0.60156,0 -0.81616,0.27759 -0.47688,0.61687 0.72669,0.72669 -1.07785,3.13313 -2.34949,3.13313 -0.48292,0 -0.6173,-0.42188 -0.29863,-0.9375 0.31867,-0.51563 0.13263,-0.9375 -0.41342,-0.9375 -0.54606,0 -0.99283,0.8762 -0.99283,1.94712 0,1.07091 -1.24611,3.19322 -2.76913,4.71624 -1.52302,1.52302 -3.69923,4.07534 -4.83602,5.67181 l -2.06689,2.90269 2.25789,-1.49582 c 1.24185,-0.82269 3.43604,-2.98559 4.87599,-4.80643 z m -8.02825,-13.25202 c -0.31152,-0.31152 -1.12011,-0.34483 -1.79687,-0.074 -0.74788,0.29928 -0.52573,0.52142 0.56641,0.56641 0.98828,0.0407 1.54199,-0.18087 1.23046,-0.4924 z"
         id="path4433"
         inkscape:connector-curvature="0" />
      <path
         style="fill:#f7c951"
         d="m 501.18796,752.58123 0,-14.76562 15,0 15,0 0,14.76562 0,14.76563 -15,0 -15,0 0,-14.76563 z m 14.56677,1.04605 c 1.38369,-1.73548 3.31285,-3.15542 4.28702,-3.15542 0.97416,0 1.77121,-0.61108 1.77121,-1.35795 0,-0.74687 1.05469,-2.49597 2.34375,-3.88689 2.95912,-3.19295 2.98866,-4.2581 0.08,-2.88544 -1.24505,0.58756 -2.06689,1.38679 -1.82631,1.77605 0.24058,0.38927 -0.11184,0.50207 -0.78315,0.25067 -0.67132,-0.25139 -2.4862,0.38347 -4.03307,1.41081 -2.01269,1.33671 -2.34594,1.86965 -1.17188,1.87407 2.25219,0.008 2.07415,1.94335 -0.23437,2.54704 -1.03125,0.26968 -1.875,0.89746 -1.875,1.39508 0,0.49761 -1.58203,2.85016 -3.51563,5.22789 l -3.51562,4.32313 2.97861,-2.18181 c 1.63823,-1.2 4.11072,-3.60175 5.49441,-5.33723 z m -8.25818,-13.09683 c -0.31152,-0.31152 -1.12011,-0.34483 -1.79687,-0.074 -0.74788,0.29928 -0.52573,0.52142 0.56641,0.56641 0.98828,0.0407 1.54199,-0.18087 1.23046,-0.4924 z"
         id="path4431"
         inkscape:connector-curvature="0" />
      <path
         style="fill:#f2c03d"
         d="m 501.18796,752.58123 0,-14.76562 15,0 15,0 0,14.76562 0,14.76563 -15,0 -15,0 0,-14.76563 z m 10.7265,5.03665 c 1.79334,-1.74157 3.91039,-3.41583 4.70455,-3.72058 0.79417,-0.30475 1.44395,-1.20015 1.44395,-1.98977 0,-0.81067 0.81625,-1.43567 1.875,-1.43567 1.03125,0 1.875,-0.42188 1.875,-0.9375 0,-0.51563 0.60438,-0.9375 1.34307,-0.9375 0.73869,0 1.61592,-0.94922 1.94939,-2.10938 1.73456,-6.03456 1.72387,-5.89155 0.3584,-4.79488 -0.71891,0.57738 -2.3618,1.37038 -3.65086,1.76223 -2.84484,0.86478 -7.29792,4.20453 -5.60613,4.20453 0.86252,0 0.76436,0.49157 -0.34232,1.71444 -0.85335,0.94295 -1.55155,2.12341 -1.55155,2.62326 0,0.49984 -1.46317,2.36506 -3.25148,4.14493 -2.97878,2.96471 -4.01209,4.64237 -2.85932,4.64237 0.24843,0 1.91897,-1.42492 3.7123,-3.16648 z m 11.45689,-6.4429 c -0.26008,-0.64453 -0.47286,-0.11718 -0.47286,1.17188 0,1.28906 0.21278,1.81641 0.47286,1.17187 0.26007,-0.64453 0.26007,-1.69921 0,-2.34375 z m -15.8748,-10.64453 c -0.31152,-0.31152 -1.12011,-0.34483 -1.79687,-0.074 -0.74788,0.29928 -0.52573,0.52142 0.56641,0.56641 0.98828,0.0407 1.54199,-0.18087 1.23046,-0.4924 z"
         id="path4429"
         inkscape:connector-curvature="0" />
      <path
         style="fill:#e1a766"
         d="m 501.18796,752.58123 0,-14.76562 15,0 15,0 0,14.76562 0,14.76563 -15,0 -15,0 0,-14.76563 z m 10.7265,5.03665 c 1.79334,-1.74157 3.91039,-3.41583 4.70455,-3.72058 0.79417,-0.30475 1.44395,-1.17393 1.44395,-1.9315 0,-0.79949 0.78669,-1.31815 1.875,-1.23617 1.12289,0.0846 1.875,0.81332 1.875,1.81673 0,0.92153 0.42187,1.6755 0.9375,1.6755 0.51562,0 0.9375,-1.08242 0.9375,-2.40538 0,-1.32296 0.36352,-3.11593 0.80781,-3.98438 0.4443,-0.86844 1.10364,-2.81282 1.4652,-4.32083 0.52555,-2.19196 0.41055,-2.544 -0.57343,-1.75537 -0.67696,0.54257 -2.28552,1.30708 -3.57458,1.69893 -2.99921,0.9117 -7.27763,4.19438 -5.51706,4.23304 0.89505,0.0197 0.78873,0.32531 -0.34232,0.98408 -0.90234,0.52557 -1.64062,1.6932 -1.64062,2.59475 0,0.90154 -1.46317,3.09542 -3.25148,4.87529 -2.97878,2.96471 -4.01209,4.64237 -2.85932,4.64237 0.24843,0 1.91897,-1.42492 3.7123,-3.16648 z m -4.41791,-17.08743 c -0.31152,-0.31152 -1.12011,-0.34483 -1.79687,-0.074 -0.74788,0.29928 -0.52573,0.52142 0.56641,0.56641 0.98828,0.0407 1.54199,-0.18087 1.23046,-0.4924 z"
         id="path4427"
         inkscape:connector-curvature="0" />
      <path
         style="fill:#ebab4f"
         d="m 501.18796,752.329 0,-15.01786 2.10937,0.45171 c 4.63434,0.99242 26.01563,1.41 26.01563,0.50809 0,-0.50824 0.42187,-0.92408 0.9375,-0.92408 0.58594,0 0.9375,5.625 0.9375,15 l 0,15 -15,0 -15,0 0,-15.01786 z m 1.55839,6.34598 c -0.26008,-0.64453 -0.47286,-0.11718 -0.47286,1.17188 0,1.28906 0.21278,1.81641 0.47286,1.17187 0.26007,-0.64453 0.26007,-1.69921 0,-2.34375 z m 9.16811,-1.0571 c 1.79334,-1.74157 3.91039,-3.41583 4.70455,-3.72058 0.79417,-0.30475 1.44395,-1.17393 1.44395,-1.9315 0,-0.79949 0.78669,-1.31815 1.875,-1.23617 1.12289,0.0846 1.875,0.81332 1.875,1.81673 0,0.92153 0.42187,1.6755 0.9375,1.6755 0.51562,0 0.9375,-1.08242 0.9375,-2.40538 0,-1.32296 0.36352,-3.11593 0.80781,-3.98438 0.4443,-0.86844 1.10364,-2.81282 1.4652,-4.32083 0.52555,-2.19196 0.41055,-2.544 -0.57343,-1.75537 -0.67696,0.54257 -2.28552,1.30708 -3.57458,1.69893 -2.99921,0.9117 -7.27763,4.19438 -5.51706,4.23304 0.89505,0.0197 0.78873,0.32531 -0.34232,0.98408 -0.90234,0.52557 -1.64062,1.6932 -1.64062,2.59475 0,0.90154 -1.46317,3.09542 -3.25148,4.87529 -2.97878,2.96471 -4.01209,4.64237 -2.85932,4.64237 0.24843,0 1.91897,-1.42492 3.7123,-3.16648 z m -4.41791,-17.08743 c -0.31152,-0.31152 -1.12011,-0.34483 -1.79687,-0.074 -0.74788,0.29928 -0.52573,0.52142 0.56641,0.56641 0.98828,0.0407 1.54199,-0.18087 1.23046,-0.4924 z"
         id="path4425"
         inkscape:connector-curvature="0" />
      <path
         style="fill:#d4a567"
         d="m 501.24738,764.76873 c 0.0571,-2.47817 0.0923,-2.49634 0.90729,-0.46875 1.24085,3.08705 1.43629,2.62797 0.99779,-2.34375 -0.32782,-3.71693 -0.50723,-4.06565 -1.08518,-2.10937 -0.39006,1.32029 -0.73323,-3.08837 -0.78587,-10.09599 -0.0934,-12.43031 -0.0919,-12.43939 2.01592,-11.98802 4.63434,0.99242 26.01563,1.41 26.01563,0.50809 0,-0.50824 0.42187,-0.92408 0.9375,-0.92408 0.58594,0 0.9375,5.625 0.9375,15 l 0,15 -15,0 -15,0 0.0594,-2.57813 z m 8.59565,-4.92187 c 0.64402,-1.03125 1.52924,-1.875 1.96714,-1.875 1.24362,0 6.25279,-5.02041 6.25279,-6.26682 0,-0.61416 0.84375,-1.05309 1.875,-0.97541 1.30209,0.0981 1.875,0.81332 1.875,2.34081 0,3.6503 1.61387,1.47887 2.80016,-3.76756 0.61245,-2.70863 1.34851,-5.76521 1.63568,-6.79242 0.41987,-1.50188 0.26613,-1.66205 -0.78498,-0.81786 -0.71891,0.57738 -2.3618,1.37038 -3.65086,1.76223 -2.25945,0.68683 -6.10174,3.23878 -6.33046,4.20453 -0.57207,2.41553 -2.03682,4.88733 -5.07703,8.56761 -1.97588,2.39187 -3.59251,4.60671 -3.59251,4.92187 0,1.28244 1.93543,0.45081 3.03007,-1.30198 z m -2.34648,-19.31641 c -0.31152,-0.31152 -1.12011,-0.34483 -1.79687,-0.074 -0.74788,0.29928 -0.52573,0.52142 0.56641,0.56641 0.98828,0.0407 1.54199,-0.18087 1.23046,-0.4924 z"
         id="path4423"
         inkscape:connector-curvature="0" />
      <path
         style="fill:#d8a757"
         d="m 501.24738,764.76873 c 0.0571,-2.47817 0.0923,-2.49634 0.90729,-0.46875 1.24085,3.08705 1.43629,2.62797 0.99779,-2.34375 -0.32782,-3.71693 -0.50723,-4.06565 -1.08518,-2.10937 -0.39018,1.32073 -0.73321,-3.07827 -0.78587,-10.07813 -0.0581,-7.71855 0.26152,-12.42187 0.84405,-12.42187 0.51562,0 0.9375,0.3527 0.9375,0.78378 0,0.43109 5.68599,0.8223 12.63553,0.86937 6.94954,0.0471 13.0619,0.34909 13.58301,0.67116 0.5546,0.34276 0.71597,-0.0177 0.38917,-0.86937 -0.30707,-0.80022 -0.0913,-1.45494 0.47949,-1.45494 1.52291,0 1.39459,13.76228 -0.13408,14.37911 -0.9375,0.37829 -0.9375,0.48767 0,0.54688 0.83368,0.0527 1.17188,2.23848 1.17188,7.57401 l 0,7.5 -15,0 -15,0 0.0594,-2.57813 z m 8.59565,-4.92187 c 0.64402,-1.03125 1.52924,-1.875 1.96714,-1.875 1.24362,0 6.25279,-5.02041 6.25279,-6.26682 0,-0.61416 0.84375,-1.05309 1.875,-0.97541 1.30209,0.0981 1.875,0.81332 1.875,2.34081 0,3.6503 1.61387,1.47887 2.80016,-3.76756 0.61245,-2.70863 1.34851,-5.76521 1.63568,-6.79242 0.41987,-1.50188 0.26613,-1.66205 -0.78498,-0.81786 -0.71891,0.57738 -2.3618,1.37038 -3.65086,1.76223 -2.25945,0.68683 -6.10174,3.23878 -6.33046,4.20453 -0.57207,2.41553 -2.03682,4.88733 -5.07703,8.56761 -1.97588,2.39187 -3.59251,4.60671 -3.59251,4.92187 0,1.28244 1.93543,0.45081 3.03007,-1.30198 z m -7.07715,-15.17578 c -0.29928,-0.74788 -0.52142,-0.52573 -0.56641,0.56641 -0.0407,0.98828 0.18087,1.54199 0.4924,1.23046 0.31152,-0.31152 0.34483,-1.12011 0.074,-1.79687 z m 4.73067,-4.14063 c -0.31152,-0.31152 -1.12011,-0.34483 -1.79687,-0.074 -0.74788,0.29928 -0.52573,0.52142 0.56641,0.56641 0.98828,0.0407 1.54199,-0.18087 1.23046,-0.4924 z"
         id="path4421"
         inkscape:connector-curvature="0" />
      <path
         style="fill:#e89b51"
         d="m 501.18796,765.82582 c 0,-1.22338 0.26639,-1.29996 1.36121,-0.39134 0.74867,0.62134 2.11976,0.93287 3.04688,0.6923 1.32366,-0.34348 1.23267,-0.46077 -0.42372,-0.54617 -2.33356,-0.12031 -2.27299,0.29379 -2.45019,-16.74938 -0.0496,-4.76953 -0.41507,-8.67187 -0.81217,-8.67187 -0.39711,0 -0.72201,-0.63281 -0.72201,-1.40625 0,-0.77344 0.42187,-1.40625 0.9375,-1.40625 0.51562,0 0.9375,0.3377 0.9375,0.75043 0,0.41274 5.75083,0.84403 12.77962,0.95843 7.0288,0.11439 13.14115,0.43142 13.58302,0.7045 0.44186,0.27309 0.55214,-0.1582 0.24507,-0.95842 -0.31712,-0.82641 -0.0627,-1.45494 0.58883,-1.45494 0.75355,0 0.92838,0.72374 0.50954,2.10937 -0.83394,2.75892 -0.83978,23.05922 -0.007,25.78125 l 0.64501,2.10938 -15.10934,0 c -13.31232,0 -15.10934,-0.1809 -15.10934,-1.52104 z m 8.65507,-5.97896 c 0.64402,-1.03125 1.52924,-1.875 1.96714,-1.875 1.24362,0 6.25279,-5.02041 6.25279,-6.26682 0,-0.61416 0.84375,-1.05309 1.875,-0.97541 1.30209,0.0981 1.875,0.81332 1.875,2.34081 0,3.6503 1.61387,1.47887 2.80016,-3.76756 0.61245,-2.70863 1.31218,-5.65076 1.55495,-6.53808 0.40432,-1.47776 0.22022,-1.49794 -2.19123,-0.24015 -1.44795,0.75524 -3.05451,1.38979 -3.57013,1.41012 -1.67265,0.066 -4.89593,3.30158 -5.63036,5.65192 -0.39381,1.26028 -2.34668,4.24841 -4.3397,6.64028 -1.99303,2.39187 -3.62369,4.60671 -3.62369,4.92187 0,1.28244 1.93543,0.45081 3.03007,-1.30198 z m -2.34648,-19.31641 c -0.31152,-0.31152 -1.12011,-0.34483 -1.79687,-0.074 -0.74788,0.29928 -0.52573,0.52142 0.56641,0.56641 0.98828,0.0407 1.54199,-0.18087 1.23046,-0.4924 z"
         id="path4419"
         inkscape:connector-curvature="0" />
      <path
         style="fill:#cba365"
         d="m 501.18796,765.75311 c 0,-1.23958 0.25,-1.34375 1.125,-0.46875 0.62465,0.62465 3.23066,1.05949 5.85937,0.97771 l 4.73438,-0.14728 -4.6875,-0.55584 c -4.6434,-0.55061 -4.69216,-0.59112 -5.1828,-4.30584 -0.27242,-2.0625 -0.47369,-7.65234 -0.44728,-12.42188 0.0264,-4.76953 -0.27804,-8.67187 -0.67657,-8.67187 -0.39853,0 -0.7246,-0.63281 -0.7246,-1.40625 0,-0.77344 0.42187,-1.40625 0.9375,-1.40625 0.51562,0 0.9375,0.3377 0.9375,0.75043 0,0.41274 5.75083,0.84403 12.77962,0.95843 7.0288,0.11439 13.14115,0.43142 13.58302,0.7045 0.44186,0.27309 0.55214,-0.1582 0.24507,-0.95842 -0.31712,-0.82641 -0.0627,-1.45494 0.58883,-1.45494 0.75355,0 0.92838,0.72374 0.50954,2.10937 -0.83394,2.75892 -0.83978,23.05922 -0.007,25.78125 l 0.64501,2.10938 -15.10934,0 c -13.59556,0 -15.10934,-0.15968 -15.10934,-1.59375 z m 9.05951,-6.43633 c 0.28385,-0.7397 0.93072,-1.34492 1.43749,-1.34492 1.33781,0 6.378,-4.95233 6.378,-6.26682 0,-0.61416 0.84375,-1.05309 1.875,-0.97541 1.33629,0.10066 1.88357,0.82465 1.90482,2.51986 0.0277,2.20715 0.12182,2.2573 1.30614,0.69572 0.70198,-0.9256 1.57179,-3.66779 1.93292,-6.09375 0.36113,-2.42597 1.09064,-4.93819 1.62115,-5.58273 0.66467,-0.80753 0.65459,-1.17187 -0.0324,-1.17187 -0.54833,0 -1.23764,0.38942 -1.53179,0.86537 -0.29416,0.47596 -1.69015,1.12956 -3.10221,1.45245 -3.36902,0.7704 -6.36935,3.32101 -7.26023,6.17201 -0.39381,1.26028 -2.275,4.18986 -4.18043,6.51017 -4.92168,5.99333 -5.44784,7.01775 -2.90564,5.65721 1.1226,-0.6008 2.27334,-1.69758 2.55719,-2.43729 z m -2.75092,-18.78633 c -0.31152,-0.31152 -1.12011,-0.34483 -1.79687,-0.074 -0.74788,0.29928 -0.52573,0.52142 0.56641,0.56641 0.98828,0.0407 1.54199,-0.18087 1.23046,-0.4924 z"
         id="path4417"
         inkscape:connector-curvature="0" />
      <path
         style="fill:#d39d62"
         d="m 501.18796,765.75311 c 0,-1.23958 0.25,-1.34375 1.125,-0.46875 0.62465,0.62465 3.23066,1.05949 5.85937,0.97771 l 4.73438,-0.14728 -4.6875,-0.55584 -4.6875,-0.55584 -0.55007,-4.12204 c -0.30254,-2.26713 -0.41047,-7.93907 -0.23986,-12.60432 0.21711,-5.93658 -0.0317,-8.69357 -0.82903,-9.18635 -0.62658,-0.38725 -0.81211,-1.03122 -0.41229,-1.43104 0.39982,-0.39982 1.0376,-0.2243 1.41729,0.39004 0.46749,0.75642 4.91486,1.2016 13.77715,1.3791 l 13.08681,0.26211 0.0234,10.3125 c 0.0129,5.67187 -0.2632,11.70178 -0.61351,13.3998 -0.53325,2.58466 -0.42259,2.90939 0.67969,1.99458 1.03851,-0.86188 1.31664,-0.7714 1.31664,0.42833 0,1.33968 -1.78854,1.52104 -15,1.52104 -13.49265,0 -15,-0.16016 -15,-1.59375 z m 9.05951,-6.43633 c 0.28385,-0.7397 0.93072,-1.34492 1.43749,-1.34492 1.33781,0 6.378,-4.95233 6.378,-6.26682 0,-0.61416 0.84375,-1.05309 1.875,-0.97541 1.33629,0.10066 1.88357,0.82465 1.90482,2.51986 0.0277,2.20715 0.12182,2.2573 1.30614,0.69572 0.70198,-0.9256 1.57179,-3.66779 1.93292,-6.09375 0.36113,-2.42597 1.09064,-4.93819 1.62115,-5.58273 0.66467,-0.80753 0.65459,-1.17187 -0.0324,-1.17187 -0.54833,0 -1.23764,0.38942 -1.53179,0.86537 -0.29416,0.47596 -1.69015,1.12956 -3.10221,1.45245 -3.36902,0.7704 -6.36935,3.32101 -7.26023,6.17201 -0.39381,1.26028 -2.275,4.18986 -4.18043,6.51017 -4.92168,5.99333 -5.44784,7.01775 -2.90564,5.65721 1.1226,-0.6008 2.27334,-1.69758 2.55719,-2.43729 z m -2.75092,-18.78633 c -0.31152,-0.31152 -1.12011,-0.34483 -1.79687,-0.074 -0.74788,0.29928 -0.52573,0.52142 0.56641,0.56641 0.98828,0.0407 1.54199,-0.18087 1.23046,-0.4924 z m 21.81641,-2.24609 c 0,-0.51563 0.42187,-0.9375 0.9375,-0.9375 0.51562,0 0.9375,0.42187 0.9375,0.9375 0,0.51562 -0.42188,0.9375 -0.9375,0.9375 -0.51563,0 -0.9375,-0.42188 -0.9375,-0.9375 z"
         id="path4415"
         inkscape:connector-curvature="0" />
      <path
         style="fill:#f0ad32"
         d="m 501.18796,765.75311 c 0,-1.23958 0.25,-1.34375 1.125,-0.46875 0.6297,0.6297 3.20938,1.05289 5.85937,0.96121 l 4.73438,-0.16379 -4.21875,-0.36414 c -2.32031,-0.20029 -4.59786,-0.73773 -5.06122,-1.19431 -0.46336,-0.45659 -0.78411,-6.20853 -0.71278,-12.78208 0.0919,-8.4651 -0.20145,-12.15657 -1.00538,-12.65343 -0.62429,-0.38583 -0.80794,-1.02864 -0.40812,-1.42846 0.39982,-0.39982 1.0376,-0.2243 1.41729,0.39004 0.46749,0.75642 4.91486,1.2016 13.77715,1.3791 l 13.08681,0.26211 -0.12617,4.6875 c -0.0694,2.57812 -0.17486,8.37891 -0.23438,12.89062 l -0.1082,8.20313 -3.51563,0.15003 -3.51562,0.15004 3.10812,0.38268 c 1.70946,0.21048 3.71337,-0.11963 4.45312,-0.73358 1.07435,-0.89163 1.34501,-0.81017 1.34501,0.40479 0,1.33968 -1.78854,1.52104 -15,1.52104 -13.49265,0 -15,-0.16016 -15,-1.59375 z m 9.05951,-6.43633 c 0.28385,-0.7397 0.93072,-1.34492 1.43749,-1.34492 1.33781,0 6.378,-4.95233 6.378,-6.26682 0,-0.61416 0.84375,-1.05309 1.875,-0.97541 1.33629,0.10066 1.88357,0.82465 1.90482,2.51986 0.0277,2.20715 0.12182,2.2573 1.30614,0.69572 0.70198,-0.9256 1.57179,-3.66779 1.93292,-6.09375 0.36113,-2.42597 1.09064,-4.93819 1.62115,-5.58273 0.66467,-0.80753 0.65459,-1.17187 -0.0324,-1.17187 -0.54833,0 -1.23764,0.38942 -1.53179,0.86537 -0.29416,0.47596 -1.69015,1.12956 -3.10221,1.45245 -3.36902,0.7704 -6.36935,3.32101 -7.26023,6.17201 -0.39381,1.26028 -2.275,4.18986 -4.18043,6.51017 -4.92168,5.99333 -5.44784,7.01775 -2.90564,5.65721 1.1226,-0.6008 2.27334,-1.69758 2.55719,-2.43729 z m -2.75092,-18.78633 c -0.31152,-0.31152 -1.12011,-0.34483 -1.79687,-0.074 -0.74788,0.29928 -0.52573,0.52142 0.56641,0.56641 0.98828,0.0407 1.54199,-0.18087 1.23046,-0.4924 z m 21.81641,-2.24609 c 0,-0.51563 0.42187,-0.9375 0.9375,-0.9375 0.51562,0 0.9375,0.42187 0.9375,0.9375 0,0.51562 -0.42188,0.9375 -0.9375,0.9375 -0.51563,0 -0.9375,-0.42188 -0.9375,-0.9375 z"
         id="path4413"
         inkscape:connector-curvature="0" />
      <path
         style="fill:#d99c56"
         d="m 501.18796,765.75311 c 0,-1.23958 0.25,-1.34375 1.125,-0.46875 0.6297,0.6297 3.20938,1.05289 5.85937,0.96121 l 4.73438,-0.16379 -4.21875,-0.36414 c -2.32031,-0.20029 -4.59786,-0.73773 -5.06122,-1.19431 -0.46336,-0.45659 -0.78411,-6.20853 -0.71278,-12.78208 0.0919,-8.4651 -0.20145,-12.15657 -1.00538,-12.65343 -0.62429,-0.38583 -0.80794,-1.02864 -0.40812,-1.42846 0.39982,-0.39982 1.0376,-0.2243 1.41729,0.39004 0.46749,0.75642 4.91486,1.2016 13.77715,1.3791 l 13.08681,0.26211 -0.12617,4.6875 c -0.0694,2.57812 -0.17486,8.37891 -0.23438,12.89062 l -0.1082,8.20313 -3.51563,0.15003 -3.51562,0.15004 3.10812,0.38268 c 1.70946,0.21048 3.71337,-0.11963 4.45312,-0.73358 1.07435,-0.89163 1.34501,-0.81017 1.34501,0.40479 0,1.33968 -1.78854,1.52104 -15,1.52104 -13.49265,0 -15,-0.16016 -15,-1.59375 z m 9.05951,-6.43633 c 0.28385,-0.7397 1.01001,-1.34492 1.61369,-1.34492 0.60368,0 1.82004,-0.84375 2.70302,-1.875 1.81412,-2.11873 3.49168,-2.45448 3.51314,-0.70313 0.0103,0.83765 0.25066,0.79868 0.84288,-0.1366 0.45569,-0.71967 1.49748,-1.05179 2.31509,-0.73804 1.8411,0.70649 2.94951,-1.26532 3.85605,-6.85973 0.37599,-2.32031 1.10945,-4.74609 1.62991,-5.39063 0.64284,-0.79608 0.62659,-1.17187 -0.0507,-1.17187 -0.54833,0 -1.23764,0.38942 -1.53179,0.86537 -0.29416,0.47596 -1.71043,1.12358 -3.14728,1.43916 -3.12768,0.68696 -7.67855,4.6839 -7.67855,6.74393 0,0.80992 -1.61583,3.42956 -3.59072,5.82143 -5.04182,6.10633 -5.59266,7.15776 -3.03196,5.78732 1.1226,-0.6008 2.27334,-1.69758 2.55719,-2.43729 z m 7.81549,-6.50117 c 0,-0.77344 0.40863,-1.40625 0.90808,-1.40625 0.49944,0 0.66524,0.63281 0.36844,1.40625 -0.29679,0.77344 -0.70543,1.40625 -0.90807,1.40625 -0.20265,0 -0.36845,-0.63281 -0.36845,-1.40625 z m -10.56641,-12.28516 c -0.31152,-0.31152 -1.12011,-0.34483 -1.79687,-0.074 -0.74788,0.29928 -0.52573,0.52142 0.56641,0.56641 0.98828,0.0407 1.54199,-0.18087 1.23046,-0.4924 z m 21.81641,-2.24609 c 0,-0.51563 0.42187,-0.9375 0.9375,-0.9375 0.51562,0 0.9375,0.42187 0.9375,0.9375 0,0.51562 -0.42188,0.9375 -0.9375,0.9375 -0.51563,0 -0.9375,-0.42188 -0.9375,-0.9375 z"
         id="path4411"
         inkscape:connector-curvature="0" />
      <path
         style="fill:#d69c49"
         d="m 501.18796,765.82582 c 0,-1.12307 0.31142,-1.26258 1.19027,-0.53321 0.65464,0.54331 3.08043,1.15407 5.39062,1.35725 3.91183,0.34405 3.83007,0.38067 -1.19027,0.53321 -4.41477,0.13414 -5.39062,-0.11156 -5.39062,-1.35725 z m 13.83906,0.85798 c 1.16616,-0.22424 2.85366,-0.21573 3.75,0.0189 0.89633,0.23465 -0.0578,0.41812 -2.12031,0.40772 -2.0625,-0.0104 -2.79586,-0.20239 -1.62969,-0.42664 z m 11.47344,-0.0232 c 1.28906,-0.237 2.87109,-0.86402 3.51562,-1.39337 0.85146,-0.6993 1.17188,-0.54657 1.17188,0.55858 0,1.15534 -0.84524,1.49034 -3.51563,1.39337 -2.59159,-0.0941 -2.8996,-0.24093 -1.17187,-0.55858 z m -22.8125,-1.81375 c -0.34375,-0.34375 -0.625,-6.21484 -0.625,-13.04687 0,-9.08929 -0.3144,-12.53416 -1.17188,-12.84041 -0.68162,-0.24344 -0.82403,-0.76637 -0.3404,-1.25 0.48363,-0.48363 1.00656,-0.34122 1.25,0.3404 0.59861,1.67609 26.17595,1.67609 26.77456,0 0.24344,-0.68162 0.76637,-0.82403 1.25,-0.3404 0.48363,0.48363 0.34122,1.00656 -0.34041,1.25 -0.86131,0.30762 -1.17187,3.87612 -1.17187,13.4654 l 0,13.04688 -12.5,0 c -6.875,0 -12.78125,-0.28125 -13.125,-0.625 z m 6.55951,-5.53008 c 0.28385,-0.7397 1.01001,-1.34492 1.61369,-1.34492 0.60368,0 1.82004,-0.84375 2.70302,-1.875 1.81412,-2.11873 3.49168,-2.45448 3.51314,-0.70313 0.0103,0.83765 0.25066,0.79868 0.84288,-0.1366 0.45569,-0.71967 1.49748,-1.05179 2.31509,-0.73804 1.8411,0.70649 2.94951,-1.26532 3.85605,-6.85973 0.37599,-2.32031 1.10945,-4.74609 1.62991,-5.39063 1.14037,-1.41221 0.34448,-1.51191 -1.87414,-0.23477 -0.89534,0.5154 -2.68259,1.37726 -3.97165,1.91525 -4.5063,1.8807 -6.09628,3.25921 -6.42415,5.56973 -0.18172,1.28059 -1.90301,4.23371 -3.8251,6.5625 -4.94438,5.9906 -5.48621,7.0375 -2.93593,5.67263 1.1226,-0.6008 2.27334,-1.69758 2.55719,-2.43729 z m 7.81549,-6.50117 c 0,-0.77344 0.40863,-1.40625 0.90808,-1.40625 0.49944,0 0.66524,0.63281 0.36844,1.40625 -0.29679,0.77344 -0.70543,1.40625 -0.90807,1.40625 -0.20265,0 -0.36845,-0.63281 -0.36845,-1.40625 z m -10.56641,-12.28516 c -0.31152,-0.31152 -1.12011,-0.34483 -1.79687,-0.074 -0.74788,0.29928 -0.52573,0.52142 0.56641,0.56641 0.98828,0.0407 1.54199,-0.18087 1.23046,-0.4924 z"
         id="path4409"
         inkscape:connector-curvature="0" />
      <path
         style="fill:#ed9131"
         d="m 501.18796,765.82582 c 0,-1.24574 0.25452,-1.30981 1.40625,-0.35396 1.77068,1.46954 1.77068,1.875 0,1.875 -0.77344,0 -1.40625,-0.68447 -1.40625,-1.52104 z m 27.1875,1.16708 c 0,-0.19468 0.63281,-0.87914 1.40625,-1.52104 1.15173,-0.95585 1.40625,-0.89178 1.40625,0.35396 0,0.83657 -0.63281,1.52104 -1.40625,1.52104 -0.77344,0 -1.40625,-0.15928 -1.40625,-0.35396 z m -24.6875,-2.14604 c -0.34375,-0.34375 -0.625,-6.21484 -0.625,-13.04687 0,-9.08929 -0.3144,-12.53416 -1.17188,-12.84041 -0.68162,-0.24344 -0.82403,-0.76637 -0.3404,-1.25 0.48363,-0.48363 1.00656,-0.34122 1.25,0.3404 0.59861,1.67609 26.17595,1.67609 26.77456,0 0.24344,-0.68162 0.76637,-0.82403 1.25,-0.3404 0.48363,0.48363 0.34122,1.00656 -0.34041,1.25 -0.86131,0.30762 -1.17187,3.87612 -1.17187,13.4654 l 0,13.04688 -12.5,0 c -6.875,0 -12.78125,-0.28125 -13.125,-0.625 z m 9.15467,-7.2908 c 3.90391,-3.53138 5.2113,-4.07144 5.23469,-2.16233 0.0103,0.83765 0.25066,0.79868 0.84288,-0.1366 0.45569,-0.71967 1.49041,-1.0545 2.29937,-0.74407 1.83934,0.70582 2.50313,-0.36079 3.93712,-6.32628 0.62749,-2.61039 1.43189,-5.45652 1.78756,-6.32473 0.57613,-1.40634 0.25874,-1.38077 -2.90928,0.23438 -1.95578,0.99711 -3.99411,1.82697 -4.52961,1.84412 -1.88847,0.0605 -4.89263,3.33431 -5.58271,6.08381 -0.38413,1.53048 -2.06531,4.47211 -3.73596,6.53697 -5.9155,7.31132 -4.79211,7.73207 2.65594,0.99473 z m 5.22033,-4.74045 c 0,-0.77344 0.40863,-1.40625 0.90808,-1.40625 0.49944,0 0.66524,0.63281 0.36844,1.40625 -0.29679,0.77344 -0.70543,1.40625 -0.90807,1.40625 -0.20265,0 -0.36845,-0.63281 -0.36845,-1.40625 z m -10.56641,-12.28516 c -0.31152,-0.31152 -1.12011,-0.34483 -1.79687,-0.074 -0.74788,0.29928 -0.52573,0.52142 0.56641,0.56641 0.98828,0.0407 1.54199,-0.18087 1.23046,-0.4924 z"
         id="path4407"
         inkscape:connector-curvature="0" />
      <path
         style="fill:#ed8f19"
         d="m 501.18796,765.82582 c 0,-1.24574 0.25452,-1.30981 1.40625,-0.35396 1.77068,1.46954 1.77068,1.875 0,1.875 -0.77344,0 -1.40625,-0.68447 -1.40625,-1.52104 z m 27.1875,1.16708 c 0,-0.19468 0.63281,-0.87914 1.40625,-1.52104 1.15173,-0.95585 1.40625,-0.89178 1.40625,0.35396 0,0.83657 -0.63281,1.52104 -1.40625,1.52104 -0.77344,0 -1.40625,-0.15928 -1.40625,-0.35396 z m -24.6875,-2.14604 c -0.34375,-0.34375 -0.625,-6.21484 -0.625,-13.04687 0,-9.08929 -0.3144,-12.53416 -1.17188,-12.84041 -0.68162,-0.24344 -0.82403,-0.76637 -0.3404,-1.25 0.48363,-0.48363 1.00656,-0.34122 1.25,0.3404 0.59861,1.67609 26.17595,1.67609 26.77456,0 0.24344,-0.68162 0.76637,-0.82403 1.25,-0.3404 0.48363,0.48363 0.34122,1.00656 -0.34041,1.25 -0.86131,0.30762 -1.17187,3.87612 -1.17187,13.4654 l 0,13.04688 -12.5,0 c -6.875,0 -12.78125,-0.28125 -13.125,-0.625 z m 3.125,-2.1875 c 0,-0.51563 0.53027,-0.9375 1.17837,-0.9375 0.6481,0 2.51727,-1.45888 4.15372,-3.24195 1.67901,-1.82945 3.13496,-2.76314 3.34168,-2.14298 0.20148,0.60444 0.96654,-0.257 1.70013,-1.9143 1.86734,-4.2186 2.96103,-3.78143 1.25674,0.50235 l -1.39868,3.51563 1.90837,-2.34375 c 1.50441,-1.84763 2.08347,-2.0745 2.73558,-1.07178 1.09634,1.68578 1.68711,0.59381 3.28848,-6.07832 0.72683,-3.02838 1.61223,-6.2165 1.96755,-7.08471 0.57557,-1.40638 0.25818,-1.38082 -2.90993,0.23438 -1.95578,0.99711 -3.99411,1.82697 -4.52961,1.84412 -2.4516,0.0785 -6.65861,5.41426 -6.28326,7.96902 0.0783,0.53293 -1.01532,2.23747 -2.43026,3.78786 -3.60896,3.95443 -6.07501,7.89943 -4.93799,7.89943 0.52751,0 0.95911,-0.42188 0.95911,-0.9375 z m 0.68359,-22.12891 c -0.31152,-0.31152 -1.12011,-0.34483 -1.79687,-0.074 -0.74788,0.29928 -0.52573,0.52142 0.56641,0.56641 0.98828,0.0407 1.54199,-0.18087 1.23046,-0.4924 z"
         id="path4405"
         inkscape:connector-curvature="0" />
      <path
         style="fill:#e07143"
         d="m 501.18796,765.82582 c 0,-1.24574 0.25452,-1.30981 1.40625,-0.35396 1.77068,1.46954 1.77068,1.875 0,1.875 -0.77344,0 -1.40625,-0.68447 -1.40625,-1.52104 z m 27.1875,1.16708 c 0,-0.19468 0.63281,-0.87914 1.40625,-1.52104 1.15173,-0.95585 1.40625,-0.89178 1.40625,0.35396 0,0.83657 -0.63281,1.52104 -1.40625,1.52104 -0.77344,0 -1.40625,-0.15928 -1.40625,-0.35396 z m -24.6875,-2.14604 c -0.34375,-0.34375 -0.625,-6.21484 -0.625,-13.04687 0,-9.08929 -0.3144,-12.53416 -1.17188,-12.84041 -0.68162,-0.24344 -0.82403,-0.76637 -0.3404,-1.25 0.48363,-0.48363 1.00656,-0.34122 1.25,0.3404 0.59861,1.67609 26.17595,1.67609 26.77456,0 0.24344,-0.68162 0.76637,-0.82403 1.25,-0.3404 0.48363,0.48363 0.34122,1.00656 -0.34041,1.25 -0.86131,0.30762 -1.17187,3.87612 -1.17187,13.4654 l 0,13.04688 -12.5,0 c -6.875,0 -12.78125,-0.28125 -13.125,-0.625 z m 3.125,-2.1875 c 0,-0.51563 0.53027,-0.9375 1.17837,-0.9375 0.6481,0 2.48,-1.41826 4.07089,-3.1517 2.54295,-2.77081 3.01961,-2.96908 3.94412,-1.64062 0.93818,1.3481 1.26448,1.2637 3.0255,-0.78261 1.50034,-1.7434 2.15507,-2.00053 2.72907,-1.07178 1.01709,1.64568 1.63161,0.47482 3.21644,-6.12839 0.72683,-3.02838 1.61223,-6.2165 1.96755,-7.08471 0.57557,-1.40638 0.25818,-1.38082 -2.90993,0.23438 -1.95578,0.99711 -3.99411,1.82697 -4.52961,1.84412 -2.4516,0.0785 -6.65861,5.41426 -6.28326,7.96902 0.0783,0.53293 -1.01532,2.23747 -2.43026,3.78786 -3.60896,3.95443 -6.07501,7.89943 -4.93799,7.89943 0.52751,0 0.95911,-0.42188 0.95911,-0.9375 z m 9.88379,-6.49772 c -0.29666,-0.48 -0.11062,-1.13771 0.41342,-1.46158 0.52403,-0.32387 0.95279,0.0688 0.95279,0.87272 0,1.64674 -0.56255,1.88921 -1.36621,0.58886 z m -9.2002,-15.63119 c -0.31152,-0.31152 -1.12011,-0.34483 -1.79687,-0.074 -0.74788,0.29928 -0.52573,0.52142 0.56641,0.56641 0.98828,0.0407 1.54199,-0.18087 1.23046,-0.4924 z"
         id="path4403"
         inkscape:connector-curvature="0" />
      <path
         style="fill:#d48931"
         d="m 501.18796,765.82582 c 0,-1.24574 0.25452,-1.30981 1.40625,-0.35396 1.77068,1.46954 1.77068,1.875 0,1.875 -0.77344,0 -1.40625,-0.68447 -1.40625,-1.52104 z m 27.1875,1.16708 c 0,-0.19468 0.63281,-0.87914 1.40625,-1.52104 1.15173,-0.95585 1.40625,-0.89178 1.40625,0.35396 0,0.83657 -0.63281,1.52104 -1.40625,1.52104 -0.77344,0 -1.40625,-0.15928 -1.40625,-0.35396 z m -24.6875,-2.14604 c -0.34375,-0.34375 -0.625,-6.21484 -0.625,-13.04687 0,-9.08929 -0.3144,-12.53416 -1.17188,-12.84041 -0.68162,-0.24344 -0.82403,-0.76637 -0.3404,-1.25 0.48363,-0.48363 1.00656,-0.34122 1.25,0.3404 0.59861,1.67609 26.17595,1.67609 26.77456,0 0.24344,-0.68162 0.76637,-0.82403 1.25,-0.3404 0.48363,0.48363 0.34122,1.00656 -0.34041,1.25 -0.86131,0.30762 -1.17187,3.87612 -1.17187,13.4654 l 0,13.04688 -12.5,0 c -6.875,0 -12.78125,-0.28125 -13.125,-0.625 z m 3.125,-2.1875 c 0,-0.51563 0.53027,-0.9375 1.17837,-0.9375 0.6481,0 2.48,-1.41826 4.07089,-3.1517 2.54295,-2.77081 3.01961,-2.96908 3.94412,-1.64062 0.94314,1.35523 1.23978,1.29352 2.87626,-0.59831 2.19449,-2.53691 2.92093,-2.652 2.95887,-0.46875 0.0489,2.81431 1.64645,-0.71038 3.1373,-6.92184 0.72605,-3.02502 1.61081,-6.21038 1.96613,-7.07859 0.57557,-1.40638 0.25818,-1.38082 -2.90993,0.23438 -1.95578,0.99711 -3.99411,1.82697 -4.52961,1.84412 -2.4516,0.0785 -6.65861,5.41426 -6.28326,7.96902 0.0783,0.53293 -1.01532,2.23747 -2.43026,3.78786 -3.60896,3.95443 -6.07501,7.89943 -4.93799,7.89943 0.52751,0 0.95911,-0.42188 0.95911,-0.9375 z m 9.88379,-6.49772 c -0.29666,-0.48 -0.11062,-1.13771 0.41342,-1.46158 0.52403,-0.32387 0.95279,0.0688 0.95279,0.87272 0,1.64674 -0.56255,1.88921 -1.36621,0.58886 z m -9.2002,-15.63119 c -0.31152,-0.31152 -1.12011,-0.34483 -1.79687,-0.074 -0.74788,0.29928 -0.52573,0.52142 0.56641,0.56641 0.98828,0.0407 1.54199,-0.18087 1.23046,-0.4924 z"
         id="path4401"
         inkscape:connector-curvature="0" />
      <path
         style="fill:#eb782a"
         d="m 501.18796,765.82582 c 0,-1.24574 0.25452,-1.30981 1.40625,-0.35396 1.77068,1.46954 1.77068,1.875 0,1.875 -0.77344,0 -1.40625,-0.68447 -1.40625,-1.52104 z m 27.1875,1.16708 c 0,-0.19468 0.63281,-0.87914 1.40625,-1.52104 1.15173,-0.95585 1.40625,-0.89178 1.40625,0.35396 0,0.83657 -0.63281,1.52104 -1.40625,1.52104 -0.77344,0 -1.40625,-0.15928 -1.40625,-0.35396 z m -24.14063,-2.14193 c -0.85526,-0.3451 -1.17187,-3.85005 -1.17187,-12.97286 0,-9.15179 -0.3139,-12.61211 -1.17188,-12.91853 -0.68162,-0.24344 -0.82403,-0.76637 -0.3404,-1.25 0.48363,-0.48363 1.00656,-0.34122 1.25,0.3404 0.59861,1.67609 26.17595,1.67609 26.77456,0 0.24344,-0.68162 0.76637,-0.82403 1.25,-0.3404 0.48363,0.48363 0.34122,1.00656 -0.34041,1.25 -0.86131,0.30762 -1.17187,3.87612 -1.17187,13.4654 l 0,13.04688 -11.95313,-0.074 c -6.57421,-0.0407 -12.48046,-0.2868 -13.125,-0.54688 z m 2.57813,-2.19161 c 0,-0.51563 0.46644,-0.9375 1.03654,-0.9375 0.5701,0 2.30563,-1.06787 3.85675,-2.37305 1.77187,-1.49093 3.4628,-2.16909 4.5489,-1.82437 1.13792,0.36116 2.13967,-0.10941 2.93126,-1.37696 1.4727,-2.35816 2.61531,-2.4806 2.65977,-0.285 0.0625,3.08826 2.67669,-2.80293 3.33738,-7.52104 0.3446,-2.46079 0.99281,-4.70053 1.44047,-4.9772 0.44766,-0.27667 0.81393,-1.06547 0.81393,-1.7529 0,-0.94734 -0.84218,-0.82049 -3.47948,0.52408 -1.91371,0.97567 -3.97143,1.77394 -4.5727,1.77394 -0.60128,0 -1.63436,0.65201 -2.29573,1.44891 -0.66137,0.79691 -1.71996,1.25035 -2.35243,1.00765 -0.73045,-0.2803 -0.98786,0.17853 -0.70563,1.25778 0.24438,0.93448 -0.0143,1.9825 -0.57486,2.32893 -0.56054,0.34644 -1.01917,1.40446 -1.01917,2.35116 0,0.9467 -1.07334,2.71477 -2.38521,3.92905 -2.87495,2.66108 -5.5581,7.36402 -4.20137,7.36402 0.52887,0 0.96158,-0.42188 0.96158,-0.9375 z m 9.88379,-6.49772 c -0.29666,-0.48 -0.11062,-1.13771 0.41342,-1.46158 0.52403,-0.32387 0.95279,0.0688 0.95279,0.87272 0,1.64674 -0.56255,1.88921 -1.36621,0.58886 z m -9.2002,-15.63119 c -0.31152,-0.31152 -1.12011,-0.34483 -1.79687,-0.074 -0.74788,0.29928 -0.52573,0.52142 0.56641,0.56641 0.98828,0.0407 1.54199,-0.18087 1.23046,-0.4924 z"
         id="path4399"
         inkscape:connector-curvature="0" />
      <path
         style="fill:#aa8955"
         d="m 501.18796,765.82582 c 0,-1.24574 0.25452,-1.30981 1.40625,-0.35396 1.77068,1.46954 1.77068,1.875 0,1.875 -0.77344,0 -1.40625,-0.68447 -1.40625,-1.52104 z m 27.1875,1.16708 c 0,-0.19468 0.63281,-0.87914 1.40625,-1.52104 1.15173,-0.95585 1.40625,-0.89178 1.40625,0.35396 0,0.83657 -0.63281,1.52104 -1.40625,1.52104 -0.77344,0 -1.40625,-0.15928 -1.40625,-0.35396 z m -22.28243,-3.39604 c 0.64402,-1.03125 1.6369,-1.875 2.20639,-1.875 0.56949,0 1.76096,-0.80169 2.64771,-1.78154 0.88674,-0.97984 2.37521,-1.98105 3.3077,-2.2249 1.34257,-0.35109 1.58725,-0.0296 1.17561,1.54444 -0.44686,1.70882 -0.16704,1.60714 1.99385,-0.7245 1.38252,-1.49176 2.51367,-3.07256 2.51367,-3.5129 0,-1.58677 1.8758,-0.76102 1.90822,0.84002 0.0625,3.08826 2.67669,-2.80293 3.33738,-7.52104 0.3446,-2.46079 0.99281,-4.70053 1.44047,-4.9772 0.44766,-0.27667 0.81393,-1.06547 0.81393,-1.7529 0,-0.94734 -0.84218,-0.82049 -3.47948,0.52408 -1.91371,0.97567 -3.97143,1.77394 -4.5727,1.77394 -0.60128,0 -1.63436,0.65201 -2.29573,1.44891 -0.66137,0.79691 -1.71996,1.25035 -2.35243,1.00765 -0.74743,-0.28682 -0.98473,0.19046 -0.67796,1.36358 0.25959,0.99267 9.1e-4,1.80486 -0.57486,1.80486 -0.57576,0 -1.04684,0.99716 -1.04684,2.21591 0,1.21875 -1.12343,3.33934 -2.49651,4.71242 -1.37309,1.37309 -3.48246,3.83289 -4.6875,5.46623 l -2.19099,2.96971 0,-12.76026 c 0,-9.35999 -0.31227,-12.87179 -1.17188,-13.17879 -0.68162,-0.24344 -0.82403,-0.76637 -0.3404,-1.25 0.48363,-0.48363 1.00656,-0.34122 1.25,0.3404 0.59861,1.67609 26.17595,1.67609 26.77456,0 0.24344,-0.68162 0.76637,-0.82403 1.25,-0.3404 0.48363,0.48363 0.34122,1.00656 -0.34041,1.25 -0.86131,0.30762 -1.17187,3.87612 -1.17187,13.4654 l 0,13.04688 -12.19544,0 c -11.96077,0 -12.17292,-0.0361 -11.02449,-1.875 z m 1.40352,-23.06641 c -0.31152,-0.31152 -1.12011,-0.34483 -1.79687,-0.074 -0.74788,0.29928 -0.52573,0.52142 0.56641,0.56641 0.98828,0.0407 1.54199,-0.18087 1.23046,-0.4924 z m 9.2002,15.63119 c -0.29666,-0.48 -0.11062,-1.13771 0.41342,-1.46158 0.52403,-0.32387 0.95279,0.0688 0.95279,0.87272 0,1.64674 -0.56255,1.88921 -1.36621,0.58886 z"
         id="path4397"
         inkscape:connector-curvature="0" />
      <path
         style="fill:#bc7b43"
         d="m 501.18796,766.40936 c 0,-0.51563 0.42187,-0.9375 0.9375,-0.9375 0.51562,0 0.9375,0.42187 0.9375,0.9375 0,0.51562 -0.42188,0.9375 -0.9375,0.9375 -0.51563,0 -0.9375,-0.42188 -0.9375,-0.9375 z m 28.125,0 c 0,-0.57695 -4.69015,-0.9375 -12.19544,-0.9375 -11.96077,0 -12.17292,-0.0361 -11.02449,-1.875 0.64402,-1.03125 1.6369,-1.875 2.20639,-1.875 0.56949,0 1.76096,-0.80169 2.64771,-1.78154 0.88674,-0.97984 2.37521,-1.98105 3.3077,-2.2249 1.34257,-0.35109 1.58725,-0.0296 1.17561,1.54444 -0.44686,1.70882 -0.16704,1.60714 1.99385,-0.7245 1.38252,-1.49176 2.51367,-3.07256 2.51367,-3.5129 0,-1.58677 1.8758,-0.76102 1.90822,0.84002 0.0625,3.08826 2.67669,-2.80293 3.33738,-7.52104 0.3446,-2.46079 0.99281,-4.70053 1.44047,-4.9772 0.44766,-0.27667 0.81393,-1.06547 0.81393,-1.7529 0,-0.94734 -0.84218,-0.82049 -3.47948,0.52408 -1.91371,0.97567 -3.97143,1.77394 -4.5727,1.77394 -0.60128,0 -1.63436,0.65201 -2.29573,1.44891 -0.66137,0.79691 -1.71996,1.25035 -2.35243,1.00765 -0.74743,-0.28682 -0.98473,0.19046 -0.67796,1.36358 0.25959,0.99267 9.1e-4,1.80486 -0.57486,1.80486 -0.57576,0 -1.04684,0.99716 -1.04684,2.21591 0,1.21875 -1.12343,3.33934 -2.49651,4.71242 -1.37309,1.37309 -3.48246,3.83289 -4.6875,5.46623 l -2.19099,2.96971 0,-12.83838 0,-12.83839 13.125,0 13.125,0 0,13.125 c 0,8.125 0.35714,13.125 0.9375,13.125 0.51562,0 0.9375,0.42187 0.9375,0.9375 0,0.51562 -0.42188,0.9375 -0.9375,0.9375 -0.51563,0 -0.9375,-0.42188 -0.9375,-0.9375 z m -21.81641,-25.87891 c -0.31152,-0.31152 -1.12011,-0.34483 -1.79687,-0.074 -0.74788,0.29928 -0.52573,0.52142 0.56641,0.56641 0.98828,0.0407 1.54199,-0.18087 1.23046,-0.4924 z m 9.2002,15.63119 c -0.29666,-0.48 -0.11062,-1.13771 0.41342,-1.46158 0.52403,-0.32387 0.95279,0.0688 0.95279,0.87272 0,1.64674 -0.56255,1.88921 -1.36621,0.58886 z m -15.50879,-17.87728 c 0,-0.51563 0.44677,-0.9375 0.99283,-0.9375 0.54605,0 0.73209,0.42187 0.41342,0.9375 -0.31867,0.51562 -0.76545,0.9375 -0.99283,0.9375 -0.22738,0 -0.41342,-0.42188 -0.41342,-0.9375 z m 28.59375,0 c -0.31867,-0.51563 -0.13263,-0.9375 0.41342,-0.9375 0.54606,0 0.99283,0.42187 0.99283,0.9375 0,0.51562 -0.18604,0.9375 -0.41342,0.9375 -0.22738,0 -0.67416,-0.42188 -0.99283,-0.9375 z"
         id="path4395"
         inkscape:connector-curvature="0" />
      <path
         style="fill:#e67316"
         d="m 501.18796,766.40936 c 0,-0.51563 0.42187,-0.9375 0.9375,-0.9375 0.51562,0 0.9375,0.42187 0.9375,0.9375 0,0.51562 -0.42188,0.9375 -0.9375,0.9375 -0.51563,0 -0.9375,-0.42188 -0.9375,-0.9375 z m 28.125,0 c 0,-0.57695 -4.69015,-0.9375 -12.19544,-0.9375 -11.96077,0 -12.17292,-0.0361 -11.02449,-1.875 0.64402,-1.03125 1.6369,-1.875 2.20639,-1.875 0.56949,0 1.76096,-0.80169 2.64771,-1.78154 0.88674,-0.97984 2.37521,-1.98105 3.3077,-2.2249 1.34257,-0.35109 1.58725,-0.0296 1.17561,1.54444 -0.44686,1.70882 -0.16704,1.60714 1.99385,-0.7245 1.38252,-1.49176 2.51367,-3.07256 2.51367,-3.5129 0,-1.58677 1.8758,-0.76102 1.90822,0.84002 0.0625,3.08826 2.67669,-2.80293 3.33738,-7.52104 0.3446,-2.46079 0.99281,-4.70053 1.44047,-4.9772 0.44766,-0.27667 0.81393,-1.11177 0.81393,-1.85578 0,-1.08512 -0.69278,-0.98143 -3.50174,0.52408 -1.92596,1.03225 -3.98368,1.87682 -4.57271,1.87682 -0.58903,0 -1.61209,0.65201 -2.27346,1.44891 -0.66137,0.79691 -1.71996,1.25035 -2.35243,1.00765 -0.74743,-0.28682 -0.98473,0.19046 -0.67796,1.36358 0.25959,0.99267 9.1e-4,1.80486 -0.57486,1.80486 -0.57576,0 -1.04684,0.99716 -1.04684,2.21591 0,1.21875 -1.12343,3.33934 -2.49651,4.71242 -1.37309,1.37309 -3.48246,3.83289 -4.6875,5.46623 l -2.19099,2.96971 0,-12.86484 0,-12.86484 12.89062,0.26083 12.89063,0.26083 0.26083,12.89062 c 0.15257,7.54026 0.63897,12.89063 1.17188,12.89063 0.50107,0 0.91104,0.42187 0.91104,0.9375 0,0.51562 -0.42188,0.9375 -0.9375,0.9375 -0.51563,0 -0.9375,-0.42188 -0.9375,-0.9375 z m -21.81641,-25.87891 c -0.31152,-0.31152 -1.12011,-0.34483 -1.79687,-0.074 -0.74788,0.29928 -0.52573,0.52142 0.56641,0.56641 0.98828,0.0407 1.54199,-0.18087 1.23046,-0.4924 z m 9.2002,15.63119 c -0.29666,-0.48 -0.11062,-1.13771 0.41342,-1.46158 0.52403,-0.32387 0.95279,0.0688 0.95279,0.87272 0,1.64674 -0.56255,1.88921 -1.36621,0.58886 z m -15.50879,-17.87728 c 0,-0.51563 0.44677,-0.9375 0.99283,-0.9375 0.54605,0 0.73209,0.42187 0.41342,0.9375 -0.31867,0.51562 -0.76545,0.9375 -0.99283,0.9375 -0.22738,0 -0.41342,-0.42188 -0.41342,-0.9375 z m 28.59375,0 c -0.31867,-0.51563 -0.13263,-0.9375 0.41342,-0.9375 0.54606,0 0.99283,0.42187 0.99283,0.9375 0,0.51562 -0.18604,0.9375 -0.41342,0.9375 -0.22738,0 -0.67416,-0.42188 -0.99283,-0.9375 z"
         id="path4393"
         inkscape:connector-curvature="0" />
      <path
         style="fill:#ce722a"
         d="m 501.18796,766.40936 c 0,-0.51563 0.42187,-0.9375 0.9375,-0.9375 0.51562,0 0.9375,0.42187 0.9375,0.9375 0,0.51562 -0.42188,0.9375 -0.9375,0.9375 -0.51563,0 -0.9375,-0.42188 -0.9375,-0.9375 z m 28.125,0 c 0,-0.57695 -4.69015,-0.9375 -12.19544,-0.9375 -11.96077,0 -12.17292,-0.0361 -11.02449,-1.875 0.64402,-1.03125 1.5636,-1.875 2.0435,-1.875 0.4799,0 1.66428,-0.71651 2.63196,-1.59225 2.32256,-2.10189 4.48197,-2.35399 4.48197,-0.52325 0,1.26338 0.25867,1.23451 1.85107,-0.20659 1.01808,-0.92136 2.1012,-2.4633 2.40692,-3.42655 0.70203,-2.2119 2.29366,-2.28729 2.33773,-0.11074 0.0625,3.08826 2.67669,-2.80293 3.33738,-7.52104 0.3446,-2.46079 0.99281,-4.70053 1.44047,-4.9772 0.44766,-0.27667 0.81393,-1.11177 0.81393,-1.85578 0,-1.08512 -0.69278,-0.98143 -3.50174,0.52408 -1.92596,1.03225 -3.98368,1.87682 -4.57271,1.87682 -0.58903,0 -1.61209,0.65201 -2.27346,1.44891 -0.66137,0.79691 -1.71996,1.25035 -2.35243,1.00765 -0.74743,-0.28682 -0.98473,0.19046 -0.67796,1.36358 0.25959,0.99267 9.1e-4,1.80486 -0.57486,1.80486 -0.57576,0 -1.04684,0.99716 -1.04684,2.21591 0,1.21875 -1.12343,3.33934 -2.49651,4.71242 -1.37309,1.37309 -3.48246,3.83289 -4.6875,5.46623 l -2.19099,2.96971 0,-12.86484 0,-12.86484 12.89062,0.26083 12.89063,0.26083 0.26083,12.89062 c 0.15257,7.54026 0.63897,12.89063 1.17188,12.89063 0.50107,0 0.91104,0.42187 0.91104,0.9375 0,0.51562 -0.42188,0.9375 -0.9375,0.9375 -0.51563,0 -0.9375,-0.42188 -0.9375,-0.9375 z m -21.81641,-25.87891 c -0.31152,-0.31152 -1.12011,-0.34483 -1.79687,-0.074 -0.74788,0.29928 -0.52573,0.52142 0.56641,0.56641 0.98828,0.0407 1.54199,-0.18087 1.23046,-0.4924 z m -6.30859,-2.24609 c 0,-0.51563 0.44677,-0.9375 0.99283,-0.9375 0.54605,0 0.73209,0.42187 0.41342,0.9375 -0.31867,0.51562 -0.76545,0.9375 -0.99283,0.9375 -0.22738,0 -0.41342,-0.42188 -0.41342,-0.9375 z m 28.59375,0 c -0.31867,-0.51563 -0.13263,-0.9375 0.41342,-0.9375 0.54606,0 0.99283,0.42187 0.99283,0.9375 0,0.51562 -0.18604,0.9375 -0.41342,0.9375 -0.22738,0 -0.67416,-0.42188 -0.99283,-0.9375 z"
         id="path4391"
         inkscape:connector-curvature="0" />
      <path
         style="fill:#c65c30"
         d="m 501.18796,766.40936 c 0,-0.51563 0.42187,-0.9375 0.9375,-0.9375 0.51562,0 0.9375,0.42187 0.9375,0.9375 0,0.51562 -0.42188,0.9375 -0.9375,0.9375 -0.51563,0 -0.9375,-0.42188 -0.9375,-0.9375 z m 28.125,0 c 0,-0.575 -4.53125,-0.9375 -11.71875,-0.9375 -6.44531,0 -11.71229,-0.31641 -11.70439,-0.70313 0.0232,-1.1362 1.28577,-2.66421 2.79814,-3.3864 0.77344,-0.36933 2.46041,-1.27353 3.74884,-2.00933 2.07365,-1.18424 2.40339,-1.16447 2.87228,0.17222 0.4344,1.2384 0.89841,1.0413 2.57929,-1.09559 1.12727,-1.43309 2.06301,-3.07608 2.07941,-3.65108 0.0164,-0.57499 0.56731,-0.33852 1.22426,0.52549 1.11159,1.46195 1.26765,1.4537 2.2498,-0.11896 0.58045,-0.92944 1.32707,-3.32386 1.65916,-5.32093 0.33209,-1.99707 1.05055,-4.80472 1.59657,-6.23923 1.26629,-3.32676 0.4984,-4.07904 -2.22008,-2.17493 -1.17933,0.82603 -2.84245,1.50187 -3.69584,1.50187 -0.85338,0 -2.07679,0.63281 -2.71869,1.40625 -0.6419,0.77344 -1.98408,1.40625 -2.98262,1.40625 -0.99855,0 -1.55526,0.42113 -1.23715,0.93586 0.31812,0.51472 -0.047,1.82877 -0.81144,2.92012 -0.76442,1.09135 -1.19656,2.48797 -0.96032,3.1036 0.23624,0.61563 -0.95574,2.38147 -2.64885,3.92409 -1.6931,1.54261 -3.79452,3.83814 -4.66982,5.10117 -1.53322,2.21238 -1.59325,1.84089 -1.64063,-10.15192 l -0.0492,-12.44833 12.89062,0.26083 12.89063,0.26083 0.26083,12.89062 c 0.15257,7.54026 0.63897,12.89063 1.17188,12.89063 0.50107,0 0.91104,0.42187 0.91104,0.9375 0,0.51562 -0.42188,0.9375 -0.9375,0.9375 -0.51563,0 -0.9375,-0.42188 -0.9375,-0.9375 z m -21.81641,-25.87891 c -0.31152,-0.31152 -1.12011,-0.34483 -1.79687,-0.074 -0.74788,0.29928 -0.52573,0.52142 0.56641,0.56641 0.98828,0.0407 1.54199,-0.18087 1.23046,-0.4924 z m -6.30859,-2.24609 c 0,-0.51563 0.44677,-0.9375 0.99283,-0.9375 0.54605,0 0.73209,0.42187 0.41342,0.9375 -0.31867,0.51562 -0.76545,0.9375 -0.99283,0.9375 -0.22738,0 -0.41342,-0.42188 -0.41342,-0.9375 z m 28.59375,0 c -0.31867,-0.51563 -0.13263,-0.9375 0.41342,-0.9375 0.54606,0 0.99283,0.42187 0.99283,0.9375 0,0.51562 -0.18604,0.9375 -0.41342,0.9375 -0.22738,0 -0.67416,-0.42188 -0.99283,-0.9375 z"
         id="path4389"
         inkscape:connector-curvature="0" />
      <path
         style="fill:#cb6819"
         d="m 501.18796,766.40936 c 0,-0.51563 0.42187,-0.9375 0.9375,-0.9375 0.51562,0 0.9375,0.42187 0.9375,0.9375 0,0.51562 -0.42188,0.9375 -0.9375,0.9375 -0.51563,0 -0.9375,-0.42188 -0.9375,-0.9375 z m 28.125,0 c 0,-0.575 -4.53125,-0.9375 -11.71875,-0.9375 -6.44531,0 -11.71229,-0.31641 -11.70439,-0.70313 0.0232,-1.1362 1.28577,-2.66421 2.79814,-3.3864 0.77344,-0.36933 2.46094,-1.27534 3.75,-2.01336 2.19844,-1.25866 2.39231,-1.1979 3.12695,0.98011 0.43076,1.27708 1.21408,2.05566 1.74071,1.73018 0.57423,-0.35489 0.60871,-0.82633 0.0861,-1.17771 -0.47926,-0.32227 0.12521,-2.0442 1.34327,-3.82653 2.11311,-3.092 2.23985,-3.14424 2.76413,-1.13937 0.54905,2.09957 0.55046,2.09933 1.80284,-0.31464 0.68935,-1.32872 1.51198,-3.98006 1.82808,-5.89187 0.3161,-1.91182 1.02147,-4.64971 1.56749,-6.08422 1.26629,-3.32676 0.4984,-4.07904 -2.22008,-2.17493 -1.17933,0.82603 -2.84245,1.50187 -3.69584,1.50187 -0.85338,0 -2.0331,0.58017 -2.6216,1.28926 -0.58849,0.70909 -2.74952,1.55783 -4.80229,1.88608 -2.05276,0.32825 -3.7323,1.02855 -3.7323,1.55622 0,0.62639 0.6787,0.59618 1.95529,-0.087 2.60501,-1.39416 3.42099,-0.39701 1.45386,1.77664 -0.86865,0.95984 -1.34407,2.35831 -1.05651,3.1077 0.30906,0.80537 -0.73594,2.50944 -2.55552,4.16729 -1.6931,1.54262 -3.79452,3.83815 -4.66982,5.10118 -1.53329,2.21249 -1.59325,1.84246 -1.64063,-10.12547 l -0.0492,-12.42187 11.64207,0 c 6.40314,0 12.30939,0.25607 13.125,0.56905 1.2501,0.47971 1.48293,2.54045 1.48293,13.125 0,7.74563 0.35917,12.55595 0.9375,12.55595 0.51562,0 0.9375,0.42187 0.9375,0.9375 0,0.51562 -0.42188,0.9375 -0.9375,0.9375 -0.51563,0 -0.9375,-0.42188 -0.9375,-0.9375 z m -21.81641,-25.87891 c -0.31152,-0.31152 -1.12011,-0.34483 -1.79687,-0.074 -0.74788,0.29928 -0.52573,0.52142 0.56641,0.56641 0.98828,0.0407 1.54199,-0.18087 1.23046,-0.4924 z m -6.30859,-2.24609 c 0,-0.51563 0.44677,-0.9375 0.99283,-0.9375 0.54605,0 0.73209,0.42187 0.41342,0.9375 -0.31867,0.51562 -0.76545,0.9375 -0.99283,0.9375 -0.22738,0 -0.41342,-0.42188 -0.41342,-0.9375 z m 28.59375,0 c -0.31867,-0.51563 -0.13263,-0.9375 0.41342,-0.9375 0.54606,0 0.99283,0.42187 0.99283,0.9375 0,0.51562 -0.18604,0.9375 -0.41342,0.9375 -0.22738,0 -0.67416,-0.42188 -0.99283,-0.9375 z"
         id="path4387"
         inkscape:connector-curvature="0" />
      <path
         style="fill:#c95210"
         d="m 501.18796,766.40936 c 0,-0.51563 0.42187,-0.9375 0.9375,-0.9375 0.51562,0 0.9375,0.42187 0.9375,0.9375 0,0.51562 -0.42188,0.9375 -0.9375,0.9375 -0.51563,0 -0.9375,-0.42188 -0.9375,-0.9375 z m 28.125,0 c 0,-0.57292 -4.375,-0.9375 -11.25,-0.9375 -12.40335,0 -14.06496,-0.90896 -7.73438,-4.23096 1.9336,-1.01466 3.77624,-2.20537 4.09476,-2.64602 0.31853,-0.44065 0.85824,0.31084 1.19936,1.66999 0.35949,1.4323 1.04488,2.20873 1.63033,1.84689 0.67326,-0.41609 0.69213,-0.8208 0.0566,-1.21358 -0.57003,-0.3523 -0.0632,-1.62436 1.26022,-3.16293 1.90238,-2.21165 2.33106,-2.36395 3.04798,-1.08289 0.69102,1.23479 1.0119,1.0334 1.86905,-1.17302 1.53791,-3.95882 4.04802,-14.59805 3.55939,-15.08668 -0.2335,-0.2335 -1.38945,0.2513 -2.56877,1.07733 -1.17933,0.82603 -2.84245,1.50187 -3.69584,1.50187 -0.85338,0 -2.0331,0.58017 -2.6216,1.28926 -0.58849,0.70909 -2.74952,1.55783 -4.80229,1.88608 -2.05276,0.32825 -3.7323,1.02855 -3.7323,1.55622 0,0.6464 0.57152,0.65354 1.75173,0.0219 2.39749,-1.28309 3.27247,-0.1169 1.43536,1.91308 -0.82748,0.91435 -1.33597,2.16806 -1.12999,2.78601 0.35131,1.05393 -6.77587,9.29744 -8.03839,9.29744 -0.31967,0 -0.58121,-5.0625 -0.58121,-11.25 l 0,-11.25 11.64207,0 c 6.40314,0 12.30939,0.25607 13.125,0.56905 1.2501,0.47971 1.48293,2.54045 1.48293,13.125 0,7.74563 0.35917,12.55595 0.9375,12.55595 0.51562,0 0.9375,0.42187 0.9375,0.9375 0,0.51562 -0.42188,0.9375 -0.9375,0.9375 -0.51563,0 -0.9375,-0.42188 -0.9375,-0.9375 z m -21.81641,-25.87891 c -0.31152,-0.31152 -1.12011,-0.34483 -1.79687,-0.074 -0.74788,0.29928 -0.52573,0.52142 0.56641,0.56641 0.98828,0.0407 1.54199,-0.18087 1.23046,-0.4924 z m -6.30859,-2.24609 c 0,-0.51563 0.44677,-0.9375 0.99283,-0.9375 0.54605,0 0.73209,0.42187 0.41342,0.9375 -0.31867,0.51562 -0.76545,0.9375 -0.99283,0.9375 -0.22738,0 -0.41342,-0.42188 -0.41342,-0.9375 z m 28.59375,0 c -0.31867,-0.51563 -0.13263,-0.9375 0.41342,-0.9375 0.54606,0 0.99283,0.42187 0.99283,0.9375 0,0.51562 -0.18604,0.9375 -0.41342,0.9375 -0.22738,0 -0.67416,-0.42188 -0.99283,-0.9375 z"
         id="path4385"
         inkscape:connector-curvature="0" />
      <path
         style="fill:#7d6445"
         d="m 501.18796,766.40936 c 0,-0.51563 0.42187,-0.9375 0.9375,-0.9375 0.51562,0 0.9375,0.42187 0.9375,0.9375 0,0.51562 -0.42188,0.9375 -0.9375,0.9375 -0.51563,0 -0.9375,-0.42188 -0.9375,-0.9375 z m 28.125,0.0298 c 0,-0.51885 -4.71943,-1.02091 -11.01563,-1.17188 l -11.01562,-0.26413 2.53551,-2.57813 c 2.923,-2.97212 3.80147,-3.13846 5.83503,-1.10491 0.81026,0.81027 1.50549,1.33762 1.54494,1.17188 0.0394,-0.16574 0.20951,-1.01541 0.3779,-1.88815 0.16839,-0.87275 0.93901,-2.49032 1.71248,-3.59461 1.27299,-1.81745 1.48966,-1.85888 2.28541,-0.43695 0.75569,1.35035 1.02433,1.19694 1.91389,-1.0929 1.53791,-3.95882 4.04802,-14.59805 3.55939,-15.08668 -0.2335,-0.2335 -1.38945,0.2513 -2.56877,1.07733 -1.17933,0.82603 -2.84245,1.50187 -3.69584,1.50187 -0.85338,0 -2.0331,0.58017 -2.6216,1.28926 -0.58849,0.70909 -2.74952,1.55783 -4.80229,1.88608 -2.05276,0.32825 -3.7323,0.95521 -3.7323,1.39323 0,0.43803 1.16016,0.58261 2.57812,0.32129 2.55051,-0.47003 2.55952,-0.45415 0.8413,1.48201 -0.95526,1.07643 -1.5683,2.46274 -1.36232,3.08069 0.35131,1.05393 -6.77587,9.29744 -8.03839,9.29744 -0.31967,0 -0.58121,-5.0625 -0.58121,-11.25 l 0,-11.25 11.64207,0 c 6.40314,0 12.30939,0.25607 13.125,0.56905 1.2501,0.47971 1.48293,2.54045 1.48293,13.125 0,7.74563 0.35917,12.55595 0.9375,12.55595 0.51562,0 0.9375,0.42187 0.9375,0.9375 0,0.51562 -0.42188,0.9375 -0.9375,0.9375 -0.51563,0 -0.9375,-0.40849 -0.9375,-0.90775 z m -21.81641,-25.90867 c -0.31152,-0.31152 -1.12011,-0.34483 -1.79687,-0.074 -0.74788,0.29928 -0.52573,0.52142 0.56641,0.56641 0.98828,0.0407 1.54199,-0.18087 1.23046,-0.4924 z m -6.30859,-2.24609 c 0,-0.51563 0.44677,-0.9375 0.99283,-0.9375 0.54605,0 0.73209,0.42187 0.41342,0.9375 -0.31867,0.51562 -0.76545,0.9375 -0.99283,0.9375 -0.22738,0 -0.41342,-0.42188 -0.41342,-0.9375 z m 28.59375,0 c -0.31867,-0.51563 -0.13263,-0.9375 0.41342,-0.9375 0.54606,0 0.99283,0.42187 0.99283,0.9375 0,0.51562 -0.18604,0.9375 -0.41342,0.9375 -0.22738,0 -0.67416,-0.42188 -0.99283,-0.9375 z"
         id="path4383"
         inkscape:connector-curvature="0" />
      <path
         style="fill:#c43b12"
         d="m 501.18796,766.35403 c 0,-0.54605 0.42187,-0.73209 0.9375,-0.41342 0.51562,0.31867 0.9375,0.76545 0.9375,0.99283 0,0.22738 -0.42188,0.41342 -0.9375,0.41342 -0.51563,0 -0.9375,-0.44677 -0.9375,-0.99283 z m 28.59375,0.0553 c 0.31867,-0.51563 0.76545,-0.9375 0.99283,-0.9375 0.22738,0 0.41342,0.42187 0.41342,0.9375 0,0.51562 -0.44677,0.9375 -0.99283,0.9375 -0.54605,0 -0.73209,-0.42188 -0.41342,-0.9375 z m -21.10525,-2.79101 c 0.54558,-1.01944 1.79549,-2.28355 2.77757,-2.80914 1.91915,-1.0271 4.73393,-0.3919 4.73393,1.06828 0,0.49089 0.42876,0.62754 0.95279,0.30367 0.52404,-0.32387 0.759,-0.90243 0.52213,-1.28569 -0.23687,-0.38326 0.34279,-1.87589 1.28813,-3.31697 1.52123,-2.31899 1.82122,-2.43713 2.60992,-1.02779 0.77307,1.3814 1.02823,1.23945 1.92594,-1.07137 1.53791,-3.95882 4.04802,-14.59805 3.55939,-15.08668 -0.2335,-0.2335 -1.38945,0.2513 -2.56877,1.07733 -1.17933,0.82603 -2.84245,1.50187 -3.69584,1.50187 -0.85338,0 -2.0331,0.58017 -2.6216,1.28926 -0.58849,0.70909 -2.74952,1.55783 -4.80229,1.88608 -2.05276,0.32825 -3.7323,0.95521 -3.7323,1.39323 0,0.43803 1.16016,0.58261 2.57812,0.32129 2.55051,-0.47003 2.55952,-0.45415 0.8413,1.48201 -0.95526,1.07643 -1.5683,2.46274 -1.36232,3.08069 0.35627,1.06879 -6.78441,9.29744 -8.06814,9.29744 -0.33603,0 -0.49211,-4.95703 -0.34684,-11.01563 l 0.26413,-11.01562 10.78125,-0.27208 c 16.27044,-0.4106 15,-1.54679 15,13.41494 l 0,12.63839 -10.81424,0 c -10.48193,0 -10.78375,-0.057 -9.82226,-1.85351 z m -1.17991,-23.0879 c -0.31152,-0.31152 -1.12011,-0.34483 -1.79687,-0.074 -0.74788,0.29928 -0.52573,0.52142 0.56641,0.56641 0.98828,0.0407 1.54199,-0.18087 1.23046,-0.4924 z m -6.30859,-2.24609 c 0,-0.51563 0.44677,-0.9375 0.99283,-0.9375 0.54605,0 0.73209,0.42187 0.41342,0.9375 -0.31867,0.51562 -0.76545,0.9375 -0.99283,0.9375 -0.22738,0 -0.41342,-0.42188 -0.41342,-0.9375 z m 28.59375,0 c -0.31867,-0.51563 -0.13263,-0.9375 0.41342,-0.9375 0.54606,0 0.99283,0.42187 0.99283,0.9375 0,0.51562 -0.18604,0.9375 -0.41342,0.9375 -0.22738,0 -0.67416,-0.42188 -0.99283,-0.9375 z"
         id="path4381"
         inkscape:connector-curvature="0" />
      <path
         style="fill:#7f5d31"
         d="m 501.18796,766.35403 c 0,-0.54605 0.42187,-0.73209 0.9375,-0.41342 0.51562,0.31867 0.9375,0.76545 0.9375,0.99283 0,0.22738 -0.42188,0.41342 -0.9375,0.41342 -0.51563,0 -0.9375,-0.44677 -0.9375,-0.99283 z m 28.59375,0.0553 c 0.31867,-0.51563 0.76545,-0.9375 0.99283,-0.9375 0.22738,0 0.41342,0.42187 0.41342,0.9375 0,0.51562 -0.44677,0.9375 -0.99283,0.9375 -0.54605,0 -0.73209,-0.42188 -0.41342,-0.9375 z m -20.625,-2.41392 c 1.03125,-0.77924 1.76953,-1.60957 1.64062,-1.84519 -0.68784,-1.25725 -0.0537,-1.44551 1.24333,-0.36909 1.22461,1.01633 1.62604,0.99585 2.34375,-0.11958 0.72077,-1.12018 1.00318,-1.13336 1.68351,-0.0786 0.64232,0.99581 1.14449,0.80046 2.34375,-0.91173 0.83946,-1.19849 1.53971,-3.03443 1.55611,-4.07985 0.0281,-1.78806 0.10432,-1.80259 1.28626,-0.24506 1.16491,1.5351 1.3297,1.4668 2.26203,-0.9375 1.51664,-3.9111 4.01369,-14.53267 3.53019,-15.01617 -0.2335,-0.2335 -1.38945,0.2513 -2.56877,1.07733 -1.17933,0.82603 -2.84245,1.50187 -3.69584,1.50187 -0.85338,0 -2.0331,0.58017 -2.6216,1.28926 -0.58849,0.70909 -2.74952,1.55783 -4.80229,1.88608 -2.05276,0.32825 -3.7323,0.95521 -3.7323,1.39323 0,0.43803 1.16016,0.58261 2.57812,0.32129 2.55051,-0.47003 2.55952,-0.45415 0.8413,1.48201 -0.95526,1.07643 -1.5683,2.46274 -1.36232,3.08069 0.35627,1.06879 -6.78441,9.29744 -8.06814,9.29744 -0.33603,0 -0.49211,-4.95703 -0.34684,-11.01563 l 0.26413,-11.01562 10.78125,-0.27208 c 16.27044,-0.4106 15,-1.54679 15,13.41494 l 0,12.63839 -11.01563,-0.0298 c -10.03374,-0.0272 -10.84849,-0.1561 -9.14062,-1.4466 z m -1.66016,-23.46499 c -0.31152,-0.31152 -1.12011,-0.34483 -1.79687,-0.074 -0.74788,0.29928 -0.52573,0.52142 0.56641,0.56641 0.98828,0.0407 1.54199,-0.18087 1.23046,-0.4924 z m -6.30859,-2.24609 c 0,-0.51563 0.44677,-0.9375 0.99283,-0.9375 0.54605,0 0.73209,0.42187 0.41342,0.9375 -0.31867,0.51562 -0.76545,0.9375 -0.99283,0.9375 -0.22738,0 -0.41342,-0.42188 -0.41342,-0.9375 z m 28.59375,0 c -0.31867,-0.51563 -0.13263,-0.9375 0.41342,-0.9375 0.54606,0 0.99283,0.42187 0.99283,0.9375 0,0.51562 -0.18604,0.9375 -0.41342,0.9375 -0.22738,0 -0.67416,-0.42188 -0.99283,-0.9375 z"
         id="path4379"
         inkscape:connector-curvature="0" />
      <path
         style="fill:#b24b10"
         d="m 501.18796,766.35403 c 0,-0.54605 0.42187,-0.73209 0.9375,-0.41342 0.51562,0.31867 0.9375,0.76545 0.9375,0.99283 0,0.22738 -0.42188,0.41342 -0.9375,0.41342 -0.51563,0 -0.9375,-0.44677 -0.9375,-0.99283 z m 28.59375,0.0553 c 0.31867,-0.51563 0.76545,-0.9375 0.99283,-0.9375 0.22738,0 0.41342,0.42187 0.41342,0.9375 0,0.51562 -0.44677,0.9375 -0.99283,0.9375 -0.54605,0 -0.73209,-0.42188 -0.41342,-0.9375 z m -20.625,-2.39401 c 1.03125,-0.79019 1.76953,-1.62948 1.64062,-1.8651 -0.68784,-1.25725 -0.0537,-1.44551 1.24333,-0.36909 1.22461,1.01633 1.62604,0.99585 2.34375,-0.11958 0.72077,-1.12018 1.00318,-1.13336 1.68351,-0.0786 0.64232,0.99581 1.14449,0.80046 2.34375,-0.91173 0.83946,-1.19849 1.53971,-3.03443 1.55611,-4.07985 0.0281,-1.78806 0.10432,-1.80259 1.28626,-0.24506 1.16491,1.5351 1.3297,1.4668 2.26203,-0.9375 1.51664,-3.9111 4.01369,-14.53267 3.53019,-15.01617 -0.2335,-0.2335 -1.38945,0.2513 -2.56877,1.07733 -1.17933,0.82603 -2.84245,1.50187 -3.69584,1.50187 -0.85338,0 -2.0331,0.58017 -2.6216,1.28926 -0.58849,0.70909 -2.74952,1.55783 -4.80229,1.88608 -2.05276,0.32825 -3.7323,0.95521 -3.7323,1.39323 0,0.43803 1.16016,0.58261 2.57812,0.32129 2.55051,-0.47003 2.55952,-0.45415 0.8413,1.48201 -0.95526,1.07643 -1.5683,2.46274 -1.36232,3.08069 0.35627,1.06879 -6.78441,9.29744 -8.06814,9.29744 -0.33603,0 -0.49211,-4.95703 -0.34684,-11.01563 l 0.26413,-11.01562 10.78125,-0.27208 c 16.33727,-0.41228 15.10264,-1.51293 14.79266,13.18735 l -0.26141,12.39723 -10.78125,0.22447 c -9.85028,0.2051 -10.61934,0.10042 -8.90625,-1.21223 z m -1.66016,-23.4849 c -0.31152,-0.31152 -1.12011,-0.34483 -1.79687,-0.074 -0.74788,0.29928 -0.52573,0.52142 0.56641,0.56641 0.98828,0.0407 1.54199,-0.18087 1.23046,-0.4924 z m -6.30859,-2.24609 c 0,-0.51563 0.44677,-0.9375 0.99283,-0.9375 0.54605,0 0.73209,0.42187 0.41342,0.9375 -0.31867,0.51562 -0.76545,0.9375 -0.99283,0.9375 -0.22738,0 -0.41342,-0.42188 -0.41342,-0.9375 z m 28.59375,0 c -0.31867,-0.51563 -0.13263,-0.9375 0.41342,-0.9375 0.54606,0 0.99283,0.42187 0.99283,0.9375 0,0.51562 -0.18604,0.9375 -0.41342,0.9375 -0.22738,0 -0.67416,-0.42188 -0.99283,-0.9375 z"
         id="path4377"
         inkscape:connector-curvature="0" />
      <path
         style="fill:#9a4b0b"
         d="m 501.18796,766.35403 c 0,-0.54605 0.42187,-0.73209 0.9375,-0.41342 0.51562,0.31867 0.9375,0.76545 0.9375,0.99283 0,0.22738 -0.42188,0.41342 -0.9375,0.41342 -0.51563,0 -0.9375,-0.44677 -0.9375,-0.99283 z m 28.59375,0.0553 c 0.31867,-0.51563 0.76545,-0.9375 0.99283,-0.9375 0.22738,0 0.41342,0.42187 0.41342,0.9375 0,0.51562 -0.44677,0.9375 -0.99283,0.9375 -0.54605,0 -0.73209,-0.42188 -0.41342,-0.9375 z m -20.53615,-1.73124 c -0.55311,-0.89495 2.04754,-2.46967 3.52546,-2.1347 0.44099,0.1 1.47119,-0.36042 2.28933,-1.02304 1.13533,-0.91952 1.32084,-0.9273 0.78349,-0.0329 -0.43783,0.72878 -0.17435,1.17188 0.69686,1.17188 0.77049,0 1.92963,-1.4622 2.57586,-3.24932 0.84384,-2.33358 1.48764,-2.98983 2.28441,-2.32857 1.27872,1.06123 2.24666,-1.02485 4.70991,-10.15067 0.87364,-3.23665 1.96397,-6.11691 2.42297,-6.40058 0.47664,-0.29458 0.72214,4.84255 0.57245,11.97855 l -0.26209,12.49434 -8.20313,0.27087 c -5.75914,0.19018 -8.20312,-0.0535 -8.20312,-0.81791 0,-0.82246 -0.32357,-0.82025 -1.32279,0.009 -0.79133,0.65674 -1.54248,0.74233 -1.86961,0.21302 z m -5.97893,-14.44064 0.26508,-10.54687 12.1875,-0.25943 c 10.63881,-0.22647 11.94924,-0.0936 10.3125,1.04559 -1.03125,0.71776 -2.92969,1.62269 -4.21875,2.01095 -1.28906,0.38825 -3.0407,1.31681 -3.89254,2.06347 -0.85183,0.74665 -2.11745,1.28379 -2.8125,1.19365 -1.86648,-0.24207 -5.48246,1.07337 -5.48246,1.99444 0,0.4393 0.63281,0.5559 1.40625,0.2591 1.72715,-0.66277 1.79229,0.57757 0.19229,3.66156 -1.69455,3.26625 -6.46025,9.12442 -7.42284,9.12442 -0.43978,0 -0.68032,-4.74609 -0.53453,-10.54688 z m 4.22992,-9.70703 c -0.31152,-0.31152 -1.12011,-0.34483 -1.79687,-0.074 -0.74788,0.29928 -0.52573,0.52142 0.56641,0.56641 0.98828,0.0407 1.54199,-0.18087 1.23046,-0.4924 z m -6.30859,-2.24609 c 0,-0.51563 0.44677,-0.9375 0.99283,-0.9375 0.54605,0 0.73209,0.42187 0.41342,0.9375 -0.31867,0.51562 -0.76545,0.9375 -0.99283,0.9375 -0.22738,0 -0.41342,-0.42188 -0.41342,-0.9375 z m 28.59375,0 c -0.31867,-0.51563 -0.13263,-0.9375 0.41342,-0.9375 0.54606,0 0.99283,0.42187 0.99283,0.9375 0,0.51562 -0.18604,0.9375 -0.41342,0.9375 -0.22738,0 -0.67416,-0.42188 -0.99283,-0.9375 z"
         id="path4375"
         inkscape:connector-curvature="0" />
      <path
         style="fill:#aa320a"
         d="m 501.18796,766.35403 c 0,-0.54605 0.42187,-0.73209 0.9375,-0.41342 0.51562,0.31867 0.9375,0.76545 0.9375,0.99283 0,0.22738 -0.42188,0.41342 -0.9375,0.41342 -0.51563,0 -0.9375,-0.44677 -0.9375,-0.99283 z m 28.59375,0.0553 c 0.31867,-0.51563 0.76545,-0.9375 0.99283,-0.9375 0.22738,0 0.41342,0.42187 0.41342,0.9375 0,0.51562 -0.44677,0.9375 -0.99283,0.9375 -0.54605,0 -0.73209,-0.42188 -0.41342,-0.9375 z m -20.53615,-1.73124 c -0.55311,-0.89495 2.04754,-2.46967 3.52546,-2.1347 0.44099,0.1 1.47119,-0.36042 2.28933,-1.02304 1.13533,-0.91952 1.32084,-0.9273 0.78349,-0.0329 -0.43783,0.72878 -0.17435,1.17188 0.69686,1.17188 0.77049,0 1.92963,-1.4622 2.57586,-3.24932 0.84949,-2.34923 1.48483,-2.99217 2.29354,-2.321 0.81095,0.67303 1.53579,-0.11443 2.63571,-2.8634 0.83443,-2.08545 1.52821,-4.52147 1.54173,-5.41338 0.0135,-0.89191 0.83019,-3.30915 1.81481,-5.37165 l 1.79023,-3.75 -0.17419,12.65625 -0.17418,12.65625 -8.20313,0.27087 c -5.75914,0.19018 -8.20312,-0.0535 -8.20312,-0.81791 0,-0.82246 -0.32357,-0.82025 -1.32279,0.009 -0.79133,0.65674 -1.54248,0.74233 -1.86961,0.21302 z m -5.48826,-4.49447 c -0.26422,-0.44305 -0.54932,-5.13503 -0.63355,-10.42662 -0.1171,-7.35689 0.147,-9.73625 1.12223,-10.11048 0.70146,-0.26918 6.10114,-0.36938 11.9993,-0.22268 l 10.72393,0.26674 -3.75,1.77057 c -2.0625,0.97382 -4.59375,2.09096 -5.625,2.48254 -4.42104,1.67873 -8.90625,3.83997 -8.90625,4.29155 0,0.26837 0.84375,0.22015 1.875,-0.10716 1.03125,-0.32731 1.875,-0.20961 1.875,0.26154 0,2.80886 -7.7553,13.34563 -8.68066,11.794 z m 3.73925,-19.6532 c -0.31152,-0.31152 -1.12011,-0.34483 -1.79687,-0.074 -0.74788,0.29928 -0.52573,0.52142 0.56641,0.56641 0.98828,0.0407 1.54199,-0.18087 1.23046,-0.4924 z m -6.30859,-2.24609 c 0,-0.51563 0.44677,-0.9375 0.99283,-0.9375 0.54605,0 0.73209,0.42187 0.41342,0.9375 -0.31867,0.51562 -0.76545,0.9375 -0.99283,0.9375 -0.22738,0 -0.41342,-0.42188 -0.41342,-0.9375 z m 28.59375,0 c -0.31867,-0.51563 -0.13263,-0.9375 0.41342,-0.9375 0.54606,0 0.99283,0.42187 0.99283,0.9375 0,0.51562 -0.18604,0.9375 -0.41342,0.9375 -0.22738,0 -0.67416,-0.42188 -0.99283,-0.9375 z"
         id="path4373"
         inkscape:connector-curvature="0" />
      <path
         style="fill:#8e2d04"
         d="m 501.18796,766.35403 c 0,-0.54605 0.42187,-0.73209 0.9375,-0.41342 0.51562,0.31867 0.9375,0.76545 0.9375,0.99283 0,0.22738 -0.42188,0.41342 -0.9375,0.41342 -0.51563,0 -0.9375,-0.44677 -0.9375,-0.99283 z m 28.59375,0.0553 c 0.31867,-0.51563 0.76545,-0.9375 0.99283,-0.9375 0.22738,0 0.41342,0.42187 0.41342,0.9375 0,0.51562 -0.44677,0.9375 -0.99283,0.9375 -0.54605,0 -0.73209,-0.42188 -0.41342,-0.9375 z m -17.34375,-1.25496 c 0,-0.21475 0.71379,-0.96946 1.58621,-1.67712 1.35906,-1.10241 1.46907,-1.09245 0.76822,0.0696 -0.45619,0.75638 0.4612,0.44539 2.07414,-0.70313 1.59067,-1.13265 3.40355,-2.05937 4.02862,-2.05937 0.6752,0 0.93734,-0.76158 0.64583,-1.87629 -0.26986,-1.03197 -0.15284,-1.66751 0.26005,-1.41233 0.83801,0.51792 3.7482,-6.15591 3.78651,-8.68348 0.0135,-0.89191 0.83019,-3.30915 1.81481,-5.37165 l 1.79023,-3.75 -0.17419,12.65625 -0.17418,12.65625 -8.20313,0.27087 c -4.51171,0.14899 -8.20312,0.0952 -8.20312,-0.11958 z m -8.81772,-7.75864 c -0.3065,-0.79874 -0.55728,-5.01693 -0.55728,-9.37375 0,-5.66938 0.34947,-8.0556 1.2292,-8.39318 0.67605,-0.25943 6.05496,-0.35166 11.95312,-0.20496 l 10.72393,0.26674 -3.75,1.77057 c -2.0625,0.97382 -4.59375,2.09096 -5.625,2.48254 -6.34798,2.41043 -9.28314,4.11722 -7.66554,4.45752 1.06875,0.22483 1.50797,0.88469 1.17188,1.76054 -0.29568,0.77051 -0.5376,1.89377 -0.53762,2.49613 -10e-6,0.60236 -1.43674,2.24155 -3.19272,3.64265 -2.66051,2.12283 -3.28558,2.30538 -3.74997,1.0952 z m 3.87631,-16.86531 c -0.31152,-0.31152 -1.12011,-0.34483 -1.79687,-0.074 -0.74788,0.29928 -0.52573,0.52142 0.56641,0.56641 0.98828,0.0407 1.54199,-0.18087 1.23046,-0.4924 z m -6.30859,-2.24609 c 0,-0.51563 0.44677,-0.9375 0.99283,-0.9375 0.54605,0 0.73209,0.42187 0.41342,0.9375 -0.31867,0.51562 -0.76545,0.9375 -0.99283,0.9375 -0.22738,0 -0.41342,-0.42188 -0.41342,-0.9375 z m 28.59375,0 c -0.31867,-0.51563 -0.13263,-0.9375 0.41342,-0.9375 0.54606,0 0.99283,0.42187 0.99283,0.9375 0,0.51562 -0.18604,0.9375 -0.41342,0.9375 -0.22738,0 -0.67416,-0.42188 -0.99283,-0.9375 z"
         id="path4371"
         inkscape:connector-curvature="0" />
      <path
         style="fill:#752408"
         d="m 501.18796,766.35403 c 0,-0.54605 0.42187,-0.73209 0.9375,-0.41342 0.51562,0.31867 0.9375,0.76545 0.9375,0.99283 0,0.22738 -0.42188,0.41342 -0.9375,0.41342 -0.51563,0 -0.9375,-0.44677 -0.9375,-0.99283 z m 28.59375,0.0553 c 0.31867,-0.51563 0.76545,-0.9375 0.99283,-0.9375 0.22738,0 0.41342,0.42187 0.41342,0.9375 0,0.51562 -0.44677,0.9375 -0.99283,0.9375 -0.54605,0 -0.73209,-0.42188 -0.41342,-0.9375 z m -12.45919,-1.5835 -2.1467,-0.43169 2.37202,-1.86583 c 1.30461,-1.0262 2.79796,-1.60258 3.31857,-1.28082 0.5206,0.32175 0.94655,-0.0625 0.94655,-0.85392 0,-0.79141 0.84217,-2.82021 1.8715,-4.50846 1.02932,-1.68824 1.87307,-3.92488 1.875,-4.97031 0.002,-1.04542 0.66075,-2.83913 1.46406,-3.98602 0.80331,-1.14688 1.2183,-2.47722 0.92221,-2.95632 -0.2961,-0.47909 -0.0964,-1.14425 0.44388,-1.47813 0.6696,-0.41383 0.89827,3.07174 0.71842,10.95085 l -0.26382,11.5579 -4.6875,0.12722 c -2.57813,0.07 -5.65351,-0.067 -6.83419,-0.30447 z M 503.52818,754.0086 c -0.32642,-2.20302 -0.45916,-6.3258 -0.29498,-9.16174 l 0.29851,-5.15625 10.76714,-0.26714 c 12.43506,-0.30852 12.65945,0.3455 1.69987,4.95464 -3.67814,1.54687 -6.88533,3.40707 -7.12707,4.13377 -0.31995,0.9618 0.0416,1.13798 1.32901,0.64758 1.4186,-0.54038 1.53666,-0.44008 0.59667,0.50686 -0.64453,0.6493 -1.19521,1.83445 -1.22374,2.63366 -0.0285,0.79922 -1.26688,2.41185 -2.75189,3.58362 l -2.70002,2.13048 -0.5935,-4.00548 z m 3.96837,-13.47815 c -0.31152,-0.31152 -1.12011,-0.34483 -1.79687,-0.074 -0.74788,0.29928 -0.52573,0.52142 0.56641,0.56641 0.98828,0.0407 1.54199,-0.18087 1.23046,-0.4924 z m -6.30859,-2.24609 c 0,-0.51563 0.44677,-0.9375 0.99283,-0.9375 0.54605,0 0.73209,0.42187 0.41342,0.9375 -0.31867,0.51562 -0.76545,0.9375 -0.99283,0.9375 -0.22738,0 -0.41342,-0.42188 -0.41342,-0.9375 z m 28.59375,0 c -0.31867,-0.51563 -0.13263,-0.9375 0.41342,-0.9375 0.54606,0 0.99283,0.42187 0.99283,0.9375 0,0.51562 -0.18604,0.9375 -0.41342,0.9375 -0.22738,0 -0.67416,-0.42188 -0.99283,-0.9375 z"
         id="path4369"
         inkscape:connector-curvature="0" />
      <path
         style="fill:#861901"
         d="m 501.18796,766.35403 c 0,-0.54605 0.42187,-0.73209 0.9375,-0.41342 0.51562,0.31867 0.9375,0.76545 0.9375,0.99283 0,0.22738 -0.42188,0.41342 -0.9375,0.41342 -0.51563,0 -0.9375,-0.44677 -0.9375,-0.99283 z m 28.59375,0.0553 c 0.31867,-0.51563 0.76545,-0.9375 0.99283,-0.9375 0.22738,0 0.41342,0.42187 0.41342,0.9375 0,0.51562 -0.44677,0.9375 -0.99283,0.9375 -0.54605,0 -0.73209,-0.42188 -0.41342,-0.9375 z m -7.96875,-1.63016 c 0,-0.44321 -1.58203,-0.62895 -3.51563,-0.41275 l -3.51562,0.3931 2.56907,-2.04852 c 1.41299,-1.12668 2.99502,-1.78527 3.51563,-1.46351 0.5206,0.32175 0.94538,0.0327 0.94395,-0.64221 -10e-4,-0.67496 0.82497,-2.9147 1.83646,-4.9772 1.01148,-2.0625 2.07538,-4.91016 2.36421,-6.32813 0.28883,-1.41796 1.10992,-2.57812 1.82463,-2.57812 1.02872,0 1.26917,1.90447 1.15401,9.14062 l -0.14546,9.14063 -3.51563,0.29097 c -1.93359,0.16003 -3.51562,-0.0717 -3.51562,-0.51488 z m -17.8125,-8.02749 c 0,-0.74952 0.63281,-1.88795 1.40625,-2.52985 0.77344,-0.6419 1.39283,-1.64277 1.37643,-2.22417 -0.0164,-0.58139 -0.6376,-0.25404 -1.38045,0.72745 -1.90047,2.511 -2.50994,0.5188 -2.15361,-7.03952 l 0.28263,-5.99501 10.55353,-0.10408 c 12.26412,-0.12095 12.56516,0.64349 1.8804,4.77494 -3.74491,1.44804 -7.33627,3.04504 -7.98081,3.54889 -2.08092,1.62671 -1.24535,2.54283 1.40625,1.54182 2.07475,-0.78324 2.34932,-0.7421 1.40625,0.2107 -0.64453,0.65119 -1.19521,1.83789 -1.22374,2.6371 -0.0698,1.9562 -5.57313,6.35214 -5.57313,4.45173 z m 3.49609,-16.22126 c -0.31152,-0.31152 -1.12011,-0.34483 -1.79687,-0.074 -0.74788,0.29928 -0.52573,0.52142 0.56641,0.56641 0.98828,0.0407 1.54199,-0.18087 1.23046,-0.4924 z m -6.30859,-2.24609 c 0,-0.51563 0.44677,-0.9375 0.99283,-0.9375 0.54605,0 0.73209,0.42187 0.41342,0.9375 -0.31867,0.51562 -0.76545,0.9375 -0.99283,0.9375 -0.22738,0 -0.41342,-0.42188 -0.41342,-0.9375 z m 28.59375,0 c -0.31867,-0.51563 -0.13263,-0.9375 0.41342,-0.9375 0.54606,0 0.99283,0.42187 0.99283,0.9375 0,0.51562 -0.18604,0.9375 -0.41342,0.9375 -0.22738,0 -0.67416,-0.42188 -0.99283,-0.9375 z"
         id="path4367"
         inkscape:connector-curvature="0" />
      <path
         style="fill:#771702"
         d="m 501.18796,766.35403 c 0,-0.54605 0.42187,-0.73209 0.9375,-0.41342 0.51562,0.31867 0.9375,0.76545 0.9375,0.99283 0,0.22738 -0.42188,0.41342 -0.9375,0.41342 -0.51563,0 -0.9375,-0.44677 -0.9375,-0.99283 z m 28.59375,0.0553 c 0.31867,-0.51563 0.76545,-0.9375 0.99283,-0.9375 0.22738,0 0.41342,0.42187 0.41342,0.9375 0,0.51562 -0.44677,0.9375 -0.99283,0.9375 -0.54605,0 -0.73209,-0.42188 -0.41342,-0.9375 z m -7.96875,-1.73064 c 0,-0.49848 -0.84375,-0.68568 -1.875,-0.416 -1.03125,0.26968 -1.875,0.0325 -1.875,-0.52709 0,-0.55958 0.62926,-0.77596 1.39835,-0.48083 0.79726,0.30594 1.64546,-0.10738 1.97323,-0.96154 0.31619,-0.82397 0.98896,-1.24222 1.49505,-0.92944 0.53113,0.32825 0.79379,-0.39566 0.62126,-1.71223 -0.16439,-1.2545 0.39747,-3.34371 1.2486,-4.64269 0.85112,-1.29898 1.6875,-3.55696 1.85863,-5.01773 0.17112,-1.46078 0.79832,-2.81574 1.39378,-3.01102 0.77546,-0.25431 1.04147,2.25224 0.9375,8.83395 l -0.14515,9.18901 -3.51563,0.29097 c -1.93359,0.16003 -3.51562,-0.11688 -3.51562,-0.61536 z M 504.10888,753.9557 c -0.66861,-1.24932 -1.02746,-4.66609 -0.86154,-8.20312 l 0.28437,-6.06197 10.76215,-0.10167 c 10.10756,-0.0955 10.62646,-0.0116 8.5312,1.37963 -1.22703,0.81472 -4.80438,2.50031 -7.94966,3.74576 -3.14528,1.24546 -6.24603,2.68018 -6.89057,3.18829 -1.81522,1.431 -1.38488,2.44941 0.79424,1.87955 1.82349,-0.47685 1.87449,-0.3541 0.70312,1.69215 -1.35329,2.36405 -3.23438,4.62254 -3.8501,4.62254 -0.20751,0 -0.89295,-0.96352 -1.52321,-2.14116 z m 2.70408,-1.7195 c 0,-0.51562 -0.42188,-0.67676 -0.9375,-0.35809 -0.51563,0.31867 -0.9375,1.00128 -0.9375,1.51691 0,0.51562 0.42187,0.67676 0.9375,0.35809 0.51562,-0.31867 0.9375,-1.00128 0.9375,-1.51691 z m 0.68359,-11.70575 c -0.31152,-0.31152 -1.12011,-0.34483 -1.79687,-0.074 -0.74788,0.29928 -0.52573,0.52142 0.56641,0.56641 0.98828,0.0407 1.54199,-0.18087 1.23046,-0.4924 z m -6.30859,-2.24609 c 0,-0.51563 0.44677,-0.9375 0.99283,-0.9375 0.54605,0 0.73209,0.42187 0.41342,0.9375 -0.31867,0.51562 -0.76545,0.9375 -0.99283,0.9375 -0.22738,0 -0.41342,-0.42188 -0.41342,-0.9375 z m 28.59375,0 c -0.31867,-0.51563 -0.13263,-0.9375 0.41342,-0.9375 0.54606,0 0.99283,0.42187 0.99283,0.9375 0,0.51562 -0.18604,0.9375 -0.41342,0.9375 -0.22738,0 -0.67416,-0.42188 -0.99283,-0.9375 z"
         id="path4365"
         inkscape:connector-curvature="0" />
      <path
         style="fill:#512304"
         d="m 501.18796,766.35403 c 0,-0.54605 0.42187,-0.73209 0.9375,-0.41342 0.51562,0.31867 0.9375,0.76545 0.9375,0.99283 0,0.22738 -0.42188,0.41342 -0.9375,0.41342 -0.51563,0 -0.9375,-0.44677 -0.9375,-0.99283 z m 28.59375,0.0553 c 0.31867,-0.51563 0.76545,-0.9375 0.99283,-0.9375 0.22738,0 0.41342,0.42187 0.41342,0.9375 0,0.51562 -0.44677,0.9375 -0.99283,0.9375 -0.54605,0 -0.73209,-0.42188 -0.41342,-0.9375 z m -7.96875,-2.75591 c 0,-1.06237 0.42187,-1.93159 0.9375,-1.93159 0.51562,0 0.9375,-1.29052 0.9375,-2.86783 0,-1.5773 0.3915,-2.62587 0.87,-2.33013 0.94816,0.58599 1.49784,-0.82981 2.48889,-6.41057 1.08063,-6.08522 2.37766,-1.61095 2.06989,7.14035 l -0.27253,7.74943 -3.51563,0.29097 c -3.0191,0.24987 -3.51562,0.0182 -3.51562,-1.64063 z m -16.05894,-9.13558 c 1.38115,-2.67082 1.35022,-3.7748 -0.0661,-2.35851 -2.20324,2.20324 -2.70355,1.03629 -2.4317,-5.67188 l 0.27545,-6.79687 9.14062,0 c 5.21025,0 9.17623,0.39021 9.22341,0.90749 0.0455,0.49913 -2.76829,2.0624 -6.25295,3.47394 -6.77383,2.74391 -9.9268,5.08168 -8.36108,6.19935 1.52154,1.08613 1.30998,2.42342 -0.69913,4.41922 l -1.8875,1.875 1.05894,-2.04774 z m 1.74253,-13.98742 c -0.31152,-0.31152 -1.12011,-0.34483 -1.79687,-0.074 -0.74788,0.29928 -0.52573,0.52142 0.56641,0.56641 0.98828,0.0407 1.54199,-0.18087 1.23046,-0.4924 z m -6.30859,-2.24609 c 0,-0.51563 0.44677,-0.9375 0.99283,-0.9375 0.54605,0 0.73209,0.42187 0.41342,0.9375 -0.31867,0.51562 -0.76545,0.9375 -0.99283,0.9375 -0.22738,0 -0.41342,-0.42188 -0.41342,-0.9375 z m 28.59375,0 c -0.31867,-0.51563 -0.13263,-0.9375 0.41342,-0.9375 0.54606,0 0.99283,0.42187 0.99283,0.9375 0,0.51562 -0.18604,0.9375 -0.41342,0.9375 -0.22738,0 -0.67416,-0.42188 -0.99283,-0.9375 z"
         id="path4363"
         inkscape:connector-curvature="0" />
      <path
         style="fill:#581903"
         d="m 501.18796,766.35403 c 0,-0.54605 0.42187,-0.73209 0.9375,-0.41342 0.51562,0.31867 0.9375,0.76545 0.9375,0.99283 0,0.22738 -0.42188,0.41342 -0.9375,0.41342 -0.51563,0 -0.9375,-0.44677 -0.9375,-0.99283 z m 28.59375,0.0553 c 0.31867,-0.51563 0.76545,-0.9375 0.99283,-0.9375 0.22738,0 0.41342,0.42187 0.41342,0.9375 0,0.51562 -0.44677,0.9375 -0.99283,0.9375 -0.54605,0 -0.73209,-0.42188 -0.41342,-0.9375 z m -7.96875,-2.8125 c 0,-1.03125 0.42187,-1.875 0.9375,-1.875 0.51562,0 0.9375,-1.29052 0.9375,-2.86783 0,-1.5773 0.3915,-2.62587 0.87,-2.33013 0.94688,0.5852 1.49832,-0.83153 2.483,-6.37915 0.98713,-5.56143 2.24095,-2.22978 2.25764,5.99898 0.0158,7.79319 -0.78401,9.32813 -4.86064,9.32813 -2,0 -2.625,-0.44643 -2.625,-1.875 z m -16.05894,-9.07899 c 1.38115,-2.67082 1.35022,-3.7748 -0.0661,-2.35851 -1.94864,1.94864 -2.28504,1.28298 -2.4542,-4.85645 -0.11405,-4.13938 0.23794,-6.31569 1.14295,-7.06678 1.58576,-1.31606 17.4152,-0.98914 17.52684,0.36197 0.0412,0.49913 -2.7761,2.0624 -6.26076,3.47394 -6.77383,2.74391 -9.9268,5.08168 -8.36108,6.19935 1.52154,1.08613 1.30998,2.42342 -0.69913,4.41922 l -1.8875,1.875 1.05894,-2.04774 z m 1.74253,-13.98742 c -0.31152,-0.31152 -1.12011,-0.34483 -1.79687,-0.074 -0.74788,0.29928 -0.52573,0.52142 0.56641,0.56641 0.98828,0.0407 1.54199,-0.18087 1.23046,-0.4924 z m -6.30859,-2.24609 c 0,-0.51563 0.44677,-0.9375 0.99283,-0.9375 0.54605,0 0.73209,0.42187 0.41342,0.9375 -0.31867,0.51562 -0.76545,0.9375 -0.99283,0.9375 -0.22738,0 -0.41342,-0.42188 -0.41342,-0.9375 z m 28.59375,0 c -0.31867,-0.51563 -0.13263,-0.9375 0.41342,-0.9375 0.54606,0 0.99283,0.42187 0.99283,0.9375 0,0.51562 -0.18604,0.9375 -0.41342,0.9375 -0.22738,0 -0.67416,-0.42188 -0.99283,-0.9375 z"
         id="path4361"
         inkscape:connector-curvature="0" />
      <path
         style="fill:#670b00"
         d="m 501.18796,766.35403 c 0,-0.54605 0.42187,-0.73209 0.9375,-0.41342 0.51562,0.31867 0.9375,0.76545 0.9375,0.99283 0,0.22738 -0.42188,0.41342 -0.9375,0.41342 -0.51563,0 -0.9375,-0.44677 -0.9375,-0.99283 z m 28.59375,0.0553 c 0.31867,-0.51563 0.76545,-0.9375 0.99283,-0.9375 0.22738,0 0.41342,0.42187 0.41342,0.9375 0,0.51562 -0.44677,0.9375 -0.99283,0.9375 -0.54605,0 -0.73209,-0.42188 -0.41342,-0.9375 z m -5.85938,-1.59912 c -2.31981,-0.44682 -2.94125,-3.08838 -0.72656,-3.08838 1.0516,0 1.2411,-0.70857 0.79116,-2.95827 -0.41485,-2.07426 -0.27598,-2.76318 0.4647,-2.30541 0.65145,0.40262 1.28387,-0.35005 1.64991,-1.9636 1.9087,-8.41388 1.98235,-8.41481 2.71571,-0.0341 0.53005,6.05739 0.41339,8.57466 -0.44534,9.60937 -0.63994,0.77109 -1.42828,1.34452 -1.75187,1.2743 -0.32358,-0.0702 -1.53755,-0.3105 -2.69771,-0.53395 z M 506.1134,753.41426 c 1.13181,-2.99851 2.26356,-3.88507 2.2602,-1.77053 -0.001,0.64454 -0.75989,1.96862 -1.68635,2.94241 -1.6313,1.71462 -1.64942,1.67762 -0.57385,-1.17188 z m -2.62986,-5.34703 c -0.40059,-3.20619 -0.29837,-6.02101 0.25046,-6.89684 1.14006,-1.81935 7.25194,-2.32557 14.32896,-1.18679 l 5.15625,0.8297 -3.75,1.58583 c -2.0625,0.8722 -5.37288,2.28412 -7.35639,3.13759 -1.98352,0.85347 -4.58426,2.99082 -5.77943,4.74967 l -2.17303,3.19791 -0.67682,-5.41707 z m 4.01301,-7.53678 c -0.31152,-0.31152 -1.12011,-0.34483 -1.79687,-0.074 -0.74788,0.29928 -0.52573,0.52142 0.56641,0.56641 0.98828,0.0407 1.54199,-0.18087 1.23046,-0.4924 z m -6.30859,-2.24609 c 0,-0.51563 0.44677,-0.9375 0.99283,-0.9375 0.54605,0 0.73209,0.42187 0.41342,0.9375 -0.31867,0.51562 -0.76545,0.9375 -0.99283,0.9375 -0.22738,0 -0.41342,-0.42188 -0.41342,-0.9375 z m 28.59375,0 c -0.31867,-0.51563 -0.13263,-0.9375 0.41342,-0.9375 0.54606,0 0.99283,0.42187 0.99283,0.9375 0,0.51562 -0.18604,0.9375 -0.41342,0.9375 -0.22738,0 -0.67416,-0.42188 -0.99283,-0.9375 z"
         id="path4359"
         inkscape:connector-curvature="0" />
      <path
         style="fill:#31220e"
         d="m 501.18796,766.35403 c 0,-0.54605 0.42187,-0.73209 0.9375,-0.41342 0.51562,0.31867 0.9375,0.76545 0.9375,0.99283 0,0.22738 -0.42188,0.41342 -0.9375,0.41342 -0.51563,0 -0.9375,-0.44677 -0.9375,-0.99283 z m 28.59375,0.0553 c 0.31867,-0.51563 0.76545,-0.9375 0.99283,-0.9375 0.22738,0 0.41342,0.42187 0.41342,0.9375 0,0.51562 -0.44677,0.9375 -0.99283,0.9375 -0.54605,0 -0.73209,-0.42188 -0.41342,-0.9375 z m -5.85938,-1.6059 c -2.1896,-0.4147 -3.00078,-3.0816 -0.93731,-3.0816 1.03533,0 3.8415,-7.48982 4.74185,-12.65625 0.17972,-1.03125 0.66662,1.46872 1.08202,5.55548 0.95026,9.34895 0.0973,11.12628 -4.88656,10.18237 z m -20.43971,-16.74361 c -1.06357,-8.51249 0.63153,-9.64663 12.51573,-8.37394 4.95253,0.53037 5.7331,0.8483 4.81087,1.95952 -0.60547,0.72954 -2.08514,1.32643 -3.28817,1.32643 -2.84724,0 -8.75723,3.97507 -11.33219,7.62204 l -2.03035,2.87563 -0.67589,-5.40968 z m 4.01393,-7.5294 c -0.31152,-0.31152 -1.12011,-0.34483 -1.79687,-0.074 -0.74788,0.29928 -0.52573,0.52142 0.56641,0.56641 0.98828,0.0407 1.54199,-0.18087 1.23046,-0.4924 z m -6.30859,-2.24609 c 0,-0.51563 0.44677,-0.9375 0.99283,-0.9375 0.54605,0 0.73209,0.42187 0.41342,0.9375 -0.31867,0.51562 -0.76545,0.9375 -0.99283,0.9375 -0.22738,0 -0.41342,-0.42188 -0.41342,-0.9375 z m 28.59375,0 c -0.31867,-0.51563 -0.13263,-0.9375 0.41342,-0.9375 0.54606,0 0.99283,0.42187 0.99283,0.9375 0,0.51562 -0.18604,0.9375 -0.41342,0.9375 -0.22738,0 -0.67416,-0.42188 -0.99283,-0.9375 z"
         id="path4357"
         inkscape:connector-curvature="0" />
      <path
         style="fill:#580601"
         d="m 523.92233,764.80346 c -2.1896,-0.4147 -3.00078,-3.0816 -0.93731,-3.0816 1.03533,0 3.8415,-7.48982 4.74185,-12.65625 0.17972,-1.03125 0.66662,1.46872 1.08202,5.55548 0.95026,9.34895 0.0973,11.12628 -4.88656,10.18237 z m -20.30192,-15.3944 c -0.36617,-2.28992 -0.2317,-4.32545 0.32234,-4.87949 0.64246,-0.64246 0.61673,-1.35289 -0.0794,-2.19165 -0.56649,-0.68258 -0.87286,-1.27533 -0.68082,-1.31722 0.19204,-0.0419 1.40386,-0.21723 2.69292,-0.38965 1.28906,-0.17241 3.60937,-0.52549 5.15625,-0.78462 1.54687,-0.25913 4.60912,-0.23688 6.80499,0.0494 3.23537,0.42186 3.79139,0.76288 2.93208,1.79829 -0.58322,0.70274 -2.0447,1.27771 -3.24773,1.27771 -2.82636,0 -8.75036,3.96587 -11.28711,7.55625 l -1.98527,2.80985 -0.62826,-3.9289 z"
         id="path4355"
         inkscape:connector-curvature="0" />
      <path
         style="fill:#461800"
         d="m 523.77633,764.65388 c -2.09907,-0.58734 -2.1478,-0.73866 -0.70313,-2.18334 0.85375,-0.85374 1.55226,-2.02916 1.55226,-2.61204 0,-0.58289 0.43233,-0.7926 0.96073,-0.46603 0.5284,0.32656 0.87926,0.24599 0.7797,-0.17905 -0.0996,-0.42505 0.16634,-2.45328 0.5909,-4.50719 0.63683,-3.08086 0.89901,-3.40898 1.49815,-1.875 1.14347,2.92763 0.97312,10.27553 -0.26698,11.51563 -1.22618,1.22618 -1.14651,1.22064 -4.41163,0.30702 z m -20.1961,-15.65934 c -0.35944,-1.91598 -0.21286,-3.8536 0.34211,-4.5223 0.67661,-0.81527 0.63669,-1.50431 -0.13169,-2.27269 -0.60648,-0.60648 -0.91285,-1.13696 -0.68082,-1.17885 0.23204,-0.0419 1.47657,-0.21374 2.76563,-0.38187 1.28906,-0.16814 3.82233,-0.54693 5.62948,-0.84175 1.80715,-0.29481 4.47038,-0.21921 5.91828,0.16802 2.61724,0.69996 2.60503,0.71757 -2.09928,3.02728 -2.6025,1.27778 -4.73839,2.63964 -4.7464,3.02635 -0.008,0.38672 -0.63656,0.70313 -1.39675,0.70313 -0.7602,0 -2.03666,1.26562 -2.83658,2.8125 -0.79992,1.54687 -1.60755,2.8125 -1.79474,2.8125 -0.18719,0 -0.62334,-1.50854 -0.96924,-3.35232 z"
         id="path4353"
         inkscape:connector-curvature="0" />
      <path
         style="fill:#470300"
         d="m 522.41144,763.12811 c 0.29679,-0.77344 0.86716,-1.40625 1.26748,-1.40625 0.74191,0 0.95339,-0.45822 3.24503,-7.03125 l 1.30741,-3.75 0.072,6.79687 0.072,6.79688 -3.25183,0 c -2.50534,0 -3.12795,-0.32281 -2.71219,-1.40625 z m -18.3065,-16.64073 0.12706,-5.85949 8.08736,-0.26992 8.08735,-0.26992 -4.08007,2.37941 c -2.24404,1.30867 -4.45888,2.3794 -4.92187,2.3794 -0.463,0 -0.84181,0.42187 -0.84181,0.9375 0,0.51562 -0.62198,0.9375 -1.38217,0.9375 -0.7602,0 -2.03666,1.26562 -2.83658,2.8125 -0.79992,1.54687 -1.65958,2.8125 -1.91036,2.8125 -0.25078,0 -0.39879,-2.63677 -0.32891,-5.85948 z"
         id="path4351"
         inkscape:connector-curvature="0" />
      <path
         style="fill:#370200"
         d="m 523.0579,763.21896 c 0.2024,-0.56559 1.2447,-0.93246 2.31622,-0.81527 1.55067,0.1696 2.02505,-0.40432 2.32475,-2.8125 0.32861,-2.64061 0.39561,-2.52659 0.52656,0.89609 0.14503,3.79089 0.0552,3.91898 -2.69275,3.84085 -1.63409,-0.0465 -2.68632,-0.51806 -2.47478,-1.10917 z m -18.92571,-18.00499 0.10396,-4.58586 7.1253,-0.31357 7.12529,-0.31357 -4.9936,3.36045 c -2.74648,1.84824 -5.23439,3.36044 -5.52869,3.36044 -0.29431,0 -1.30035,0.69254 -2.23566,1.53899 -1.62131,1.46726 -1.69572,1.32526 -1.5966,-3.04688 z"
         id="path4349"
         inkscape:connector-curvature="0" />
      <path
         style="fill:#280100"
         d="m 527.09894,763.12811 c 0.29679,-0.77344 0.70543,-1.40625 0.90807,-1.40625 0.20265,0 0.36845,0.63281 0.36845,1.40625 0,0.77344 -0.40863,1.40625 -0.90808,1.40625 -0.49944,0 -0.66524,-0.63281 -0.36844,-1.40625 z m -22.93024,-18.98438 0.0507,-3.51562 5.68332,-0.29824 c 5.07299,-0.26621 5.5523,-0.14037 4.46323,1.17187 -0.67104,0.80857 -1.80124,1.47012 -2.51154,1.47012 -0.7103,0 -1.29146,0.41104 -1.29146,0.91342 0,0.79412 -4.72838,3.77408 -5.98843,3.77408 -0.2511,0 -0.43372,-1.58203 -0.40583,-3.51563 z"
         id="path4347"
         inkscape:connector-curvature="0" />
      <path
         style="fill:#160100"
         d="m 504.22067,743.34351 c -0.0693,-2.58108 0.14261,-2.7282 4.28463,-2.97411 4.04439,-0.24011 4.22439,-0.15802 2.50449,1.14206 -1.01919,0.77042 -2.43938,1.41419 -3.15598,1.43058 -0.71659,0.0164 -1.81079,0.72441 -2.43155,1.57335 -0.97793,1.3374 -1.1384,1.18091 -1.20159,-1.17188 z"
         id="path4345"
         inkscape:connector-curvature="0" />
    </g>
    <rect
       style="opacity:0.95400002;fill:none;fill-opacity:1;fill-rule:evenodd;stroke:#12f600;stroke-width:14.5150919;stroke-linecap:round;stroke-linejoin:round;stroke-miterlimit:4;stroke-dasharray:none;stroke-dashoffset:0;stroke-opacity:1"
       id="rect6205"
       width="195.02061"
       height="195.02061"
       x="25.489689"
       y="30.851904" />
  </g>
</svg>
