<?xml version="1.0" encoding="UTF-8" standalone="no"?>
<!-- Created with Inkscape (http://www.inkscape.org/) -->

<svg
   xmlns:osb="http://www.openswatchbook.org/uri/2009/osb"
   xmlns:dc="http://purl.org/dc/elements/1.1/"
   xmlns:cc="http://creativecommons.org/ns#"
   xmlns:rdf="http://www.w3.org/1999/02/22-rdf-syntax-ns#"
   xmlns:svg="http://www.w3.org/2000/svg"
   xmlns="http://www.w3.org/2000/svg"
   xmlns:sodipodi="http://sodipodi.sourceforge.net/DTD/sodipodi-0.dtd"
   xmlns:inkscape="http://www.inkscape.org/namespaces/inkscape"
   id="svg4136"
   version="1.1"
   inkscape:version="0.91 r13725"
   width="547.83344"
   height="547.82019"
   viewBox="0 0 547.83345 547.8202"
   sodipodi:docname="SwordForwardFramesInclines45degre.svg"
   inkscape:export-filename="C:\Users\Amaury Punel\Desktop\ImagesJeuSword\SwordForwardInclineeFrame1.png"
   inkscape:export-xdpi="90.016327"
   inkscape:export-ydpi="90.016327">
  <metadata
     id="metadata4142">
    <rdf:RDF>
      <cc:Work
         rdf:about="">
        <dc:format>image/svg+xml</dc:format>
        <dc:type
           rdf:resource="http://purl.org/dc/dcmitype/StillImage" />
        <dc:title></dc:title>
      </cc:Work>
    </rdf:RDF>
  </metadata>
  <defs
     id="defs4140">
    <linearGradient
       id="linearGradient4166"
       osb:paint="solid">
      <stop
         style="stop-color:#c0c1b0;stop-opacity:1;"
         offset="0"
         id="stop4168" />
    </linearGradient>
  </defs>
  <sodipodi:namedview
     pagecolor="#ffffff"
     bordercolor="#666666"
     borderopacity="1"
     objecttolerance="10"
     gridtolerance="10"
     guidetolerance="10"
     inkscape:pageopacity="0"
     inkscape:pageshadow="2"
     inkscape:window-width="1366"
     inkscape:window-height="705"
     id="namedview4138"
     showgrid="false"
     inkscape:zoom="0.50000001"
     inkscape:cx="69.377512"
     inkscape:cy="347.20451"
     inkscape:window-x="-8"
     inkscape:window-y="-8"
     inkscape:window-maximized="1"
     inkscape:current-layer="svg4136"
     fit-margin-top="0"
     fit-margin-left="0"
     fit-margin-right="0"
     fit-margin-bottom="0" />
  <g
     id="g5753"
     transform="matrix(0.70710678,0.70710678,-0.70710678,0.70710678,807.86304,-97.568707)">
    <rect
       y="167.54231"
       x="46.239227"
       height="34.86948"
       width="11.501709"
       id="rect5684-9"
       style="opacity:1;fill:#541d06;fill-opacity:1;stroke:#000000;stroke-width:1.86999989;stroke-linecap:butt;stroke-linejoin:miter;stroke-miterlimit:4;stroke-dasharray:none;stroke-opacity:1" />
    <ellipse
       ry="5.7193537"
       rx="5.7524986"
       cy="203.59146"
       cx="51.990631"
       id="path5686-5"
       style="opacity:1;fill:#f2c100;fill-opacity:1;stroke:#000000;stroke-width:1.87;stroke-linecap:butt;stroke-linejoin:miter;stroke-miterlimit:4;stroke-dasharray:none;stroke-opacity:1" />
    <rect
       ry="0"
       y="171.55679"
       x="22.934998"
       height="8.1300001"
       width="58.129997"
       id="rect4162-5"
       style="opacity:1;fill:#f2c100;fill-opacity:1;stroke:#000000;stroke-width:1.87;stroke-linecap:butt;stroke-linejoin:miter;stroke-miterlimit:4;stroke-dasharray:none;stroke-opacity:1" />
    <path
       sodipodi:nodetypes="cccccc"
       inkscape:connector-curvature="0"
       id="path4164-2"
       d="M 40.778302,171.52807 27.953112,62.448287 52,40.632324 76.04735,62.448287 63.22229,171.52807 Z"
       style="fill:#c0c1b0;fill-opacity:1;fill-rule:evenodd;stroke:#000000;stroke-width:1.87013519px;stroke-linecap:butt;stroke-linejoin:miter;stroke-opacity:1" />
    <path
       sodipodi:nodetypes="ccccccccccc"
       inkscape:connector-curvature="0"
       id="path5646-6"
       d="M 41.25741,170.87712 27.929272,62.384762 52.08674,41.2852 76.24421,62.461209 63.09521,171.32272 62.46826,170.63469 72.072,64.513804 l -20.072,-17 -19.927998,17 9.559018,105.917216 z"
       style="fill:#dcddcc;fill-opacity:1;fill-rule:evenodd;stroke:#dcddcc;stroke-width:1px;stroke-linecap:butt;stroke-linejoin:miter;stroke-opacity:1" />
    <path
       sodipodi:nodetypes="cccccc"
       inkscape:connector-curvature="0"
       id="path4164-6-1"
       d="M 40.778092,171.52774 27.952902,62.447949 52.00002,40.631986 76.04714,62.447949 63.22208,171.52774 Z"
       style="fill:none;fill-opacity:1;fill-rule:evenodd;stroke:#000000;stroke-width:1.87;stroke-linecap:butt;stroke-linejoin:miter;stroke-miterlimit:4;stroke-dasharray:none;stroke-opacity:1" />
    <path
       sodipodi:nodetypes="ccccc"
       inkscape:connector-curvature="0"
       id="path5682-4"
       d="M 52,40.985852 52,171.58679 63.27379,171.37056 76.03117,62.82475 Z"
       style="fill:#000000;fill-opacity:0.39215686;fill-rule:evenodd;stroke:none;stroke-width:1px;stroke-linecap:butt;stroke-linejoin:miter;stroke-opacity:1" />
  </g>
  <rect
     style="opacity:1;fill:#541d06;fill-opacity:1;stroke:#000000;stroke-width:1.86999989;stroke-linecap:butt;stroke-linejoin:miter;stroke-miterlimit:4;stroke-dasharray:none;stroke-opacity:1"
     id="rect5684-9-0"
     width="11.501709"
     height="34.86948"
     x="-420.2431"
     y="-327.03061"
     transform="matrix(0.70710678,0.70710678,-0.70710678,0.70710678,0,0)" />
  <ellipse
     style="opacity:1;fill:#f2c100;fill-opacity:1;stroke:#000000;stroke-width:1.87;stroke-linecap:butt;stroke-linejoin:miter;stroke-miterlimit:4;stroke-dasharray:none;stroke-opacity:1"
     id="path5686-5-6"
     cx="-414.4917"
     cy="-290.98151"
     rx="5.7524986"
     ry="5.7193537"
     transform="matrix(0.70710678,0.70710678,-0.70710678,0.70710678,0,0)" />
  <rect
     style="opacity:1;fill:#f2c100;fill-opacity:1;stroke:#000000;stroke-width:1.87;stroke-linecap:butt;stroke-linejoin:miter;stroke-miterlimit:4;stroke-dasharray:none;stroke-opacity:1"
     id="rect4162-5-2"
     width="58.129997"
     height="8.1300001"
     x="-443.54724"
     y="-323.01614"
     ry="0"
     transform="matrix(0.70710678,0.70710678,-0.70710678,0.70710678,0,0)" />
  <path
     style="fill:#c0c1b0;fill-opacity:1;fill-rule:evenodd;stroke:#000000;stroke-width:2.083004px;stroke-linecap:butt;stroke-linejoin:miter;stroke-opacity:1"
     d="m -72.481952,-529.48174 87.102125,-105.15665 36.15176,-2.30001 -2.29968,36.1521 -105.156565,87.10221 z"
     id="path4164-2-8"
     inkscape:connector-curvature="0"
     sodipodi:nodetypes="cccccc" />
  <path
     style="fill:#dcddcc;fill-opacity:1;fill-rule:evenodd;stroke:#dcddcc;stroke-width:1.11382544px;stroke-linecap:butt;stroke-linejoin:miter;stroke-opacity:1"
     d="m -71.571062,-529.71818 86.230435,-104.99298 35.59825,-1.59082 -1.65819,35.66562 -105.192215,86.68185 0.16505,-1.04764 100.281565,-86.76199 0.85362,-29.10977 -29.00842,0.95497 -86.613985,100.07059 z"
     id="path5646-6-7"
     inkscape:connector-curvature="0"
     sodipodi:nodetypes="ccccccccccc" />
  <path
     style="fill:none;fill-opacity:1;fill-rule:evenodd;stroke:#000000;stroke-width:2.08285356;stroke-linecap:butt;stroke-linejoin:miter;stroke-miterlimit:4;stroke-dasharray:none;stroke-opacity:1"
     d="m -72.481812,-529.48218 87.102135,-105.15666 36.15192,-2.29984 -2.29983,36.15192 -105.156575,87.10223 z"
     id="path4164-6-1-9"
     inkscape:connector-curvature="0"
     sodipodi:nodetypes="cccccc" />
  <path
     style="fill:#000000;fill-opacity:0.39215686;fill-rule:evenodd;stroke:none;stroke-width:1px;stroke-linecap:butt;stroke-linejoin:miter;stroke-opacity:1"
     d="m 50.460373,-636.62684 -115.095455,115.09546 8.12583,7.74472 104.638345,-86.67927 z"
     id="path5682-4-5"
     inkscape:connector-curvature="0"
     sodipodi:nodetypes="ccccc" />
  <rect
     style="opacity:1;fill:#541d06;fill-opacity:1;stroke:#000000;stroke-width:1.86999989;stroke-linecap:butt;stroke-linejoin:miter;stroke-miterlimit:4;stroke-dasharray:none;stroke-opacity:1"
     id="rect5684-9-2"
     width="11.501709"
     height="34.86948"
     x="-218.81544"
     y="-443.14856"
     transform="matrix(0.70710678,0.70710678,-0.70710678,0.70710678,0,0)" />
  <ellipse
     style="opacity:1;fill:#f2c100;fill-opacity:1;stroke:#000000;stroke-width:1.87;stroke-linecap:butt;stroke-linejoin:miter;stroke-miterlimit:4;stroke-dasharray:none;stroke-opacity:1"
     id="path5686-5-7"
     cx="-213.67339"
     cy="-406.94702"
     rx="5.7524986"
     ry="5.7193537"
     transform="matrix(0.70710678,0.70710678,-0.70710678,0.70710678,0,0)" />
  <rect
     style="opacity:1;fill:#f2c100;fill-opacity:1;stroke:#000000;stroke-width:1.87;stroke-linecap:butt;stroke-linejoin:miter;stroke-miterlimit:4;stroke-dasharray:none;stroke-opacity:1"
     id="rect4162-5-8"
     width="58.129997"
     height="8.1300001"
     x="-242.11961"
     y="-439.13403"
     ry="0"
     transform="matrix(0.70710678,0.70710678,-0.70710678,0.70710678,0,0)" />
  <path
     style="fill:#c0c1b0;fill-opacity:1;fill-rule:evenodd;stroke:#000000;stroke-width:2.26697302px;stroke-linecap:butt;stroke-linejoin:miter;stroke-opacity:1"
     d="m 152.15041,-469.18961 105.32228,-123.30506 39.72134,-6.00413 -6.0038,39.72167 -123.30496,105.32237 z"
     id="path4164-2-2"
     inkscape:connector-curvature="0"
     sodipodi:nodetypes="cccccc" />
  <path
     style="fill:#dcddcc;fill-opacity:1;fill-rule:evenodd;stroke:#dcddcc;stroke-width:1.21219742px;stroke-linecap:butt;stroke-linejoin:miter;stroke-opacity:1"
     d="m 153.16848,-469.53591 104.35406,-123.04204 39.0481,-5.17583 -5.25594,39.12821 -123.30333,104.86652 0.28151,-1.16058 117.94571,-104.47987 3.74377,-31.88763 -31.78666,3.84473 -104.29778,117.70091 z"
     id="path5646-6-8"
     inkscape:connector-curvature="0"
     sodipodi:nodetypes="ccccccccccc" />
  <path
     style="fill:none;fill-opacity:1;fill-rule:evenodd;stroke:#000000;stroke-width:2.26680923;stroke-linecap:butt;stroke-linejoin:miter;stroke-miterlimit:4;stroke-dasharray:none;stroke-opacity:1"
     d="m 152.15061,-469.19011 105.32229,-123.30506 39.7215,-6.00397 -6.00396,39.72151 -123.30497,105.32238 z"
     id="path4164-6-1-6"
     inkscape:connector-curvature="0"
     sodipodi:nodetypes="cccccc" />
  <path
     style="fill:#000000;fill-opacity:0.39215686;fill-rule:evenodd;stroke:none;stroke-width:1px;stroke-linecap:butt;stroke-linejoin:miter;stroke-opacity:1"
     d="m 296.82355,-598.12831 -136.86746,136.86746 8.13035,7.67713 122.69792,-104.81022 z"
     id="path5682-4-0"
     inkscape:connector-curvature="0"
     sodipodi:nodetypes="ccccc" />
  <rect
     style="opacity:1;fill:#541d06;fill-opacity:1;stroke:#000000;stroke-width:1.86999989;stroke-linecap:butt;stroke-linejoin:miter;stroke-miterlimit:4;stroke-dasharray:none;stroke-opacity:1"
     id="rect5684-9-05"
     width="11.501709"
     height="34.86948"
     x="-31.334381"
     y="-605.63074"
     transform="matrix(0.70710678,0.70710678,-0.70710678,0.70710678,0,0)" />
  <ellipse
     style="opacity:1;fill:#f2c100;fill-opacity:1;stroke:#000000;stroke-width:1.87;stroke-linecap:butt;stroke-linejoin:miter;stroke-miterlimit:4;stroke-dasharray:none;stroke-opacity:1"
     id="path5686-5-5"
     cx="-25.582977"
     cy="-569.58154"
     rx="5.7524986"
     ry="5.7193537"
     transform="matrix(0.70710678,0.70710678,-0.70710678,0.70710678,0,0)" />
  <rect
     style="opacity:1;fill:#f2c100;fill-opacity:1;stroke:#000000;stroke-width:1.87;stroke-linecap:butt;stroke-linejoin:miter;stroke-miterlimit:4;stroke-dasharray:none;stroke-opacity:1"
     id="rect4162-5-9"
     width="58.129997"
     height="8.1300001"
     x="-54.638641"
     y="-601.61621"
     ry="0"
     transform="matrix(0.70710678,0.70710678,-0.70710678,0.70710678,0,0)" />
  <path
     style="fill:#c0c1b0;fill-opacity:1;fill-rule:evenodd;stroke:#000000;stroke-width:2.44362283px;stroke-linecap:butt;stroke-linejoin:miter;stroke-opacity:1"
     d="m 399.70137,-451.54211 124.37709,-142.29098 43.46084,-9.8728 -9.87249,43.46115 -142.29087,124.3772 z"
     id="path4164-2-28"
     inkscape:connector-curvature="0"
     sodipodi:nodetypes="cccccc" />
  <path
     style="fill:#dcddcc;fill-opacity:1;fill-rule:evenodd;stroke:#dcddcc;stroke-width:1.30665576px;stroke-linecap:butt;stroke-linejoin:miter;stroke-opacity:1"
     d="m 400.83166,-452.0032 123.30781,-141.92419 42.66236,-8.91988 -9.01332,42.75581 -142.25031,123.88416 0.40316,-1.27887 136.42434,-123.0101 6.762,-34.79802 -34.69745,6.86257 -122.79238,136.14416 z"
     id="path5646-6-1"
     inkscape:connector-curvature="0"
     sodipodi:nodetypes="ccccccccccc" />
  <path
     style="fill:none;fill-opacity:1;fill-rule:evenodd;stroke:#000000;stroke-width:2.44344616;stroke-linecap:butt;stroke-linejoin:miter;stroke-miterlimit:4;stroke-dasharray:none;stroke-opacity:1"
     d="m 399.70162,-451.54266 124.37711,-142.29099 43.46099,-9.87264 -9.87264,43.46099 -142.29089,124.37721 z"
     id="path4164-6-1-7"
     inkscape:connector-curvature="0"
     sodipodi:nodetypes="cccccc" />
  <path
     style="fill:#000000;fill-opacity:0.39215686;fill-rule:evenodd;stroke:none;stroke-width:1px;stroke-linecap:butt;stroke-linejoin:miter;stroke-opacity:1"
     d="m 567.10716,-603.27375 -159.64049,159.6405 8.13776,7.60914 141.59091,-123.77175 z"
     id="path5682-4-9"
     inkscape:connector-curvature="0"
     sodipodi:nodetypes="ccccc" />
  <rect
     style="opacity:1;fill:#541d06;fill-opacity:1;stroke:#000000;stroke-width:1.86999989;stroke-linecap:butt;stroke-linejoin:miter;stroke-miterlimit:4;stroke-dasharray:none;stroke-opacity:1"
     id="rect5684-9-4"
     width="11.501709"
     height="34.86948"
     x="-164.27042"
     y="-797.96368"
     transform="matrix(0.70710674,0.70710682,-0.70710674,0.70710682,0,0)" />
  <ellipse
     style="opacity:1;fill:#f2c100;fill-opacity:1;stroke:#000000;stroke-width:1.87;stroke-linecap:butt;stroke-linejoin:miter;stroke-miterlimit:4;stroke-dasharray:none;stroke-opacity:1"
     id="path5686-5-74"
     cx="-158.51901"
     cy="-761.91455"
     rx="5.7524986"
     ry="5.7193537"
     transform="matrix(0.70710674,0.70710682,-0.70710674,0.70710682,0,0)" />
  <rect
     style="opacity:1;fill:#f2c100;fill-opacity:1;stroke:#000000;stroke-width:1.87;stroke-linecap:butt;stroke-linejoin:miter;stroke-miterlimit:4;stroke-dasharray:none;stroke-opacity:1"
     id="rect4162-5-26"
     width="58.129997"
     height="8.1300001"
     x="-187.57462"
     y="-793.94922"
     ry="0"
     transform="matrix(0.70710674,0.70710682,-0.70710674,0.70710682,0,0)" />
  <path
     style="fill:#c0c1b0;fill-opacity:1;fill-rule:evenodd;stroke:#000000;stroke-width:2.66869283px;stroke-linecap:butt;stroke-linejoin:miter;stroke-opacity:1"
     d="m 441.81499,-681.5788 150.89673,-168.72282 48.67368,-15.25027 -15.24993,48.67401 -168.72272,150.89683 z"
     id="path4164-2-0"
     inkscape:connector-curvature="0"
     sodipodi:nodetypes="cccccc" />
  <path
     style="fill:#dcddcc;fill-opacity:1;fill-rule:evenodd;stroke:#dcddcc;stroke-width:1.42700529px;stroke-linecap:butt;stroke-linejoin:miter;stroke-opacity:1"
     d="m 443.10165,-682.19952 149.68657,-168.21174 47.70095,-14.12383 -14.23581,47.81295 -168.62807,150.35192 0.5723,-1.44371 162.14902,-148.80055 10.95692,-38.85554 -38.75546,11.057 -148.53321,161.81957 z"
     id="path5646-6-6"
     inkscape:connector-curvature="0"
     sodipodi:nodetypes="ccccccccccc" />
  <path
     style="fill:none;fill-opacity:1;fill-rule:evenodd;stroke:#000000;stroke-width:2.66849971;stroke-linecap:butt;stroke-linejoin:miter;stroke-miterlimit:4;stroke-dasharray:none;stroke-opacity:1"
     d="m 441.81534,-681.57943 150.89673,-168.72284 48.67384,-15.25009 -15.2501,48.67384 -168.72272,150.89685 z"
     id="path4164-6-1-8"
     inkscape:connector-curvature="0"
     sodipodi:nodetypes="cccccc" />
  <path
     style="fill:#000000;fill-opacity:0.39215686;fill-rule:evenodd;stroke:none;stroke-width:1px;stroke-linecap:butt;stroke-linejoin:miter;stroke-opacity:1"
     d="m 640.86745,-865.03394 -191.33982,191.33984 8.15168,7.51808 167.89336,-150.16157 z"
     id="path5682-4-7"
     inkscape:connector-curvature="0"
     sodipodi:nodetypes="ccccc" />
  <rect
     style="opacity:1;fill:#541d06;fill-opacity:1;stroke:#000000;stroke-width:1.86999989;stroke-linecap:butt;stroke-linejoin:miter;stroke-miterlimit:4;stroke-dasharray:none;stroke-opacity:1"
     id="rect5684-9-6"
     width="11.501709"
     height="34.86948"
     x="-356.384"
     y="375.89233"
     transform="matrix(0.70710678,0.70710678,-0.70710678,0.70710678,0,0)" />
  <ellipse
     style="opacity:1;fill:#f2c100;fill-opacity:1;stroke:#000000;stroke-width:1.87;stroke-linecap:butt;stroke-linejoin:miter;stroke-miterlimit:4;stroke-dasharray:none;stroke-opacity:1"
     id="path5686-5-8"
     cx="-350.6326"
     cy="411.94153"
     rx="5.7524986"
     ry="5.7193537"
     transform="matrix(0.70710678,0.70710678,-0.70710678,0.70710678,0,0)" />
  <rect
     style="opacity:1;fill:#f2c100;fill-opacity:1;stroke:#000000;stroke-width:1.87;stroke-linecap:butt;stroke-linejoin:miter;stroke-miterlimit:4;stroke-dasharray:none;stroke-opacity:1"
     id="rect4162-5-7"
     width="58.129997"
     height="8.1300001"
     x="-379.6882"
     y="379.90686"
     ry="0"
     transform="matrix(0.70710678,0.70710678,-0.70710678,0.70710678,0,0)" />
  <path
     style="fill:#c0c1b0;fill-opacity:1;fill-rule:evenodd;stroke:#000000;stroke-width:2.91786242px;stroke-linecap:butt;stroke-linejoin:miter;stroke-opacity:1"
     d="m -523.94655,12.57807 183.22798,-200.95683 55.03909,-21.7979 -21.79758,55.03941 -200.95669,183.22804 z"
     id="path4164-2-3"
     inkscape:connector-curvature="0"
     sodipodi:nodetypes="cccccc" />
  <path
     style="fill:#dcddcc;fill-opacity:1;fill-rule:evenodd;stroke:#dcddcc;stroke-width:1.56024146px;stroke-linecap:butt;stroke-linejoin:miter;stroke-opacity:1"
     d="m -522.46905,11.76288 181.84587,-200.27 53.85392,-20.45985 -20.59448,53.98855 -200.79631,182.61974 0.7784,-1.64497 193.51951,-180.24383 16.06419,-43.81071 -43.71118,16.16372 -179.91612,193.12998 z"
     id="path5646-6-81"
     inkscape:connector-curvature="0"
     sodipodi:nodetypes="ccccccccccc" />
  <path
     style="fill:none;fill-opacity:1;fill-rule:evenodd;stroke:#000000;stroke-width:2.91765165;stroke-linecap:butt;stroke-linejoin:miter;stroke-miterlimit:4;stroke-dasharray:none;stroke-opacity:1"
     d="m -523.94605,12.57734 183.22793,-200.95684 55.03924,-21.79774 -21.79772,55.03926 -200.95675,183.22804 z"
     id="path4164-6-1-62"
     inkscape:connector-curvature="0"
     sodipodi:nodetypes="cccccc" />
  <path
     style="fill:#000000;fill-opacity:0.39215686;fill-rule:evenodd;stroke:none;stroke-width:1px;stroke-linecap:butt;stroke-linejoin:miter;stroke-opacity:1"
     d="m -286.30206,-209.55409 -229.99169,229.99172 8.1729,7.41137 199.96965,-182.33447 z"
     id="path5682-4-6"
     inkscape:connector-curvature="0"
     sodipodi:nodetypes="ccccc" />
  <rect
     style="opacity:1;fill:#541d06;fill-opacity:1;stroke:#000000;stroke-width:1.86999989;stroke-linecap:butt;stroke-linejoin:miter;stroke-miterlimit:4;stroke-dasharray:none;stroke-opacity:1"
     id="rect5684-9-1"
     width="11.501709"
     height="34.86948"
     x="-76.384018"
     y="-56.107533"
     transform="matrix(0.70710678,0.70710678,-0.70710678,0.70710678,0,0)" />
  <ellipse
     style="opacity:1;fill:#f2c100;fill-opacity:1;stroke:#000000;stroke-width:1.87;stroke-linecap:butt;stroke-linejoin:miter;stroke-miterlimit:4;stroke-dasharray:none;stroke-opacity:1"
     id="path5686-5-9"
     cx="-70.632614"
     cy="-20.05846"
     rx="5.7524986"
     ry="5.7193537"
     transform="matrix(0.70710678,0.70710678,-0.70710678,0.70710678,0,0)" />
  <rect
     style="opacity:1;fill:#f2c100;fill-opacity:1;stroke:#000000;stroke-width:1.87;stroke-linecap:butt;stroke-linejoin:miter;stroke-miterlimit:4;stroke-dasharray:none;stroke-opacity:1"
     id="rect4162-5-0"
     width="58.129997"
     height="8.1300001"
     x="-99.688248"
     y="-52.093128"
     ry="0"
     transform="matrix(0.70710678,0.70710678,-0.70710678,0.70710678,0,0)" />
  <path
     style="fill:#c0c1b0;fill-opacity:1;fill-rule:evenodd;stroke:#000000;stroke-width:3.20127034px;stroke-linecap:butt;stroke-linejoin:miter;stroke-opacity:1"
     d="m -20.345453,-94.946468 223.861443,-241.479792 63.0511,-30.01718 -30.01686,63.05143 -241.4796927,223.861532 z"
     id="path4164-2-5"
     inkscape:connector-curvature="0"
     sodipodi:nodetypes="cccccc" />
  <path
     style="fill:#dcddcc;fill-opacity:1;fill-rule:evenodd;stroke:#dcddcc;stroke-width:1.71178544px;stroke-linecap:butt;stroke-linejoin:miter;stroke-opacity:1"
     d="m -18.627873,-96.005878 222.262983,-240.572252 61.59895,-28.41312 -28.57618,61.76201 -241.2366127,223.173462 1.03696,-1.89821 232.9556627,-219.762732 22.47478,-50.0483 -49.94938,22.5737 -219.358993,232.490522 z"
     id="path5646-6-4"
     inkscape:connector-curvature="0"
     sodipodi:nodetypes="ccccccccccc" />
  <path
     style="fill:none;fill-opacity:1;fill-rule:evenodd;stroke:#000000;stroke-width:3.20103884;stroke-linecap:butt;stroke-linejoin:miter;stroke-miterlimit:4;stroke-dasharray:none;stroke-opacity:1"
     d="M -20.344893,-94.947308 203.51655,-336.42712 266.56782,-366.44415 236.55081,-303.39287 -4.9289027,-79.531318 Z"
     id="path4164-6-1-92"
     inkscape:connector-curvature="0"
     sodipodi:nodetypes="cccccc" />
  <path
     style="fill:#000000;fill-opacity:0.39215686;fill-rule:evenodd;stroke:none;stroke-width:1px;stroke-linecap:butt;stroke-linejoin:miter;stroke-opacity:1"
     d="m 265.813,-365.68935 -278.575923,278.575932 8.2048003,7.28235 L 235.73611,-302.60012 Z"
     id="path5682-4-77"
     inkscape:connector-curvature="0"
     sodipodi:nodetypes="ccccc" />
  <rect
     style="opacity:1;fill:#541d06;fill-opacity:1;stroke:#000000;stroke-width:1.86999989;stroke-linecap:butt;stroke-linejoin:miter;stroke-miterlimit:4;stroke-dasharray:none;stroke-opacity:1"
     id="rect5684-9-8"
     width="11.501709"
     height="34.86948"
     x="203.61597"
     y="-404.10757"
     transform="matrix(0.70710678,0.70710678,-0.70710678,0.70710678,0,0)" />
  <ellipse
     style="opacity:1;fill:#f2c100;fill-opacity:1;stroke:#000000;stroke-width:1.87;stroke-linecap:butt;stroke-linejoin:miter;stroke-miterlimit:4;stroke-dasharray:none;stroke-opacity:1"
     id="path5686-5-75"
     cx="209.36737"
     cy="-368.05844"
     rx="5.7524986"
     ry="5.7193537"
     transform="matrix(0.70710678,0.70710678,-0.70710678,0.70710678,0,0)" />
  <rect
     style="opacity:1;fill:#f2c100;fill-opacity:1;stroke:#000000;stroke-width:1.87;stroke-linecap:butt;stroke-linejoin:miter;stroke-miterlimit:4;stroke-dasharray:none;stroke-opacity:1"
     id="rect4162-5-4"
     width="58.129997"
     height="8.1300001"
     x="180.31174"
     y="-400.09311"
     ry="0"
     transform="matrix(0.70710678,0.70710678,-0.70710678,0.70710678,0,0)" />
  <path
     style="fill:#c0c1b0;fill-opacity:1;fill-rule:evenodd;stroke:#000000;stroke-width:3.49952435px;stroke-linecap:butt;stroke-linejoin:miter;stroke-opacity:1"
     d="m 423.86473,-143.07512 271.14201,-288.64402 72.38653,-39.57071 -39.57041,72.38683 -288.64393,271.1421 z"
     id="path4164-2-7"
     inkscape:connector-curvature="0"
     sodipodi:nodetypes="cccccc" />
  <path
     style="fill:#dcddcc;fill-opacity:1;fill-rule:evenodd;stroke:#dcddcc;stroke-width:1.87126803px;stroke-linecap:butt;stroke-linejoin:miter;stroke-opacity:1"
     d="m 425.86195,-144.41851 269.29153,-287.4799 70.62373,-37.65701 -37.85318,70.81988 -288.30489,270.36099 1.33767,-2.19323 278.85355,-265.74773 29.92539,-57.31682 -57.21858,30.02364 -265.25562,278.30043 z"
     id="path5646-6-73"
     inkscape:connector-curvature="0"
     sodipodi:nodetypes="ccccccccccc" />
  <path
     style="fill:none;fill-opacity:1;fill-rule:evenodd;stroke:#000000;stroke-width:3.49927139;stroke-linecap:butt;stroke-linejoin:miter;stroke-miterlimit:4;stroke-dasharray:none;stroke-opacity:1"
     d="m 423.86543,-143.07611 271.14204,-288.64404 72.38667,-39.57056 -39.57055,72.38668 -288.64395,271.14212 z"
     id="path4164-6-1-626"
     inkscape:connector-curvature="0"
     sodipodi:nodetypes="cccccc" />
  <path
     style="fill:#000000;fill-opacity:0.39215686;fill-rule:evenodd;stroke:none;stroke-width:1px;stroke-linecap:butt;stroke-linejoin:miter;stroke-opacity:1"
     d="m 766.48613,-470.38272 -335.11517,335.11517 8.24728,7.1376 287.2276,-269.81812 z"
     id="path5682-4-8"
     inkscape:connector-curvature="0"
     sodipodi:nodetypes="ccccc" />
  <rect
     style="opacity:1;fill:#541d06;fill-opacity:1;stroke:#000000;stroke-width:1.86999989;stroke-linecap:butt;stroke-linejoin:miter;stroke-miterlimit:4;stroke-dasharray:none;stroke-opacity:1"
     id="rect5684-9-00"
     width="11.501709"
     height="34.86948"
     x="-118.38402"
     y="813.89233"
     transform="matrix(0.70710678,0.70710678,-0.70710678,0.70710678,0,0)" />
  <ellipse
     style="opacity:1;fill:#f2c100;fill-opacity:1;stroke:#000000;stroke-width:1.87;stroke-linecap:butt;stroke-linejoin:miter;stroke-miterlimit:4;stroke-dasharray:none;stroke-opacity:1"
     id="path5686-5-1"
     cx="-112.63261"
     cy="849.94153"
     rx="5.7524986"
     ry="5.7193537"
     transform="matrix(0.70710678,0.70710678,-0.70710678,0.70710678,0,0)" />
  <rect
     style="opacity:1;fill:#f2c100;fill-opacity:1;stroke:#000000;stroke-width:1.87;stroke-linecap:butt;stroke-linejoin:miter;stroke-miterlimit:4;stroke-dasharray:none;stroke-opacity:1"
     id="rect4162-5-6"
     width="58.129997"
     height="8.1300001"
     x="-141.68828"
     y="817.90686"
     ry="0"
     transform="matrix(0.70710678,0.70710678,-0.70710678,0.70710678,0,0)" />
  <path
     style="fill:#c0c1b0;fill-opacity:1;fill-rule:evenodd;stroke:#000000;stroke-width:3.88010645px;stroke-linecap:butt;stroke-linejoin:miter;stroke-opacity:1"
     d="m -664.89367,490.43643 338.34806,-355.7016 85.67373,-53.136209 -53.13594,85.674009 -355.70155,338.3481 z"
     id="path4164-2-9"
     inkscape:connector-curvature="0"
     sodipodi:nodetypes="cccccc" />
  <path
     style="fill:#dcddcc;fill-opacity:1;fill-rule:evenodd;stroke:#dcddcc;stroke-width:2.07477307px;stroke-linecap:butt;stroke-linejoin:miter;stroke-opacity:1"
     d="m -662.49857,488.68963 336.13893,-354.173 83.46939,-50.782309 -51.0255,83.712609 -355.22632,337.4346 1.7648,-2.6131 344.10875,-331.1141 40.504,-67.66311 -67.56569,40.60141 -330.49646,343.4306 z"
     id="path5646-6-49"
     inkscape:connector-curvature="0"
     sodipodi:nodetypes="ccccccccccc" />
  <path
     style="fill:none;fill-opacity:1;fill-rule:evenodd;stroke:#000000;stroke-width:3.87982583;stroke-linecap:butt;stroke-linejoin:miter;stroke-miterlimit:4;stroke-dasharray:none;stroke-opacity:1"
     d="m -664.89277,490.43523 338.34809,-355.7016 85.67389,-53.136109 -53.1361,85.673909 -355.70158,338.3481 z"
     id="path4164-6-1-89"
     inkscape:connector-curvature="0"
     sodipodi:nodetypes="cccccc" />
  <path
     style="fill:#000000;fill-opacity:0.39215686;fill-rule:evenodd;stroke:none;stroke-width:1px;stroke-linecap:butt;stroke-linejoin:miter;stroke-opacity:1"
     d="m -241.99659,82.723321 -415.49198,415.491909 8.3152,6.9393 353.95694,-336.6952 z"
     id="path5682-4-4"
     inkscape:connector-curvature="0"
     sodipodi:nodetypes="ccccc" />
  <rect
     style="opacity:1;fill:#541d06;fill-opacity:1;stroke:#000000;stroke-width:1.86999989;stroke-linecap:butt;stroke-linejoin:miter;stroke-miterlimit:4;stroke-dasharray:none;stroke-opacity:1"
     id="rect5684-9-09"
     width="11.501709"
     height="34.86948"
     x="943.61597"
     y="-224.10765"
     transform="matrix(0.70710678,0.70710678,-0.70710678,0.70710678,0,0)" />
  <ellipse
     style="opacity:1;fill:#f2c100;fill-opacity:1;stroke:#000000;stroke-width:1.87;stroke-linecap:butt;stroke-linejoin:miter;stroke-miterlimit:4;stroke-dasharray:none;stroke-opacity:1"
     id="path5686-5-96"
     cx="949.36737"
     cy="-188.05846"
     rx="5.7524986"
     ry="5.7193537"
     transform="matrix(0.70710678,0.70710678,-0.70710678,0.70710678,0,0)" />
  <rect
     style="opacity:1;fill:#f2c100;fill-opacity:1;stroke:#000000;stroke-width:1.87;stroke-linecap:butt;stroke-linejoin:miter;stroke-miterlimit:4;stroke-dasharray:none;stroke-opacity:1"
     id="rect4162-5-44"
     width="58.129997"
     height="8.1300001"
     x="920.31171"
     y="-220.09312"
     ry="0"
     transform="matrix(0.70710678,0.70710678,-0.70710678,0.70710678,0,0)" />
  <path
     style="fill:#c0c1b0;fill-opacity:1;fill-rule:evenodd;stroke:#000000;stroke-width:4.29846287px;stroke-linecap:butt;stroke-linejoin:miter;stroke-opacity:1"
     d="M 820.23238,507.3479 1241.5722,68.817701 1343.6749,-1.0534692 1273.804,101.0495 835.27391,522.3894 Z"
     id="path4164-2-1"
     inkscape:connector-curvature="0"
     sodipodi:nodetypes="cccccc" />
  <path
     style="fill:#dcddcc;fill-opacity:1;fill-rule:evenodd;stroke:#dcddcc;stroke-width:2.29847717px;stroke-linecap:butt;stroke-linejoin:miter;stroke-opacity:1"
     d="M 823.11918,505.1033 1241.8066,68.551401 1341.1598,1.5779308 1273.885,101.2324 835.99813,521.4949 l 2.29168,-3.1321 424.70879,-411.8363 53.5532,-80.456899 -80.3604,53.6497 L 825.12785,503.5954 Z"
     id="path5646-6-738"
     inkscape:connector-curvature="0"
     sodipodi:nodetypes="ccccccccccc" />
  <path
     style="fill:none;fill-opacity:1;fill-rule:evenodd;stroke:#000000;stroke-width:4.29815245;stroke-linecap:butt;stroke-linejoin:miter;stroke-miterlimit:4;stroke-dasharray:none;stroke-opacity:1"
     d="M 820.23354,507.3464 1241.5733,68.816201 1343.6763,-1.0548692 1273.8052,101.0481 835.27507,522.388 Z"
     id="path4164-6-1-76"
     inkscape:connector-curvature="0"
     sodipodi:nodetypes="cccccc" />
  <path
     style="fill:#000000;fill-opacity:0.39215686;fill-rule:evenodd;stroke:none;stroke-width:1px;stroke-linecap:butt;stroke-linejoin:miter;stroke-opacity:1"
     d="M 1342.2815,0.33993075 827.52151,515.0999 l 8.40773,6.7032 436.38006,-419.2806 z"
     id="path5682-4-62"
     inkscape:connector-curvature="0"
     sodipodi:nodetypes="ccccc" />
</svg>
