<?xml version="1.0" encoding="UTF-8" standalone="no"?>
<!-- Created with Inkscape (http://www.inkscape.org/) -->

<svg
   xmlns:dc="http://purl.org/dc/elements/1.1/"
   xmlns:cc="http://creativecommons.org/ns#"
   xmlns:rdf="http://www.w3.org/1999/02/22-rdf-syntax-ns#"
   xmlns:svg="http://www.w3.org/2000/svg"
   xmlns="http://www.w3.org/2000/svg"
   xmlns:xlink="http://www.w3.org/1999/xlink"
   xmlns:sodipodi="http://sodipodi.sourceforge.net/DTD/sodipodi-0.dtd"
   xmlns:inkscape="http://www.inkscape.org/namespaces/inkscape"
   width="200"
   height="600"
   viewBox="0 0 200 600.00001"
   id="svg2"
   version="1.1"
   inkscape:version="0.91 r13725"
   sodipodi:docname="TestFond.svg"
   inkscape:export-filename="C:\Users\Amaury Punel\Desktop\GIT PROJET TUTORE\warfare-of-heroes\Images\PNG\bgPlayerLeft.png"
   inkscape:export-xdpi="90"
   inkscape:export-ydpi="90">
  <defs
     id="defs4">
    <linearGradient
       inkscape:collect="always"
       id="linearGradient5449">
      <stop
         style="stop-color:#000000;stop-opacity:0.44751382"
         offset="0"
         id="stop5451" />
      <stop
         style="stop-color:#000000;stop-opacity:0;"
         offset="1"
         id="stop5453" />
    </linearGradient>
    <filter
       inkscape:label="Clouds"
       inkscape:menu="Overlays"
       inkscape:menu-tooltip="Airy, fluffy, sparse white clouds"
       style="color-interpolation-filters:sRGB;"
       id="filter5283">
      <feTurbulence
         numOctaves="3"
         baseFrequency="0.011999999999999976 0.25517241379310346"
         type="fractalNoise"
         id="feTurbulence5285"
         flood-opacity="0.42999999999999999" />
      <feColorMatrix
         result="result0"
         values="1 0 0 0 0 0 1 0 0 0 0 0 1 0 0 0 0 0 5 -2.7"
         id="feColorMatrix5287" />
      <feFlood
         flood-opacity="0.45000000000000001"
         flood-color="rgb(0,0,0)"
         id="feFlood5289"
         baseFrequency="0.011999999999999976 0.255"
         result="result1" />
      <feComposite
         operator="in"
         id="feComposite5291"
         in2="result0" />
      <feComposite
         operator="atop"
         id="feComposite5293"
         in2="SourceGraphic" />
    </filter>
    <linearGradient
       inkscape:collect="always"
       xlink:href="#linearGradient5449"
       id="linearGradient5455"
       x1="43.298809"
       y1="1059.8794"
       x2="-3.006876"
       y2="611.25549"
       gradientUnits="userSpaceOnUse"
       gradientTransform="translate(0,-452.36218)" />
  </defs>
  <sodipodi:namedview
     id="base"
     pagecolor="#ffffff"
     bordercolor="#666666"
     borderopacity="1.0"
     inkscape:pageopacity="0.0"
     inkscape:pageshadow="2"
     inkscape:zoom="0.83143155"
     inkscape:cx="-190.28941"
     inkscape:cy="273.8058"
     inkscape:document-units="px"
     inkscape:current-layer="layer1"
     showgrid="false"
     units="px"
     inkscape:window-width="1366"
     inkscape:window-height="705"
     inkscape:window-x="-8"
     inkscape:window-y="-8"
     inkscape:window-maximized="1" />
  <metadata
     id="metadata7">
    <rdf:RDF>
      <cc:Work
         rdf:about="">
        <dc:format>image/svg+xml</dc:format>
        <dc:type
           rdf:resource="http://purl.org/dc/dcmitype/StillImage" />
        <dc:title />
      </cc:Work>
    </rdf:RDF>
  </metadata>
  <g
     inkscape:label="Calque 1"
     inkscape:groupmode="layer"
     id="layer1"
     transform="translate(0,-452.36218)">
    <path
       style="fill:#a49381;fill-opacity:1;fill-rule:evenodd;stroke:#000000;stroke-width:2.33202434;stroke-linecap:butt;stroke-linejoin:miter;stroke-miterlimit:4;stroke-dasharray:none;stroke-opacity:1"
       d="m -236.50546,992.29817 -43.40578,-528.23895 119.67341,-57.87805 328.545,23.36414 29.83355,12.52413 1.00944,566.72106 -31.85242,42.7604 -351.76205,1.3743 z"
       id="path4686-2"
       inkscape:connector-curvature="0"
       sodipodi:nodetypes="ccccccccc" />
    <path
       style="fill:#6e3916;fill-opacity:1;fill-rule:evenodd;stroke:#000000;stroke-width:2.32632113;stroke-linecap:butt;stroke-linejoin:miter;stroke-miterlimit:4;stroke-dasharray:none;stroke-opacity:1;filter:url(#filter5283)"
       d="m -130.56914,1000.8033 -62.57551,-506.62925 14.83492,-91.23397 330.4258,4.10356 36.02985,21.47329 1.00928,572.28637 -29.97415,40.6234 -337.99542,1.8515 z"
       id="path4686"
       inkscape:connector-curvature="0"
       sodipodi:nodetypes="ccccccccc" />
    <path
       style="opacity:1;fill:url(#linearGradient5455);fill-opacity:1;stroke:none;stroke-width:2;stroke-linecap:square;stroke-linejoin:round;stroke-miterlimit:4;stroke-dasharray:none;stroke-opacity:1"
       d="M -248.96875 -54.292969 L -248.96875 588.57422 L 172.00391 588.57422 C 172.00106 588.57174 172.00089 588.57084 171.99805 588.56836 C 171.72149 588.32721 173.11463 585.3982 173.37695 584.82031 C 173.78862 584.17241 174.17412 583.50789 174.61133 582.87695 C 175.24772 581.95857 176.62636 580.27185 177.31836 579.42383 C 178.70222 577.72797 180.0936 576.05816 181.56055 574.43359 C 183.14373 572.84333 182.72046 573.2564 183.81445 572.44922 C 183.81445 572.44922 183.81445 572.44727 183.81445 572.44727 C 183.83947 572.40045 184.20263 572.00379 184.51562 571.65625 C 184.75636 571.19134 184.98647 570.78223 185.18945 570.47266 C 185.1503 568.31366 185.1956 566.54393 189.43164 567.53125 L 189.43164 -54.292969 L -248.96875 -54.292969 z M 187.64844 567.91211 C 187.17557 568.33268 186.36549 568.55556 186.23047 569.17383 C 186.2259 569.19473 186.21575 569.22296 186.21094 569.24414 C 186.58817 568.87623 187.01752 568.48832 187.64844 567.91211 z M 184.85547 571.20312 C 184.79551 571.24291 184.68833 571.40754 184.58398 571.57812 C 184.71319 571.43491 184.90188 571.21948 184.9043 571.2168 C 184.89755 571.18838 184.88012 571.18677 184.85547 571.20312 z M 184.24805 572.12891 C 184.26925 572.11261 184.19142 572.12863 184.16992 572.14453 C 184.11958 572.18171 184.03862 572.26426 183.9668 572.33594 C 184.11705 572.22326 184.0387 572.28995 184.24805 572.12891 z M 176.40234 583.14258 C 176.41804 583.09278 176.23281 583.26353 176.27734 583.23633 C 176.33321 583.20216 176.34457 583.19771 176.39648 583.16602 C 176.39885 583.15844 176.39996 583.15015 176.40234 583.14258 z M 175.14648 586.22461 C 174.8098 587.08502 174.47377 587.94368 174.25781 588.57422 L 174.83984 588.57422 C 175.19596 587.92449 175.42758 587.2082 175.61328 586.4668 C 175.45662 586.38808 175.30169 586.30597 175.14648 586.22461 z M 189.43164 587.87695 C 189.39651 587.97535 189.47021 587.76531 189.35742 588.08008 C 189.3892 588.11019 189.40708 588.10334 189.43164 588.11523 L 189.43164 587.87695 z M 183.93555 587.99219 C 183.7873 588.18739 183.63685 588.38083 183.48633 588.57422 L 183.66602 588.57422 C 183.75696 588.37827 183.84934 588.17993 183.93555 587.99219 z "
       transform="translate(0,452.36218)"
       id="rect5295" />
    <rect
       style="opacity:1;fill:#46250e;fill-opacity:1;stroke:#291d10;stroke-width:2.33108425;stroke-linecap:round;stroke-linejoin:round;stroke-miterlimit:4;stroke-dasharray:none;stroke-opacity:1"
       id="rect4836"
       width="368.60611"
       height="14.503853"
       x="-186.03748"
       y="580.85162"
       transform="scale(-1,1)" />
    <path
       style="fill:#000000;fill-opacity:0.35294118;fill-rule:evenodd;stroke:none;stroke-width:1px;stroke-linecap:butt;stroke-linejoin:miter;stroke-opacity:1"
       d="m -155.83311,1051.3429 1.61874,-6.2646 c -0.46705,0.6339 67.75402,3.6059 73.17724,3.4272 7.31031,-0.2409 223.54565,1.2687 237.14286,-0.7142 1.53143,-0.2233 5.01177,-1.9436 5.01177,-1.9436 l 4.55806,5.2426 z"
       id="path6370"
       inkscape:connector-curvature="0"
       sodipodi:nodetypes="ccssccc" />
    <path
       style="fill:#a49381;fill-opacity:1;fill-rule:evenodd;stroke:#000000;stroke-width:3.22114086;stroke-linecap:butt;stroke-linejoin:miter;stroke-miterlimit:4;stroke-dasharray:none;stroke-opacity:1"
       d="m 199.04236,1008.2912 -22.6842,-13.67203 -29.55902,39.30963 20.0479,16.9692 z"
       id="path6265-7-2"
       inkscape:connector-curvature="0"
       sodipodi:nodetypes="ccccc" />
    <circle
       style="opacity:1;fill:#a49381;fill-opacity:1;stroke:#000000;stroke-width:1.07371366;stroke-linecap:butt;stroke-linejoin:miter;stroke-miterlimit:4;stroke-dasharray:none;stroke-opacity:1"
       id="path6267-2-9"
       cx="-25.202879"
       cy="-1026.5637"
       r="3.7942095"
       transform="matrix(-0.98835335,0.15217637,-0.15217637,-0.98835335,0,0)" />
    <circle
       style="opacity:1;fill:#a49381;fill-opacity:1;stroke:#000000;stroke-width:1.07371366;stroke-linecap:butt;stroke-linejoin:miter;stroke-miterlimit:4;stroke-dasharray:none;stroke-opacity:1"
       id="path6267-9-1-0"
       cx="-4.2847142"
       cy="-1047.0566"
       r="3.7942095"
       transform="matrix(-0.98835335,0.15217637,-0.15217637,-0.98835335,0,0)" />
    <path
       style="fill:#000000;fill-opacity:0.3535912;fill-rule:evenodd;stroke:none;stroke-width:1px;stroke-linecap:butt;stroke-linejoin:miter;stroke-opacity:1"
       d="m 187.0715,1003.1016 c 0,0 2.03658,6.6931 0.86673,11.1707 -2.43593,9.3242 -7.72181,17.1003 -16.08039,22.7161 -2.83179,1.9026 -6.10189,4.2667 -9.46904,3.718 -4.20996,-0.6861 -13.23522,-6.544 -13.23522,-6.544 l 17.85266,16.114 30.81162,-41.0357 z"
       id="path6351-7-8"
       inkscape:connector-curvature="0"
       sodipodi:nodetypes="cssscccc" />
  </g>
</svg>
