<?xml version="1.0" encoding="UTF-8" standalone="no"?>
<!-- Created with Inkscape (http://www.inkscape.org/) -->

<svg
   xmlns:dc="http://purl.org/dc/elements/1.1/"
   xmlns:cc="http://creativecommons.org/ns#"
   xmlns:rdf="http://www.w3.org/1999/02/22-rdf-syntax-ns#"
   xmlns:svg="http://www.w3.org/2000/svg"
   xmlns="http://www.w3.org/2000/svg"
   xmlns:xlink="http://www.w3.org/1999/xlink"
   xmlns:sodipodi="http://sodipodi.sourceforge.net/DTD/sodipodi-0.dtd"
   xmlns:inkscape="http://www.inkscape.org/namespaces/inkscape"
   width="589.07886"
   height="421.66949"
   viewBox="0 0 589.07887 421.6695"
   id="svg10108"
   version="1.1"
   inkscape:version="0.91 r13725"
   sodipodi:docname="Thunder.svg"
   inkscape:export-filename="C:\Users\Amaury Punel\Desktop\GIT PROJET TUTORE\warfare-of-heroes\Images\PNG\Thunder.png"
   inkscape:export-xdpi="90"
   inkscape:export-ydpi="90">
  <defs
     id="defs10110">
    <linearGradient
       inkscape:collect="always"
       id="linearGradient10815">
      <stop
         style="stop-color:#41d0f0;stop-opacity:0.38674033"
         offset="0"
         id="stop10817" />
      <stop
         style="stop-color:#6e7176;stop-opacity:0;"
         offset="1"
         id="stop10819" />
    </linearGradient>
    <linearGradient
       inkscape:collect="always"
       id="linearGradient10746">
      <stop
         style="stop-color:#000000;stop-opacity:1;"
         offset="0"
         id="stop10748" />
      <stop
         style="stop-color:#515459;stop-opacity:1"
         offset="1"
         id="stop10750" />
    </linearGradient>
    <linearGradient
       inkscape:collect="always"
       xlink:href="#linearGradient10746"
       id="linearGradient10771"
       gradientUnits="userSpaceOnUse"
       x1="258.81277"
       y1="1144.4285"
       x2="268.59268"
       y2="695.81934"
       gradientTransform="translate(38.292781,-138.05498)" />
    <radialGradient
       inkscape:collect="always"
       xlink:href="#linearGradient10815"
       id="radialGradient10821"
       cx="382.49951"
       cy="890.97131"
       fx="382.49951"
       fy="890.97131"
       r="69.508659"
       gradientTransform="matrix(-0.51457739,-2.8550415,1.6935113,-0.30522941,-899.51325,2298.956)"
       gradientUnits="userSpaceOnUse" />
    <radialGradient
       inkscape:collect="always"
       xlink:href="#linearGradient10815"
       id="radialGradient10821-4"
       cx="382.49951"
       cy="890.97131"
       fx="382.49951"
       fy="890.97131"
       r="69.508659"
       gradientTransform="matrix(-0.51457739,-2.8550415,1.6935113,-0.30522941,-1119.3562,2223.6768)"
       gradientUnits="userSpaceOnUse" />
  </defs>
  <sodipodi:namedview
     id="base"
     pagecolor="#ffffff"
     bordercolor="#666666"
     borderopacity="1.0"
     inkscape:pageopacity="0.0"
     inkscape:pageshadow="2"
     inkscape:zoom="0.76289062"
     inkscape:cx="383.95018"
     inkscape:cy="103.14407"
     inkscape:document-units="px"
     inkscape:current-layer="layer1"
     showgrid="false"
     units="px"
     fit-margin-top="0"
     fit-margin-left="0"
     fit-margin-right="0"
     fit-margin-bottom="0"
     inkscape:window-width="1366"
     inkscape:window-height="705"
     inkscape:window-x="-8"
     inkscape:window-y="-8"
     inkscape:window-maximized="1" />
  <metadata
     id="metadata10113">
    <rdf:RDF>
      <cc:Work
         rdf:about="">
        <dc:format>image/svg+xml</dc:format>
        <dc:type
           rdf:resource="http://purl.org/dc/dcmitype/StillImage" />
        <dc:title></dc:title>
      </cc:Work>
    </rdf:RDF>
  </metadata>
  <g
     inkscape:label="Calque 1"
     inkscape:groupmode="layer"
     id="layer1"
     transform="translate(11.544934,-531.38763)">
    <path
       style="fill:url(#radialGradient10821-4);fill-opacity:1;fill-rule:evenodd;stroke:#000000;stroke-width:1px;stroke-linecap:butt;stroke-linejoin:miter;stroke-opacity:1"
       d="m 161.60096,690.01686 -44.56734,56.36457 18.35125,-3.93242 -57.675367,72.09422 26.216077,-22.28367 -60.296977,85.20225 81.269837,-99.62109 -10.48643,5.24321 66.85101,-93.06707 z"
       id="path10792-0"
       inkscape:connector-curvature="0" />
    <path
       style="fill:url(#radialGradient10821);fill-opacity:1;fill-rule:evenodd;stroke:#000000;stroke-width:1px;stroke-linecap:butt;stroke-linejoin:miter;stroke-opacity:1"
       d="m 381.44393,765.29611 -44.56733,56.36457 18.35125,-3.93242 -57.67537,72.09422 26.21608,-22.28367 -60.29698,85.20225 81.26984,-99.62109 -10.48643,5.24321 66.851,-93.06707 z"
       id="path10792"
       inkscape:connector-curvature="0" />
    <path
       style="fill:url(#linearGradient10771);fill-opacity:1;fill-rule:evenodd;stroke:#000000;stroke-width:4;stroke-linecap:butt;stroke-linejoin:miter;stroke-miterlimit:4;stroke-dasharray:none;stroke-opacity:1"
       d="M 140.14026,763.72101 C -29.000672,815.65006 -30.013454,671.31189 17.144908,665.24702 c 9.086288,-56.41506 63.407113,-70.52828 74.797676,-60.94908 36.384106,-50.75917 58.262086,-46.2346 111.159526,-33.02228 57.84257,-55.46031 133.8459,-43.76081 157.3943,-4.60711 29.27169,-25.00522 73.58496,-23.2423 99.80079,30.49383 34.55018,-16.91936 55.12489,13.3534 61.71692,17.33122 124.91288,75.33238 -1.73691,156.05032 -48.19767,137.17799 -34.67294,19.99777 -33.74981,22.38711 -54.01112,16.29989 -53.00386,20.81133 -72.24555,0.87862 -96.14317,-5.17735 -28.704,39.87566 -92.94513,29.53248 -127.90921,7.41503 -18.56405,8.74213 -36.9916,12.65217 -55.61269,-6.48815 z"
       id="path10667"
       inkscape:connector-curvature="0"
       sodipodi:nodetypes="cccccccccccc" />
    <path
       style="fill:#6e7176;fill-opacity:1;fill-rule:evenodd;stroke:none;stroke-width:1px;stroke-linecap:butt;stroke-linejoin:miter;stroke-opacity:1"
       d="m 199.41067,589.77222 1.96622,-10.48643 C 138.68506,542.9063 90.371706,611.39184 90.613953,611.40049 87.573494,610.64567 148.04991,548.94496 199.41067,589.77222 Z"
       id="path10669"
       inkscape:connector-curvature="0"
       sodipodi:nodetypes="cccc" />
    <path
       style="fill:#6e7176;fill-opacity:1;fill-rule:evenodd;stroke:none;stroke-width:1px;stroke-linecap:butt;stroke-linejoin:miter;stroke-opacity:1"
       d="m 349.99148,586.36067 9.83104,-13.10804 c -68.08863,-82.29136 -154.38813,1.50364 -153.36405,5.24322 -2.43521,-4.53763 97.79472,-68.10281 143.53301,7.86482 z"
       id="path10669-0"
       inkscape:connector-curvature="0"
       sodipodi:nodetypes="cccc" />
    <path
       style="fill:#6e7176;fill-opacity:1;fill-rule:evenodd;stroke:none;stroke-width:1px;stroke-linecap:butt;stroke-linejoin:miter;stroke-opacity:1"
       d="m 453.184,615.12065 3.93242,-11.79724 C 416.0199,509.55265 350.03887,581.16183 350.9413,584.97216 c -2.10927,-4.79114 70.38119,-56.61221 102.2427,30.14849 z"
       id="path10669-0-5"
       inkscape:connector-curvature="0"
       sodipodi:nodetypes="cccc" />
    <path
       style="fill:#6e7176;fill-opacity:1;fill-rule:evenodd;stroke:none;stroke-width:1px;stroke-linecap:butt;stroke-linejoin:miter;stroke-opacity:1"
       d="m 556.74955,698.91493 9.95713,3.49626 C 585.13805,621.86878 464.23876,585.43496 452.6531,611.76343 c 2.08634,-9.72603 100.36974,-5.01998 104.09645,87.1515 z"
       id="path10669-0-5-6"
       inkscape:connector-curvature="0"
       sodipodi:nodetypes="cccc" />
    <path
       style="fill:#6e7176;fill-opacity:1;fill-rule:evenodd;stroke:none;stroke-width:1px;stroke-linecap:butt;stroke-linejoin:miter;stroke-opacity:1"
       d="m 195.79051,636.38383 7.20293,-20.44743 c -77.09346,-2.30341 -130.297957,63.28731 -114.966577,60.65402 -9.68127,10.764 54.442837,-62.23301 107.763647,-40.20659 z"
       id="path10669-0-5-6-4"
       inkscape:connector-curvature="0"
       sodipodi:nodetypes="cccc" />
    <path
       style="fill:#6e7176;fill-opacity:1;fill-rule:evenodd;stroke:none;stroke-width:1px;stroke-linecap:butt;stroke-linejoin:miter;stroke-opacity:1"
       d="m 289.76099,628.12995 -1.6425,-9.03025 c 112.35638,-55.85957 170.05115,58.40084 136.99167,77.90533 10.03156,-3.91953 -3.45944,-109.36511 -135.34917,-68.87508 z"
       id="path10669-0-5-6-2"
       inkscape:connector-curvature="0"
       sodipodi:nodetypes="cccc" />
  </g>
</svg>
